<?xml version="1.0" standalone="no"?>
<!DOCTYPE svg PUBLIC "-//W3C//DTD SVG 1.1//EN" "http://www.w3.org/Graphics/SVG/1.1/DTD/svg11.dtd" >
<svg>
<metadata>
Created by FontForge 20090914 at Wed Oct 21 08:51:40 2020
 By www-data
(c) COPYRIGHT H. BERTHOLD AG 1993 Alle Rechte vorbehalten.
</metadata>
<defs>
<font id="CheltenhamITCBQ-Book" horiz-adv-x="542" >
  <font-face 
    font-family="Cheltenham ITC BQ"
    font-weight="500"
    font-stretch="normal"
    units-per-em="1000"
    panose-1="0 0 0 0 0 0 0 0 0 0"
    ascent="800"
    descent="-200"
    x-height="475"
    cap-height="696"
    bbox="-193 -261 949 918"
    underline-thickness="50"
    underline-position="-75"
    stemh="39"
    stemv="93"
    unicode-range="U+0020-U+FB02"
  />
<missing-glyph horiz-adv-x="271" 
 />
    <glyph glyph-name=".notdef" horiz-adv-x="271" 
 />
    <glyph glyph-name="space" unicode=" " horiz-adv-x="271" 
 />
    <glyph glyph-name="exclam" unicode="!" horiz-adv-x="250" 
d="M86 69c6 27 32 48 61 48c32 0 58 -30 58 -62c0 -11 -3 -18 -5 -22c-5 -12 -20 -36 -54 -36c-25 0 -41 14 -47 19c-5 7 -18 27 -13 53zM163 197h-33c-3 48 -6 96 -10 145c-3 36 -6 72 -11 108c-9 83 -18 138 -18 173c0 45 13 66 31 77c3 1 13 7 24 6c4 0 15 -1 26 -8
c18 -13 30 -39 30 -88c0 -39 -10 -83 -20 -166c-9 -82 -14 -165 -19 -247z" />
    <glyph glyph-name="quotedbl" unicode="&#x22;" horiz-adv-x="396" 
d="M300 445h-19l-32 243c-1 3 -2 13 -1 23c5 34 36 38 46 38c5 0 14 -1 24 -7c21 -13 18 -35 18 -42zM113 445h-19l-33 243c0 3 -2 13 0 23c5 34 35 38 46 38c4 0 14 -1 23 -7c21 -13 18 -35 18 -42z" />
    <glyph glyph-name="numbersign" unicode="#" horiz-adv-x="667" 
d="M394 0h-62l38 259h-101l-38 -259h-58l36 259h-167v54h175l13 97h-167v57h174l32 241h63l-34 -241h100l31 241h60l-33 -241h168v-57h-175l-13 -97h168v-54h-175zM377 313l13 97h-100l-14 -97h101z" />
    <glyph glyph-name="dollar" unicode="$" horiz-adv-x="437" 
d="M194 26l-1 310c-55 27 -81 44 -101 64c-36 34 -57 85 -57 137c0 51 21 94 60 127c19 16 38 28 60 35c15 6 33 8 37 9v60h45l1 -57c3 0 39 -4 61 -12c43 -15 91 -52 91 -102c0 -42 -34 -51 -49 -51c-23 0 -43 19 -43 44c0 13 7 24 7 38c0 46 -68 47 -69 47l1 -258
c36 -18 73 -36 104 -61c67 -57 73 -120 73 -155c0 -78 -40 -153 -111 -188c-23 -11 -43 -16 -67 -21v-76h-41l-1 75c-42 5 -69 9 -104 31c-38 24 -76 66 -76 115c0 50 35 62 53 62c4 0 10 0 19 -4c18 -8 30 -28 30 -48c0 -3 -1 -13 -7 -24c-7 -12 -17 -21 -17 -35
c0 -6 2 -16 12 -28c22 -26 59 -30 90 -34zM195 438v112l-1 124c-23 -6 -31 -10 -41 -16c-31 -19 -55 -57 -54 -96c0 -14 3 -31 9 -44c18 -40 50 -59 87 -80zM236 315l1 -289c16 2 27 4 42 10c46 20 76 69 76 120c0 11 -1 32 -13 59c-22 50 -60 73 -106 100z" />
    <glyph glyph-name="percent" unicode="%" horiz-adv-x="792" 
d="M23 493c3 97 34 155 67 182c10 10 37 28 76 28c14 0 46 -2 75 -26c50 -40 67 -132 67 -194c0 -11 -2 -118 -49 -179c-23 -30 -58 -49 -97 -49c-28 1 -63 7 -97 59c-34 53 -43 115 -42 179zM93 507v-40c3 -73 9 -126 22 -151c10 -17 27 -31 47 -31c27 0 43 18 53 40
c12 26 17 52 20 110v110c-4 42 -9 130 -70 130c-21 0 -38 -14 -48 -32c-19 -34 -22 -97 -24 -136zM609 696h37l-469 -696h-40l250 373zM701 414c30 -28 63 -97 63 -196c-1 -106 -41 -176 -74 -204c-10 -8 -32 -23 -68 -23c-19 0 -61 6 -93 46c-37 47 -50 127 -50 185
c0 14 1 100 35 159c20 35 47 49 61 55c8 3 24 8 45 8c14 0 51 -3 81 -30zM550 271v-53c0 -43 0 -113 19 -156c15 -33 37 -41 52 -41c16 0 37 7 52 40c14 30 16 64 18 99v38c0 87 -2 145 -17 179c-15 32 -38 40 -52 40c-4 0 -12 0 -21 -4c-47 -20 -50 -98 -51 -142z" />
    <glyph glyph-name="ampersand" unicode="&#x26;" horiz-adv-x="729" 
d="M480 369h200c0 -17 -1 -22 -4 -29c-5 -14 -21 -16 -36 -22c-6 -3 -14 -7 -23 -17c-23 -23 -36 -60 -50 -89c-14 -28 -31 -54 -47 -80c13 -17 25 -33 39 -48c7 -7 47 -53 99 -53c22 0 38 11 56 23l18 -28c-5 -4 -11 -8 -16 -12c-17 -12 -46 -32 -97 -32c-11 0 -28 1 -52 7
c-48 13 -75 38 -111 69c-12 -10 -25 -21 -37 -30c-26 -20 -67 -44 -145 -44c-27 0 -99 2 -162 54c-23 19 -71 68 -70 151c0 7 1 29 7 51c24 87 105 124 179 158c-25 48 -46 90 -46 145c0 12 1 42 14 72c27 60 90 96 157 96c10 0 32 0 58 -10c56 -19 95 -64 95 -123
c0 -39 -16 -67 -23 -78c-34 -52 -94 -78 -147 -100c79 -135 103 -168 157 -236c5 8 11 16 15 25c12 22 29 62 29 87c0 16 -6 34 -19 42c-10 7 -25 9 -31 16c-6 6 -7 14 -7 35zM245 362c-3 -1 -37 -17 -55 -32c-21 -17 -52 -52 -52 -119c0 -37 9 -75 29 -105
c33 -48 85 -74 142 -74c8 0 22 0 42 5c36 9 55 24 81 48c-81 101 -83 107 -187 277zM321 433l24 12c15 8 94 48 94 125c-1 13 -2 27 -6 40c-16 56 -62 65 -84 65c-53 -1 -84 -40 -84 -92c1 -40 19 -79 56 -150z" />
    <glyph glyph-name="quotesingle" unicode="'" horiz-adv-x="208" 
d="M113 445h-19l-33 243c0 3 -2 13 0 23c5 34 35 38 46 38c4 0 14 -1 23 -7c21 -13 18 -35 18 -42z" />
    <glyph glyph-name="parenleft" unicode="(" horiz-adv-x="479" 
d="M475 837v-33c-6 -1 -39 -8 -64 -17c-30 -11 -80 -38 -121 -105c-35 -56 -83 -174 -83 -341c0 -106 21 -241 72 -333c10 -16 35 -59 79 -94c50 -40 91 -47 118 -51v-33c-26 3 -37 5 -48 8c-26 8 -113 44 -178 113c-90 97 -135 251 -135 381c0 119 37 214 55 254
c50 112 117 171 158 199c48 32 91 41 147 52z" />
    <glyph glyph-name="parenright" unicode=")" horiz-adv-x="479" 
d="M-1 -171v33c47 4 64 11 85 22c110 55 154 205 160 227c21 73 23 140 26 217c-1 27 -2 53 -4 80c-3 43 -11 163 -82 271c-23 35 -53 68 -88 90c-41 25 -79 30 -96 33v34c43 -8 113 -20 191 -87c117 -101 170 -259 170 -413c0 -205 -90 -335 -143 -393
c-38 -42 -83 -76 -134 -97c-30 -12 -52 -15 -85 -17z" />
    <glyph glyph-name="asterisk" unicode="*" horiz-adv-x="375" 
d="M165 628c1 -12 1 -22 10 -28c1 -1 5 -4 9 -4c3 0 5 1 10 4c11 7 11 19 11 32c0 6 -5 47 18 65c3 2 14 9 28 9c23 0 42 -20 42 -44c0 -4 -1 -14 -7 -23c-12 -18 -28 -22 -45 -32c-2 -1 -21 -14 -21 -27c0 -7 9 -13 18 -13c7 0 16 3 31 11c15 7 29 15 43 15
c22 0 45 -19 45 -42c0 -10 -9 -42 -42 -42c-8 0 -20 3 -37 13c-11 6 -26 16 -39 16c-8 0 -16 -5 -16 -12c0 -3 1 -6 3 -9c7 -12 18 -17 29 -24c13 -8 16 -11 21 -16c10 -10 15 -22 15 -36c0 -35 -37 -40 -45 -40c-44 0 -43 54 -44 59c0 26 2 38 -8 46c-5 3 -9 4 -13 4
c-7 0 -10 -5 -12 -8c-9 -17 -3 -46 -9 -68c-2 -10 -11 -34 -42 -34c-26 0 -44 19 -44 43c0 8 2 17 6 23c11 21 34 25 54 38c3 2 15 10 15 22c0 7 -9 11 -18 11c-25 0 -49 -25 -74 -24c-23 0 -45 19 -45 42c0 25 21 41 43 41c13 0 25 -5 50 -19c1 0 17 -10 27 -10
c8 0 16 7 16 15c0 13 -14 24 -27 31c-1 0 -24 9 -32 18c-3 4 -12 16 -12 33c0 4 1 12 6 21c8 13 25 20 40 20c52 0 43 -73 42 -77z" />
    <glyph glyph-name="plus" unicode="+" horiz-adv-x="667" 
d="M364 0h-60v261h-262v60h262v260h60v-260h261v-60h-261v-261z" />
    <glyph glyph-name="comma" unicode="," horiz-adv-x="208" 
d="M75 -162l-35 31c53 59 61 78 67 120c-27 4 -48 8 -61 32c-8 14 -9 25 -9 32c0 34 30 60 63 60c48 0 73 -44 73 -89c0 -73 -53 -134 -98 -186z" />
    <glyph glyph-name="hyphen" unicode="-" horiz-adv-x="292" 
d="M30 277h233v-78h-233v78z" />
    <glyph glyph-name="period" unicode="." horiz-adv-x="208" 
d="M44 69c7 28 37 48 65 48c33 0 59 -28 59 -62c0 -36 -30 -62 -63 -62c-38 0 -71 36 -61 76z" />
    <glyph glyph-name="slash" unicode="/" horiz-adv-x="500" 
d="M441 769h52l-119 -226l-117 -225l-202 -387h-55l129 244l172 330z" />
    <glyph glyph-name="zero" unicode="0" horiz-adv-x="500" 
d="M30 341c-1 35 0 119 32 212c9 27 23 57 39 80c17 25 63 82 151 82c97 -1 144 -72 159 -98c27 -45 56 -130 56 -259c0 -137 -28 -220 -58 -272c-23 -39 -54 -70 -96 -86c-10 -4 -32 -11 -61 -11c-27 0 -45 6 -55 10c-49 18 -84 54 -108 98c-22 40 -57 125 -59 244z
M242 681c-20 -2 -37 -11 -51 -24c-16 -16 -26 -32 -37 -77c-11 -42 -20 -108 -20 -211c0 -119 5 -174 18 -232c10 -40 19 -78 55 -102c18 -12 37 -14 44 -14c24 0 47 13 64 31c14 16 21 30 31 67c19 79 20 164 20 242c0 36 0 88 -11 170c-9 63 -19 94 -37 118
c-26 34 -61 34 -76 32z" />
    <glyph glyph-name="one" unicode="1" horiz-adv-x="500" 
d="M104 615v28l145 61h48v-614c4 -30 13 -38 43 -44c32 -6 35 -11 34 -47h-250c-2 40 4 40 39 47c4 1 24 4 35 16c6 7 8 13 10 32v521h-104z" />
    <glyph glyph-name="two" unicode="2" horiz-adv-x="500" 
d="M94 83h214c39 2 65 6 81 45c7 16 9 23 42 22l-4 -150h-392v62c20 29 39 57 60 83c14 18 29 34 43 51c20 23 38 47 57 70c63 77 141 162 141 270c0 9 0 28 -8 52c-15 48 -58 91 -108 91c-12 0 -21 -2 -26 -4c-21 -5 -45 -16 -59 -35c-10 -14 -11 -22 -11 -29
c0 -18 15 -28 25 -44c3 -4 8 -12 8 -24c-1 -11 -4 -18 -6 -21c-12 -23 -36 -26 -45 -26c-8 0 -16 2 -23 6c-13 6 -36 26 -36 64c0 54 52 146 188 146c25 0 89 -1 142 -47c21 -19 62 -64 62 -140c0 -11 0 -28 -7 -53c-14 -53 -38 -79 -74 -118c-18 -19 -36 -38 -55 -56
c-27 -24 -56 -46 -83 -71c-53 -49 -83 -88 -126 -144z" />
    <glyph glyph-name="three" unicode="3" horiz-adv-x="500" 
d="M195 362h-31v38c16 0 74 -4 114 36c20 20 28 42 30 51c5 16 6 23 8 52c-1 14 -1 52 -23 86c-10 15 -39 53 -88 53c-35 0 -56 -14 -65 -26c-5 -6 -8 -12 -8 -19c1 -19 18 -40 18 -60c0 -26 -24 -44 -51 -44c-36 0 -55 29 -55 63c0 32 17 55 24 63c48 58 131 59 152 59
c14 0 44 -1 78 -13c66 -25 114 -86 114 -158c0 -64 -41 -117 -99 -142c-22 -10 -48 -14 -70 -18c30 -6 62 -13 90 -25c33 -15 102 -57 102 -159c0 -43 -14 -77 -21 -90c-36 -78 -119 -121 -205 -120c-81 0 -129 36 -150 59c-24 27 -29 50 -29 65c0 6 0 16 6 29
c12 29 40 34 51 34c27 0 51 -23 51 -51c0 -7 0 -11 -6 -23c-5 -9 -11 -20 -11 -29c0 -20 27 -51 79 -51c17 0 61 4 94 38c43 45 46 120 46 135c0 42 -13 84 -41 118c-16 21 -30 29 -40 34c-23 12 -59 15 -64 15z" />
    <glyph glyph-name="four" unicode="4" horiz-adv-x="500" 
d="M383 237h85v-38h-86v-110c3 -38 11 -40 31 -47c23 -9 24 -15 23 -41h-204c1 30 7 33 20 37c12 4 23 7 31 16c9 11 9 33 9 36v109h-273v43l303 464h61v-469zM297 237v348l-121 -184l-105 -164h226z" />
    <glyph glyph-name="five" unicode="5" horiz-adv-x="500" 
d="M100 341l-26 15l8 344h246c33 2 39 7 49 22c8 11 12 15 38 15l-5 -126h-283l-7 -212c22 17 55 47 125 47c82 0 134 -44 153 -64c19 -21 55 -74 55 -156c0 -16 -2 -59 -20 -101c-22 -51 -84 -136 -222 -136c-120 0 -170 76 -170 128c0 32 21 62 56 63c12 -1 20 -4 24 -6
c25 -13 29 -37 29 -46c0 -7 -2 -16 -10 -30c-9 -13 -12 -18 -12 -26c0 -11 8 -21 11 -24c10 -13 30 -29 66 -29c5 0 20 1 35 5c16 4 47 13 74 49c20 25 39 64 39 135c0 16 3 123 -71 170c-29 18 -57 20 -69 20c-47 0 -77 -26 -113 -57z" />
    <glyph glyph-name="six" unicode="6" horiz-adv-x="500" 
d="M149 378c18 14 65 56 136 56c17 0 49 -1 85 -20c94 -49 99 -160 99 -191c0 -15 0 -42 -11 -78c-11 -37 -56 -155 -187 -155c-26 0 -89 5 -140 60c-65 68 -84 174 -84 265c0 38 2 174 77 280c67 97 153 119 201 119c16 0 75 -3 106 -46c10 -13 16 -31 16 -50
c0 -47 -40 -55 -56 -55c-3 0 -14 1 -23 6c-22 10 -26 31 -26 40c0 10 4 19 4 29c-1 15 -7 38 -44 38c-16 0 -41 -5 -68 -29c-69 -61 -79 -186 -85 -269zM145 321c0 -17 -2 -92 8 -156c6 -41 13 -65 21 -81c17 -35 51 -61 90 -61c52 0 75 36 83 51c23 40 26 90 29 138
c-3 43 -6 106 -32 141c-8 11 -20 20 -32 26c-9 3 -28 11 -52 11c-14 0 -52 -3 -85 -33c-13 -12 -19 -21 -30 -36z" />
    <glyph glyph-name="seven" unicode="7" horiz-adv-x="500" 
d="M143 699h301v-67c-13 -27 -27 -53 -42 -80c-13 -23 -27 -46 -39 -70c-34 -66 -74 -170 -84 -244c-4 -32 -4 -70 -4 -102v-59s1 -25 -1 -39c-3 -11 -13 -46 -53 -46c-42 0 -57 42 -57 80c0 7 1 23 3 42c8 65 28 117 53 178c56 140 72 164 116 242l42 79h-175
c-49 0 -68 -1 -85 -20c-7 -8 -10 -15 -16 -24c-9 -13 -16 -17 -45 -15l9 158c35 -11 42 -12 77 -13z" />
    <glyph glyph-name="eight" unicode="8" horiz-adv-x="500" 
d="M183 356c-24 13 -36 21 -46 29c-65 51 -76 120 -76 149c0 13 2 41 18 74c34 68 103 104 181 104c22 0 39 -3 47 -4c23 -5 83 -21 115 -79c17 -32 19 -64 19 -77c0 -33 -11 -57 -16 -68c-19 -38 -44 -52 -110 -93c30 -15 61 -31 86 -51c20 -17 69 -66 69 -144
c0 -66 -34 -114 -49 -131c-23 -27 -82 -76 -182 -76c-31 0 -129 6 -183 92c-18 28 -28 60 -28 94c0 14 2 45 23 78c31 47 84 77 132 103zM219 333c-7 -5 -43 -26 -67 -50c-31 -31 -49 -73 -49 -118c0 -27 7 -46 10 -56c22 -56 68 -87 130 -87c25 0 42 6 51 9
c27 8 94 39 94 125c0 12 -1 37 -16 64c-28 53 -101 88 -153 113zM231 437l44 -28c4 3 31 19 48 35c16 15 41 48 41 109c0 105 -77 125 -114 125c-11 0 -32 -1 -55 -13c-34 -19 -55 -58 -55 -97c0 -9 1 -26 10 -47c16 -40 46 -61 81 -84z" />
    <glyph glyph-name="nine" unicode="9" horiz-adv-x="500" 
d="M358 338c-21 -18 -67 -62 -145 -62c-15 0 -43 2 -76 19c-72 36 -109 113 -109 193c0 75 33 126 49 147c19 25 71 77 161 77c104 0 158 -77 174 -107c35 -62 44 -159 44 -230c0 -35 2 -169 -66 -275c-22 -34 -43 -53 -56 -63c-29 -24 -55 -33 -69 -38
c-12 -4 -35 -10 -66 -10c-41 0 -91 15 -117 48c-11 13 -20 34 -20 52c0 28 22 54 53 54c6 0 17 -1 27 -8c19 -11 22 -30 22 -38c0 -11 -6 -23 -6 -35c0 -30 28 -44 55 -44c47 0 79 38 101 78c40 75 42 158 44 242zM358 384c0 16 0 112 -16 181c-13 54 -29 76 -52 94
c-25 19 -47 22 -60 22c-25 -1 -47 -10 -64 -29c-38 -42 -41 -102 -43 -159c2 -64 8 -91 25 -120c6 -10 14 -20 22 -28c19 -18 41 -26 67 -26c53 0 85 31 121 65z" />
    <glyph glyph-name="colon" unicode=":" horiz-adv-x="250" 
d="M84 423c7 28 35 48 64 48c32 0 59 -29 59 -63c0 -35 -27 -61 -61 -61c-11 0 -22 3 -31 7c-35 19 -34 56 -31 69zM84 67c5 30 32 52 63 52c32 0 60 -31 61 -64c0 -5 -1 -13 -6 -24c-15 -32 -44 -36 -56 -36c-14 0 -28 5 -39 13c-18 13 -27 37 -23 59z" />
    <glyph glyph-name="semicolon" unicode=";" horiz-adv-x="250" 
d="M115 -161l-34 33c46 45 54 59 69 119c-28 2 -49 5 -63 29c-8 14 -9 27 -9 32c0 17 12 61 63 61c18 0 30 -6 35 -9c15 -9 38 -34 38 -79c0 -71 -54 -135 -99 -186zM84 417c4 30 31 55 62 55c32 -1 61 -32 62 -65c-1 -9 -4 -18 -4 -20c-5 -12 -22 -41 -59 -41
c-38 0 -67 32 -61 71z" />
    <glyph glyph-name="less" unicode="&#x3c;" horiz-adv-x="667" 
d="M667 -3l-667 322v70l667 320v-64l-600 -291l600 -293v-64z" />
    <glyph glyph-name="equal" unicode="=" horiz-adv-x="667" 
d="M667 173h-667v58h667v-58zM667 349h-667v59h667v-59z" />
    <glyph glyph-name="greater" unicode="&#x3e;" horiz-adv-x="667" 
d="M0 -3v64l600 293l-600 291v64l667 -320v-70z" />
    <glyph glyph-name="question" unicode="?" horiz-adv-x="437" 
d="M225 197h-37c0 57 0 100 27 147c12 20 26 40 38 59c30 46 44 83 49 104c2 6 5 22 5 40c0 25 -6 45 -9 53c-15 43 -53 80 -101 80c-4 0 -17 -1 -29 -5c-24 -10 -32 -28 -32 -35c0 -13 16 -20 26 -32c9 -10 10 -23 10 -27v-5c-4 -28 -30 -43 -57 -43c-19 0 -56 9 -56 62
c0 9 2 28 13 49c17 27 60 71 148 71c66 0 131 -27 166 -80c15 -24 24 -53 24 -82c0 -34 -10 -78 -65 -131c-12 -12 -25 -22 -38 -33c-30 -25 -50 -44 -66 -81c-12 -29 -16 -52 -16 -111zM150 69c5 29 28 49 57 49c34 0 60 -28 60 -60c0 -34 -26 -61 -59 -61
c-39 0 -65 36 -58 72z" />
    <glyph glyph-name="at" unicode="@" horiz-adv-x="896" 
d="M595 441l14 56h59l-30 -136c-4 -21 -9 -41 -13 -62c-5 -20 -9 -40 -13 -61c0 0 -12 -53 -12 -83c0 -5 -1 -42 32 -42c25 0 57 21 90 67c20 30 62 103 62 203c0 33 -4 112 -61 186c-29 36 -96 104 -220 104c-100 0 -190 -45 -254 -121c-70 -81 -111 -207 -111 -314
c0 -46 7 -188 136 -269c38 -24 98 -53 200 -53c45 0 146 5 247 73c19 12 43 30 78 66l25 -30c-54 -56 -162 -149 -358 -149c-53 0 -254 6 -351 179c-18 32 -46 95 -46 186c0 54 12 177 101 296c38 50 148 175 335 175c22 0 77 -1 134 -26c122 -53 187 -173 187 -302
c0 -94 -35 -198 -104 -265c-28 -27 -67 -50 -108 -50c-55 0 -72 41 -76 61c-3 12 -2 25 -1 37c-5 -9 -10 -17 -16 -25c-42 -58 -96 -71 -124 -71c-10 0 -32 1 -55 14c-36 20 -75 66 -74 156c0 88 38 179 104 236c46 39 89 47 114 47c58 0 87 -36 97 -54c6 -10 9 -18 12 -29z
M572 406c-3 43 -28 83 -77 83c-48 -1 -79 -39 -100 -76c-13 -23 -55 -106 -55 -196c0 -50 12 -73 33 -88c17 -12 33 -13 41 -13c16 0 32 5 45 13c19 11 44 31 66 77c24 47 52 145 47 200z" />
    <glyph glyph-name="A" unicode="A" horiz-adv-x="667" 
d="M665 -2h-88l-125 1c0 19 0 30 14 36c6 3 29 8 29 29c0 7 -2 11 -3 19l-45 115h-271l-41 -109c-1 -1 -3 -12 -3 -19c0 -8 3 -21 23 -29c9 -3 16 -5 20 -10c7 -8 6 -20 5 -32h-176c0 17 0 24 3 30c6 12 25 14 39 22c12 6 19 18 26 29l84 194l137 326l-18 48
c-2 5 -4 11 -4 16c0 6 4 10 7 15l72 42l97 -250l81 -220c13 -34 25 -67 38 -99c11 -25 23 -50 35 -75c9 -14 17 -26 32 -34c3 -1 16 -6 23 -12c6 -6 8 -13 9 -33zM318 545l-128 -305h242l-58 159z" />
    <glyph glyph-name="B" unicode="B" horiz-adv-x="604" 
d="M306 0h-267c-1 28 3 32 17 37c18 7 27 5 34 36v536c-1 23 -3 32 -11 38c-6 5 -20 9 -20 10c-16 5 -22 8 -20 39h284l45 -3c52 -6 100 -19 133 -62c27 -34 30 -73 30 -89c0 -13 -1 -37 -16 -68c-32 -71 -97 -89 -167 -105c35 -3 69 -7 101 -17c18 -6 64 -22 96 -70
c8 -13 27 -47 27 -91c0 -28 -10 -90 -71 -140c-57 -46 -123 -50 -195 -51zM286 346h-101v-305h109c2 0 43 3 66 8c40 10 70 29 89 64c7 14 19 42 19 84c0 15 -1 53 -25 87c-38 53 -95 57 -157 62zM293 658h-109v-270h91c58 5 81 11 104 28c22 16 52 49 52 115
c0 55 -22 81 -40 95c-40 31 -83 31 -98 32z" />
    <glyph glyph-name="C" unicode="C" horiz-adv-x="604" 
d="M542 695h35v-191c-20 0 -30 -1 -40 4c-12 7 -13 16 -17 28c-3 7 -6 13 -8 20c-12 32 -20 57 -53 88c-7 6 -13 11 -20 16c-14 10 -47 24 -86 24c-12 0 -42 -1 -76 -17c-73 -35 -97 -110 -103 -125c-13 -39 -26 -90 -26 -176c0 -13 -3 -146 56 -234c5 -7 16 -25 42 -47
c55 -48 117 -50 133 -50c19 0 84 3 146 61c14 13 26 27 46 53l34 -27c-5 -8 -8 -11 -15 -20c-3 -5 -7 -10 -11 -15c-4 -4 -27 -31 -50 -48c-35 -27 -95 -56 -181 -56c-19 0 -49 1 -93 15c-34 11 -110 38 -168 142c-23 43 -50 108 -50 207c0 112 29 180 59 229
c7 11 26 44 63 77c79 69 167 72 191 72c47 0 93 -13 141 -39c0 0 18 -12 29 -12c9 0 11 7 22 21z" />
    <glyph glyph-name="D" unicode="D" horiz-adv-x="688" 
d="M266 -1h-226c0 15 0 20 3 25c6 13 29 15 38 26c5 6 6 12 8 29v531c-3 30 -8 34 -23 41c-24 13 -27 15 -27 45h246c16 -1 32 -1 48 -2c30 -2 110 -5 182 -56c50 -35 132 -121 132 -276c0 -70 -21 -162 -60 -223c-8 -14 -25 -38 -55 -64c-11 -8 -35 -27 -68 -42
c-66 -30 -127 -33 -198 -34zM291 655h-106v-618h98c16 1 32 1 48 3c26 3 89 10 139 66c72 82 72 222 72 243c0 39 -3 73 -12 110c-7 29 -32 128 -122 171c-29 14 -54 20 -117 25z" />
    <glyph glyph-name="E" unicode="E" horiz-adv-x="583" 
d="M186 387h88c14 1 25 2 30 2c34 6 42 28 48 43c7 17 10 22 45 21l-1 -179c-32 -2 -40 2 -46 17c-3 7 -6 26 -21 40c-13 11 -26 14 -61 15h-83v-302h162l41 3c58 7 78 23 94 46c8 12 15 25 21 52c3 10 4 18 11 26c10 11 22 11 38 10v-180h-513c0 3 -2 17 2 25
c5 11 21 13 32 19c10 6 13 12 16 34v539c-1 1 -3 14 -5 21c-7 14 -19 15 -33 23c-10 6 -13 11 -11 35h416c32 3 36 3 65 12v-166c-3 0 -17 -1 -26 1c-20 5 -26 26 -34 46c-3 6 -13 31 -30 45c-20 18 -52 20 -85 21h-160v-269z" />
    <glyph glyph-name="F" unicode="F" horiz-adv-x="521" 
d="M186 381h92c6 1 39 2 58 18c11 10 13 17 19 32c8 21 13 23 50 22v-188c-40 0 -43 7 -51 27c-5 12 -10 23 -18 31c-14 12 -33 13 -53 14h-97v-248c4 -41 12 -42 34 -50c24 -8 26 -13 25 -39h-207c0 3 -1 15 2 23c4 11 18 13 30 19c11 6 15 11 19 35v538
c-7 40 -19 33 -38 45c-10 5 -13 12 -13 37h391c39 1 53 2 88 15v-176c-10 -1 -19 -2 -28 0c-29 5 -32 36 -34 42c-2 8 -9 38 -30 56c-19 17 -46 18 -99 19h-140v-272z" />
    <glyph glyph-name="G" unicode="G" horiz-adv-x="688" 
d="M550 682h38v-186h-24c-1 0 -11 2 -16 5c-15 9 -17 32 -23 49c0 2 -5 13 -9 22c-13 27 -59 103 -157 103c-42 0 -114 -14 -164 -103c-25 -44 -43 -106 -43 -219c0 -141 28 -209 71 -260c22 -26 67 -69 155 -69c11 0 62 1 96 22c9 6 17 13 23 22c26 35 26 78 26 121
c0 29 1 56 -15 79c-9 12 -20 18 -35 24c-21 9 -22 17 -23 42h180c-16 -27 -21 -34 -20 -89v-139c3 -18 5 -21 20 -31l-1 -26c-13 -8 -27 -16 -41 -23c-28 -12 -111 -42 -206 -42c-61 0 -105 12 -127 20c-87 29 -215 110 -215 332c0 22 1 92 22 158c19 59 91 220 287 220
c20 0 77 0 128 -29c26 -15 36 -21 52 -21c13 0 16 6 21 18z" />
    <glyph glyph-name="H" unicode="H" horiz-adv-x="708" 
d="M89 70v547c-4 21 -5 29 -25 38c-28 11 -31 12 -28 42h202c0 -2 2 -16 0 -23c-4 -16 -20 -16 -35 -23c-10 -5 -14 -11 -18 -36v-227h336v226c-5 36 -13 36 -31 43c-22 8 -23 15 -22 41h204c1 -9 2 -17 -1 -24c-4 -15 -22 -13 -37 -21c-11 -5 -14 -12 -17 -35v-534
c1 -33 8 -38 24 -44c27 -9 31 -11 29 -41h-202c0 23 1 31 20 38c20 8 28 7 34 41v263h-337v-269c4 -23 8 -29 29 -36s23 -10 21 -34h-199c-1 23 2 27 23 33c17 5 24 7 30 35z" />
    <glyph glyph-name="I" unicode="I" horiz-adv-x="271" 
d="M233 -1h-194c0 23 2 28 21 37c17 7 23 8 29 39v538c-6 35 -14 34 -32 42c-15 6 -20 9 -19 41l198 -1c1 -24 -2 -30 -10 -35c-10 -6 -25 -7 -32 -16c-7 -8 -8 -24 -9 -27v-541c3 -20 6 -28 12 -33c5 -3 8 -4 19 -9c18 -7 19 -14 17 -35z" />
    <glyph glyph-name="J" unicode="J" horiz-adv-x="396" 
d="M314 610v-412c1 -54 2 -98 -30 -142c-19 -28 -59 -64 -142 -64c0 0 -136 -3 -136 87c1 47 42 58 57 58c24 0 49 -20 49 -44c0 -11 -6 -22 -6 -34c0 -30 40 -32 45 -32c12 0 32 4 50 28s18 49 18 78v467c0 6 4 33 -12 47c-8 6 -18 9 -22 10c-16 5 -22 7 -21 41h199
c0 -3 1 -18 -2 -26c-8 -16 -28 -15 -39 -27c-7 -8 -7 -22 -8 -35z" />
    <glyph glyph-name="K" unicode="K" horiz-adv-x="646" 
d="M640 -1h-233c0 12 0 24 9 31c12 10 34 11 34 28c0 9 -8 19 -9 21l-56 69l-74 82l-128 143v-301c7 -25 10 -26 34 -36c14 -5 19 -8 17 -37h-194c2 34 11 32 27 42c1 0 9 5 13 10c8 9 9 23 9 38v523c-3 32 -9 35 -25 42c-22 10 -24 15 -23 42l196 -1c1 -24 0 -33 -20 -40
c-20 -8 -29 -6 -33 -46v-216l103 97c31 29 63 57 92 87c12 12 24 25 36 39c8 10 9 14 9 21c0 17 -27 15 -38 28c-6 6 -7 13 -7 31h223c0 -12 1 -21 -3 -30c-5 -15 -22 -15 -40 -20c-10 -2 -20 -6 -29 -10c-26 -15 -37 -23 -76 -60l-70 -65l-106 -95l224 -265
c17 -22 34 -43 52 -63c27 -29 39 -40 58 -48c24 -10 26 -14 28 -41z" />
    <glyph glyph-name="L" unicode="L" 
d="M189 44h144c25 2 46 2 69 8c13 4 46 14 64 53c9 19 9 43 21 58c6 8 10 9 20 10h19v-173h-488c0 3 -1 18 3 27c7 14 29 16 39 27c7 8 8 22 9 35v523c-2 19 -3 33 -23 41c-12 4 -16 4 -20 9s-6 14 -8 21v17h206v-21c-6 -25 -14 -22 -29 -26c-7 -3 -12 -6 -17 -11
c-7 -7 -8 -17 -9 -28v-570z" />
    <glyph glyph-name="M" unicode="M" horiz-adv-x="812" 
d="M600 699h130l46 -1c1 -15 0 -21 -2 -27c-5 -12 -22 -13 -35 -19c-11 -5 -15 -11 -18 -33v-541c1 -6 3 -16 5 -22c7 -13 21 -13 35 -20c12 -6 15 -11 14 -37h-207c0 30 5 34 19 38c12 4 20 6 28 15c11 13 12 30 12 65v521l-217 -639h-53c-13 39 -25 79 -39 117l-40 109
l-67 199l-78 218v-535c7 -48 17 -53 40 -64s24 -17 22 -43h-168c-2 28 0 35 23 46c23 10 32 12 34 57v514c-1 4 -1 20 -8 28c-9 11 -32 11 -41 21c-5 6 -4 16 -4 33l186 -1l117 -340l75 -234l47 148l61 179z" />
    <glyph glyph-name="N" unicode="N" horiz-adv-x="667" 
d="M34 694h51l118 -1l85 -135l103 -162l65 -113l48 -83l38 -76l-6 191v283c0 5 0 31 -14 45c-7 8 -18 13 -22 14c-17 9 -17 17 -16 38h55l104 -1s1 -15 -1 -21c-3 -13 -14 -15 -24 -21c-23 -14 -26 -32 -29 -57v-598h-65l-63 104l-101 162l-117 192l-104 166v-504
c2 -34 5 -61 40 -75c18 -7 25 -7 22 -43h-170c-2 28 0 34 24 46c21 11 29 13 33 54v503c-2 37 -7 42 -28 48c-22 7 -27 7 -26 44z" />
    <glyph glyph-name="O" unicode="O" horiz-adv-x="729" 
d="M37 353c-3 142 56 226 96 268c14 16 54 54 111 76c19 7 60 19 114 19c38 0 111 -5 189 -61c26 -18 44 -36 52 -45c19 -21 34 -47 47 -72c32 -61 43 -106 43 -174c0 -111 -28 -169 -50 -210c-4 -7 -19 -35 -37 -57c-16 -20 -32 -33 -51 -48c-30 -23 -86 -64 -187 -64
c-49 0 -159 11 -240 112c-34 41 -85 124 -87 256zM575 349c0 34 5 127 -43 221c-16 33 -32 51 -43 61c-8 9 -25 24 -53 35c-22 10 -48 15 -72 15c-12 0 -31 -1 -58 -8c-24 -7 -61 -17 -96 -64c-52 -70 -56 -161 -60 -248c2 -69 5 -152 31 -217c45 -111 138 -124 181 -124
c24 0 77 3 125 47c15 13 28 28 38 45c17 28 28 60 35 92c3 13 13 55 15 97c1 16 1 32 0 48z" />
    <glyph glyph-name="P" unicode="P" 
d="M282 329h-95v-253c5 -24 8 -31 31 -38c24 -8 26 -12 25 -38h-205c0 9 0 15 2 21c4 12 15 13 27 18s17 9 21 33v547c-7 30 -14 30 -30 36c-15 6 -22 9 -20 41h277c53 -1 97 -4 143 -33c29 -18 78 -59 78 -142c0 -90 -45 -132 -77 -152c-27 -17 -51 -24 -63 -27
c-37 -10 -74 -11 -114 -13zM292 653h-105v-287h95c53 5 97 11 128 58c17 25 23 53 23 83c0 22 -4 106 -79 136c-21 8 -39 9 -62 10z" />
    <glyph glyph-name="Q" unicode="Q" horiz-adv-x="729" 
d="M383 -6c37 -15 74 -31 110 -51c37 -20 76 -45 118 -45c15 0 26 3 52 16c5 -3 7 -4 9 -12c1 -1 4 -6 3 -11c0 -2 -1 -6 -4 -12c-38 -27 -68 -45 -117 -45c-58 0 -101 30 -117 41c-37 27 -68 62 -78 73c-42 44 -53 37 -106 60c-97 43 -140 101 -162 138
c-36 63 -55 147 -55 219c0 42 4 138 77 229c31 39 112 122 253 122c194 0 322 -166 322 -352c0 -42 -8 -168 -93 -267c-37 -43 -75 -65 -96 -75c-39 -19 -74 -23 -116 -28zM237 634c-92 -86 -87 -226 -87 -259c0 -23 0 -81 11 -144c3 -19 19 -131 99 -181
c18 -11 38 -17 58 -21c21 -5 38 -5 47 -5c61 0 119 29 153 79c58 85 55 251 55 261c0 81 -13 126 -26 162c-11 35 -20 53 -29 67c-18 30 -63 86 -156 86c-13 0 -55 -1 -90 -19c-8 -4 -20 -11 -35 -26z" />
    <glyph glyph-name="R" unicode="R" horiz-adv-x="625" 
d="M620 1h-141l-66 119c-17 28 -34 55 -49 84c-37 66 -62 107 -90 124c-11 6 -21 9 -47 13h-46v-255c1 -2 2 -13 4 -19c5 -16 12 -19 28 -24c26 -9 28 -15 27 -43h-212c0 2 -1 21 3 29c6 12 25 13 38 19c11 5 15 12 19 36v525c-2 24 -4 33 -26 41c-24 8 -32 8 -30 50h276
c14 -1 29 -1 43 -2c18 -1 119 -3 165 -75c5 -8 13 -22 19 -45c5 -22 6 -43 6 -51c0 -43 -17 -93 -54 -123c-38 -32 -92 -40 -139 -47c22 -10 33 -17 41 -23c22 -18 37 -42 65 -94l21 -37l61 -104c23 -39 36 -48 58 -55c20 -7 27 -6 26 -43zM284 655h-104v-274h103
c11 1 23 2 35 3c20 3 70 11 100 59c20 32 21 64 21 79c0 12 -1 41 -16 68c-29 56 -82 62 -139 65z" />
    <glyph glyph-name="S" unicode="S" horiz-adv-x="521" 
d="M398 693h33v-161c-3 0 -35 -4 -49 13c-5 7 -8 19 -8 20c-2 5 -4 9 -5 14c-10 23 -24 48 -42 64c-12 11 -37 26 -81 26c-7 0 -29 -1 -50 -9c-58 -21 -70 -71 -70 -94c0 -19 6 -36 16 -53c27 -43 67 -54 112 -72c66 -25 99 -38 126 -54c90 -54 103 -140 103 -178
c0 -8 -1 -25 -6 -45c-10 -41 -36 -90 -66 -120c-55 -53 -135 -55 -157 -55c-12 0 -52 2 -88 12c-16 5 -42 16 -58 16c-14 0 -20 -7 -28 -18h-44v181h25c6 -1 10 -2 12 -3c14 -8 21 -36 27 -50c4 -11 15 -32 37 -54c32 -33 65 -43 111 -43c18 0 68 0 110 33
c14 11 50 48 51 104c-1 30 -13 54 -18 63c-28 49 -78 66 -130 86c-55 21 -121 45 -162 88c-30 33 -46 78 -46 124c0 37 9 61 15 74c30 67 96 106 172 106c51 0 89 -17 104 -25c11 -6 18 -11 31 -11c15 0 18 7 23 21z" />
    <glyph glyph-name="T" unicode="T" horiz-adv-x="562" 
d="M60 697h429c32 1 39 3 67 10v-166c-4 0 -21 -1 -31 3c-14 6 -12 17 -21 44c-2 7 -10 31 -28 47c-22 20 -54 22 -87 24h-60v-562c3 -43 12 -45 34 -53c26 -9 29 -15 27 -44h-222c-1 28 0 35 26 43c24 8 34 8 38 53v562h-77c-26 -3 -38 -6 -50 -11c-25 -11 -38 -25 -51 -74
c-3 -9 -4 -20 -10 -26c-10 -11 -37 -8 -41 -7v170c27 -9 29 -10 57 -13z" />
    <glyph glyph-name="U" unicode="U" horiz-adv-x="646" 
d="M630 700v-18c-8 -23 -13 -22 -27 -29c-24 -12 -26 -32 -27 -58v-320c0 -14 0 -28 -1 -42c-2 -58 -12 -106 -46 -154c-16 -21 -35 -40 -57 -54c-25 -15 -73 -36 -146 -36c-39 0 -92 7 -127 21c-26 10 -83 41 -110 113c-13 37 -14 71 -15 111v386c-2 24 -6 32 -29 39
c-12 4 -17 5 -21 26v15h197v-16c-4 -17 -7 -20 -25 -26c-25 -8 -27 -20 -27 -47v-412c0 -3 0 -31 5 -51c11 -52 37 -71 56 -84c33 -21 62 -30 103 -30c22 0 85 2 134 50c7 7 21 22 32 47c12 26 17 52 21 114v355c-5 40 -12 49 -33 56c-13 5 -17 6 -21 27v17h164z" />
    <glyph glyph-name="V" unicode="V" horiz-adv-x="625" 
d="M557 699l84 -1c1 -3 2 -16 -1 -25c-4 -15 -16 -15 -31 -23c-28 -15 -40 -46 -49 -75l-164 -435l-5 -13l-51 -134l-47 1l-75 199l-63 168l-55 141l-44 115c-7 16 -13 24 -19 29c-5 4 -14 8 -20 11c-14 7 -19 11 -16 42h94l113 -1c1 -28 -3 -33 -15 -38
c-5 -3 -29 -7 -29 -30c0 -9 7 -25 16 -48c11 -33 23 -66 35 -98l69 -198l13 -37l45 -124l39 107l13 36l30 80l39 112l36 95c11 30 19 53 19 68c0 20 -13 27 -19 30c-8 4 -17 6 -21 12c-5 6 -6 13 -4 34h83z" />
    <glyph glyph-name="W" unicode="W" horiz-adv-x="896" 
d="M1 682v16h212v-20c-5 -19 -8 -22 -29 -30c-20 -7 -21 -13 -19 -35c4 -19 9 -37 14 -55c11 -34 23 -69 33 -104l57 -192c12 -38 24 -77 37 -115l123 393c-5 18 -11 36 -16 53c-2 4 -9 36 -26 50c-9 9 -22 10 -26 12c-14 5 -15 14 -16 30v14h209v-21c-5 -19 -8 -22 -29 -28
c-21 -7 -21 -12 -19 -35c13 -46 26 -93 40 -139c16 -52 34 -104 51 -156l56 -175l69 230c17 53 34 106 48 158c7 26 14 51 20 76c1 19 0 33 -17 43c-8 5 -15 6 -19 12c-3 4 -5 8 -7 18v17h162v-17c-3 -18 -5 -22 -21 -28c-14 -6 -19 -7 -31 -30c-24 -66 -47 -132 -68 -197
l-71 -224l-68 -212h-37l-160 473c-10 -36 -21 -72 -32 -108c-20 -66 -43 -129 -64 -194l-55 -170h-38l-92 280l-69 212l-49 143c-17 28 -25 22 -41 31c-9 5 -10 13 -12 24z" />
    <glyph glyph-name="X" unicode="X" horiz-adv-x="646" 
d="M205 1h-204c0 26 3 34 13 39c6 3 14 4 22 6c12 3 17 5 22 9c23 13 36 34 66 77c22 32 45 63 66 96l83 130l-84 124l-54 75c-27 39 -47 71 -61 84c-18 18 -34 18 -43 23c-14 8 -10 30 -9 36h103l124 -1c2 -31 -5 -32 -21 -36c-9 -3 -25 -6 -25 -27c0 -3 1 -8 4 -16
c5 -11 13 -18 26 -39c15 -21 27 -42 41 -62c20 -30 41 -59 63 -89l83 120c25 36 42 61 42 81c0 8 -2 13 -6 18c-7 9 -23 11 -30 19c-6 6 -7 13 -6 32l193 -1c0 -32 -5 -38 -19 -42c-5 -2 -22 -3 -37 -12c-14 -8 -28 -25 -50 -56l-21 -30l-44 -61l-73 -105l90 -140l75 -111
l40 -60c4 -7 18 -28 40 -38c2 -1 11 -4 16 -8c12 -7 11 -20 10 -36h-230c-1 24 1 32 10 36c4 2 12 5 17 7c6 2 24 8 24 26c0 6 -2 9 -3 11c-1 3 -21 38 -36 61l-43 65l-71 110l-80 -122c-19 -29 -39 -58 -54 -87c-9 -18 -15 -29 -15 -38c0 -11 6 -19 16 -23
c8 -4 19 -6 25 -11c7 -7 6 -21 5 -34z" />
    <glyph glyph-name="Y" unicode="Y" horiz-adv-x="604" 
d="M464 700l176 -1c1 -15 0 -19 -2 -26c-4 -12 -13 -11 -34 -22c-10 -6 -20 -13 -34 -33c-16 -23 -30 -45 -44 -68l-57 -93l-99 -157v-225c7 -30 14 -30 32 -37c19 -7 21 -15 22 -37h-206c0 25 2 31 24 38c20 7 28 8 32 44v216l-99 162l-54 85c-14 21 -26 42 -40 62
c-24 36 -31 42 -55 49c-24 8 -26 15 -26 43l226 -1c0 -26 -5 -30 -17 -35c-14 -6 -24 -9 -24 -24c0 -12 9 -22 16 -33c6 -10 11 -20 16 -29l15 -26c9 -14 18 -29 26 -43l94 -155l73 122l67 111c12 21 18 31 18 42c0 4 0 12 -6 18c-8 10 -26 12 -35 21c-4 5 -6 13 -5 32z" />
    <glyph glyph-name="Z" unicode="Z" 
d="M116 45h159c18 1 37 1 55 2c13 1 26 2 38 3c16 2 74 9 89 66c4 15 6 30 13 41c13 20 35 16 44 15v-171h-511l1 44l130 207l258 404h-129c-31 -1 -77 -2 -105 -11c-47 -15 -58 -49 -64 -70c-1 -2 -3 -14 -8 -21c-5 -8 -15 -11 -42 -9v168c24 -7 33 -11 75 -13h390v-47
l-127 -192l-139 -221z" />
    <glyph glyph-name="bracketleft" unicode="[" horiz-adv-x="313" 
d="M302 -148h-199v969h199c-1 -16 -1 -19 -4 -26c-7 -16 -18 -17 -53 -21c-17 -2 -35 -5 -48 -16c-16 -13 -17 -33 -17 -39v-763c1 -9 1 -27 18 -39c17 -13 36 -14 58 -16c2 0 27 -2 35 -11c10 -10 11 -34 11 -38z" />
    <glyph glyph-name="backslash" unicode="\" horiz-adv-x="354" 
d="M264 -18l-228 724h59l229 -724h-60z" />
    <glyph glyph-name="bracketright" unicode="]" horiz-adv-x="313" 
d="M6 815h199v-965h-200c1 11 2 20 6 29c8 15 19 14 53 18c32 4 49 14 58 26c4 6 5 11 7 24v752c-1 6 -1 24 -8 38c-8 18 -26 24 -68 29c-15 2 -21 2 -27 5c-23 9 -20 36 -20 44z" />
    <glyph glyph-name="asciicircum" unicode="^" horiz-adv-x="729" 
d="M573 350h-76l-131 274l-134 -274h-76l180 356h63z" />
    <glyph glyph-name="underscore" unicode="_" horiz-adv-x="500" 
d="M510 -206h-520v59h520v-59z" />
    <glyph glyph-name="grave" unicode="`" horiz-adv-x="271" 
d="M171 547l-23 -37l-143 62c-7 3 -14 7 -21 11c-10 4 -41 15 -41 48c1 23 22 44 44 44c12 -1 22 -5 43 -20z" />
    <glyph glyph-name="a" unicode="a" horiz-adv-x="479" 
d="M401 268v-137c1 -16 4 -52 10 -66c5 -12 15 -21 28 -21c7 0 11 1 24 7c3 -7 5 -11 5 -17c0 -3 -1 -8 -5 -14c-6 -10 -28 -28 -60 -28c-8 0 -22 1 -39 10c-28 15 -36 36 -45 64c-10 -10 -20 -20 -31 -30c-48 -43 -83 -44 -113 -45c-8 0 -39 1 -65 10
c-75 27 -84 100 -84 126c0 14 2 44 23 76c42 59 118 79 260 102c-3 27 -6 54 -17 79c-22 52 -59 67 -82 67c-5 0 -16 -1 -26 -8c-17 -13 -14 -42 -25 -62c-10 -15 -26 -25 -44 -25c-27 1 -49 19 -49 47c0 19 12 35 16 39c16 20 57 45 124 45c38 0 90 -11 122 -33
c12 -7 22 -17 31 -28c39 -47 41 -99 42 -158zM313 182v88c-63 -8 -132 -18 -172 -73c-7 -10 -24 -36 -24 -72c0 -12 1 -24 5 -35c12 -33 42 -59 76 -59s67 24 86 51c23 31 26 62 29 100z" />
    <glyph glyph-name="b" unicode="b" 
d="M130 23l-41 -34h-15v624c-3 37 -11 37 -30 43c-23 7 -25 13 -23 40l142 5v-253c44 25 76 43 128 43c54 0 102 -21 141 -56c32 -29 74 -82 74 -185c0 -44 -10 -80 -15 -95c-13 -40 -67 -162 -209 -162c-61 0 -98 22 -118 34c-5 2 -11 4 -16 4c-7 0 -12 -4 -18 -8zM161 402
v-194l1 -136c31 -22 58 -39 96 -39c13 0 44 2 74 22c70 47 72 137 74 159c1 15 3 30 3 45c-1 81 -34 134 -56 156s-54 33 -86 33c-45 0 -72 -19 -106 -46z" />
    <glyph glyph-name="c" unicode="c" horiz-adv-x="458" 
d="M426 89l27 -24c-5 -6 -10 -13 -22 -24c-30 -27 -84 -57 -158 -57c-48 0 -89 13 -107 20c-10 5 -17 7 -34 19c-8 5 -15 9 -22 15c-12 11 -35 35 -52 70c-10 22 -27 68 -27 127c0 36 7 64 11 78c2 10 4 19 7 28c6 15 23 45 34 60c24 32 54 54 83 68c18 8 64 26 116 26
c11 0 58 -2 99 -22c17 -9 53 -33 53 -76c0 0 -1 -21 -9 -33c-2 -4 -6 -8 -9 -11c-12 -10 -24 -12 -37 -12c-27 0 -46 20 -46 46c1 11 5 21 5 32s-8 24 -20 30c-9 6 -33 10 -42 10c-3 0 -34 -1 -53 -10c-5 -2 -15 -6 -27 -17c-7 -6 -15 -13 -21 -20c-1 -2 -10 -16 -15 -25
c-13 -26 -28 -70 -28 -132c0 -15 0 -72 23 -122c4 -11 8 -19 21 -36c31 -44 82 -65 123 -65c10 0 55 1 94 28c8 5 17 13 33 29z" />
    <glyph glyph-name="d" unicode="d" 
d="M378 453v152c-5 39 -14 40 -34 49c-21 10 -22 19 -21 44l140 3v-621c2 -8 2 -13 5 -20c5 -12 13 -15 26 -21c19 -9 19 -16 19 -37h-132v40c-43 -31 -74 -52 -130 -52c-29 0 -105 9 -159 72c-24 27 -56 82 -56 175c0 34 4 64 14 95c30 90 101 158 201 158
c46 0 86 -18 127 -37zM378 86v319c-18 15 -48 42 -105 42c-28 0 -78 -6 -112 -70c-18 -34 -24 -63 -27 -135c3 -52 8 -104 38 -149c13 -18 42 -54 102 -54c11 0 51 2 80 24c9 6 17 15 24 23z" />
    <glyph glyph-name="e" unicode="e" horiz-adv-x="479" 
d="M456 258h-325c0 -16 -1 -31 1 -45c1 -12 9 -78 44 -121c15 -19 52 -54 117 -54c81 0 124 54 142 75l27 -21c-15 -22 -25 -33 -33 -41c-58 -58 -136 -62 -161 -62c-69 0 -142 30 -186 85c-10 14 -27 40 -38 82c-3 12 -10 43 -10 79c0 17 2 60 18 106
c46 128 159 150 209 150c21 0 45 -4 65 -11c52 -18 94 -62 113 -114c12 -34 14 -71 17 -108zM132 299h227c-1 52 -2 97 -43 129c-8 6 -32 23 -63 23c-43 0 -74 -32 -82 -41c-27 -31 -33 -71 -39 -111z" />
    <glyph glyph-name="f" unicode="f" horiz-adv-x="271" 
d="M172 476h92v-52h-94v-342c4 -38 13 -39 34 -43c26 -6 29 -11 27 -39h-200c0 9 0 15 3 22c5 11 23 13 34 20c12 8 14 22 16 37v344l-66 1c1 18 2 31 16 36c18 7 29 3 42 17s10 30 12 65c5 55 15 103 60 137c21 16 49 27 77 27c31 0 49 -16 57 -26c6 -8 9 -16 9 -26
c0 -2 0 -9 -3 -16c-7 -17 -22 -28 -41 -28c-14 0 -27 5 -38 15c-8 7 -17 18 -27 18c-3 0 -6 -1 -9 -3c-4 -3 -8 -7 -8 -21c0 -10 1 -20 2 -30c1 -11 2 -21 2 -32c2 -27 2 -54 3 -81z" />
    <glyph glyph-name="g" unicode="g" horiz-adv-x="500" 
d="M169 147l-56 -78c57 8 70 10 126 11c82 -4 116 -10 152 -26c64 -30 78 -81 77 -109c0 -6 -1 -20 -6 -35c-6 -19 -24 -54 -68 -81c-53 -33 -105 -36 -164 -37c-44 3 -67 6 -87 10c-2 1 -105 20 -105 89c0 43 44 50 56 50c36 -1 49 -29 49 -41c0 -10 -5 -19 -4 -29
c0 -5 2 -17 12 -25c14 -11 45 -13 86 -17c33 2 66 5 96 19c43 20 54 55 54 74c0 31 -27 54 -56 65c-17 7 -60 15 -114 15c-25 0 -57 -2 -112 -8c-24 -3 -46 -7 -55 -7c-20 0 -25 13 -25 21c0 14 11 26 20 38c8 10 14 20 21 30c21 30 41 61 61 93c-8 6 -16 13 -23 19
c-17 16 -55 55 -55 120c0 19 5 70 42 113c38 44 100 69 159 68c59 0 91 -22 111 -35c4 13 6 21 12 33c18 32 50 36 63 36c44 0 56 -32 56 -48c-1 -23 -20 -40 -43 -40c-20 0 -29 10 -40 26c-4 -3 -13 -10 -13 -20c0 -15 12 -28 21 -42c3 -4 5 -8 7 -12c6 -13 16 -40 16 -79
c0 -46 -15 -88 -48 -119c-37 -35 -89 -54 -139 -54c-35 0 -76 10 -84 12zM311 429c-17 17 -42 27 -66 27c-18 0 -36 -7 -50 -17c-52 -39 -51 -125 -51 -137c0 -5 0 -28 5 -46c4 -18 27 -89 96 -89c53 0 104 42 104 152c0 12 -1 74 -38 110z" />
    <glyph glyph-name="h" unicode="h" 
d="M463 319v-232c5 -36 12 -38 30 -48c20 -10 21 -16 21 -40h-187c-1 22 1 29 20 39c20 10 27 11 29 47v227c0 19 -1 39 -5 57c-6 20 -24 68 -85 68c-13 0 -59 -5 -91 -29c-6 -5 -12 -11 -24 -23v-302c1 -12 2 -15 3 -21c4 -12 13 -15 27 -22c19 -9 20 -18 19 -40h-187
c0 15 1 18 3 24c7 13 27 17 37 28c9 10 9 30 9 33v519c-1 25 -3 33 -11 42s-11 9 -22 15c-12 6 -16 10 -16 35l139 5v-269c19 15 67 55 141 55c13 0 77 -3 112 -39s37 -83 38 -129z" />
    <glyph glyph-name="i" unicode="i" horiz-adv-x="250" 
d="M84 83v308c0 4 0 23 -9 35c-6 7 -12 9 -22 13c-19 6 -19 14 -20 36l138 5v-396c1 -3 1 -13 4 -22c4 -14 13 -18 27 -24s21 -8 19 -38h-186c-1 33 8 31 24 38c7 3 12 6 17 11c9 11 8 30 8 34zM61 648c6 28 34 49 62 49c31 0 56 -28 56 -60c-1 -32 -31 -58 -62 -58
c-35 0 -63 34 -56 69z" />
    <glyph glyph-name="j" unicode="j" horiz-adv-x="229" 
d="M81 -101l-5 103v382c-1 17 -2 32 -13 41c-8 6 -19 10 -22 11c-23 9 -24 16 -23 42l144 3v-483c-3 -46 -6 -93 -27 -134c-19 -38 -57 -71 -102 -71c-31 0 -50 17 -57 26c-6 8 -10 18 -10 26c1 25 22 46 46 46c6 0 14 -1 26 -9c0 0 16 -13 24 -13c3 0 5 1 8 3
c10 6 10 16 11 27zM51 657c6 26 35 46 63 46c32 0 56 -26 56 -58c0 -33 -31 -61 -63 -61c-37 0 -64 38 -56 73z" />
    <glyph glyph-name="k" unicode="k" horiz-adv-x="521" 
d="M34 681v16l142 5v-188l-5 -242l1 -40l75 66c32 28 63 58 94 89c7 8 13 17 13 29c0 14 -15 15 -28 22c-7 4 -11 9 -16 22v17h196v-17c0 -2 -2 -11 -4 -16c-6 -10 -17 -11 -28 -15c-7 -3 -12 -5 -18 -8c-27 -21 -54 -40 -80 -62s-51 -46 -77 -70l79 -103l61 -82
c12 -16 25 -32 39 -47c7 -8 9 -9 14 -13c7 -4 16 -5 22 -9c6 -3 8 -6 12 -18v-18h-206v17c2 5 4 10 7 13c7 7 15 5 24 9c8 3 12 8 12 14s-6 15 -7 17c-15 22 -30 44 -46 65l-78 99l-64 -57v-91c3 -24 7 -35 30 -43c13 -4 15 -4 20 -8c4 -4 5 -7 9 -17v-16h-192v16
c8 21 14 19 27 24c21 9 22 29 23 48v528c-3 24 -5 29 -26 37c-18 8 -20 12 -25 27z" />
    <glyph glyph-name="l" unicode="l" horiz-adv-x="250" 
d="M33 696l141 5v-625c4 -25 10 -29 23 -35c24 -11 27 -12 26 -42h-189c-1 14 0 18 2 23c5 13 23 16 35 24c9 6 12 14 14 37v521c-2 28 -5 41 -33 53c-14 6 -19 8 -19 39z" />
    <glyph glyph-name="m" unicode="m" horiz-adv-x="812" 
d="M731 331v-251c1 -2 2 -15 5 -22c6 -18 20 -16 36 -24c13 -7 13 -18 13 -35h-190c0 35 8 32 24 39c6 2 13 6 17 11c8 9 8 22 8 35v247c0 26 -1 35 -5 48c-10 35 -41 57 -75 57c-41 0 -77 -24 -86 -31c-12 -10 -24 -26 -26 -29v-293c2 -29 5 -35 32 -44
c23 -8 24 -15 22 -40h-190c-1 3 -2 18 2 26c5 11 21 12 32 19c12 7 13 20 15 35v254c-1 45 -6 60 -21 78c-9 10 -28 28 -65 28c-49 0 -77 -28 -108 -59v-292c0 -17 0 -32 13 -41c7 -6 17 -8 20 -9c15 -5 19 -8 20 -37h-191c-2 22 -1 31 18 37c20 6 28 4 33 41v311
c-1 2 -1 13 -4 21c-6 21 -20 18 -38 29c-11 7 -11 18 -10 34l133 4l1 -57c20 18 67 65 146 65c7 0 27 -1 47 -7c41 -11 58 -32 81 -65c10 9 22 21 33 29c18 14 62 41 124 41c8 0 50 -1 80 -20c6 -4 14 -9 24 -23c25 -33 27 -71 30 -110z" />
    <glyph glyph-name="n" unicode="n" 
d="M459 326v-248c0 -1 1 -15 4 -22c4 -13 16 -15 29 -21s17 -10 15 -37l-187 1c0 1 -1 15 1 22c5 14 23 14 36 22c12 7 13 21 14 36v256c-2 40 -5 70 -38 93c-9 6 -26 17 -53 17c-29 0 -69 -15 -91 -37c-8 -8 -12 -16 -18 -26v-305c1 -4 2 -22 12 -29c8 -6 19 -8 27 -12
c9 -6 9 -16 9 -37h-183c0 14 1 20 2 24c5 12 20 12 31 19c10 5 12 18 15 31v320c-3 42 -14 36 -35 46c-14 7 -14 17 -12 35l130 4v-49c5 4 22 19 39 30c42 27 98 30 112 30c18 0 72 -2 111 -45c29 -33 29 -73 30 -118z" />
    <glyph glyph-name="o" unicode="o" 
d="M33 243c0 12 2 39 11 72c18 68 58 123 122 154c45 22 85 25 104 25c77 0 129 -36 149 -54c56 -47 86 -124 86 -198c0 -30 -4 -92 -49 -158c-24 -34 -75 -96 -184 -96c-35 0 -74 8 -105 23c-90 42 -135 138 -134 232zM134 237c0 -6 1 -115 43 -171c14 -19 29 -27 37 -31
c25 -13 48 -14 59 -14c21 0 60 4 92 46c35 48 42 108 42 163c0 87 -16 138 -36 171c-10 17 -42 60 -100 60c-21 0 -41 -5 -58 -15c-46 -26 -82 -92 -79 -209z" />
    <glyph glyph-name="p" unicode="p" 
d="M23 478l139 4v-43c45 31 76 51 131 51c27 0 96 -6 148 -61c23 -26 65 -88 65 -182c0 -67 -18 -117 -56 -167c-45 -61 -94 -87 -170 -87c-64 0 -92 22 -114 40v-149c2 -17 4 -29 17 -36c6 -4 13 -6 19 -8c18 -8 19 -15 19 -35h-103l-92 1c0 23 3 26 24 35
c20 8 21 13 26 32v512c1 25 -2 35 -10 43c-7 8 -18 11 -22 12c-13 6 -18 9 -21 38zM164 398v-325c12 -9 18 -15 25 -19c10 -6 38 -21 74 -21c8 0 22 1 39 6s42 16 66 51c17 26 40 75 40 151c0 14 -1 45 -9 80c-6 24 -32 125 -133 125c-7 0 -22 0 -41 -6
c-25 -8 -42 -24 -61 -42z" />
    <glyph glyph-name="q" unicode="q" 
d="M414 456l24 21c10 6 15 8 18 8c9 0 11 -15 12 -27v-580c2 -26 4 -30 27 -39c20 -8 22 -14 21 -36h-191c0 3 -2 16 2 25c6 18 32 14 44 27c6 7 7 14 8 34v142c-14 -9 -29 -19 -44 -25c-24 -10 -65 -16 -90 -16c-32 0 -57 6 -86 20c-86 44 -125 134 -125 226
c0 16 1 56 17 99c15 42 68 154 207 154c65 -1 103 -23 125 -35c8 -4 11 -6 16 -6c6 0 13 7 15 8zM379 74v323c-4 4 -13 16 -26 25c-12 9 -40 25 -83 25c-55 0 -92 -27 -115 -75c-19 -42 -21 -87 -22 -133c2 -54 5 -108 39 -155c13 -20 42 -53 103 -53c13 0 53 3 85 26
c7 5 13 11 19 17z" />
    <glyph glyph-name="r" unicode="r" horiz-adv-x="354" 
d="M29 474l136 4v-160c16 49 33 97 67 134c7 7 30 32 62 32c33 0 57 -21 57 -53c0 -30 -23 -52 -51 -52c-10 0 -18 3 -21 4c-9 3 -19 8 -26 8c-14 0 -33 -21 -48 -51c-28 -56 -35 -117 -40 -177v-72c1 -30 5 -42 34 -52c17 -5 24 -7 25 -40h-194c0 2 0 16 3 24
c7 16 30 15 41 28c5 5 7 13 10 32v286c-2 34 -7 49 -19 59c-5 5 -10 6 -17 9c-13 5 -19 7 -19 37z" />
    <glyph glyph-name="s" unicode="s" horiz-adv-x="396" 
d="M167 213c-46 19 -65 30 -82 46c-23 23 -37 58 -37 92c0 21 6 40 16 58c31 55 92 83 153 83c14 0 41 0 74 -14c28 -12 50 -31 50 -64c0 -11 -5 -51 -45 -51c-14 0 -46 6 -47 44c0 2 1 17 -2 25c-9 22 -40 24 -44 24c-5 0 -14 -1 -27 -6c-12 -5 -50 -25 -50 -66
c0 -6 1 -17 7 -31c15 -31 38 -40 67 -51c11 -5 23 -9 35 -14c50 -20 94 -40 116 -89c4 -10 11 -30 11 -58c0 -13 -1 -40 -18 -69c-43 -78 -136 -82 -160 -82c-17 0 -80 2 -124 40c-7 6 -28 23 -29 52c1 27 19 53 47 53c11 0 49 -8 48 -46c0 -10 -2 -21 0 -29
c3 -14 18 -31 52 -31c21 0 35 3 43 6c13 4 61 25 61 77c0 12 -4 46 -35 66c-14 10 -43 20 -80 35z" />
    <glyph glyph-name="t" unicode="t" horiz-adv-x="271" 
d="M76 544v48c2 21 4 25 25 30l61 5v-149h96v-53h-96v-310c0 -4 0 -17 4 -30c3 -11 13 -37 46 -37c18 0 33 8 48 16l15 -31c-32 -19 -62 -37 -99 -37c-36 0 -61 17 -71 25c-23 21 -34 56 -34 124c0 28 1 56 2 85c1 44 1 88 2 132v63h-68c-1 26 -1 37 22 44c6 1 24 4 35 16
c10 11 13 25 12 59z" />
    <glyph glyph-name="u" unicode="u" 
d="M163 479v-334c0 -11 1 -23 2 -34c2 -13 7 -41 39 -60c9 -5 27 -14 54 -14c49 0 78 25 111 55v287c-1 26 -4 35 -12 45c-7 9 -13 10 -24 14c-13 5 -17 8 -17 36l137 3v-390c1 -5 0 -29 13 -39c5 -4 12 -7 17 -11c14 -9 14 -18 12 -37h-124v47c-48 -34 -84 -59 -144 -59
c-55 0 -117 27 -139 75c-8 19 -11 37 -14 81v245c-3 36 -14 40 -33 47c-15 5 -20 9 -21 38z" />
    <glyph glyph-name="v" unicode="v" horiz-adv-x="500" 
d="M326 480h171c2 -21 0 -28 -5 -33c-5 -4 -14 -8 -15 -8c-17 -5 -23 -7 -36 -30l-60 -149l-62 -158l-44 -105h-56l-69 180c-18 50 -36 100 -56 149c-11 29 -23 57 -35 85c-13 18 -20 22 -31 25c-2 1 -14 4 -20 8c-9 7 -8 20 -7 35h134l80 -1c0 -1 1 -17 -2 -24
c-5 -18 -24 -10 -40 -23c-14 -11 -7 -33 -6 -38c10 -33 21 -66 32 -98c12 -36 25 -70 37 -105c11 -32 22 -65 34 -97l100 281c1 3 6 18 6 30c0 15 -9 27 -25 33c-14 5 -17 5 -21 9c-8 9 -5 31 -4 34z" />
    <glyph glyph-name="w" unicode="w" horiz-adv-x="729" 
d="M367 479l37 -1c15 -52 30 -103 47 -153c13 -41 27 -79 40 -119c9 -31 18 -62 28 -93l48 147l38 121c5 32 4 48 -28 58c-18 5 -24 6 -23 40l167 -1c0 -28 -3 -32 -25 -44c-15 -7 -21 -12 -33 -40c-13 -35 -26 -69 -38 -105c-15 -42 -28 -84 -43 -127
c-18 -55 -38 -110 -58 -165h-52l-109 326l-113 -326l-60 1c-29 95 -59 190 -91 283c-13 40 -27 80 -41 120c-7 15 -12 25 -28 33c-6 3 -13 5 -18 8c-12 8 -11 20 -10 37l197 -1c0 -23 0 -32 -21 -41c-24 -10 -27 -13 -21 -41c8 -30 16 -60 25 -91l31 -97l31 -99
c13 41 27 83 42 125c15 43 31 87 45 130c13 39 24 77 36 115z" />
    <glyph glyph-name="x" unicode="x" horiz-adv-x="521" 
d="M317 476h184c0 -18 0 -30 -11 -37c-6 -3 -14 -5 -21 -8s-13 -7 -20 -11c-37 -32 -40 -35 -91 -94l-59 -66c30 -40 59 -81 90 -119l66 -79c23 -18 26 -15 44 -22c15 -6 19 -10 18 -41h-234c0 15 1 21 3 27c7 15 26 10 40 14c3 1 16 4 16 15c0 6 -6 19 -6 19l-88 121
l-94 -112c-4 -6 -10 -14 -10 -24c0 -6 3 -14 18 -20c8 -2 16 -4 20 -8c7 -6 6 -19 6 -31h-185c0 3 0 18 3 26c5 12 20 13 36 18c11 4 19 10 29 17l54 57c33 36 64 73 95 111l-81 105c-42 55 -43 58 -76 90c-10 8 -16 10 -22 12c-22 4 -28 2 -28 38h222c1 -23 -2 -33 -12 -36
c-6 -2 -13 -2 -20 -4c-5 -2 -15 -7 -15 -17c0 -5 2 -10 9 -21l77 -103c45 50 59 69 80 97c2 3 9 12 9 24c0 6 -2 10 -6 13c-9 8 -26 9 -33 17c-5 6 -7 13 -7 32z" />
    <glyph glyph-name="y" unicode="y" horiz-adv-x="500" 
d="M332 479l166 -1c1 -32 -6 -34 -21 -40c-16 -7 -21 -9 -34 -35l-89 -219l-52 -127c-39 -93 -49 -131 -77 -177c-19 -32 -35 -47 -63 -71c-13 -8 -30 -21 -65 -21c-27 0 -55 9 -72 32c-10 12 -11 23 -11 30c0 8 2 13 4 17c9 19 27 29 47 29c14 0 29 -5 39 -16
c9 -12 13 -28 26 -28c20 0 38 24 39 26c32 46 38 58 58 110c-23 63 -47 125 -72 187c-19 48 -40 96 -58 143c-6 18 -12 35 -20 53c-6 15 -14 30 -21 45c-15 22 -20 21 -35 26c-14 5 -19 7 -18 37h209v-17c-5 -15 -8 -20 -26 -25c-6 -2 -23 -3 -23 -19c0 -3 2 -14 3 -18
l109 -302c13 37 27 74 41 110c12 33 25 66 36 99c9 28 17 56 24 84c0 1 1 11 1 17c-1 23 -20 28 -28 31c-14 5 -18 10 -17 40z" />
    <glyph glyph-name="z" unicode="z" horiz-adv-x="437" 
d="M404 119v-120h-392v36l164 222l125 176h-130c-42 -4 -73 -8 -89 -49c-2 -4 -2 -8 -6 -15c-6 -10 -13 -12 -38 -13v119h368v-49l-237 -322l-44 -61h142c28 1 54 3 74 21c10 9 16 21 17 24c9 19 8 28 46 31z" />
    <glyph glyph-name="braceleft" unicode="{" horiz-adv-x="354" 
d="M152 414v169c1 48 8 96 45 130c17 15 37 23 44 25c18 6 53 8 72 10v-6c-30 -8 -55 -16 -74 -44c-25 -36 -22 -82 -22 -122v-99c0 -35 0 -70 -2 -105c0 -6 -1 -56 -22 -86c-14 -21 -32 -30 -55 -38c9 -3 29 -9 47 -27c36 -38 32 -91 33 -189v-111c0 -57 2 -81 15 -108
c18 -37 44 -47 80 -58v-5l-32 3c-15 1 -58 3 -91 37c-39 41 -37 104 -38 154v163c0 37 0 78 -24 110c-16 21 -34 27 -44 30v5c8 2 28 7 43 26c27 32 24 100 25 136z" />
    <glyph glyph-name="bar" unicode="|" horiz-adv-x="229" 
d="M144 -250h-59v998h59v-998z" />
    <glyph glyph-name="braceright" unicode="}" horiz-adv-x="354" 
d="M203 83v-126c-1 -15 -1 -29 -1 -43c-1 -47 -8 -95 -45 -129c-17 -16 -37 -23 -44 -26c-18 -6 -53 -8 -72 -9v5c30 8 55 17 74 44c25 36 22 83 22 122v100c0 35 0 70 2 105c1 29 5 61 22 86c18 26 46 34 55 37c-9 3 -29 9 -46 28c-37 37 -33 91 -34 188v152
c-1 13 -1 73 -46 104c-15 11 -32 16 -49 21v6l31 -3c15 -2 61 -4 95 -41c37 -41 35 -101 35 -151v-162c0 -37 0 -78 24 -110c16 -21 34 -27 44 -31v-5c-7 -2 -28 -7 -43 -25c-27 -32 -24 -101 -24 -137z" />
    <glyph glyph-name="asciitilde" unicode="~" horiz-adv-x="729" 
d="M370 255l-29 14c-6 3 -47 25 -83 25c-46 0 -66 -33 -91 -65l-33 55c11 16 50 79 124 79c40 0 77 -18 112 -35l33 -15c33 -14 45 -20 65 -20c43 1 71 32 96 63l31 -55c-49 -62 -90 -77 -128 -77c-28 0 -48 8 -97 31z" />
    <glyph glyph-name="exclamdown" unicode="&#xa1;" horiz-adv-x="250" 
d="M44 656c4 27 31 49 60 49c34 0 60 -32 60 -64s-29 -58 -62 -58c-12 0 -19 4 -23 6c-24 12 -40 41 -35 67zM84 509l37 -1c4 -85 8 -169 17 -254c10 -91 19 -115 19 -165c0 -21 -3 -51 -12 -68c-12 -22 -34 -26 -43 -26s-19 4 -27 10c-25 19 -27 54 -27 84
c0 37 5 63 14 135c8 58 14 117 17 175c3 37 4 73 5 110z" />
    <glyph glyph-name="sterling" unicode="&#xa3;" 
d="M197 334h-115v42h95c-30 54 -59 105 -59 168c0 67 30 102 50 119c42 37 100 49 156 49c15 0 60 0 99 -26c11 -7 53 -38 52 -83c0 -46 -35 -57 -52 -57c-26 0 -51 23 -51 49c0 5 1 14 7 25c6 8 12 15 12 24c0 16 -20 36 -62 36c-23 0 -44 -5 -62 -16
c-48 -26 -54 -77 -54 -97c0 -24 9 -52 27 -100l37 -92h135v-40h-119c17 -52 20 -67 20 -98c0 -13 0 -24 -6 -50c-8 -38 -22 -58 -42 -90l99 -37c31 -12 53 -19 67 -19c13 0 21 4 26 6c16 7 24 17 42 47l27 -15c-13 -24 -21 -36 -29 -46c-36 -44 -88 -49 -107 -49
c-59 1 -131 31 -182 52c-42 -27 -66 -40 -116 -40c-24 0 -37 4 -47 8c-19 9 -37 26 -37 46c0 15 11 39 46 53c23 9 66 15 91 15c19 0 32 -2 69 -7c10 27 16 37 17 88c-4 62 -9 79 -34 135zM171 54c-14 7 -43 21 -86 20c-30 0 -47 -14 -47 -25s19 -28 47 -28c2 0 13 1 22 2
c37 5 52 20 64 31z" />
    <glyph glyph-name="currency" unicode="&#xa4;" horiz-adv-x="667" 
d="M535 182l74 -75l-46 -45l-74 75c-9 -7 -18 -14 -28 -20c-20 -13 -64 -34 -128 -34c-44 0 -86 10 -124 32c-12 7 -21 14 -32 22l-75 -73l-45 45l75 73c-19 26 -55 75 -55 159c0 83 36 130 55 155l-73 73l45 45l73 -72c24 18 74 54 157 54c22 0 76 -3 128 -34
c10 -6 19 -13 28 -20l74 73l46 -46l-74 -74c8 -10 15 -20 22 -31c21 -36 32 -80 32 -124c0 -22 -2 -74 -33 -125c-9 -16 -18 -28 -22 -33zM529 340c0 22 -2 72 -39 121c-19 24 -69 76 -156 76c-112 0 -197 -85 -197 -197c1 -113 87 -198 199 -198c22 0 69 3 116 38
c27 21 77 70 77 160z" />
    <glyph glyph-name="brokenbar" unicode="&#xa6;" horiz-adv-x="229" 
d="M85 190h59v-381h-59v381zM85 308v381h59v-381h-59z" />
    <glyph glyph-name="section" unicode="&#xa7;" horiz-adv-x="521" 
d="M137 438c-8 7 -16 14 -23 21c-10 12 -27 39 -27 81c1 65 38 106 55 121c26 24 66 48 146 48c19 0 83 0 126 -49c14 -16 23 -36 23 -57c0 -26 -17 -53 -46 -53c-13 0 -45 7 -45 43c0 13 2 26 1 38c-4 29 -34 41 -61 41c-8 0 -47 -3 -73 -15c-31 -15 -57 -47 -57 -82
c0 -23 10 -37 15 -42c24 -27 88 -53 166 -82c61 -26 104 -47 133 -111c16 -35 17 -64 17 -79c0 -24 -4 -75 -51 -121c-15 -15 -30 -24 -46 -35c3 -3 15 -15 22 -27c16 -26 23 -61 23 -92c0 -44 -13 -72 -21 -86c-33 -62 -107 -95 -178 -95c-34 1 -58 7 -71 11
c-92 27 -115 90 -115 130c0 12 2 19 4 24c10 31 36 38 48 38c25 0 50 -21 50 -46c0 -6 -2 -17 -10 -31c-8 -12 -16 -21 -16 -35c0 -9 4 -18 11 -25c9 -10 43 -31 81 -31c10 0 20 0 39 4c34 6 63 15 86 41c21 25 23 49 23 61c0 17 -6 60 -47 88c-17 11 -64 31 -115 52
c-64 24 -118 46 -154 111c-8 14 -21 40 -21 79c0 51 23 98 65 132c10 8 20 16 43 30zM160 415c-9 -7 -19 -13 -28 -20c-12 -10 -40 -34 -40 -81c0 -11 1 -28 14 -49c23 -38 63 -54 103 -70c86 -32 108 -44 154 -69c37 28 64 50 64 100c0 19 -5 36 -13 52
c-20 34 -59 53 -135 84c-68 26 -82 33 -119 53z" />
    <glyph glyph-name="dieresis" unicode="&#xa8;" horiz-adv-x="271" 
d="M-91 613c8 24 34 42 61 42c30 0 56 -25 56 -58c0 -34 -31 -59 -62 -59c-37 0 -65 40 -55 75zM85 605c5 28 32 49 60 49c31 0 57 -27 57 -59s-30 -58 -62 -58c-34 0 -62 32 -55 68z" />
    <glyph glyph-name="copyright" unicode="&#xa9;" horiz-adv-x="833" 
d="M773 351c-1 -42 -9 -143 -88 -234c-67 -77 -165 -120 -268 -120c-101 0 -197 42 -265 116c-84 92 -91 197 -91 241c0 118 52 193 81 228c37 43 125 127 276 127c38 0 127 -5 212 -69c47 -35 144 -128 143 -289zM740 352c0 36 -4 117 -64 197c-32 43 -113 128 -258 128
c-34 0 -115 -5 -192 -62c-43 -31 -133 -115 -133 -262c0 -43 8 -84 24 -123c49 -122 169 -201 301 -201c33 0 71 7 103 17c133 44 218 167 219 306zM517 128l-20 -2c-29 -2 -56 -6 -85 -6c-86 0 -136 34 -160 61c-55 61 -53 165 -53 180c0 12 0 52 10 88
c28 95 108 130 201 130c25 0 51 -3 76 -6l22 -2c20 -2 33 -4 69 -4c4 -44 8 -88 13 -131h-25c-6 31 -13 59 -34 84c-15 18 -38 38 -91 38c-15 0 -55 -1 -88 -30c-8 -7 -22 -20 -33 -43s-21 -60 -21 -117c0 -62 9 -160 65 -203c31 -24 71 -24 84 -24c15 0 55 0 86 32
c3 3 15 17 22 32c6 14 10 29 13 59h24c0 -43 1 -85 1 -128c-25 -1 -50 -4 -76 -8z" />
    <glyph glyph-name="guillemotleft" unicode="&#xab;" horiz-adv-x="333" 
d="M31 240l109 182l23 -13l-61 -170l63 -170l-25 -11zM267 422l25 -13l-59 -167l59 -173l-22 -10l-106 182z" />
    <glyph glyph-name="logicalnot" unicode="&#xac;" horiz-adv-x="667" 
d="M607 262h-607v59h667v-321h-60v262z" />
    <glyph glyph-name="registered" unicode="&#xae;" horiz-adv-x="833" 
d="M396 351h-35v-121c0 -49 1 -58 52 -65v-33c-58 2 -115 1 -172 0l1 33c14 2 32 2 40 16c5 8 5 27 5 50v261c0 8 1 17 0 25c-3 18 -15 23 -46 26l1 34c34 -1 68 -2 102 -2c32 1 64 2 96 2c47 0 100 -3 133 -43c21 -25 23 -51 23 -63c0 -87 -91 -103 -109 -106
c6 -1 13 -4 23 -12c23 -20 29 -43 37 -71l9 -39c7 -29 12 -52 29 -52c23 1 30 40 33 56l31 -6c-7 -34 -13 -61 -35 -89c-6 -7 -12 -14 -21 -18c-11 -6 -22 -7 -27 -7c-7 1 -36 4 -52 24c-23 29 -35 98 -45 132c-8 29 -12 39 -24 50c-15 15 -30 17 -49 18zM361 395h36
c43 1 56 1 77 11c38 17 44 47 44 63c0 6 -1 22 -11 38c-20 29 -50 32 -82 32c-2 0 -24 0 -40 -4c-23 -6 -23 -25 -24 -62v-78zM773 351c0 -43 -9 -140 -85 -229c-94 -112 -221 -125 -271 -125c-79 0 -156 26 -218 73c-46 36 -138 126 -138 284c0 118 52 193 81 228
c37 43 125 127 276 127c113 0 217 -50 286 -143c47 -63 70 -137 69 -215zM741 352c0 35 -5 116 -63 195c-32 43 -114 130 -260 130c-34 0 -115 -5 -192 -62c-43 -31 -133 -115 -133 -262c0 -43 8 -84 24 -123c49 -122 169 -201 301 -201c20 0 60 2 109 19
c130 46 213 168 214 304z" />
    <glyph glyph-name="degree" unicode="&#xb0;" horiz-adv-x="354" 
d="M177 748c82 0 147 -66 147 -147c0 -10 -1 -33 -12 -58c-23 -54 -77 -89 -135 -89c-82 0 -147 66 -147 147s66 147 147 147zM176 688c-47 -1 -86 -39 -86 -88c0 -47 39 -86 87 -86c49 0 86 39 86 87c0 49 -38 87 -87 87z" />
    <glyph glyph-name="plusminus" unicode="&#xb1;" horiz-adv-x="667" 
d="M364 123h-59v256h-264v59h264v256h59v-256h262v-59h-262v-256zM626 0h-585v59h585v-59z" />
    <glyph glyph-name="acute" unicode="&#xb4;" horiz-adv-x="271" 
d="M-43 497l-23 38l127 96c28 20 39 31 58 31c26 0 43 -19 43 -45c0 -25 -18 -36 -41 -47z" />
    <glyph glyph-name="mu" unicode="&#xb5;" horiz-adv-x="562" 
d="M505 137l26 1c3 -8 13 -37 13 -66c0 -41 -17 -84 -65 -83c-31 0 -72 22 -90 87c-3 -5 -19 -27 -35 -43c-29 -29 -70 -48 -112 -48c-58 0 -94 40 -105 54c-6 7 -7 8 -14 20c-1 -21 -5 -69 9 -128c1 -4 6 -27 13 -43c5 -12 7 -16 17 -34c21 -37 37 -55 37 -76
c0 -23 -15 -39 -38 -39c-30 0 -50 22 -64 73c-13 48 -16 91 -16 140c0 28 1 97 12 172c-4 28 -8 55 -11 82c-3 31 -5 62 -7 93c-1 23 -2 46 -2 69c0 27 2 45 6 57c8 29 26 37 40 37c4 0 13 -1 20 -8c22 -18 19 -58 19 -61c0 -27 -2 -53 -5 -80l-12 -95
c-3 -31 -6 -61 -12 -92c6 -15 11 -28 21 -42c18 -27 48 -46 82 -46c22 0 38 7 45 11c52 28 71 94 74 108c8 30 15 89 14 169c0 16 -1 32 -1 48c0 1 0 31 3 48c1 7 7 40 39 40c48 -1 48 -62 48 -93c0 -25 0 -160 -48 -259c8 -25 27 -42 34 -46c4 -2 11 -6 23 -6
c15 0 27 6 35 18c3 4 4 9 7 19c1 6 2 11 2 22c0 6 0 9 -2 20z" />
    <glyph glyph-name="paragraph" unicode="&#xb6;" horiz-adv-x="667" 
d="M531 706v-44h-33v-829h-46v829h-157v-829h-46v498c-8 1 -28 3 -48 10c-75 28 -111 96 -111 172c0 12 0 36 10 65c18 57 63 99 120 117c29 9 60 11 90 11h221z" />
    <glyph glyph-name="periodcentered" unicode="&#xb7;" horiz-adv-x="187" 
d="M92 230c-11 0 -20 3 -23 5c-21 9 -35 33 -35 55c0 33 28 59 60 59c5 0 13 0 22 -4c22 -9 37 -32 37 -56c0 -33 -28 -60 -61 -59z" />
    <glyph glyph-name="cedilla" unicode="&#xb8;" horiz-adv-x="271" 
d="M44 20l47 -1l-61 -67c15 2 29 4 44 4c6 0 37 0 63 -14c17 -9 49 -32 49 -74c0 -7 -1 -25 -11 -43c-25 -45 -84 -65 -129 -65c-13 0 -40 -1 -72 17c-10 5 -30 22 -30 46c0 4 0 12 9 22c8 7 17 12 33 12s27 -9 32 -17c3 -6 2 -13 2 -14c0 -2 0 -6 1 -11c4 -8 17 -14 26 -14
c6 0 19 2 24 3c41 10 51 41 51 56c0 4 0 13 -9 25c-12 17 -35 28 -72 28c-19 0 -29 -2 -63 -12l-19 23z" />
    <glyph glyph-name="guillemotright" unicode="&#xbb;" horiz-adv-x="333" 
d="M64 59l-26 11l60 167l-61 174l26 11l104 -185l-62 -103zM299 240l-107 -181l-24 12l59 170l-61 170l24 12z" />
    <glyph glyph-name="questiondown" unicode="&#xbf;" horiz-adv-x="437" 
d="M207 510h36c2 -66 -2 -109 -36 -164c-12 -19 -25 -37 -37 -55c-13 -20 -45 -66 -45 -134c1 -106 71 -135 113 -135c39 0 59 28 59 42c0 11 -14 18 -25 28c-4 5 -12 14 -12 29c0 28 27 53 55 53c17 0 57 -14 57 -66c0 -48 -46 -119 -159 -119c-16 0 -54 1 -93 17
c-84 37 -97 118 -97 150c0 55 32 99 74 138c37 34 69 55 90 99c20 39 20 73 20 117zM165 656c5 28 28 49 59 49c34 0 61 -31 61 -62c-1 -31 -31 -59 -63 -59c-5 0 -14 1 -26 7c-25 13 -36 40 -31 65z" />
    <glyph glyph-name="Agrave" unicode="&#xc0;" horiz-adv-x="667" 
d="M665 -2h-88l-125 1c0 19 0 30 14 36c6 3 29 8 29 29c0 7 -2 11 -3 19l-45 115h-271l-41 -109c-1 -1 -3 -12 -3 -19c0 -8 3 -21 23 -29c9 -3 16 -5 20 -10c7 -8 6 -20 5 -32h-176c0 17 0 24 3 30c6 12 25 14 39 22c12 6 19 18 26 29l84 194l137 326l-18 48
c-2 5 -4 11 -4 16c0 6 4 10 7 15l72 42l97 -250l81 -220c13 -34 25 -67 38 -99c11 -25 23 -50 35 -75c9 -14 17 -26 32 -34c3 -1 16 -6 23 -12c6 -6 8 -13 9 -33zM318 545l-128 -305h242l-58 159zM449 776l-23 -36l-162 71c-23 13 -42 24 -42 48c0 12 8 45 45 45
c8 0 14 -1 22 -5s24 -16 43 -30z" />
    <glyph glyph-name="Aacute" unicode="&#xc1;" horiz-adv-x="667" 
d="M665 -2h-88l-125 1c0 19 0 30 14 36c6 3 29 8 29 29c0 7 -2 11 -3 19l-45 115h-271l-41 -109c-1 -1 -3 -12 -3 -19c0 -8 3 -21 23 -29c9 -3 16 -5 20 -10c7 -8 6 -20 5 -32h-176c0 17 0 24 3 30c6 12 25 14 39 22c12 6 19 18 26 29l84 194l137 326l-18 48
c-2 5 -4 11 -4 16c0 6 4 10 7 15l72 42l97 -250l81 -220c13 -34 25 -67 38 -99c11 -25 23 -50 35 -75c9 -14 17 -26 32 -34c3 -1 16 -6 23 -12c6 -6 8 -13 9 -33zM318 545l-128 -305h242l-58 159zM239 752l-22 38l140 108c14 9 30 20 45 20c3 0 7 -1 14 -4
c16 -6 28 -22 28 -40c0 -10 -4 -19 -5 -21c-8 -15 -26 -24 -56 -38z" />
    <glyph glyph-name="Acircumflex" unicode="&#xc2;" horiz-adv-x="667" 
d="M665 -2h-88l-125 1c0 19 0 30 14 36c6 3 29 8 29 29c0 7 -2 11 -3 19l-45 115h-271l-41 -109c-1 -1 -3 -12 -3 -19c0 -8 3 -21 23 -29c9 -3 16 -5 20 -10c7 -8 6 -20 5 -32h-176c0 17 0 24 3 30c6 12 25 14 39 22c12 6 19 18 26 29l84 194l137 326l-18 48
c-2 5 -4 11 -4 16c0 6 4 10 7 15l72 42l97 -250l81 -220c13 -34 25 -67 38 -99c11 -25 23 -50 35 -75c9 -14 17 -26 32 -34c3 -1 16 -6 23 -12c6 -6 8 -13 9 -33zM318 545l-128 -305h242l-58 159zM520 787l-15 -31l-127 39c-2 1 -29 9 -45 9c-10 0 -16 -1 -34 -6l-141 -39
l-16 31l154 77c21 9 27 11 39 11c18 0 38 -11 43 -13z" />
    <glyph glyph-name="Atilde" unicode="&#xc3;" horiz-adv-x="667" 
d="M665 -2h-88l-125 1c0 19 0 30 14 36c6 3 29 8 29 29c0 7 -2 11 -3 19l-45 115h-271l-41 -109c-1 -1 -3 -12 -3 -19c0 -8 3 -21 23 -29c9 -3 16 -5 20 -10c7 -8 6 -20 5 -32h-176c0 17 0 24 3 30c6 12 25 14 39 22c12 6 19 18 26 29l84 194l137 326l-18 48
c-2 5 -4 11 -4 16c0 6 4 10 7 15l72 42l97 -250l81 -220c13 -34 25 -67 38 -99c11 -25 23 -50 35 -75c9 -14 17 -26 32 -34c3 -1 16 -6 23 -12c6 -6 8 -13 9 -33zM318 545l-128 -305h242l-58 159zM380 843c5 -1 22 -6 37 -6c17 0 28 5 55 25c1 -3 8 -16 8 -26
c0 -12 -10 -19 -22 -28c-9 -7 -41 -31 -82 -31c-26 0 -57 14 -63 16c-9 4 -28 15 -56 15c-36 0 -51 -15 -64 -25c-4 9 -7 17 -7 26c0 4 0 8 5 15c10 12 51 45 100 45c30 0 41 -10 89 -26z" />
    <glyph glyph-name="Adieresis" unicode="&#xc4;" horiz-adv-x="667" 
d="M292 605l-20 57c-1 11 0 12 6 19l71 43l58 -144l50 -133c14 -39 29 -76 43 -114c13 -34 24 -70 37 -104c20 -51 42 -100 64 -150c9 -14 17 -26 32 -33c8 -4 17 -7 22 -12c10 -7 9 -19 10 -33h-213c-1 34 6 34 22 40c6 2 21 8 21 24c0 6 -3 17 -3 18l-44 117h-273
l-41 -110c-2 -9 -2 -15 -2 -18c0 -22 21 -28 30 -31c15 -5 21 -8 19 -39h-180c3 27 3 35 17 41c7 3 15 4 22 8c12 5 17 13 24 23c40 72 36 75 84 189c31 77 64 151 96 227zM233 339l-42 -96h240l-114 300c-14 -31 -28 -62 -41 -93zM200 842c7 26 30 43 57 43
c32 0 58 -26 58 -59s-29 -58 -61 -58c-5 0 -14 1 -25 7c-36 19 -32 56 -29 67zM431 884h6c4 0 7 -1 15 -3c22 -10 38 -33 38 -57c0 -31 -29 -55 -59 -55c-39 0 -68 33 -57 73c7 26 30 43 57 42z" />
    <glyph glyph-name="Aring" unicode="&#xc5;" horiz-adv-x="667" 
d="M293 604l-20 54c-2 11 -4 16 9 27l68 38l72 -184l51 -136l39 -102c15 -39 27 -78 42 -116c15 -36 31 -72 48 -108c9 -14 15 -24 31 -32c14 -7 14 -5 21 -11c8 -5 10 -12 10 -34h-212c0 6 -2 27 9 35c6 4 15 6 23 10c5 3 11 7 11 17c0 4 0 8 -2 16l-45 122l-273 -1
c-29 -66 -30 -70 -41 -112c-3 -15 -9 -34 26 -45c16 -6 22 -7 21 -40h-178c0 15 -1 27 8 34c6 6 17 9 20 10c22 7 27 15 39 34l60 134l69 167zM193 245h240l-115 301c-14 -32 -28 -63 -41 -95c-14 -33 -26 -66 -40 -100zM238 838c7 42 41 74 85 74c49 -1 86 -40 86 -87
c0 -9 -2 -19 -5 -28c-6 -17 -28 -58 -80 -58c-6 0 -17 0 -31 6c-40 14 -61 51 -55 93zM270 837c-10 -35 19 -67 54 -67c30 0 53 25 53 55c0 28 -23 55 -52 55c-25 0 -49 -19 -55 -43z" />
    <glyph glyph-name="AE" unicode="&#xc6;" horiz-adv-x="938" 
d="M308 698h496c34 2 41 3 72 15v-165c-44 -3 -45 5 -61 44c-1 2 -9 20 -16 31c-23 33 -52 33 -68 35h-185v-270h94c34 3 57 7 65 43c3 15 2 21 26 26h24v-183c-43 -2 -45 3 -54 27c-6 17 -11 24 -16 29c-14 13 -33 14 -51 14h-85v-302c52 -1 105 -3 156 0l51 3
c30 4 78 14 97 85c6 23 6 36 14 43c6 6 15 8 39 8v-182h-520c0 12 0 20 5 28c9 17 37 11 50 23c6 6 6 15 7 18v269h-190l-136 -249c-5 -13 -6 -17 -6 -24c0 -15 14 -20 19 -21c11 -3 22 -2 28 -10c9 -10 6 -30 6 -31h-188c-1 26 -1 35 19 45c27 12 38 19 68 58l84 148
l58 105c20 38 41 75 62 112l75 137c2 2 10 15 10 28c0 3 -1 9 -6 14c-10 7 -30 7 -38 16c-6 8 -5 21 -5 33zM280 384h172v246c-3 15 -5 18 -14 29z" />
    <glyph glyph-name="Ccedilla" unicode="&#xc7;" horiz-adv-x="604" 
d="M368 -16l-29 -32c26 4 28 4 45 4c9 0 20 0 40 -5c39 -12 70 -41 70 -84c0 -45 -34 -71 -44 -79c-14 -9 -49 -28 -96 -28c-35 0 -50 7 -65 14c-6 3 -36 17 -36 48c0 23 20 35 41 35c3 0 23 -1 32 -16c6 -10 1 -16 5 -26c2 -7 11 -14 27 -14c6 0 12 1 24 4
c39 10 49 38 49 54c0 10 -3 18 -9 26c-16 22 -47 28 -72 28c-19 0 -30 -2 -64 -12l-18 23l53 60c-17 2 -63 7 -109 30c-19 10 -34 21 -40 25c-52 40 -135 138 -135 307c0 40 2 140 62 235c18 28 33 48 58 69c75 67 155 74 194 74c41 0 71 -7 108 -23c11 -5 21 -9 31 -15
c9 -5 18 -12 29 -12s12 8 23 21h35v-191c-22 0 -31 -2 -42 5s-12 18 -16 30c-3 8 -6 16 -10 23c-12 32 -22 55 -47 78c-1 2 -13 13 -23 20c-13 9 -44 24 -86 24c-29 0 -92 -8 -140 -69c-33 -42 -65 -123 -65 -248c0 -104 22 -170 41 -209c22 -44 48 -67 64 -79
c49 -39 103 -44 125 -44c31 0 94 10 151 65c17 16 28 31 42 49l34 -27c-6 -10 -8 -11 -15 -20c-3 -4 -6 -8 -9 -13l-30 -31c-69 -66 -149 -72 -183 -74z" />
    <glyph glyph-name="Egrave" unicode="&#xc8;" horiz-adv-x="583" 
d="M186 387h88c14 1 25 2 30 2c34 6 42 28 48 43c7 17 10 22 45 21l-1 -179c-32 -2 -40 2 -46 17c-3 7 -6 26 -21 40c-13 11 -26 14 -61 15h-83v-302h162l41 3c58 7 78 23 94 46c8 12 15 25 21 52c3 10 4 18 11 26c10 11 22 11 38 10v-180h-513c0 3 -2 17 2 25
c5 11 21 13 32 19c10 6 13 12 16 34v539c-1 1 -3 14 -5 21c-7 14 -19 15 -33 23c-10 6 -13 11 -11 35h416c32 3 36 3 65 12v-166c-3 0 -17 -1 -26 1c-20 5 -26 26 -34 46c-3 6 -13 31 -30 45c-20 18 -52 20 -85 21h-160v-269zM408 776l-24 -36l-162 71c-23 13 -41 24 -41 48
c0 12 7 45 44 45c8 0 14 -1 22 -5s24 -16 43 -30z" />
    <glyph glyph-name="Eacute" unicode="&#xc9;" horiz-adv-x="583" 
d="M186 387h88c14 1 25 2 30 2c34 6 42 28 48 43c7 17 10 22 45 21l-1 -179c-32 -2 -40 2 -46 17c-3 7 -6 26 -21 40c-13 11 -26 14 -61 15h-83v-302h162l41 3c58 7 78 23 94 46c8 12 15 25 21 52c3 10 4 18 11 26c10 11 22 11 38 10v-180h-513c0 3 -2 17 2 25
c5 11 21 13 32 19c10 6 13 12 16 34v539c-1 1 -3 14 -5 21c-7 14 -19 15 -33 23c-10 6 -13 11 -11 35h416c32 3 36 3 65 12v-166c-3 0 -17 -1 -26 1c-20 5 -26 26 -34 46c-3 6 -13 31 -30 45c-20 18 -52 20 -85 21h-160v-269zM197 752l-22 38l140 108c14 9 31 20 45 20
c3 0 8 -1 14 -4c17 -6 28 -22 28 -40c0 -10 -4 -19 -5 -21c-7 -15 -26 -24 -56 -38z" />
    <glyph glyph-name="Ecircumflex" unicode="&#xca;" horiz-adv-x="583" 
d="M186 387h88c14 1 25 2 30 2c34 6 42 28 48 43c7 17 10 22 45 21l-1 -179c-32 -2 -40 2 -46 17c-3 7 -6 26 -21 40c-13 11 -26 14 -61 15h-83v-302h162l41 3c58 7 78 23 94 46c8 12 15 25 21 52c3 10 4 18 11 26c10 11 22 11 38 10v-180h-513c0 3 -2 17 2 25
c5 11 21 13 32 19c10 6 13 12 16 34v539c-1 1 -3 14 -5 21c-7 14 -19 15 -33 23c-10 6 -13 11 -11 35h416c32 3 36 3 65 12v-166c-3 0 -17 -1 -26 1c-20 5 -26 26 -34 46c-3 6 -13 31 -30 45c-20 18 -52 20 -85 21h-160v-269zM479 787l-16 -31l-127 39c-2 1 -28 9 -45 9
c-10 0 -15 -1 -33 -6l-142 -39l-16 31l154 77c21 9 27 11 39 11c18 0 38 -11 44 -13z" />
    <glyph glyph-name="Edieresis" unicode="&#xcb;" horiz-adv-x="583" 
d="M186 387h88c14 1 25 2 30 2c34 6 42 28 48 43c7 17 10 22 45 21l-1 -179c-32 -2 -40 2 -46 17c-3 7 -6 26 -21 40c-13 11 -26 14 -61 15h-83v-302h162l41 3c58 7 78 23 94 46c8 12 15 25 21 52c3 10 4 18 11 26c10 11 22 11 38 10v-180h-513c0 3 -2 17 2 25
c5 11 21 13 32 19c10 6 13 12 16 34v539c-1 1 -3 14 -5 21c-7 14 -19 15 -33 23c-10 6 -13 11 -11 35h416c32 3 36 3 65 12v-166c-3 0 -17 -1 -26 1c-20 5 -26 26 -34 46c-3 6 -13 31 -30 45c-20 18 -52 20 -85 21h-160v-269zM146 840c6 27 33 47 60 47c5 0 14 0 25 -6
c20 -11 32 -30 32 -52c0 -11 -3 -21 -5 -25c-10 -22 -30 -33 -55 -33c-10 0 -19 2 -29 7c-21 12 -33 37 -28 62zM322 837c4 31 28 49 59 50c48 -1 57 -43 57 -60c0 -33 -25 -56 -58 -56c-38 0 -64 30 -58 66z" />
    <glyph glyph-name="Igrave" unicode="&#xcc;" horiz-adv-x="271" 
d="M233 -1h-194c0 23 2 28 21 37c17 7 23 8 29 39v538c-6 35 -14 34 -32 42c-15 6 -20 9 -19 41l198 -1c1 -24 -2 -30 -10 -35c-10 -6 -25 -7 -32 -16c-7 -8 -8 -24 -9 -27v-541c3 -20 6 -28 12 -33c5 -3 8 -4 19 -9c18 -7 19 -14 17 -35zM251 776l-23 -36l-162 71
c-23 13 -42 24 -42 48c1 12 8 45 45 45c8 0 14 -1 22 -5s24 -16 43 -30z" />
    <glyph glyph-name="Iacute" unicode="&#xcd;" horiz-adv-x="271" 
d="M233 -1h-194c0 23 2 28 21 37c17 7 23 8 29 39v538c-6 35 -14 34 -32 42c-15 6 -20 9 -19 41l198 -1c1 -24 -2 -30 -10 -35c-10 -6 -25 -7 -32 -16c-7 -8 -8 -24 -9 -27v-541c3 -20 6 -28 12 -33c5 -3 8 -4 19 -9c18 -7 19 -14 17 -35zM41 752l-22 38l140 108
c14 9 30 20 45 20c3 0 8 -1 14 -4c16 -6 28 -22 28 -40c0 -10 -4 -19 -5 -21c-8 -15 -26 -24 -56 -38z" />
    <glyph glyph-name="Icircumflex" unicode="&#xce;" horiz-adv-x="271" 
d="M233 -1h-194c0 23 2 28 21 37c17 7 23 8 29 39v538c-6 35 -14 34 -32 42c-15 6 -20 9 -19 41l198 -1c1 -24 -2 -30 -10 -35c-10 -6 -25 -7 -32 -16c-7 -8 -8 -24 -9 -27v-541c3 -20 6 -28 12 -33c5 -3 8 -4 19 -9c18 -7 19 -14 17 -35zM322 787l-15 -31l-127 39
c-2 1 -28 9 -45 9c-10 0 -15 -1 -34 -6l-141 -39l-16 31l154 77c21 9 27 11 39 11c18 0 38 -11 43 -13z" />
    <glyph glyph-name="Idieresis" unicode="&#xcf;" horiz-adv-x="271" 
d="M233 -1h-194c0 23 2 28 21 37c17 7 23 8 29 39v538c-6 35 -14 34 -32 42c-15 6 -20 9 -19 41l198 -1c1 -24 -2 -30 -10 -35c-10 -6 -25 -7 -32 -16c-7 -8 -8 -24 -9 -27v-541c3 -20 6 -28 12 -33c5 -3 8 -4 19 -9c18 -7 19 -14 17 -35zM-10 840c6 27 33 47 60 47
c5 0 14 0 25 -6c20 -11 32 -30 32 -52c0 -11 -4 -21 -5 -25c-10 -22 -30 -33 -55 -33c-10 0 -20 2 -29 7c-21 12 -33 37 -28 62zM165 837c5 31 29 49 59 50c49 -1 58 -43 58 -60c0 -33 -25 -56 -59 -56c-37 0 -63 30 -58 66z" />
    <glyph glyph-name="Ntilde" unicode="&#xd1;" horiz-adv-x="667" 
d="M34 694h51l118 -1l85 -135l103 -162l65 -113l48 -83l38 -76l-6 191v283c0 5 0 31 -14 45c-7 8 -18 13 -22 14c-17 9 -17 17 -16 38h55l104 -1s1 -15 -1 -21c-3 -13 -14 -15 -24 -21c-23 -14 -26 -32 -29 -57v-598h-65l-63 104l-101 162l-117 192l-104 166v-504
c2 -34 5 -61 40 -75c18 -7 25 -7 22 -43h-170c-2 28 0 34 24 46c21 11 29 13 33 54v503c-2 37 -7 42 -28 48c-22 7 -27 7 -26 44zM380 843c5 -1 22 -6 37 -6c17 0 28 5 55 25c1 -3 8 -16 8 -26c0 -12 -10 -19 -22 -28c-9 -7 -41 -31 -82 -31c-26 0 -57 14 -63 16
c-9 4 -28 15 -56 15c-36 0 -51 -15 -64 -25c-4 9 -7 17 -7 26c0 4 0 8 5 15c10 12 51 45 100 45c30 0 41 -10 89 -26z" />
    <glyph glyph-name="Ograve" unicode="&#xd2;" horiz-adv-x="729" 
d="M37 353c-3 142 56 226 96 268c14 16 54 54 111 76c19 7 60 19 114 19c38 0 111 -5 189 -61c26 -18 44 -36 52 -45c19 -21 34 -47 47 -72c32 -61 43 -106 43 -174c0 -111 -28 -169 -50 -210c-4 -7 -19 -35 -37 -57c-16 -20 -32 -33 -51 -48c-30 -23 -86 -64 -187 -64
c-49 0 -159 11 -240 112c-34 41 -85 124 -87 256zM575 349c0 34 5 127 -43 221c-16 33 -32 51 -43 61c-8 9 -25 24 -53 35c-22 10 -48 15 -72 15c-12 0 -31 -1 -58 -8c-24 -7 -61 -17 -96 -64c-52 -70 -56 -161 -60 -248c2 -69 5 -152 31 -217c45 -111 138 -124 181 -124
c24 0 77 3 125 47c15 13 28 28 38 45c17 28 28 60 35 92c3 13 13 55 15 97c1 16 1 32 0 48zM481 776l-24 -36l-162 71c-23 13 -41 24 -41 48c0 12 7 45 44 45c8 0 14 -1 22 -5s24 -16 43 -30z" />
    <glyph glyph-name="Oacute" unicode="&#xd3;" horiz-adv-x="729" 
d="M37 353c-3 142 56 226 96 268c14 16 54 54 111 76c19 7 60 19 114 19c38 0 111 -5 189 -61c26 -18 44 -36 52 -45c19 -21 34 -47 47 -72c32 -61 43 -106 43 -174c0 -111 -28 -169 -50 -210c-4 -7 -19 -35 -37 -57c-16 -20 -32 -33 -51 -48c-30 -23 -86 -64 -187 -64
c-49 0 -159 11 -240 112c-34 41 -85 124 -87 256zM575 349c0 34 5 127 -43 221c-16 33 -32 51 -43 61c-8 9 -25 24 -53 35c-22 10 -48 15 -72 15c-12 0 -31 -1 -58 -8c-24 -7 -61 -17 -96 -64c-52 -70 -56 -161 -60 -248c2 -69 5 -152 31 -217c45 -111 138 -124 181 -124
c24 0 77 3 125 47c15 13 28 28 38 45c17 28 28 60 35 92c3 13 13 55 15 97c1 16 1 32 0 48zM270 752l-22 38l140 108c14 9 31 20 45 20c3 0 8 -1 14 -4c16 -6 28 -22 28 -40c0 -10 -4 -19 -5 -21c-7 -15 -26 -24 -56 -38z" />
    <glyph glyph-name="Ocircumflex" unicode="&#xd4;" horiz-adv-x="729" 
d="M37 353c-3 142 56 226 96 268c14 16 54 54 111 76c19 7 60 19 114 19c38 0 111 -5 189 -61c26 -18 44 -36 52 -45c19 -21 34 -47 47 -72c32 -61 43 -106 43 -174c0 -111 -28 -169 -50 -210c-4 -7 -19 -35 -37 -57c-16 -20 -32 -33 -51 -48c-30 -23 -86 -64 -187 -64
c-49 0 -159 11 -240 112c-34 41 -85 124 -87 256zM575 349c0 34 5 127 -43 221c-16 33 -32 51 -43 61c-8 9 -25 24 -53 35c-22 10 -48 15 -72 15c-12 0 -31 -1 -58 -8c-24 -7 -61 -17 -96 -64c-52 -70 -56 -161 -60 -248c2 -69 5 -152 31 -217c45 -111 138 -124 181 -124
c24 0 77 3 125 47c15 13 28 28 38 45c17 28 28 60 35 92c3 13 13 55 15 97c1 16 1 32 0 48zM552 787l-16 -31l-127 39c-2 1 -28 9 -45 9c-10 0 -15 -1 -34 -6l-141 -39l-16 31l154 77c21 9 27 11 39 11c18 0 38 -11 44 -13z" />
    <glyph glyph-name="Otilde" unicode="&#xd5;" horiz-adv-x="729" 
d="M37 353c-3 142 56 226 96 268c14 16 54 54 111 76c19 7 60 19 114 19c38 0 111 -5 189 -61c26 -18 44 -36 52 -45c19 -21 34 -47 47 -72c32 -61 43 -106 43 -174c0 -111 -28 -169 -50 -210c-4 -7 -19 -35 -37 -57c-16 -20 -32 -33 -51 -48c-30 -23 -86 -64 -187 -64
c-49 0 -159 11 -240 112c-34 41 -85 124 -87 256zM575 349c0 34 5 127 -43 221c-16 33 -32 51 -43 61c-8 9 -25 24 -53 35c-22 10 -48 15 -72 15c-12 0 -31 -1 -58 -8c-24 -7 -61 -17 -96 -64c-52 -70 -56 -161 -60 -248c2 -69 5 -152 31 -217c45 -111 138 -124 181 -124
c24 0 77 3 125 47c15 13 28 28 38 45c17 28 28 60 35 92c3 13 13 55 15 97c1 16 1 32 0 48zM412 843c4 -1 21 -6 37 -6s27 5 54 25c1 -3 8 -16 8 -26c0 -12 -10 -19 -22 -28c-9 -7 -41 -31 -81 -31c-26 0 -58 14 -64 16c-8 4 -28 15 -55 15c-37 0 -52 -15 -65 -25
c-3 9 -7 17 -7 26c1 4 1 8 6 15c9 12 50 45 99 45c30 0 41 -10 90 -26z" />
    <glyph glyph-name="Odieresis" unicode="&#xd6;" horiz-adv-x="729" 
d="M37 353c-1 68 14 119 22 144c41 116 121 172 166 192c55 25 112 27 132 27c24 0 79 -2 138 -30c129 -59 194 -192 194 -328c0 -133 -61 -229 -92 -266c-56 -68 -144 -108 -233 -108c-81 1 -161 32 -217 88c-74 73 -109 182 -110 281zM254 651c-30 -20 -46 -45 -54 -57
c-28 -47 -50 -113 -50 -233c0 -68 6 -118 11 -144c3 -19 18 -112 87 -163c10 -6 34 -21 65 -28c9 -2 28 -6 53 -6c90 0 139 60 156 85c42 66 55 169 55 246c0 17 0 51 -7 94c-17 117 -71 235 -208 235c-17 0 -66 -2 -108 -29zM217 839c5 27 32 47 58 47c33 0 58 -25 58 -59
c0 -33 -27 -56 -59 -56c-35 0 -63 32 -57 68zM413 872c5 5 18 14 37 14c4 0 18 -1 29 -7c10 -5 29 -20 29 -50c0 -13 -4 -22 -6 -26c-13 -29 -42 -33 -53 -32c-31 0 -57 24 -58 57c1 24 16 39 22 44z" />
    <glyph glyph-name="multiply" unicode="&#xd7;" horiz-adv-x="667" 
d="M541 42l-208 207l-207 -207l-42 41l207 208l-207 206l42 42l207 -207l208 207l41 -42l-207 -206l207 -208z" />
    <glyph glyph-name="Oslash" unicode="&#xd8;" horiz-adv-x="729" 
d="M564 652l66 87h50l-86 -114c7 -9 28 -36 45 -66c46 -82 50 -171 50 -204c0 -127 -55 -219 -81 -253c-36 -46 -115 -113 -257 -113c-10 0 -37 0 -65 5c-55 10 -85 30 -131 62l-77 -101h-48l96 128c-17 19 -36 39 -57 89c-20 46 -25 71 -32 121c-2 18 -3 37 -3 55
c0 20 1 32 5 67c5 31 15 104 67 176c31 43 108 129 255 129c10 0 39 -1 69 -7c72 -13 108 -43 134 -61zM175 145l176 227l176 232c-2 4 -15 23 -30 36c-36 32 -88 44 -134 44c-28 0 -88 -2 -141 -55c-10 -9 -30 -31 -45 -63c-17 -36 -26 -81 -33 -120c-2 -23 -5 -46 -5 -69
c-1 -20 -1 -39 -1 -59c8 -96 15 -126 37 -173zM546 565l-351 -455c11 -20 18 -28 25 -36c33 -34 92 -50 139 -50c53 0 89 18 106 29c7 4 17 11 30 24c41 40 57 91 74 144c3 15 6 30 8 46c3 14 4 28 6 42c0 8 6 129 -14 200c-8 27 -19 47 -23 56z" />
    <glyph glyph-name="Ugrave" unicode="&#xd9;" horiz-adv-x="646" 
d="M630 700v-18c-8 -23 -13 -22 -27 -29c-24 -12 -26 -32 -27 -58v-320c0 -14 0 -28 -1 -42c-2 -58 -12 -106 -46 -154c-16 -21 -35 -40 -57 -54c-25 -15 -73 -36 -146 -36c-39 0 -92 7 -127 21c-26 10 -83 41 -110 113c-13 37 -14 71 -15 111v386c-2 24 -6 32 -29 39
c-12 4 -17 5 -21 26v15h197v-16c-4 -17 -7 -20 -25 -26c-25 -8 -27 -20 -27 -47v-412c0 -3 0 -31 5 -51c11 -52 37 -71 56 -84c33 -21 62 -30 103 -30c22 0 85 2 134 50c7 7 21 22 32 47c12 26 17 52 21 114v355c-5 40 -12 49 -33 56c-13 5 -17 6 -21 27v17h164zM439 776
l-23 -36l-163 71c-23 13 -41 24 -41 48c0 12 7 45 44 45c9 0 14 -1 22 -5c9 -4 24 -16 43 -30z" />
    <glyph glyph-name="Uacute" unicode="&#xda;" horiz-adv-x="646" 
d="M630 700v-18c-8 -23 -13 -22 -27 -29c-24 -12 -26 -32 -27 -58v-320c0 -14 0 -28 -1 -42c-2 -58 -12 -106 -46 -154c-16 -21 -35 -40 -57 -54c-25 -15 -73 -36 -146 -36c-39 0 -92 7 -127 21c-26 10 -83 41 -110 113c-13 37 -14 71 -15 111v386c-2 24 -6 32 -29 39
c-12 4 -17 5 -21 26v15h197v-16c-4 -17 -7 -20 -25 -26c-25 -8 -27 -20 -27 -47v-412c0 -3 0 -31 5 -51c11 -52 37 -71 56 -84c33 -21 62 -30 103 -30c22 0 85 2 134 50c7 7 21 22 32 47c12 26 17 52 21 114v355c-5 40 -12 49 -33 56c-13 5 -17 6 -21 27v17h164zM228 752
l-22 38l140 108c14 9 31 20 45 20c3 0 8 -1 15 -4c16 -6 28 -22 28 -40c0 -10 -4 -19 -5 -21c-8 -15 -26 -24 -57 -38z" />
    <glyph glyph-name="Ucircumflex" unicode="&#xdb;" horiz-adv-x="646" 
d="M630 700v-18c-8 -23 -13 -22 -27 -29c-24 -12 -26 -32 -27 -58v-320c0 -14 0 -28 -1 -42c-2 -58 -12 -106 -46 -154c-16 -21 -35 -40 -57 -54c-25 -15 -73 -36 -146 -36c-39 0 -92 7 -127 21c-26 10 -83 41 -110 113c-13 37 -14 71 -15 111v386c-2 24 -6 32 -29 39
c-12 4 -17 5 -21 26v15h197v-16c-4 -17 -7 -20 -25 -26c-25 -8 -27 -20 -27 -47v-412c0 -3 0 -31 5 -51c11 -52 37 -71 56 -84c33 -21 62 -30 103 -30c22 0 85 2 134 50c7 7 21 22 32 47c12 26 17 52 21 114v355c-5 40 -12 49 -33 56c-13 5 -17 6 -21 27v17h164zM510 787
l-16 -31l-126 39c-2 1 -29 9 -45 9c-11 0 -16 -1 -34 -6l-141 -39l-16 31l154 77c20 9 26 11 38 11c18 0 39 -11 44 -13z" />
    <glyph glyph-name="Udieresis" unicode="&#xdc;" horiz-adv-x="646" 
d="M630 701v-20c-9 -26 -16 -22 -30 -30c-21 -12 -22 -32 -23 -57v-340c0 -9 -1 -62 -11 -102c-28 -109 -113 -143 -152 -153c-34 -9 -83 -10 -90 -11c-12 1 -67 2 -109 16c-22 7 -73 30 -108 87c-29 48 -31 92 -32 148v372c0 26 -2 40 -28 48c-14 5 -20 5 -22 28v14h197
v-18c-7 -21 -9 -19 -30 -26c-21 -8 -22 -24 -22 -47v-395c0 -13 0 -27 1 -40c4 -55 25 -95 75 -120c28 -14 60 -21 90 -21c55 0 106 19 142 62c38 46 40 99 43 159v338c0 31 -2 51 -32 63c-13 5 -17 6 -22 29v16h163zM191 845c4 11 18 40 55 40c4 0 16 -1 26 -6
c19 -11 33 -33 33 -55c0 -31 -28 -56 -58 -55c-12 0 -21 3 -25 5c-30 14 -34 41 -34 52c0 3 0 11 3 19zM365 839c6 27 29 45 57 45c4 0 12 0 23 -5c29 -14 34 -45 34 -54s-3 -18 -3 -20c-9 -23 -30 -36 -54 -36c-7 0 -22 1 -35 11c-19 13 -26 36 -22 59z" />
    <glyph glyph-name="germandbls" unicode="&#xdf;" horiz-adv-x="604" 
d="M170 508v-439c5 -27 11 -28 27 -33c23 -7 25 -11 24 -36h-195c1 21 2 26 22 33c20 6 27 6 35 40v360l-74 1c0 15 1 22 3 27c6 14 19 11 35 16c8 3 14 6 19 12c14 14 16 35 20 55c1 9 6 26 9 35c19 55 71 131 210 131c6 0 13 -1 20 -1c11 -1 42 -3 74 -11
c17 -4 54 -15 82 -53c8 -11 24 -36 24 -74c0 -16 -3 -47 -31 -77c-21 -22 -43 -32 -70 -47c-24 -14 -45 -28 -45 -53c0 -7 2 -14 6 -20c7 -14 19 -20 45 -38c12 -9 24 -18 37 -26c38 -23 58 -37 73 -50c14 -12 60 -56 60 -115c0 -11 -1 -30 -12 -54
c-31 -68 -98 -100 -168 -100s-154 35 -154 104c0 47 34 55 52 55c39 0 48 -30 48 -43c-1 -13 -8 -26 -8 -40c0 -34 34 -45 66 -45c18 0 31 5 37 7c33 13 59 45 59 82c0 25 -12 45 -16 51c-17 25 -53 50 -106 86c-10 6 -20 12 -29 19c-10 6 -65 44 -65 101c0 6 1 18 8 32
c13 26 31 37 56 52c7 5 22 13 37 27c14 14 31 34 31 78c0 10 -1 37 -14 61c-11 21 -47 59 -111 58c-16 0 -65 -2 -93 -41c-26 -38 -27 -85 -28 -127z" />
    <glyph glyph-name="agrave" unicode="&#xe0;" horiz-adv-x="479" 
d="M401 268v-137c1 -16 4 -52 10 -66c5 -12 15 -21 28 -21c7 0 11 1 24 7c3 -7 5 -11 5 -17c0 -3 -1 -8 -5 -14c-6 -10 -28 -28 -60 -28c-8 0 -22 1 -39 10c-28 15 -36 36 -45 64c-10 -10 -20 -20 -31 -30c-48 -43 -83 -44 -113 -45c-8 0 -39 1 -65 10
c-75 27 -84 100 -84 126c0 14 2 44 23 76c42 59 118 79 260 102c-3 27 -6 54 -17 79c-22 52 -59 67 -82 67c-5 0 -16 -1 -26 -8c-17 -13 -14 -42 -25 -62c-10 -15 -26 -25 -44 -25c-27 1 -49 19 -49 47c0 19 12 35 16 39c16 20 57 45 124 45c38 0 90 -11 122 -33
c12 -7 22 -17 31 -28c39 -47 41 -99 42 -158zM313 182v88c-63 -8 -132 -18 -172 -73c-7 -10 -24 -36 -24 -72c0 -12 1 -24 5 -35c12 -33 42 -59 76 -59s67 24 86 51c23 31 26 62 29 100zM358 547l-22 -37l-144 62c-7 3 -14 7 -21 11c-9 4 -40 15 -40 48c0 23 21 44 44 44
c11 -1 21 -5 43 -20z" />
    <glyph glyph-name="aacute" unicode="&#xe1;" horiz-adv-x="479" 
d="M401 268v-137c1 -16 4 -52 10 -66c5 -12 15 -21 28 -21c7 0 11 1 24 7c3 -7 5 -11 5 -17c0 -3 -1 -8 -5 -14c-6 -10 -28 -28 -60 -28c-8 0 -22 1 -39 10c-28 15 -36 36 -45 64c-10 -10 -20 -20 -31 -30c-48 -43 -83 -44 -113 -45c-8 0 -39 1 -65 10
c-75 27 -84 100 -84 126c0 14 2 44 23 76c42 59 118 79 260 102c-3 27 -6 54 -17 79c-22 52 -59 67 -82 67c-5 0 -16 -1 -26 -8c-17 -13 -14 -42 -25 -62c-10 -15 -26 -25 -44 -25c-27 1 -49 19 -49 47c0 19 12 35 16 39c16 20 57 45 124 45c38 0 90 -11 122 -33
c12 -7 22 -17 31 -28c39 -47 41 -99 42 -158zM313 182v88c-63 -8 -132 -18 -172 -73c-7 -10 -24 -36 -24 -72c0 -12 1 -24 5 -35c12 -33 42 -59 76 -59s67 24 86 51c23 31 26 62 29 100zM145 497l-23 38l126 96c29 20 39 31 59 31c25 0 43 -19 43 -45c0 -25 -19 -36 -42 -47
z" />
    <glyph glyph-name="acircumflex" unicode="&#xe2;" horiz-adv-x="479" 
d="M401 268v-137c1 -16 4 -52 10 -66c5 -12 15 -21 28 -21c7 0 11 1 24 7c3 -7 5 -11 5 -17c0 -3 -1 -8 -5 -14c-6 -10 -28 -28 -60 -28c-8 0 -22 1 -39 10c-28 15 -36 36 -45 64c-10 -10 -20 -20 -31 -30c-48 -43 -83 -44 -113 -45c-8 0 -39 1 -65 10
c-75 27 -84 100 -84 126c0 14 2 44 23 76c42 59 118 79 260 102c-3 27 -6 54 -17 79c-22 52 -59 67 -82 67c-5 0 -16 -1 -26 -8c-17 -13 -14 -42 -25 -62c-10 -15 -26 -25 -44 -25c-27 1 -49 19 -49 47c0 19 12 35 16 39c16 20 57 45 124 45c38 0 90 -11 122 -33
c12 -7 22 -17 31 -28c39 -47 41 -99 42 -158zM313 182v88c-63 -8 -132 -18 -172 -73c-7 -10 -24 -36 -24 -72c0 -12 1 -24 5 -35c12 -33 42 -59 76 -59s67 24 86 51c23 31 26 62 29 100zM430 560l-18 -31l-125 40c-6 1 -25 8 -44 8c-13 0 -23 -3 -36 -6l-139 -41l-16 34
l150 75c25 9 31 11 46 11c5 0 10 0 20 -4c13 -4 45 -21 78 -38z" />
    <glyph glyph-name="atilde" unicode="&#xe3;" horiz-adv-x="479" 
d="M401 268v-137c1 -16 4 -52 10 -66c5 -12 15 -21 28 -21c7 0 11 1 24 7c3 -7 5 -11 5 -17c0 -3 -1 -8 -5 -14c-6 -10 -28 -28 -60 -28c-8 0 -22 1 -39 10c-28 15 -36 36 -45 64c-10 -10 -20 -20 -31 -30c-48 -43 -83 -44 -113 -45c-8 0 -39 1 -65 10
c-75 27 -84 100 -84 126c0 14 2 44 23 76c42 59 118 79 260 102c-3 27 -6 54 -17 79c-22 52 -59 67 -82 67c-5 0 -16 -1 -26 -8c-17 -13 -14 -42 -25 -62c-10 -15 -26 -25 -44 -25c-27 1 -49 19 -49 47c0 19 12 35 16 39c16 20 57 45 124 45c38 0 90 -11 122 -33
c12 -7 22 -17 31 -28c39 -47 41 -99 42 -158zM313 182v88c-63 -8 -132 -18 -172 -73c-7 -10 -24 -36 -24 -72c0 -12 1 -24 5 -35c12 -33 42 -59 76 -59s67 24 86 51c23 31 26 62 29 100zM264 620c20 -8 38 -16 58 -16c25 0 39 11 58 25c5 -13 7 -18 7 -25
c0 -11 -8 -18 -11 -22c-22 -20 -66 -37 -96 -37c-20 0 -39 8 -58 15c-6 3 -32 17 -60 17c-24 0 -43 -12 -63 -25c-1 4 -6 15 -6 26s4 17 23 30c13 10 38 30 81 30c26 0 43 -8 67 -18z" />
    <glyph glyph-name="adieresis" unicode="&#xe4;" horiz-adv-x="479" 
d="M398 251v-134c3 -24 5 -73 39 -73c9 0 15 3 23 7c1 -2 5 -9 5 -16c0 -4 -1 -9 -7 -16c-12 -16 -42 -27 -61 -27c-7 0 -18 1 -33 8c-30 15 -39 36 -50 66c-11 -12 -21 -23 -33 -33c-17 -16 -51 -42 -112 -42c-34 0 -58 9 -70 14c-69 30 -76 99 -76 124c0 34 10 84 81 124
c46 25 95 36 199 53c-1 26 -3 52 -13 76c-14 35 -47 68 -83 68c-7 0 -30 -2 -38 -22c-8 -19 -3 -31 -15 -49c-4 -6 -18 -22 -41 -22c-4 0 -12 0 -20 4c-19 7 -30 22 -30 42c0 9 2 22 15 38c27 34 83 46 125 46c14 0 36 -1 68 -9c28 -8 78 -23 108 -90c19 -43 19 -90 19 -137
zM77 605c4 29 28 48 57 48c33 0 57 -27 57 -59s-24 -58 -58 -58c-35 0 -61 35 -56 69zM308 176v94c-41 -5 -53 -7 -74 -12c-16 -5 -66 -19 -98 -63c-7 -11 -23 -35 -23 -70c0 -8 0 -21 7 -38c19 -46 61 -55 76 -55c30 0 59 19 80 44c27 32 31 60 32 100zM251 607
c6 27 31 46 59 46c33 0 57 -28 57 -60c0 -31 -25 -58 -59 -58c-11 0 -20 3 -28 8c-21 13 -33 39 -29 64z" />
    <glyph glyph-name="aring" unicode="&#xe5;" horiz-adv-x="479" 
d="M399 270v-142c3 -33 6 -57 13 -68c7 -13 19 -15 25 -15c10 0 21 7 23 8c1 -2 7 -9 7 -17s-4 -13 -5 -15c-13 -19 -37 -29 -62 -29c-15 0 -47 5 -69 38c-6 8 -10 16 -18 33c-19 -21 -24 -27 -36 -37c-14 -11 -50 -36 -101 -36c-32 0 -76 11 -101 28c-33 24 -53 67 -53 109
c0 33 12 92 87 129c51 26 143 41 197 50c-2 28 -4 54 -15 80c-22 51 -60 65 -82 65c-6 0 -16 -1 -26 -8c-19 -13 -14 -39 -25 -59c-10 -17 -27 -27 -45 -27c-12 0 -49 6 -49 45c0 6 1 16 7 28c28 59 131 58 134 58c53 0 92 -16 109 -26c34 -19 61 -54 73 -91
c8 -25 11 -47 12 -101zM311 184l-1 85c-12 -2 -25 -3 -37 -4c-19 -3 -90 -12 -132 -66c-17 -21 -27 -46 -27 -74c0 -6 0 -20 6 -36c18 -47 60 -56 76 -56c10 0 34 3 58 21c56 42 55 112 57 130zM153 645c16 21 42 34 69 34c47 0 87 -37 87 -84s-38 -87 -85 -87
c-48 0 -88 37 -88 85c0 10 2 31 17 52zM209 646c-24 -5 -41 -28 -41 -53c0 -5 1 -15 7 -25c13 -24 37 -27 48 -27c30 0 54 23 54 53c0 5 -1 14 -7 24c-12 21 -38 33 -61 28z" />
    <glyph glyph-name="ae" unicode="&#xe6;" horiz-adv-x="771" 
d="M742 260h-326v-26c1 -13 3 -26 5 -39c8 -50 24 -92 68 -125c28 -20 57 -30 91 -30c19 0 67 4 109 38c8 6 20 18 35 35l28 -21c-7 -8 -42 -53 -79 -74c-34 -20 -74 -27 -114 -27c-24 0 -102 2 -155 60c-9 9 -14 15 -27 34c-14 -18 -25 -34 -42 -48
c-22 -18 -75 -45 -147 -45c-31 0 -59 5 -86 17c-46 22 -79 66 -79 117c0 13 2 44 23 73c45 63 147 87 159 89c41 10 79 12 121 14c0 9 0 18 -1 27c-1 15 -6 68 -47 102c-15 14 -36 22 -58 22c-5 0 -19 0 -32 -7c-20 -11 -15 -32 -22 -54s-26 -36 -50 -36
c-41 1 -47 36 -47 49c0 5 0 14 5 24c16 30 67 60 141 60c76 0 117 -22 140 -46c9 -9 14 -16 26 -35c13 18 21 28 28 35c33 32 89 48 134 48c61 0 103 -25 121 -39c42 -32 68 -90 75 -139c2 -15 3 -25 3 -53zM331 182l-1 78c-13 0 -27 0 -40 -1c-18 0 -93 -2 -138 -55
c-19 -22 -31 -52 -31 -82c0 -7 0 -22 7 -39c14 -31 45 -52 80 -52c18 0 59 8 91 46c26 32 29 63 32 105zM417 304h226c-2 45 -5 90 -38 122c-18 17 -39 24 -63 24c-32 0 -53 -13 -63 -20c-59 -38 -61 -106 -62 -126z" />
    <glyph glyph-name="ccedilla" unicode="&#xe7;" horiz-adv-x="458" 
d="M284 -16l-29 -32c25 4 28 4 44 4c10 0 21 0 40 -5c39 -12 71 -41 71 -84c0 -45 -34 -71 -45 -79c-13 -9 -48 -28 -95 -28c-35 0 -50 7 -65 14c-7 3 -36 17 -36 48c0 23 20 35 40 35c3 0 24 -1 32 -16c6 -10 1 -16 5 -26c3 -7 11 -14 27 -14c6 0 12 1 25 4
c38 10 48 38 48 54c0 10 -3 18 -8 26c-16 22 -47 28 -73 28c-19 0 -29 -2 -63 -12l-18 23l54 62c-59 7 -91 26 -112 41c-5 4 -11 7 -16 11c-32 27 -79 92 -79 198c0 51 15 97 21 112c1 3 18 35 32 54c46 61 122 93 197 93c36 0 81 -9 111 -29c9 -6 42 -28 42 -69
c0 -16 -6 -29 -9 -34c-5 -8 -20 -22 -45 -22c-27 0 -46 19 -47 46c0 11 4 22 4 33c0 29 -36 36 -40 37c-2 0 -13 2 -21 2c-10 0 -24 -2 -25 -2c-18 -3 -44 -9 -72 -41c-6 -6 -11 -15 -15 -22c-14 -25 -32 -70 -32 -139c0 -16 1 -74 23 -124c9 -19 25 -42 40 -56
c13 -13 50 -42 104 -42c73 0 107 36 127 56l27 -24c-2 -3 -12 -14 -21 -23c-22 -19 -72 -55 -148 -58z" />
    <glyph glyph-name="egrave" unicode="&#xe8;" horiz-adv-x="479" 
d="M456 258h-325c0 -16 -1 -31 1 -45c1 -12 9 -78 44 -121c15 -19 52 -54 117 -54c81 0 124 54 142 75l27 -21c-15 -22 -25 -33 -33 -41c-58 -58 -136 -62 -161 -62c-69 0 -142 30 -186 85c-10 14 -27 40 -38 82c-3 12 -10 43 -10 79c0 17 2 60 18 106
c46 128 159 150 209 150c21 0 45 -4 65 -11c52 -18 94 -62 113 -114c12 -34 14 -71 17 -108zM132 299h227c-1 52 -2 97 -43 129c-8 6 -32 23 -63 23c-43 0 -74 -32 -82 -41c-27 -31 -33 -71 -39 -111zM358 547l-22 -37l-144 62c-7 3 -14 7 -21 11c-9 4 -40 15 -40 48
c0 23 21 44 44 44c11 -1 21 -5 43 -20z" />
    <glyph glyph-name="eacute" unicode="&#xe9;" horiz-adv-x="479" 
d="M456 258h-325c0 -16 -1 -31 1 -45c1 -12 9 -78 44 -121c15 -19 52 -54 117 -54c81 0 124 54 142 75l27 -21c-15 -22 -25 -33 -33 -41c-58 -58 -136 -62 -161 -62c-69 0 -142 30 -186 85c-10 14 -27 40 -38 82c-3 12 -10 43 -10 79c0 17 2 60 18 106
c46 128 159 150 209 150c21 0 45 -4 65 -11c52 -18 94 -62 113 -114c12 -34 14 -71 17 -108zM132 299h227c-1 52 -2 97 -43 129c-8 6 -32 23 -63 23c-43 0 -74 -32 -82 -41c-27 -31 -33 -71 -39 -111zM145 497l-23 38l126 96c29 20 39 31 59 31c25 0 43 -19 43 -45
c0 -25 -19 -36 -42 -47z" />
    <glyph glyph-name="ecircumflex" unicode="&#xea;" horiz-adv-x="479" 
d="M456 258h-325c0 -16 -1 -31 1 -45c1 -12 9 -78 44 -121c15 -19 52 -54 117 -54c81 0 124 54 142 75l27 -21c-15 -22 -25 -33 -33 -41c-58 -58 -136 -62 -161 -62c-69 0 -142 30 -186 85c-10 14 -27 40 -38 82c-3 12 -10 43 -10 79c0 17 2 60 18 106
c46 128 159 150 209 150c21 0 45 -4 65 -11c52 -18 94 -62 113 -114c12 -34 14 -71 17 -108zM132 299h227c-1 52 -2 97 -43 129c-8 6 -32 23 -63 23c-43 0 -74 -32 -82 -41c-27 -31 -33 -71 -39 -111zM440 560l-17 -31l-126 40c-5 1 -25 8 -44 8c-13 0 -23 -3 -36 -6
l-139 -41l-16 34l150 75c25 9 32 11 46 11c5 0 11 0 21 -4c12 -4 45 -21 77 -38z" />
    <glyph glyph-name="edieresis" unicode="&#xeb;" horiz-adv-x="479" 
d="M456 258h-325c0 -16 -1 -31 1 -45c1 -12 9 -78 44 -121c15 -19 52 -54 117 -54c81 0 124 54 142 75l27 -21c-15 -22 -25 -33 -33 -41c-58 -58 -136 -62 -161 -62c-69 0 -142 30 -186 85c-10 14 -27 40 -38 82c-3 12 -10 43 -10 79c0 17 2 60 18 106
c46 128 159 150 209 150c21 0 45 -4 65 -11c52 -18 94 -62 113 -114c12 -34 14 -71 17 -108zM132 299h227c-1 52 -2 97 -43 129c-8 6 -32 23 -63 23c-43 0 -74 -32 -82 -41c-27 -31 -33 -71 -39 -111zM107 613c8 24 34 42 61 42c30 0 56 -25 56 -58c0 -34 -31 -59 -63 -59
c-36 0 -64 40 -54 75zM283 605c5 28 32 49 60 49c31 0 57 -27 57 -59s-30 -58 -62 -58c-34 0 -62 32 -55 68z" />
    <glyph glyph-name="igrave" unicode="&#xec;" horiz-adv-x="250" 
d="M84 88v309c-6 33 -14 33 -32 41s-19 15 -18 37l136 4v-400c6 -33 13 -33 31 -40c20 -8 21 -16 20 -39h-188c1 18 1 27 17 35c11 5 17 7 24 15c6 7 9 15 10 38zM244 547l-23 -37l-143 62c-7 3 -14 7 -22 11c-9 4 -40 15 -40 48c1 23 22 44 44 44c11 -1 22 -5 43 -20z" />
    <glyph glyph-name="iacute" unicode="&#xed;" horiz-adv-x="250" 
d="M84 88v309c-6 33 -14 33 -32 41s-19 15 -18 37l136 4v-400c6 -33 13 -33 31 -40c20 -8 21 -16 20 -39h-188c1 18 1 27 17 35c11 5 17 7 24 15c6 7 9 15 10 38zM30 497l-23 38l127 96c28 20 39 31 58 31c26 0 43 -19 43 -45c0 -25 -19 -36 -41 -47z" />
    <glyph glyph-name="icircumflex" unicode="&#xee;" horiz-adv-x="250" 
d="M84 88v309c-6 33 -14 33 -32 41s-19 15 -18 37l136 4v-400c6 -33 13 -33 31 -40c20 -8 21 -16 20 -39h-188c1 18 1 27 17 35c11 5 17 7 24 15c6 7 9 15 10 38zM315 560l-17 -31l-126 40c-5 1 -25 8 -44 8c-13 0 -23 -3 -36 -6l-139 -41l-16 34l150 75c25 9 32 11 46 11
c5 0 11 0 21 -4c12 -4 45 -21 77 -38z" />
    <glyph glyph-name="idieresis" unicode="&#xef;" horiz-adv-x="250" 
d="M84 88v309c-6 33 -14 33 -32 41s-19 15 -18 37l136 4v-400c6 -33 13 -33 31 -40c20 -8 21 -16 20 -39h-188c1 18 1 27 17 35c11 5 17 7 24 15c6 7 9 15 10 38zM-18 613c8 24 34 42 61 42c30 0 56 -25 56 -58c0 -34 -31 -59 -63 -59c-36 0 -64 40 -54 75zM158 605
c5 28 32 49 60 49c31 0 57 -27 57 -59s-30 -58 -62 -58c-34 0 -62 32 -55 68z" />
    <glyph glyph-name="ntilde" unicode="&#xf1;" 
d="M459 326v-248c0 -1 1 -15 4 -22c4 -13 16 -15 29 -21s17 -10 15 -37l-187 1c0 1 -1 15 1 22c5 14 23 14 36 22c12 7 13 21 14 36v256c-2 40 -5 70 -38 93c-9 6 -26 17 -53 17c-29 0 -69 -15 -91 -37c-8 -8 -12 -16 -18 -26v-305c1 -4 2 -22 12 -29c8 -6 19 -8 27 -12
c9 -6 9 -16 9 -37h-183c0 14 1 20 2 24c5 12 20 12 31 19c10 5 12 18 15 31v320c-3 42 -14 36 -35 46c-14 7 -14 17 -12 35l130 4v-49c5 4 22 19 39 30c42 27 98 30 112 30c18 0 72 -2 111 -45c29 -33 29 -73 30 -118zM295 620c20 -8 38 -16 59 -16c25 0 39 11 57 25
c6 -13 7 -18 7 -25c0 -11 -8 -18 -11 -22c-22 -20 -65 -37 -96 -37c-20 0 -39 8 -58 15c-6 3 -32 17 -60 17c-24 0 -43 -12 -63 -25c-1 4 -6 15 -6 26s4 17 23 30c13 10 38 30 81 30c26 0 43 -8 67 -18z" />
    <glyph glyph-name="ograve" unicode="&#xf2;" 
d="M33 243c0 12 2 39 11 72c18 68 58 123 122 154c45 22 85 25 104 25c77 0 129 -36 149 -54c56 -47 86 -124 86 -198c0 -30 -4 -92 -49 -158c-24 -34 -75 -96 -184 -96c-35 0 -74 8 -105 23c-90 42 -135 138 -134 232zM134 237c0 -6 1 -115 43 -171c14 -19 29 -27 37 -31
c25 -13 48 -14 59 -14c21 0 60 4 92 46c35 48 42 108 42 163c0 87 -16 138 -36 171c-10 17 -42 60 -100 60c-21 0 -41 -5 -58 -15c-46 -26 -82 -92 -79 -209zM389 547l-22 -37l-143 62c-7 3 -14 7 -22 11c-9 4 -40 15 -40 48c0 23 22 44 44 44c11 -1 22 -5 43 -20z" />
    <glyph glyph-name="oacute" unicode="&#xf3;" 
d="M33 243c0 12 2 39 11 72c18 68 58 123 122 154c45 22 85 25 104 25c77 0 129 -36 149 -54c56 -47 86 -124 86 -198c0 -30 -4 -92 -49 -158c-24 -34 -75 -96 -184 -96c-35 0 -74 8 -105 23c-90 42 -135 138 -134 232zM134 237c0 -6 1 -115 43 -171c14 -19 29 -27 37 -31
c25 -13 48 -14 59 -14c21 0 60 4 92 46c35 48 42 108 42 163c0 87 -16 138 -36 171c-10 17 -42 60 -100 60c-21 0 -41 -5 -58 -15c-46 -26 -82 -92 -79 -209zM176 497l-23 38l126 96c29 20 40 31 59 31c26 0 43 -19 43 -45c0 -25 -19 -36 -42 -47z" />
    <glyph glyph-name="ocircumflex" unicode="&#xf4;" 
d="M33 243c0 12 2 39 11 72c18 68 58 123 122 154c45 22 85 25 104 25c77 0 129 -36 149 -54c56 -47 86 -124 86 -198c0 -30 -4 -92 -49 -158c-24 -34 -75 -96 -184 -96c-35 0 -74 8 -105 23c-90 42 -135 138 -134 232zM134 237c0 -6 1 -115 43 -171c14 -19 29 -27 37 -31
c25 -13 48 -14 59 -14c21 0 60 4 92 46c35 48 42 108 42 163c0 87 -16 138 -36 171c-10 17 -42 60 -100 60c-21 0 -41 -5 -58 -15c-46 -26 -82 -92 -79 -209zM461 560l-17 -31l-126 40c-5 1 -25 8 -44 8c-13 0 -23 -3 -36 -6l-139 -41l-16 34l150 75c25 9 32 11 46 11
c5 0 11 0 20 -4c13 -4 45 -21 78 -38z" />
    <glyph glyph-name="otilde" unicode="&#xf5;" 
d="M33 243c0 12 2 39 11 72c18 68 58 123 122 154c45 22 85 25 104 25c77 0 129 -36 149 -54c56 -47 86 -124 86 -198c0 -30 -4 -92 -49 -158c-24 -34 -75 -96 -184 -96c-35 0 -74 8 -105 23c-90 42 -135 138 -134 232zM134 237c0 -6 1 -115 43 -171c14 -19 29 -27 37 -31
c25 -13 48 -14 59 -14c21 0 60 4 92 46c35 48 42 108 42 163c0 87 -16 138 -36 171c-10 17 -42 60 -100 60c-21 0 -41 -5 -58 -15c-46 -26 -82 -92 -79 -209zM295 620c20 -8 38 -16 59 -16c25 0 39 11 57 25c6 -13 7 -18 7 -25c0 -11 -8 -18 -11 -22
c-22 -20 -65 -37 -96 -37c-20 0 -39 8 -58 15c-6 3 -32 17 -60 17c-24 0 -43 -12 -63 -25c-1 4 -6 15 -6 26s4 17 23 30c13 10 38 30 81 30c26 0 43 -8 67 -18z" />
    <glyph glyph-name="odieresis" unicode="&#xf6;" 
d="M229 490c7 1 22 4 41 4c26 0 93 -5 148 -55c27 -25 85 -93 85 -199c0 -75 -31 -125 -46 -149c-4 -7 -20 -31 -40 -49c-54 -50 -122 -55 -147 -55c-28 0 -94 5 -152 53c-56 47 -86 122 -86 196c0 56 17 100 25 118c44 103 129 129 172 136zM230 630c10 -13 11 -28 11 -34
c0 -33 -28 -60 -60 -60c-31 0 -57 29 -57 59c0 15 9 58 56 58c19 0 38 -8 50 -23zM135 192c4 -42 11 -85 35 -121c13 -18 40 -51 97 -51c16 0 60 4 90 39c25 28 47 88 47 176c0 13 3 119 -46 182c-11 14 -39 43 -91 43c-8 0 -18 0 -34 -4c-21 -6 -49 -18 -72 -62
c-14 -28 -29 -71 -29 -143c0 -20 1 -40 3 -59zM407 626c8 -13 8 -23 8 -30c0 -34 -27 -59 -60 -59c-5 0 -11 0 -21 4c-22 9 -37 33 -37 56c0 31 28 56 59 56c9 0 37 -3 51 -27z" />
    <glyph glyph-name="divide" unicode="&#xf7;" horiz-adv-x="667" 
d="M381 160c0 -25 -20 -45 -46 -45s-46 19 -46 46c0 7 2 11 3 14c3 10 14 31 44 31c25 0 46 -20 45 -46zM381 420c0 -26 -21 -45 -47 -45c-25 0 -45 20 -45 46c1 26 20 45 47 46c25 -1 46 -21 45 -47zM667 261h-667v59h667v-59z" />
    <glyph glyph-name="oslash" unicode="&#xf8;" 
d="M407 448l46 54h49l-65 -82c28 -35 67 -77 67 -175c0 -31 -5 -122 -70 -188c-44 -44 -110 -69 -175 -69c-76 0 -118 34 -144 52l-68 -78h-50l91 107c-6 10 -12 19 -18 28c-28 44 -40 85 -40 138c0 29 4 95 48 159c23 34 78 98 187 98c75 0 118 -29 142 -44zM138 129
l233 274c-6 9 -10 15 -17 23c-28 32 -70 34 -84 34c-16 0 -60 -4 -92 -37c-54 -56 -53 -188 -53 -193c0 -38 6 -66 13 -101zM389 366l-235 -279c3 -5 11 -18 22 -30c12 -13 41 -36 89 -36c11 0 31 0 56 12c63 28 79 98 85 161c2 18 3 36 3 55c0 59 -13 94 -20 117z" />
    <glyph glyph-name="ugrave" unicode="&#xf9;" 
d="M163 479v-334c0 -11 1 -23 2 -34c2 -13 7 -41 39 -60c9 -5 27 -14 54 -14c49 0 78 25 111 55v287c-1 26 -4 35 -12 45c-7 9 -13 10 -24 14c-13 5 -17 8 -17 36l137 3v-390c1 -5 0 -29 13 -39c5 -4 12 -7 17 -11c14 -9 14 -18 12 -37h-124v47c-48 -34 -84 -59 -144 -59
c-55 0 -117 27 -139 75c-8 19 -11 37 -14 81v245c-3 36 -14 40 -33 47c-15 5 -20 9 -21 38zM389 547l-22 -37l-143 62c-7 3 -14 7 -22 11c-9 4 -40 15 -40 48c0 23 22 44 44 44c11 -1 22 -5 43 -20z" />
    <glyph glyph-name="uacute" unicode="&#xfa;" 
d="M163 479v-334c0 -11 1 -23 2 -34c2 -13 7 -41 39 -60c9 -5 27 -14 54 -14c49 0 78 25 111 55v287c-1 26 -4 35 -12 45c-7 9 -13 10 -24 14c-13 5 -17 8 -17 36l137 3v-390c1 -5 0 -29 13 -39c5 -4 12 -7 17 -11c14 -9 14 -18 12 -37h-124v47c-48 -34 -84 -59 -144 -59
c-55 0 -117 27 -139 75c-8 19 -11 37 -14 81v245c-3 36 -14 40 -33 47c-15 5 -20 9 -21 38zM176 497l-23 38l126 96c29 20 40 31 59 31c26 0 43 -19 43 -45c0 -25 -19 -36 -42 -47z" />
    <glyph glyph-name="ucircumflex" unicode="&#xfb;" 
d="M163 479v-334c0 -11 1 -23 2 -34c2 -13 7 -41 39 -60c9 -5 27 -14 54 -14c49 0 78 25 111 55v287c-1 26 -4 35 -12 45c-7 9 -13 10 -24 14c-13 5 -17 8 -17 36l137 3v-390c1 -5 0 -29 13 -39c5 -4 12 -7 17 -11c14 -9 14 -18 12 -37h-124v47c-48 -34 -84 -59 -144 -59
c-55 0 -117 27 -139 75c-8 19 -11 37 -14 81v245c-3 36 -14 40 -33 47c-15 5 -20 9 -21 38zM461 560l-17 -31l-126 40c-5 1 -25 8 -44 8c-13 0 -23 -3 -36 -6l-139 -41l-16 34l150 75c25 9 32 11 46 11c5 0 11 0 20 -4c13 -4 45 -21 78 -38z" />
    <glyph glyph-name="udieresis" unicode="&#xfc;" 
d="M366 94v290c-4 42 -12 48 -33 55c-14 6 -20 8 -20 36l139 4v-397c2 -22 6 -30 13 -36c5 -3 12 -6 18 -8c15 -6 22 -8 21 -38h-136v49c-12 -9 -24 -18 -36 -26c-16 -10 -53 -34 -108 -34c-40 0 -80 14 -111 41c-17 15 -23 27 -27 36c-9 18 -12 36 -13 79v236
c0 2 1 17 -1 26c-2 11 -6 21 -29 29c-16 6 -22 8 -23 40l140 3v-332c1 -6 0 -34 7 -54c7 -18 32 -54 87 -54c30 0 65 12 89 30c11 9 21 21 23 25zM222 621c3 -5 8 -14 8 -29c0 -3 -1 -12 -5 -20c-8 -22 -32 -37 -57 -37c-31 0 -56 28 -56 59c0 5 1 16 7 26c5 11 20 30 50 30
c21 0 43 -10 53 -29zM374 642c10 -5 30 -20 30 -50c0 -32 -24 -58 -57 -58c-31 0 -61 25 -61 58c0 31 28 59 58 59c6 0 17 -1 30 -9z" />
    <glyph glyph-name="ydieresis" unicode="&#xff;" horiz-adv-x="500" 
d="M332 479l166 -1c1 -32 -6 -34 -21 -40c-16 -7 -21 -9 -34 -35l-89 -219l-52 -127c-39 -93 -49 -131 -77 -177c-19 -32 -35 -47 -63 -71c-13 -8 -30 -21 -65 -21c-27 0 -55 9 -72 32c-10 12 -11 23 -11 30c0 8 2 13 4 17c9 19 27 29 47 29c14 0 29 -5 39 -16
c9 -12 13 -28 26 -28c20 0 38 24 39 26c32 46 38 58 58 110c-23 63 -47 125 -72 187c-19 48 -40 96 -58 143c-6 18 -12 35 -20 53c-6 15 -14 30 -21 45c-15 22 -20 21 -35 26c-14 5 -19 7 -18 37h209v-17c-5 -15 -8 -20 -26 -25c-6 -2 -23 -3 -23 -19c0 -3 2 -14 3 -18
l109 -302c13 37 27 74 41 110c12 33 25 66 36 99c9 28 17 56 24 84c0 1 1 11 1 17c-1 23 -20 28 -28 31c-14 5 -18 10 -17 40zM107 613c8 24 34 42 61 42c30 0 56 -25 56 -58c0 -34 -31 -59 -63 -59c-36 0 -64 40 -54 75zM283 605c5 28 32 49 60 49c31 0 57 -27 57 -59
s-30 -58 -62 -58c-34 0 -62 32 -55 68z" />
    <glyph glyph-name="dotlessi" unicode="&#x131;" horiz-adv-x="250" 
d="M84 88v309c-6 33 -14 33 -32 41s-19 15 -18 37l136 4v-400c6 -33 13 -33 31 -40c20 -8 21 -16 20 -39h-188c1 18 1 27 17 35c11 5 17 7 24 15c6 7 9 15 10 38z" />
    <glyph glyph-name="OE" unicode="&#x152;" horiz-adv-x="979" 
d="M429 701h408c42 0 51 5 74 15v-170c-13 -1 -16 -1 -23 0c-23 4 -28 27 -37 47c-5 12 -10 21 -18 31c-16 21 -32 29 -83 35h-162v-271h89c6 1 38 2 53 19c7 10 12 23 13 27c8 22 12 22 48 22v-182c-27 -2 -35 0 -42 9c-3 4 -5 7 -10 18c-7 15 -10 20 -16 25
c-16 17 -37 19 -58 20h-78v-302h166c79 5 119 18 139 99c1 7 2 14 5 21c6 18 19 17 52 21v-184h-528c-19 -1 -39 -1 -58 -1c-38 1 -118 3 -198 62c-24 17 -48 40 -65 63c-44 61 -65 157 -65 234c0 39 2 134 71 220c31 40 115 125 256 125c22 0 45 -2 67 -3zM487 108v486
c-1 29 -3 44 -29 58c-16 9 -40 17 -80 17c-67 0 -117 -14 -160 -62c-45 -50 -61 -110 -68 -175c-3 -27 -5 -54 -5 -81c0 -63 13 -159 43 -215c13 -24 31 -46 53 -62c11 -9 30 -22 62 -31c10 -3 38 -9 69 -9c59 0 94 13 108 35c7 11 7 24 7 39z" />
    <glyph glyph-name="oe" unicode="&#x153;" horiz-adv-x="854" 
d="M823 255h-197l-134 -1c1 -43 3 -74 19 -115c2 -6 10 -27 22 -43c14 -20 31 -32 39 -37c35 -23 70 -25 85 -25c18 0 57 3 98 32c18 13 33 29 47 46l30 -20c-24 -30 -35 -42 -50 -55c-22 -20 -68 -51 -147 -51c-10 0 -38 1 -66 10c-55 15 -84 47 -122 90
c-12 -17 -22 -31 -37 -44c-21 -20 -70 -54 -143 -54c-31 0 -115 9 -174 78c-22 25 -62 84 -62 176c0 29 5 103 57 167c43 52 109 85 177 85c72 0 124 -34 143 -51c16 -13 26 -27 37 -44c4 6 19 26 36 42c37 33 92 51 142 51c20 0 86 -3 134 -49c50 -48 62 -121 64 -139
c2 -15 2 -22 2 -49zM239 456c-8 -2 -28 -8 -47 -25c-36 -29 -60 -80 -60 -181c0 -5 -2 -131 48 -191c29 -35 70 -37 86 -37c12 0 49 2 75 28c27 26 58 92 58 187c0 10 0 113 -40 172c-26 38 -75 57 -120 47zM495 300h231c-3 50 -7 106 -50 136c-23 16 -47 18 -57 18
c-13 0 -34 -2 -59 -19c-50 -32 -57 -80 -65 -135z" />
    <glyph glyph-name="Ydieresis" unicode="&#x178;" horiz-adv-x="604" 
d="M464 700l176 -1c1 -15 0 -19 -2 -26c-4 -12 -13 -11 -34 -22c-10 -6 -20 -13 -34 -33c-16 -23 -30 -45 -44 -68l-57 -93l-99 -157v-225c7 -30 14 -30 32 -37c19 -7 21 -15 22 -37h-206c0 25 2 31 24 38c20 7 28 8 32 44v216l-99 162l-54 85c-14 21 -26 42 -40 62
c-24 36 -31 42 -55 49c-24 8 -26 15 -26 43l226 -1c0 -26 -5 -30 -17 -35c-14 -6 -24 -9 -24 -24c0 -12 9 -22 16 -33c6 -10 11 -20 16 -29l15 -26c9 -14 18 -29 26 -43l94 -155l73 122l67 111c12 21 18 31 18 42c0 4 0 12 -6 18c-8 10 -26 12 -35 21c-4 5 -6 13 -5 32z
M188 840c6 27 33 47 60 47c5 0 14 0 25 -6c20 -11 32 -30 32 -52c0 -11 -4 -21 -5 -25c-10 -22 -30 -33 -55 -33c-10 0 -20 2 -29 7c-21 12 -33 37 -28 62zM363 837c5 31 29 49 59 50c49 -1 58 -43 58 -60c0 -33 -25 -56 -59 -56c-37 0 -63 30 -58 66z" />
    <glyph glyph-name="circumflex" unicode="&#x2c6;" horiz-adv-x="271" 
d="M243 560l-18 -31l-126 40c-5 1 -25 8 -44 8c-13 0 -22 -3 -36 -6l-139 -41l-16 34l150 75c25 9 32 11 46 11c5 0 11 0 21 -4c12 -4 45 -21 77 -38z" />
    <glyph glyph-name="caron" unicode="&#x2c7;" horiz-adv-x="271" 
d="M-121 658l27 -10l102 -32c14 -4 29 -9 44 -9c14 0 25 4 38 8l137 42l13 -37l-101 -51c-39 -20 -63 -34 -86 -34c-21 0 -49 13 -53 15l-137 73z" />
    <glyph glyph-name="tilde" unicode="&#x2dc;" horiz-adv-x="271" 
d="M77 620c19 -8 37 -16 58 -16c25 0 39 11 57 25c6 -13 7 -18 7 -25c0 -11 -7 -18 -11 -22c-22 -20 -65 -37 -95 -37c-20 0 -40 8 -59 15c-5 3 -32 17 -60 17c-24 0 -42 -12 -62 -25c-2 4 -7 15 -6 26c0 11 4 17 22 30c13 10 39 30 81 30c26 0 43 -8 68 -18z" />
    <glyph glyph-name="endash" unicode="&#x2013;" horiz-adv-x="479" 
d="M38 278h419v-78h-419v78z" />
    <glyph glyph-name="emdash" unicode="&#x2014;" horiz-adv-x="667" 
d="M667 262h-667v59h667v-59z" />
    <glyph glyph-name="quoteleft" unicode="&#x2018;" horiz-adv-x="208" 
d="M137 710l33 -31c-21 -25 -49 -57 -60 -86c-3 -9 -4 -14 -7 -33c26 -3 47 -7 61 -28c4 -5 10 -16 10 -33c0 -9 -2 -16 -5 -23c-5 -12 -21 -38 -56 -38c-49 0 -76 43 -76 88c0 15 3 32 8 46c11 32 40 79 61 105c10 11 20 22 31 33z" />
    <glyph glyph-name="quoteright" unicode="&#x2019;" horiz-adv-x="208" 
d="M74 438l-35 31c22 24 49 52 60 84c4 12 5 19 6 32c-26 4 -46 8 -60 31c-2 4 -8 17 -9 32c0 9 1 14 5 22c9 25 32 40 59 40c48 0 73 -45 73 -90c0 -10 -1 -29 -10 -53c-17 -49 -54 -90 -89 -129z" />
    <glyph glyph-name="quotesinglbase" unicode="&#x201a;" horiz-adv-x="208" 
d="M74 -165l-37 33c25 24 33 33 49 60c13 23 18 35 20 59c-14 1 -22 2 -29 4c-17 7 -43 25 -43 63c0 5 0 10 5 20c7 19 25 40 61 40c6 0 21 0 40 -14c10 -7 14 -13 17 -17c6 -9 17 -33 17 -60c0 -7 -1 -14 -2 -21c-13 -72 -79 -146 -98 -167z" />
    <glyph glyph-name="quotedblleft" unicode="&#x201c;" horiz-adv-x="375" 
d="M160 708l27 -29c-54 -51 -66 -69 -77 -109c13 -2 18 -4 23 -6c20 -11 34 -34 34 -58c-1 -34 -31 -61 -64 -61c-43 0 -70 37 -70 78c0 51 47 115 80 147c15 15 29 25 47 38zM311 710l30 -31c-4 -4 -49 -44 -66 -80c-2 -7 -7 -22 -8 -28c25 -4 44 -8 57 -32
c2 -5 8 -17 8 -32c0 -5 -1 -13 -5 -24c-11 -24 -34 -38 -60 -38c-44 1 -71 40 -71 82c0 12 2 29 12 53c21 51 62 90 103 130z" />
    <glyph glyph-name="quotedblright" unicode="&#x201d;" horiz-adv-x="375" 
d="M59 443l-32 27l24 24c30 30 38 45 53 83c-9 0 -17 0 -26 3c-24 9 -40 36 -40 62c0 34 31 64 66 64c45 -1 70 -43 70 -86c0 -9 -2 -28 -11 -50c-19 -47 -68 -93 -104 -127zM210 443l-29 27c34 32 55 53 65 70c6 11 7 16 13 37c-2 0 -13 3 -21 7c-31 15 -36 47 -36 59
c0 11 3 18 5 23c6 12 23 40 61 40c46 -1 71 -39 71 -81c0 -15 -4 -41 -24 -71c-5 -8 -41 -56 -73 -85c-10 -10 -21 -18 -32 -26z" />
    <glyph glyph-name="quotedblbase" unicode="&#x201e;" horiz-adv-x="375" 
d="M59 -152l-30 30c43 40 52 52 74 105c-24 7 -44 13 -56 35c-4 6 -9 17 -9 33c0 9 2 17 6 25c5 11 22 38 58 38c44 0 70 -41 70 -83c0 -26 -9 -48 -12 -57c-21 -49 -63 -89 -101 -126zM211 -152l-31 29c10 8 20 16 29 25c22 20 32 33 50 84c-23 8 -40 14 -51 36
c-2 5 -6 14 -6 29c0 35 31 63 65 63c44 0 70 -37 69 -79c0 -13 -2 -33 -16 -60c-25 -50 -67 -89 -109 -127z" />
    <glyph glyph-name="dagger" unicode="&#x2020;" horiz-adv-x="458" 
d="M271 616v-132h76c28 2 28 8 36 23c8 14 15 15 33 14v-123c-25 0 -29 5 -36 16c-4 6 -7 11 -13 15s-11 5 -29 4h-68v-353c6 -25 8 -29 32 -39c21 -9 22 -17 22 -40h-192c-1 23 1 30 20 39c24 10 26 13 31 39v353h-71c-27 -1 -31 -5 -38 -16c-11 -18 -13 -20 -36 -19l1 123
c1 0 13 0 20 -3c9 -5 12 -20 20 -27c4 -3 10 -5 22 -7h81v135c-5 32 -13 33 -29 40c-22 9 -23 16 -22 42l193 -1c0 -1 0 -16 -2 -24c-5 -14 -20 -15 -33 -22c-13 -8 -15 -20 -18 -37z" />
    <glyph glyph-name="bullet" unicode="&#x2022;" horiz-adv-x="333" 
d="M286 353c0 -25 -7 -43 -11 -52c-19 -43 -60 -67 -107 -67c-9 0 -29 1 -51 11c-43 19 -70 60 -70 107c1 68 55 120 122 120c66 0 117 -52 117 -119z" />
    <glyph glyph-name="ellipsis" unicode="&#x2026;" horiz-adv-x="1000" 
d="M880 41c0 -25 -21 -47 -46 -47c-27 0 -47 21 -47 47c0 27 22 46 47 46c26 0 46 -19 46 -46zM547 41c0 -25 -20 -48 -47 -47c-27 0 -46 21 -46 47s21 46 47 46s45 -19 46 -46zM213 41c0 -25 -19 -48 -46 -47c-26 0 -47 21 -47 47c0 27 22 46 47 46c27 0 46 -19 46 -46z
" />
    <glyph glyph-name="fraction" unicode="&#x2044;" horiz-adv-x="125" 
d="M277 695l41 -1l-183 -268l-141 -208l-149 -219h-38l157 231l122 183l133 190c20 30 39 61 58 92z" />
    <glyph glyph-name="trademark" unicode="&#x2122;" horiz-adv-x="771" 
d="M418 611v-157c0 -21 1 -36 10 -42c7 -6 21 -6 22 -6l8 -1v-31c-39 1 -78 1 -117 0v31l8 1c25 4 28 12 28 49v208l-3 4c-10 6 -11 7 -28 8v31c20 -1 40 -1 60 -1c11 0 22 1 33 1l100 -247l105 247c31 -1 62 0 93 0v-31h-8c-19 -2 -31 -5 -31 -38v-183c0 -20 -1 -36 6 -42
s19 -6 20 -6l7 -1v-31c-25 1 -51 2 -76 2c-17 -1 -33 -1 -50 -2v31l7 1c26 1 26 14 26 27v176l-98 -235h-23zM311 620l-29 1l-9 24c-13 29 -32 28 -46 28h-29v-221c0 -6 1 -11 1 -16c0 -21 4 -27 26 -29l19 -2l-1 -31c-34 1 -69 2 -103 1c-17 0 -34 -1 -51 -1v31l18 1
c9 2 14 3 18 5c11 6 10 20 10 41v221h-29c-13 0 -17 0 -24 -3c-18 -8 -25 -34 -30 -50l-30 1c2 28 3 57 4 85c35 0 70 -1 104 -1c59 -1 118 0 177 1c1 -29 2 -57 4 -86z" />
    <glyph glyph-name="minus" unicode="&#x2212;" horiz-adv-x="667" 
d="M667 262h-667v59h667v-59z" />
    <glyph glyph-name="Acute" unicode="&#xf6c9;" horiz-adv-x="271" 
d="M-42 752l-23 38l141 108c13 9 30 20 44 20c3 0 8 -1 15 -4c16 -6 28 -22 28 -40c0 -10 -4 -19 -5 -21c-8 -15 -26 -24 -57 -38z" />
    <glyph glyph-name="Caron" unicode="&#xf6ca;" horiz-adv-x="271" 
d="M226 885l12 -36l-103 -54c-41 -17 -68 -30 -87 -29c-16 0 -36 8 -39 10c-20 8 -38 17 -57 25l-90 52l16 32l138 -43c5 -1 21 -6 38 -6c13 1 25 5 38 8c9 3 19 5 28 8z" />
    <glyph glyph-name="Dieresis" unicode="&#xf6cb;" horiz-adv-x="271" 
d="M-93 840c5 27 33 47 60 47c4 0 14 0 24 -6c21 -11 33 -30 33 -52c0 -11 -4 -21 -6 -25c-10 -22 -30 -33 -54 -33c-11 0 -20 2 -29 7c-21 12 -33 37 -28 62zM82 837c5 31 29 49 59 50c49 -1 57 -43 57 -60c0 -33 -25 -56 -58 -56c-37 0 -63 30 -58 66z" />
    <glyph glyph-name="Grave" unicode="&#xf6ce;" horiz-adv-x="271" 
d="M168 776l-23 -36l-162 71c-24 13 -42 24 -42 48c0 12 7 45 44 45c9 0 14 -1 22 -5c9 -4 24 -16 43 -30z" />
    <glyph glyph-name="onefitted" unicode="&#xf6dc;" horiz-adv-x="313" 
d="M8 609v28l143 61h50v-613c0 -1 2 -12 4 -18c9 -19 28 -19 47 -24c23 -7 24 -17 24 -44h-248c0 33 4 40 34 45c23 4 29 6 38 15c11 10 13 22 14 36v514h-106z" />
    <glyph glyph-name="fi" unicode="&#xfb01;" horiz-adv-x="521" 
d="M172 476h92v-52h-94v-342c4 -38 13 -39 34 -43c26 -6 29 -11 27 -39h-200c0 9 0 15 3 22c5 11 23 13 34 20c12 8 14 22 16 37v344l-66 1c1 18 2 31 16 36c18 7 29 3 42 17s10 30 12 65c5 55 15 103 60 137c21 16 49 27 77 27c31 0 49 -16 57 -26c6 -8 9 -16 9 -26
c0 -2 0 -9 -3 -16c-7 -17 -22 -28 -41 -28c-14 0 -27 5 -38 15c-8 7 -17 18 -27 18c-3 0 -6 -1 -9 -3c-4 -3 -8 -7 -8 -21c0 -10 1 -20 2 -30c1 -11 2 -21 2 -32c2 -27 2 -54 3 -81zM356 83v308c0 4 0 23 -9 35c-6 7 -12 9 -22 13c-19 6 -19 14 -20 36l138 5v-396
c1 -3 1 -13 4 -22c4 -14 13 -18 27 -24s21 -8 19 -38h-186c-1 33 8 31 24 38c7 3 12 6 17 11c9 11 8 30 8 34zM333 648c6 28 34 49 62 49c31 0 56 -28 56 -60c-1 -32 -31 -58 -62 -58c-35 0 -63 34 -56 69z" />
    <glyph glyph-name="fl" unicode="&#xfb02;" horiz-adv-x="521" 
d="M172 476h92v-52h-94v-342c4 -38 13 -39 34 -43c26 -6 29 -11 27 -39h-200c0 9 0 15 3 22c5 11 23 13 34 20c12 8 14 22 16 37v344l-66 1c1 18 2 31 16 36c18 7 29 3 42 17s10 30 12 65c5 55 15 103 60 137c21 16 49 27 77 27c31 0 49 -16 57 -26c6 -8 9 -16 9 -26
c0 -2 0 -9 -3 -16c-7 -17 -22 -28 -41 -28c-14 0 -27 5 -38 15c-8 7 -17 18 -27 18c-3 0 -6 -1 -9 -3c-4 -3 -8 -7 -8 -21c0 -10 1 -20 2 -30c1 -11 2 -21 2 -32c2 -27 2 -54 3 -81zM304 696l141 5v-625c4 -25 10 -29 23 -35c24 -11 27 -12 26 -42h-189c-1 14 0 18 2 23
c5 13 23 16 35 24c9 6 12 14 14 37v521c-2 28 -5 41 -33 53c-14 6 -19 8 -19 39z" />
    <glyph glyph-name="Circumflex" horiz-adv-x="271" 
d="M239 787l-16 -31l-126 39c-2 1 -29 9 -45 9c-11 0 -16 -1 -34 -6l-141 -39l-16 31l154 77c21 9 26 11 38 11c18 0 39 -11 44 -13z" />
    <glyph glyph-name="Tilde" horiz-adv-x="271" 
d="M99 843c5 -1 22 -6 37 -6c16 0 28 5 55 25c1 -3 7 -16 7 -26c0 -12 -10 -19 -21 -28c-9 -7 -41 -31 -82 -31c-26 0 -57 14 -63 16c-9 4 -29 15 -56 15c-36 0 -51 -15 -64 -25c-4 9 -7 17 -7 26c0 4 0 8 5 15c9 12 51 45 100 45c30 0 41 -10 89 -26z" />
    </font>
</defs>
</svg>
