<?xml version="1.0" standalone="no"?>
<!DOCTYPE svg PUBLIC "-//W3C//DTD SVG 1.1//EN" "http://www.w3.org/Graphics/SVG/1.1/DTD/svg11.dtd" >
<svg>
<metadata>
Created by FontForge 20090914 at Wed Oct 21 08:52:30 2020
 By www-data
&#194;&#169; 2014 The Monotype Corporation. All Rights Reserved.
</metadata>
<defs>
<font id="GeorgiaPro-Light" horiz-adv-x="1126" >
  <font-face 
    font-family="Georgia Pro Light"
    font-weight="300"
    font-stretch="normal"
    units-per-em="2048"
    panose-1="2 4 3 2 5 4 5 2 3 3"
    ascent="1638"
    descent="-410"
    x-height="982.998"
    cap-height="1419"
    bbox="-912.999 -621 2271 1878"
    underline-thickness="101"
    underline-position="-131"
    unicode-range="U+0020-U+FEFF"
  />
<missing-glyph horiz-adv-x="2048" 
d="M256 0v1536h1536v-1536h-1536zM385 129h1280v1280h-1280v-1280z" />
    <glyph glyph-name="uniFB00" unicode="ff" horiz-adv-x="1210" 
d="M1364 1448c0 -9.33301 -1.16406 -18.499 -3.49707 -27.499s-6.33301 -17.167 -12 -24.5s-13 -13.166 -22 -17.499s-19.833 -6.5 -32.5 -6.5c-28.667 0 -53.667 8.5 -75 25.5s-41.333 39.833 -60 68.5c-27.333 0 -53.5 -6.5 -78.5 -19.5s-47 -34.333 -66 -64
s-34.167 -68.334 -45.5 -116.001s-17 -105.834 -17 -174.501v-109h246v-80h-246v-731c0 -20.667 3.83301 -39 11.5 -55s20.167 -27 37.5 -33c7.33301 -3.33301 16.833 -6 28.5 -8l36.5 -6c12.667 -2 25.167 -3.66699 37.5 -5s22.833 -2.66602 31.5 -3.99902v-61h-443v61
c17.333 1.33301 32.833 2.83301 46.5 4.5s27.5 4.5 41.5 8.5c19.333 5.33301 33.5 15.666 42.5 30.999s13.5 34.333 13.5 57v741h-496v-731c0 -20.667 3.83301 -39 11.5 -55s20.167 -27 37.5 -33c7.33301 -3.33301 16.666 -6 27.999 -8s23.333 -4 36 -6
s25.167 -3.66699 37.5 -5s22.833 -2.66602 31.5 -3.99902v-61h-442v61c17.333 1.33301 32.666 2.83301 45.999 4.5s27.333 4.5 42 8.5c19.333 5.33301 33.333 15.666 42 30.999s13 34.333 13 57v741h-190v80h190v45c0 78 12.667 146.667 38 206s58.166 109.333 98.499 150
s86 71.334 137 92.001s102.5 31 154.5 31c46 0 81.167 -10 105.5 -30s36.5 -43.333 36.5 -70c0 -18.667 -5.33301 -36 -16 -52s-28.667 -24 -54 -24c-28.667 0 -53.667 8.5 -75 25.5s-41.333 39.833 -60 68.5c-32.667 0 -64 -6.5 -94 -19.5s-56.333 -34.333 -79 -64
s-40.834 -68.334 -54.501 -116.001s-20.5 -105.834 -20.5 -174.501v-68h496v86c0 78 11.333 146.667 34 206s52.334 109.333 89.001 150s78.167 71.334 124.5 92.001s92.833 31 139.5 31c46 0 81 -10 105 -30s36 -43.333 36 -70z" />
    <glyph glyph-name="uniFB01" unicode="fi" horiz-adv-x="1151" 
d="M836 815c0 21.333 -1.66602 38.5029 -4.99902 51.5029s-8 25.167 -14 36.5h-477v-731c0 -20.667 3.83301 -39 11.5 -55s20.167 -27 37.5 -33c15.333 -5.33301 33.5 -9.83301 54.5 -13.5s41.833 -6.83398 62.5 -9.50098v-61h-426v61
c18.667 1.33301 34.167 2.83301 46.5 4.5s26.166 4.5 41.499 8.5c18.667 5.33301 32.5 15 41.5 29s13.5 34.333 13.5 61v739h-190v80h190v25c0 75.333 12.167 145.833 36.5 211.5s57.666 123 99.999 172s92.666 87.667 150.999 116s121.5 42.5 189.5 42.5
c42.667 0 79.334 -4.33301 110.001 -13s55.834 -19.834 75.501 -33.501s34 -29.167 43 -46.5s13.5 -34.666 13.5 -51.999c0 -10 -1 -20 -3 -30s-5.66699 -18.833 -11 -26.5s-12.5 -13.834 -21.5 -18.501s-20.5 -7 -34.5 -7c-20 0 -37.333 4.66699 -52 14
s-27.167 21.5 -37.5 36.5s-18.833 31.833 -25.5 50.5s-12 37 -16 55h-49c-42.667 0 -85 -7.66699 -127 -23s-79.667 -40.166 -113 -74.499s-60.333 -79 -81 -134s-31 -121.833 -31 -200.5v-64h350l248 14l14 -14v-809c0 -22.667 5 -41.334 15 -56.001s23.667 -26 41 -34
c13.333 -6 26.5 -10.667 39.5 -14s29.167 -6.33301 48.5 -9v-61h-402v61c17.333 1.33301 32.833 2.83301 46.5 4.5s28.167 4.5 43.5 8.5c17.333 5.33301 30.333 15.666 39 30.999s13 34.333 13 57v653z" />
    <glyph glyph-name="uniFB02" unicode="fl" horiz-adv-x="1157" 
d="M694 0l0.00292969 61.001c16.667 1.33301 32.167 2.83301 46.5 4.5s28.166 4.5 41.499 8.5c19.333 5.33301 33.166 15.666 41.499 30.999s12.5 34.333 12.5 57v1243c-11.333 10.667 -24.666 20.334 -39.999 29.001s-32 16 -50 22s-36.667 10.667 -56 14s-38.333 5 -57 5
c-39.333 0 -76.833 -7.5 -112.5 -22.5s-66.834 -38.833 -93.501 -71.5s-47.834 -74.667 -63.501 -126s-23.5 -113.333 -23.5 -186v-86h235v-80h-235v-731c0 -20.667 3.83301 -39 11.5 -55s20.167 -27 37.5 -33c15.333 -5.33301 33.5 -9.83301 54.5 -13.5
s41.833 -6.83398 62.5 -9.50098v-61h-426v61c18.667 1.33301 34.167 2.83301 46.5 4.5s26.166 4.5 41.499 8.5c18.667 5.33301 32.5 15 41.5 29s13.5 34.333 13.5 61v739h-190v80h190v49c0 38.667 4 78.334 12 119.001s20 80.167 36 118.5s36.167 74.5 60.5 108.5
s52.333 63.667 84 89s67.334 45.5 107.001 60.5s83.167 22.5 130.5 22.5c45.333 0 88 -4.33301 128 -13s72 -18.667 96 -30l61 41l14 -14v-1360c0 -22.667 5 -41.334 15 -56.001s23.667 -26 41 -34c13.333 -6 27 -10.667 41 -14s29.667 -6.33301 47 -9v-61h-402z" />
    <glyph glyph-name="uniFB03" unicode="ffi" horiz-adv-x="1763" 
d="M836 903l-495.994 0.00292969v-731c0 -20.667 3.83301 -39 11.5 -55s20.167 -27 37.5 -33c7.33301 -3.33301 16.666 -6 27.999 -8s23.333 -4 36 -6s25.167 -3.66699 37.5 -5s22.833 -2.66602 31.5 -3.99902v-61h-442v61c17.333 1.33301 32.666 2.83301 45.999 4.5
s27.333 4.5 42 8.5c19.333 5.33301 33.333 15.666 42 30.999s13 34.333 13 57v741h-190v80h190v45c0 78 12.667 146.667 38 206s58.166 109.333 98.499 150s86 71.334 137 92.001s102.5 31 154.5 31c46 0 81.167 -10 105.5 -30s36.5 -43.333 36.5 -70
c0 -18.667 -5.33301 -36 -16 -52s-28.667 -24 -54 -24c-28.667 0 -53.667 8.5 -75 25.5s-41.333 39.833 -60 68.5c-32.667 0 -64 -6.5 -94 -19.5s-56.333 -34.333 -79 -64s-40.834 -68.334 -54.501 -116.001s-20.5 -105.834 -20.5 -174.501v-68h496v25
c0 75.333 12 145.833 36 211.5s57.333 123 100 172s93.167 87.667 151.5 116s121.5 42.5 189.5 42.5c42.667 0 79.334 -4.33301 110.001 -13s55.667 -19.834 75 -33.501s33.5 -29.167 42.5 -46.5s13.5 -34.666 13.5 -51.999c0 -10 -1 -20 -3 -30s-5.66699 -18.833 -11 -26.5
s-12.333 -13.834 -21 -18.501s-20 -7 -34 -7c-20 0 -37.5 4.66699 -52.5 14s-27.667 21.5 -38 36.5s-18.833 31.833 -25.5 50.5s-11.667 37 -15 55h-49c-42.667 0 -85 -7.66699 -127 -23s-79.833 -40.166 -113.5 -74.499s-60.834 -79 -81.501 -134s-31 -121.833 -31 -200.5
v-64h351l247 14l15 -14v-809c0 -43.333 18.333 -73.333 55 -90c13.333 -6 26.5 -10.667 39.5 -14s29.167 -6.33301 48.5 -9v-61h-401v61c17.333 1.33301 32.833 2.83301 46.5 4.5s28.167 4.5 43.5 8.5c17.333 5.33301 30.166 15.666 38.499 30.999s12.5 34.333 12.5 57v653
c0 21.333 -1.5 38.5 -4.5 51.5s-7.5 25.167 -13.5 36.5h-478v-731c0 -20.667 3.83301 -39 11.5 -55s20.167 -27 37.5 -33c15.333 -5.33301 33.5 -9.83301 54.5 -13.5s41.833 -6.83398 62.5 -9.50098v-61h-426v61c18.667 1.33301 34.167 2.83301 46.5 4.5
s26.166 4.5 41.499 8.5c18.667 5.33301 32.667 15 42 29s14 34.333 14 61v739z" />
    <glyph glyph-name="uniFB04" unicode="ffl" horiz-adv-x="1724" 
d="M340 172c0 -20.667 3.83789 -38.999 11.5049 -54.999s20.167 -27 37.5 -33c7.33301 -3.33301 16.666 -6 27.999 -8s23.333 -4 36 -6s25.167 -3.66699 37.5 -5s22.833 -2.66602 31.5 -3.99902v-61h-442v61c17.333 1.33301 32.666 2.83301 45.999 4.5s27.333 4.5 42 8.5
c19.333 5.33301 33.333 15.666 42 30.999s13 34.333 13 57v741h-190v80h190v45c0 78 12.667 146.667 38 206s58.166 109.333 98.499 150s86 71.334 137 92.001s102.5 31 154.5 31c46 0 81.167 -10 105.5 -30s36.5 -43.333 36.5 -70c0 -18.667 -5.33301 -36 -16 -52
s-28.667 -24 -54 -24c-28.667 0 -53.667 8.5 -75 25.5s-41.333 39.833 -60 68.5c-32.667 0 -64 -6.5 -94 -19.5s-56.333 -34.333 -79 -64s-40.834 -68.334 -54.501 -116.001s-20.5 -105.834 -20.5 -174.501v-68h496v49c0 38.667 4 78.334 12 119.001s20 80.167 36 118.5
s36 74.5 60 108.5s52 63.667 84 89s67.833 45.5 107.5 60.5s83.167 22.5 130.5 22.5c22.667 0 44.834 -1.16699 66.501 -3.5s42.167 -5.5 61.5 -9.5s37 -8.5 53 -13.5s30 -10.5 42 -16.5l61 41l15 -14v-1360c0 -43.333 18.333 -73.333 55 -90c13.333 -6 27 -10.667 41 -14
s29.667 -6.33301 47 -9v-61h-401v61c16 1.33301 31.333 2.83301 46 4.5s28.667 4.5 42 8.5c19.333 5.33301 33 15.666 41 30.999s12 34.333 12 57v1243c-11.333 10.667 -24.666 20.334 -39.999 29.001s-32 16 -50 22s-36.667 10.667 -56 14s-38.333 5 -57 5
c-39.333 0 -76.833 -7.5 -112.5 -22.5s-66.834 -38.833 -93.501 -71.5s-47.834 -74.667 -63.501 -126s-23.5 -113.333 -23.5 -186v-86h236v-80h-236v-731c0 -20.667 3.83301 -39 11.5 -55s20.167 -27 37.5 -33c15.333 -5.33301 33.5 -9.83301 54.5 -13.5
s41.833 -6.83398 62.5 -9.50098v-61h-426v61c18.667 1.33301 34.167 2.83301 46.5 4.5s26.166 4.5 41.499 8.5c18.667 5.33301 32.667 15 42 29s14 34.333 14 61v739h-496v-731z" />
    <glyph glyph-name="f_j.liga" unicode="fj" 
d="M836 815c0 21.333 -1.66504 38.502 -4.99805 51.502s-8 25.167 -14 36.5h-477v-731c0 -20.667 3.83301 -39 11.5 -55s20.167 -27 37.5 -33c15.333 -5.33301 33.5 -9.83301 54.5 -13.5s41.833 -6.83398 62.5 -9.50098v-61h-426v61c18.667 1.33301 34.167 2.83301 46.5 4.5
s26.166 4.5 41.499 8.5c18.667 5.33301 32.5 15 41.5 29s13.5 34.333 13.5 61v739h-190v80h190v25c0 75.333 12.167 145.833 36.5 211.5s57.666 123 99.999 172s92.666 87.667 150.999 116s121.5 42.5 189.5 42.5c42.667 0 79.334 -4.33301 110.001 -13
s55.834 -19.834 75.501 -33.501s34 -29.167 43 -46.5s13.5 -34.666 13.5 -51.999c0 -10 -1 -20 -3 -30s-5.66699 -18.833 -11 -26.5s-12.5 -13.834 -21.5 -18.501s-20.5 -7 -34.5 -7c-20 0 -37.333 4.66699 -52 14s-27.167 21.5 -37.5 36.5s-18.833 31.833 -25.5 50.5
s-12 37 -16 55h-49c-42.667 0 -85 -7.66699 -127 -23s-79.667 -40.166 -113 -74.499s-60.333 -79 -81 -134s-31 -121.833 -31 -200.5v-64h350l248 14l14 -14v-952c0 -78 -9.83301 -146.667 -29.5 -206s-45.334 -108.833 -77.001 -148.5s-67 -69.667 -106 -90
s-77.833 -30.5 -116.5 -30.5c-19.333 0 -38 2 -56 6s-34 10 -48 18s-25.167 18.167 -33.5 30.5s-12.5 26.833 -12.5 43.5c0 20.667 6.16699 38.167 18.5 52.5s28.833 21.5 49.5 21.5c25.333 0 48.5 -8.33301 69.5 -25s40.833 -38.334 59.5 -65.001c22 0 43 5.66699 63 17
s37.667 31 53 59s27.5 65.667 36.5 113s13.5 107 13.5 179v809z" />
    <glyph glyph-name=".notdef" horiz-adv-x="2048" 
d="M256 0v1536h1536v-1536h-1536zM385 129h1280v1280h-1280v-1280z" />
    <glyph glyph-name="space" unicode=" " horiz-adv-x="481" 
 />
    <glyph glyph-name="space" unicode="&#xa0;" horiz-adv-x="481" 
 />
    <glyph glyph-name="exclam" unicode="!" horiz-adv-x="633" 
d="M418 1350c0 -11.333 -1.16797 -34.332 -3.50098 -68.999s-5.5 -76.667 -9.5 -126l-13 -166l-14.5 -189.5c-5 -65 -9.66699 -130.333 -14 -196s-8.16602 -127.5 -11.499 -185.5h-57c-2 57.333 -5 118.666 -9 183.999s-8.5 130.5 -13.5 195.5s-10.167 128.167 -15.5 189.5
l-14.5 166.5l-11 126.5c-3 34.667 -4.5 58 -4.5 70c0 30.667 8.66699 56.667 26 78s41 32 71 32c30.667 0 54 -10.667 70 -32s24 -47.333 24 -78zM433.999 94.001c0 -15.333 -2.83301 -29.666 -8.5 -42.999s-13.5 -25 -23.5 -35s-21.667 -17.833 -35 -23.5
s-27.666 -8.5 -42.999 -8.5s-29.833 2.83301 -43.5 8.5s-25.5 13.5 -35.5 23.5s-17.833 21.667 -23.5 35s-8.5 27.666 -8.5 42.999c0 16 2.83301 31 8.5 45s13.5 26.167 23.5 36.5s21.833 18.5 35.5 24.5s28.167 9 43.5 9s29.666 -3 42.999 -9s25 -14.167 35 -24.5
s17.833 -22.5 23.5 -36.5s8.5 -29 8.5 -45z" />
    <glyph glyph-name="quotedbl" unicode="&#x22;" horiz-adv-x="745" 
d="M629 1442c0 -10 -1.66699 -27 -5 -51s-7.83301 -53.5 -13.5 -88.5l-20 -120c-7.66699 -45 -15.5 -93.833 -23.5 -146.5h-59c-13.333 108 -25.5 196.833 -36.5 266.5s-16.5 116.167 -16.5 139.5c0 24.667 7 45.5 21 62.5s35.667 25.5 65 25.5c30 0 52.167 -8.5 66.5 -25.5
s21.5 -37.833 21.5 -62.5zM289 1442c0 -10 -1.5 -27 -4.5 -51s-7.16699 -53.5 -12.5 -88.5s-11.833 -75 -19.5 -120l-25.5 -146.5h-55c-13.333 108 -25.5 196.833 -36.5 266.5s-16.5 116.167 -16.5 139.5c0 24.667 7 45.5 21 62.5s35.667 25.5 65 25.5
c28 0 49 -8.5 63 -25.5s21 -37.833 21 -62.5z" />
    <glyph glyph-name="numbersign" unicode="#" horiz-adv-x="1257" 
d="M860 745l-67 -251h251v-105h-280l-111 -389h-92l111 389h-211l-111 -389h-94l113 389h-215v105h243l68 251h-252v105h281l104 373h92l-104 -373h211l104 373h94l-106 -373h215v-105h-244zM557 748l-72 -256h213l74 256h-215z" />
    <glyph glyph-name="dollar" unicode="$" horiz-adv-x="1219" 
d="M1049 342c0 -47.333 -9.33496 -91.8301 -28.002 -133.497s-45 -78.5 -79 -110.5s-74.5 -58 -121.5 -78s-98.5 -32 -154.5 -36v-283h-76v281c-59.333 0.666992 -114 8.5 -164 23.5s-93.167 36.167 -129.5 63.5s-64.833 60.5 -85.5 99.5s-31 83.167 -31 132.5
c0 37.333 7.5 63.333 22.5 78s34.167 22 57.5 22c14 0 25.667 -2.33301 35 -7s16.5 -10.5 21.5 -17.5s8.5 -14.333 10.5 -22s3 -14.5 3 -20.5c0 -24.667 -4.83301 -48.334 -14.5 -71.001l-26.5 -62c7.33301 -20 19.333 -38.833 36 -56.5s37.834 -33 63.501 -46
s55.334 -23.333 89.001 -31s71.167 -11.834 112.5 -12.501v535l-139 58.5c-44.667 19.667 -84.334 43.5 -119.001 71.5s-62.5 62.333 -83.5 103s-31.5 92 -31.5 154c0 48.667 10.667 92.167 32 130.5s49.5 70.833 84.5 97.5s74.833 47.167 119.5 61.5
s90.334 21.5 137.001 21.5v236h76v-236c61.333 0 114.833 -9.16699 160.5 -27.5s83.5 -41.333 113.5 -69s52.5 -57.5 67.5 -89.5s22.5 -61.333 22.5 -88c0 -21.333 -5.83301 -40.666 -17.5 -57.999s-28.167 -26 -49.5 -26c-24 0 -43.667 6.33301 -59 19s-23 26.667 -23 42
c0 21.333 1.5 41.666 4.5 60.999s6.16699 35.333 9.5 48c-2 6.66699 -7.33301 16.167 -16 28.5s-22 24.666 -40 36.999s-41.167 23.166 -69.5 32.499s-62.833 14 -103.5 14v-489l40 -17.5l42.5 -18.5c15 -6.66699 31 -14.5 48 -23.5s36.167 -19.833 57.5 -32.5
s43.5 -27.5 66.5 -44.5s44 -37 63 -60s34.667 -49.667 47 -80s18.5 -65.166 18.5 -104.499zM589.998 1212c-30.667 0 -60.167 -4.66504 -88.5 -13.998s-53.166 -22.5 -74.499 -39.5s-38.5 -37.5 -51.5 -61.5s-19.5 -51 -19.5 -81c0 -38.667 6.5 -71.834 19.5 -99.501
s30.167 -51.834 51.5 -72.501s46.166 -38.167 74.499 -52.5s57.833 -27.5 88.5 -39.5v460zM898.998 287.005c0 42.667 -6.66699 78.501 -20 107.501s-30.833 53.833 -52.5 74.5s-46.5 38.167 -74.5 52.5s-56.667 28.166 -86 41.499v-504c37.333 0.666992 70.5 7 99.5 19
s53.333 28 73 48s34.667 43.833 45 71.5s15.5 57.5 15.5 89.5z" />
    <glyph glyph-name="percent" unicode="%" horiz-adv-x="1612" 
d="M748 1083c0 -60 -7.49512 -113.169 -22.4951 -159.502s-36.333 -85 -64 -116s-60.834 -54.5 -99.501 -70.5s-82 -24 -130 -24c-56.667 0 -105 9.83301 -145 29.5s-72.5 46.334 -97.5 80.001s-43.333 72.834 -55 117.501s-17.5 92.334 -17.5 143.001
c0 46 5.66699 90.833 17 134.5s29.666 82.5 54.999 116.5s58 61.5 98 82.5s89 31.5 147 31.5c59.333 0 109.166 -10.667 149.499 -32s72.666 -49.333 96.999 -84s41.666 -73.834 51.999 -117.501s15.5 -87.5 15.5 -131.5zM285.005 -0.00195312h-125l1173 1419h129z
M1493 337.998c0 -60.667 -7.49805 -114.001 -22.498 -160.001s-36.333 -84.667 -64 -116s-60.834 -55 -99.501 -71s-81.667 -24 -129 -24c-57.333 0 -105.833 9.83301 -145.5 29.5s-72 46.334 -97 80.001s-43.167 73 -54.5 118s-17 92.833 -17 143.5
c0 46.667 5.5 92 16.5 136s29 83.333 54 118s57.667 62.5 98 83.5s90.166 31.5 149.499 31.5c58.667 0 107.834 -11 147.501 -33s71.667 -50.5 96 -85.5s41.666 -74.5 51.999 -118.5s15.5 -88 15.5 -132zM625.007 1083c0 38.667 -3.66602 75.501 -10.999 110.501
s-18.833 65.833 -34.5 92.5s-35.5 48 -59.5 64s-52.667 24 -86 24s-62.166 -7.83301 -86.499 -23.5s-44.5 -37 -60.5 -64s-27.833 -58.333 -35.5 -94s-11.5 -73.5 -11.5 -113.5c0 -35.333 3.5 -70.5 10.5 -105.5s18.167 -66.333 33.5 -94s35.166 -50.167 59.499 -67.5
s53.833 -26 88.5 -26c31.333 0 59 7.5 83 22.5s44.167 35.667 60.5 62s28.666 57.666 36.999 93.999s12.5 75.833 12.5 118.5zM1372.01 337.998c0 38.667 -3.83105 75.667 -11.498 111s-19.334 66.666 -35.001 93.999s-35.5 49.166 -59.5 65.499s-52 24.5 -84 24.5
c-34 0 -63.333 -8 -88 -24s-45 -37.667 -61 -65s-28 -59 -36 -95s-12 -74.333 -12 -115c0 -35.333 3.66699 -70.166 11 -104.499s18.833 -65.166 34.5 -92.499s35.667 -49.5 60 -66.5s53.5 -25.5 87.5 -25.5c32 0 60 7.33301 84 22s44.167 35.167 60.5 61.5
s28.666 57.333 36.999 93s12.5 74.5 12.5 116.5z" />
    <glyph glyph-name="ampersand" unicode="&#x26;" horiz-adv-x="1427" 
d="M1438 829c-16.667 -1.33301 -34.5 -3.33496 -53.5 -6.00195s-38 -7.16699 -57 -13.5s-36.833 -14.666 -53.5 -24.999s-31 -23.5 -43 -39.5c-12.667 -17.333 -26.5 -43.5 -41.5 -78.5l-51 -117.5c-19 -43.333 -40.167 -88 -63.5 -134s-50 -88.667 -80 -128l32 -34
l45.5 -46c16.333 -16 33 -31.333 50 -46s31.833 -26 44.5 -34c16 -10 35 -18.667 57 -26s44.167 -13.5 66.5 -18.5s43.333 -8.66699 63 -11s35.5 -3.5 47.5 -3.5v-68h-322l-166 180c-18 -21.333 -40.167 -44.5 -66.5 -69.5s-56.5 -48.167 -90.5 -69.5s-72 -39.333 -114 -54
s-88 -22 -138 -22c-64 0 -122.167 9.33301 -174.5 28s-97.166 45 -134.499 79s-66.166 74.667 -86.499 122s-30.5 99.333 -30.5 156c0 44.667 6 85.834 18 123.501s30.5 73.667 55.5 108s57 67.833 96 100.5s85.5 66.667 139.5 102c-26.667 36 -50.167 69.167 -70.5 99.5
s-37.5 59.666 -51.5 87.999s-24.5 57 -31.5 86s-10.5 60.167 -10.5 93.5c0 40 6.83301 77.833 20.5 113.5s34.5 67 62.5 94s63 48.333 105 64s91.333 23.5 148 23.5c56 0 103.333 -7.83301 142 -23.5s70.334 -36.5 95.001 -62.5s42.5 -55.833 53.5 -89.5
s16.5 -68.167 16.5 -103.5c0 -44 -8.5 -83.5 -25.5 -118.5s-39.833 -67.167 -68.5 -96.5s-62.334 -56.666 -101.001 -81.999s-79.334 -50.333 -122.001 -75l99 -120.5l96 -113l98 -110l104 -111.5c22.667 32.667 43 66.667 61 102s33.333 70.333 46 105
s22.334 68.5 29.001 101.5s10 63.833 10 92.5c0 14 -4.33301 25.833 -13 35.5s-20.834 17.834 -36.501 24.501s-34.334 12.167 -56.001 16.5s-45.5 8.16602 -71.5 11.499v70h523v-70zM750 1161c0 64 -16.332 113.832 -48.999 149.499s-79.334 53.5 -140.001 53.5
c-32 0 -61 -4.83301 -87 -14.5s-48 -23.167 -66 -40.5s-31.833 -38 -41.5 -62s-14.5 -50.667 -14.5 -80c0 -26.667 4.16699 -53.5 12.5 -80.5s19.5 -54 33.5 -81s30.5 -53.833 49.5 -80.5s39.167 -52.334 60.5 -77.001c29.333 17.333 58.333 36.5 87 57.5
s54.5 44.333 77.5 70s41.667 53.834 56 84.501s21.5 64.334 21.5 101.001zM860.001 232.997l-107.998 120.5l-115.5 132l-109.5 129l-91 112.5c-26 -16 -51.333 -34.833 -76 -56.5s-46.834 -46.334 -66.501 -74.001s-35.334 -58.167 -47.001 -91.5s-17.5 -70 -17.5 -110
c0 -42 7 -81.667 21 -119s34.333 -70.166 61 -98.499s59.5 -50.666 98.5 -66.999s83.5 -24.5 133.5 -24.5c31.333 0 62.833 4.5 94.5 13.5s61.5 20.5 89.5 34.5s53.667 29.667 77 47s42 34.666 56 51.999z" />
    <glyph glyph-name="quotesingle" unicode="'" horiz-adv-x="387" 
d="M283 1442c0 -10 -1.66699 -27 -5 -51s-7.83301 -53.5 -13.5 -88.5l-20 -120c-7.66699 -45 -15.5 -93.833 -23.5 -146.5h-59c-13.333 108 -25.5 196.833 -36.5 266.5s-16.5 116.167 -16.5 139.5c0 24.667 7 45.5 21 62.5s35.667 25.5 65 25.5c30 0 52.167 -8.5 66.5 -25.5
s21.5 -37.833 21.5 -62.5z" />
    <glyph glyph-name="parenleft" unicode="(" horiz-adv-x="762" 
d="M457 -242c-72 47.333 -133.165 110.833 -183.498 190.5s-89 173.834 -116 282.501s-40.5 229.667 -40.5 363c0 132.667 12.833 254 38.5 364s63.167 205.5 112.5 286.5s110.333 146.167 183 195.5s155.667 80 249 92v-78c-84 -14 -155.167 -44 -213.5 -90
s-106 -106.167 -143 -180.5s-63.833 -161.5 -80.5 -261.5s-25 -210.667 -25 -332s8.83301 -231 26.5 -329s45.167 -182.833 82.5 -254.5s85.166 -129.334 143.499 -173.001s128.166 -71.5 209.499 -83.5v-78c-90 10 -171 38.667 -243 86z" />
    <glyph glyph-name="parenright" unicode=")" horiz-adv-x="758" 
d="M61 -250c81.333 12 151.164 39.833 209.497 83.5s106.333 101.334 144 173.001s65.334 156.5 83.001 254.5s26.5 207.667 26.5 329s-8.33301 232 -25 332s-43.5 187.167 -80.5 261.5s-84.833 134.5 -143.5 180.5s-130 76 -214 90v78c94 -12 177.167 -42.667 249.5 -92
s133.333 -114.5 183 -195.5s87.334 -176.5 113.001 -286.5s38.5 -231.333 38.5 -364c0 -133.333 -13.5 -254.333 -40.5 -363s-65.667 -202.834 -116 -282.501s-111.666 -143.167 -183.999 -190.5s-153.5 -76 -243.5 -86v78z" />
    <glyph glyph-name="asterisk" unicode="*" horiz-adv-x="956" 
d="M870 1108c0 -23.333 -6.33301 -40.166 -19 -50.499s-28.667 -15.5 -48 -15.5c-10 0 -24.5 2.16699 -43.5 6.5l-67.5 15.5c-26 6 -55.333 12.167 -88 18.5s-68 11.5 -106 15.5c32 -43.333 60.833 -79.333 86.5 -108l66.5 -73c18.667 -20 33 -37.333 43 -52s15 -30 15 -46
c0 -8 -2.16699 -15.5 -6.5 -22.5s-9.66602 -13 -15.999 -18s-13.5 -9 -21.5 -12s-16 -4.5 -24 -4.5c-11.333 0 -22.166 2.83301 -32.499 8.5s-18.5 13.834 -24.5 24.501c-5.33301 8.66699 -10.833 22.334 -16.5 41.001l-20 67.5c-7.66699 26.333 -17 55.333 -28 87
s-24.5 64.834 -40.5 99.501c-15.333 -34.667 -28.333 -67.834 -39 -99.501s-19.834 -60.667 -27.501 -87s-14.5 -48.833 -20.5 -67.5s-11.667 -32.334 -17 -41.001c-14.667 -22 -33.334 -33 -56.001 -33c-7.33301 0 -15.166 1.5 -23.499 4.5s-15.833 7 -22.5 12
s-12.167 11 -16.5 18s-6.5 14.5 -6.5 22.5c0 16 5 31.333 15 46s24.333 32 43 52l66.5 73c25.667 28.667 54.5 64.667 86.5 108c-38 -4 -73.167 -9.16699 -105.5 -15.5s-61.5 -12.5 -87.5 -18.5l-67 -15.5c-18.667 -4.33301 -33 -6.5 -43 -6.5
c-19.333 0 -35.833 5.16699 -49.5 15.5s-20.5 27.166 -20.5 50.499c0 19.333 6.83301 34.333 20.5 45s30.167 16 49.5 16c10 0 24.333 -2 43 -6l67 -14l87.5 -17.5c32.333 -6.33301 67.5 -11.5 105.5 -15.5c-32 44 -60.833 80.333 -86.5 109l-66.5 73
c-18.667 20 -33 37.333 -43 52s-15 30.334 -15 47.001c0 8 2.16699 15.5 6.5 22.5s9.83301 13 16.5 18s14.167 9 22.5 12s16.166 4.5 23.499 4.5c22.667 0 41.334 -12.333 56.001 -37c4.66699 -8 10 -21.167 16 -39.5l21 -65.5l28 -85c10.667 -31.333 23.667 -64.333 39 -99
c16 34.667 29.5 67.5 40.5 98.5s20.5 59 28.5 84l20.5 65c5.66699 18.333 10.834 32.166 15.501 41.499c6 12.667 14.167 22 24.5 28s21.166 9 32.499 9c8 0 16 -1.5 24 -4.5s15.167 -7 21.5 -12s11.666 -11 15.999 -18s6.5 -14.5 6.5 -22.5
c0 -16.667 -5 -32.334 -15 -47.001s-24.333 -32 -43 -52l-66.5 -73c-25.667 -28.667 -54.5 -65 -86.5 -109c37.333 4 72.333 9.16699 105 15.5l88 17.5l68 14c19.333 4 34 6 44 6c19.333 0 35.333 -5.33301 48 -16s19 -25.667 19 -45z" />
    <glyph glyph-name="plus" unicode="+" horiz-adv-x="1257" 
d="M684 500v-443h-109v443h-442v106h442v441h109v-441h440v-106h-440z" />
    <glyph glyph-name="comma" unicode="," horiz-adv-x="496" 
d="M375 37c0 -44 -8.5 -84.5 -25.5 -121.5s-38.167 -70.833 -63.5 -101.5s-53 -58.5 -83 -83.5s-58 -47.167 -84 -66.5l-43 57c25.333 16.667 49.666 35.167 72.999 55.5s44.333 42.166 63 65.499s34.5 48.333 47.5 75s22.167 55 27.5 85h-49c-19.333 0 -36.166 3 -50.499 9
s-26.166 14 -35.499 24s-16.166 21.5 -20.499 34.5s-6.5 26.167 -6.5 39.5c0 12 2.16699 24 6.5 36s11.166 22.833 20.499 32.5s21.166 17.667 35.499 24s31.833 9.5 52.5 9.5c44 0 77.5 -15.167 100.5 -45.5s34.5 -73.166 34.5 -128.499z" />
    <glyph glyph-name="hyphen" unicode="-" horiz-adv-x="762" 
d="M86 479v127h592v-127h-592z" />
    <glyph glyph-name="hyphen" unicode="&#xad;" horiz-adv-x="762" 
d="M86 479v127h592v-127h-592z" />
    <glyph glyph-name="period" unicode="." horiz-adv-x="496" 
d="M358 90c0 -30.667 -10.333 -55.999 -31 -75.999s-46.334 -30 -77.001 -30c-15.333 0 -29.5 2.66699 -42.5 8s-24.5 12.666 -34.5 21.999s-17.833 20.5 -23.5 33.5s-8.5 27.167 -8.5 42.5c0 14.667 2.83301 28.667 8.5 42s13.5 25 23.5 35s21.5 17.833 34.5 23.5
s27.167 8.5 42.5 8.5s29.5 -2.83301 42.5 -8.5s24.333 -13.5 34 -23.5s17.334 -21.667 23.001 -35s8.5 -27.333 8.5 -42z" />
    <glyph glyph-name="slash" unicode="/" horiz-adv-x="958" 
d="M164 -424h-105l689 1948h110z" />
    <glyph glyph-name="zero" unicode="0" 
d="M1034 709c0 -123.333 -10.665 -231.329 -31.998 -323.996s-52 -170 -92 -232s-89 -108.5 -147 -139.5s-124 -46.5 -198 -46.5c-84.667 0 -156.834 18 -216.501 54s-108.5 86.667 -146.5 152s-65.833 143.5 -83.5 234.5s-26.5 191.5 -26.5 301.5
c0 66.667 3.66699 131.167 11 193.5s19 120.833 35 175.5s36.5 104.667 61.5 150s55 84.166 90 116.499s75.333 57.333 121 75s97.167 26.5 154.5 26.5c58 0 110 -9.16699 156 -27.5s86.333 -43.833 121 -76.5s64.167 -71.834 88.5 -117.501s44.166 -95.834 59.499 -150.501
s26.5 -112.834 33.5 -174.501s10.5 -125.167 10.5 -190.5zM893.002 707.004c0 94.667 -6.33301 183.002 -19 265.002s-32.167 153.333 -58.5 214s-60.166 108.167 -101.499 142.5s-90.333 51.5 -147 51.5c-58 0 -107.833 -16.833 -149.5 -50.5
s-75.834 -80.5 -102.501 -140.5s-46.167 -131.167 -58.5 -213.5s-18.5 -171.833 -18.5 -268.5c0 -92 5.83301 -179.167 17.5 -261.5s30.5 -154.333 56.5 -216s59.667 -110.5 101 -146.5s92 -54 152 -54c54.667 0 102.5 16.167 143.5 48.5s75.167 78.166 102.5 137.499
s47.833 130.666 61.5 213.999s20.5 176 20.5 278z" />
    <glyph glyph-name="one" unicode="1" 
d="M205 0l0.000976562 70.001l54.5 3c23.667 1.33301 48 2.83301 73 4.5s48.167 3.5 69.5 5.5s36 3.66699 44 5c17.333 4 32.333 14.167 45 30.5s19 39.5 19 69.5v1084h-309v78h116c32 0 62.833 3 92.5 9s57 14 82 24s47.333 21.167 67 33.5s35.5 24.833 47.5 37.5h39
c-1.33301 -22 -2.5 -46 -3.5 -72l-3 -80c-1 -27.333 -1.83301 -54.5 -2.5 -81.5s-1 -52.167 -1 -75.5v-944c0 -24.667 4.66699 -46 14 -64s23.666 -31.667 42.999 -41c10 -5.33301 25.5 -9.5 46.5 -12.5s44 -5.5 69 -7.5s50 -3.33301 75 -4s46.833 -1.33398 65.5 -2.00098
v-70h-743z" />
    <glyph glyph-name="two" unicode="2" 
d="M991 0l-875.993 0.00195312v113c38 78 92 157.167 162 237.5s153.667 156.833 251 229.5c47.333 34 89.333 67.5 126 100.5s67.667 67.667 93 104s44.666 76 57.999 119s20 92.167 20 147.5c0 48 -6 91.667 -18 131s-29.5 72.833 -52.5 100.5s-51.5 49.167 -85.5 64.5
s-73.333 23 -118 23c-40 0 -74.833 -4.33301 -104.5 -13s-54.834 -19.334 -75.501 -32.001s-36.834 -26.167 -48.501 -40.5s-19.5 -27.5 -23.5 -39.5c0.666992 -8 2 -17.5 4 -28.5l6 -34c2 -11.667 3.83301 -23.167 5.5 -34.5s2.5 -22 2.5 -32
c0 -8.66699 -1.33301 -17.667 -4 -27s-7.33398 -18 -14.001 -26s-15.5 -14.5 -26.5 -19.5s-24.833 -7.5 -41.5 -7.5c-16 0 -29.5 3.16699 -40.5 9.5s-19.667 14.666 -26 24.999s-10.833 21.833 -13.5 34.5s-4 25.334 -4 38.001c0 42 10.667 81.333 32 118
s50.166 68.834 86.499 96.501s79 49.334 128 65.001s101.5 23.5 157.5 23.5c58 0 112.667 -8.33301 164 -25s96.166 -41.334 134.499 -74.001s68.5 -72.834 90.5 -120.501s33 -102.834 33 -165.501c0 -48.667 -6.33301 -93.834 -19 -135.501s-33.334 -82.5 -62.001 -122.5
s-66.167 -81 -112.5 -123s-103.5 -87.667 -171.5 -137c-104 -77.333 -187.667 -150.666 -251 -219.999s-109.333 -134 -138 -194h772v-129z" />
    <glyph glyph-name="three" unicode="3" 
d="M1013 402c0 -66 -13.166 -125.335 -39.499 -178.002s-62.333 -97.5 -108 -134.5s-99 -65.5 -160 -85.5s-126.5 -30 -196.5 -30c-63.333 0 -120.833 7.83301 -172.5 23.5s-95.667 36.5 -132 62.5s-64.5 55.833 -84.5 89.5s-30 68.5 -30 104.5
c0 32 6.83301 57.833 20.5 77.5s34.167 29.5 61.5 29.5c29.333 0 50.666 -7.16699 63.999 -21.5s20 -29.833 20 -46.5c0 -10 -0.833008 -20.667 -2.5 -32s-3.66699 -22.833 -6 -34.5s-4.66602 -22.667 -6.99902 -33s-4.16602 -19.5 -5.49902 -27.5
c6 -8 15.667 -18.333 29 -31s31.833 -25.334 55.5 -38.001s53 -23.5 88 -32.5s76.5 -13.5 124.5 -13.5c44.667 0 87.5 7 128.5 21s77.167 35.5 108.5 64.5s56.333 65.833 75 110.5s28 97.667 28 159c0 38.667 -4.66699 75.667 -14 111s-25.833 66.333 -49.5 93
s-55.834 48 -96.501 64s-92.334 24 -155.001 24h-146v99h94c54 0 100 6.5 138 19.5s69 32.167 93 57.5s41.667 56.333 53 93s17 79 17 127c0 38 -4.5 73.333 -13.5 106s-23.333 61 -43 85s-45.5 42.833 -77.5 56.5s-71 20.5 -117 20.5
c-43.333 0 -80.666 -5.33301 -111.999 -16s-57.666 -23 -78.999 -37s-38 -28.167 -50 -42.5s-20 -25.5 -24 -33.5c0.666992 -6.66699 2.16699 -16.167 4.5 -28.5s4.5 -25.5 6.5 -39.5s3.83301 -28.167 5.5 -42.5s2.5 -27.166 2.5 -38.499c0 -6.66699 -1.66699 -14 -5 -22
s-8.5 -15.333 -15.5 -22s-16.333 -12.334 -28 -17.001s-25.5 -7 -41.5 -7c-29.333 0 -49.666 9.66699 -60.999 29s-17 44.333 -17 75c0 32 9.16699 66.667 27.5 104s45.833 72 82.5 104s82 58.667 136 80s116.667 32 188 32c52 0 97.667 -5.83301 137 -17.5
s73.166 -27 101.499 -46s51.833 -40.333 70.5 -64s33.5 -47.667 44.5 -72s18.667 -47.666 23 -69.999s6.5 -41.166 6.5 -56.499c0 -32 -4.66699 -65 -14 -99s-25.833 -66.667 -49.5 -98s-55.334 -60.166 -95.001 -86.499s-89.834 -47.833 -150.501 -64.5v-6
c25.333 -2 51.833 -6.33301 79.5 -13s55 -16 82 -28s52.667 -27.167 77 -45.5s45.833 -40.333 64.5 -66s33.5 -55.5 44.5 -89.5s16.5 -72.667 16.5 -116z" />
    <glyph glyph-name="four" unicode="4" 
d="M856 451v-451h-125v451h-670v118l734 871h61v-877h215v-112h-215zM731 1239l-569 -676h569v676z" />
    <glyph glyph-name="five" unicode="5" 
d="M997 479c0 -74 -13.6631 -141.171 -40.9961 -201.504s-63.666 -112.166 -108.999 -155.499s-98 -76.833 -158 -100.5s-122.333 -35.5 -187 -35.5c-59.333 0 -114.5 6.66699 -165.5 20s-95.333 31.833 -133 55.5s-67.334 51.667 -89.001 84s-32.5 67.833 -32.5 106.5
c0 13.333 1.66699 26.333 5 39s8.66602 24 15.999 34s16.5 18 27.5 24s24.167 9 39.5 9c16 0 29 -2.5 39 -7.5s17.833 -11.167 23.5 -18.5s9.66699 -15 12 -23s3.5 -15.333 3.5 -22c0 -9.33301 -0.666992 -19.666 -2 -30.999s-3 -22.833 -5 -34.5s-4.33301 -23 -7 -34
l-7 -29.5c16 -16 33.167 -30 51.5 -42s38.666 -21.833 60.999 -29.5s47.166 -13.5 74.499 -17.5s58 -6 92 -6c50 0 96.333 8.66699 139 26s79.667 43.333 111 78s55.833 77.834 73.5 129.501s26.5 111.834 26.5 180.501c0 51.333 -7.5 97.5 -22.5 138.5
s-36.333 75.833 -64 104.5s-61.167 50.667 -100.5 66s-83.333 23 -132 23c-36.667 0 -70.5 -3.5 -101.5 -10.5s-59.167 -16.333 -84.5 -28s-47.833 -25.5 -67.5 -41.5s-36.5 -33 -50.5 -51l-59 27l84 714h698v-129h-626l-58 -477c13.333 11.333 29.833 23 49.5 35
s42.167 23 67.5 33s53.166 18.167 83.499 24.5s63.166 9.5 98.499 9.5c54.667 0 107.667 -9.5 159 -28.5s96.833 -47 136.5 -84s71.334 -82.667 95.001 -137s35.5 -116.5 35.5 -186.5z" />
    <glyph glyph-name="six" unicode="6" 
d="M1044 461c0 -69.333 -12.1689 -134.005 -36.502 -194.005s-57.333 -112.333 -99 -157s-90.667 -79.667 -147 -105s-116.5 -38 -180.5 -38c-69.333 0 -132.833 13.5 -190.5 40.5s-107.167 65.667 -148.5 116s-73.333 111.833 -96 184.5s-34 155 -34 247
c0 117.333 18 227 54 329s87 192.333 153 271s145.5 143.667 238.5 195s196.5 85.333 310.5 102l14 -76l-86 -22c-71.333 -23.333 -136.666 -52.666 -195.999 -87.999s-111.666 -77.333 -156.999 -126s-83.333 -104.167 -114 -166.5s-53 -132.166 -67 -209.499
c61.333 48.667 120.5 84.334 177.5 107.001s117.167 34 180.5 34c56.667 0 110.5 -11.167 161.5 -33.5s96 -53.166 135 -92.499s70 -86.166 93 -140.499s34.5 -113.5 34.5 -177.5zM902.998 433.995c0 54.667 -7.83105 104.501 -23.498 149.501s-37.834 83.5 -66.501 115.5
s-63.334 56.667 -104.001 74s-86 26 -136 26c-64 0 -121.333 -11 -172 -33s-99 -54 -145 -96c0 -4 -0.166992 -10.5 -0.5 -19.5s-0.833008 -19.5 -1.5 -31.5s-1.16699 -24.333 -1.5 -37s-0.5 -24.334 -0.5 -35.001c0 -78 7.83301 -148 23.5 -210s38 -114.667 67 -158
s63.833 -76.5 104.5 -99.5s86 -34.5 136 -34.5c48 0 91.667 9 131 27s73 43.833 101 77.5s49.667 74.5 65 122.5s23 102 23 162z" />
    <glyph glyph-name="seven" unicode="7" 
d="M360 0h-106.001l670 1290h-432c-54.667 0 -100.834 -1.33301 -138.501 -4s-68.167 -8.66699 -91.5 -18c-19.333 -8.66699 -36.166 -28.167 -50.499 -58.5s-26.166 -74.5 -35.499 -132.5h-55v342h944v-39z" />
    <glyph glyph-name="eight" unicode="8" 
d="M1051 367c0 -52 -11.999 -102.336 -35.999 -151.003s-58 -91.5 -102 -128.5s-97.167 -66.667 -159.5 -89s-131.833 -33.5 -208.5 -33.5c-73.333 0 -138.833 9.66699 -196.5 29s-106.834 46.5 -147.501 81.5s-71.667 76.833 -93 125.5s-32 102.334 -32 161.001
c0 85.333 25.833 159.5 77.5 222.5s124.167 116.5 217.5 160.5c-80 44.667 -139.5 93.334 -178.5 146.001s-58.5 114 -58.5 184c0 50.667 11.5 99 34.5 145s54.667 86.333 95 121s88 62.167 143 82.5s114.833 30.5 179.5 30.5c62.667 0 119.5 -9.5 170.5 -28.5
s94.667 -44.833 131 -77.5s64.5 -71 84.5 -115s30 -91 30 -141c0 -39.333 -5.83301 -76.833 -17.5 -112.5s-28.167 -69 -49.5 -100s-47 -59.167 -77 -84.5s-63.333 -46.666 -100 -63.999c50 -23.333 93.333 -47.166 130 -71.499s67 -50.833 91 -79.5s42 -60.334 54 -95.001
s18 -74 18 -118zM881.001 1096c0 38 -7.33105 74.1689 -21.998 108.502s-35.5 64.333 -62.5 90s-59.667 46 -98 61s-81.166 22.5 -128.499 22.5c-45.333 0 -86.5 -6.83301 -123.5 -20.5s-68.833 -32.667 -95.5 -57s-47.334 -53.333 -62.001 -87s-22 -70.167 -22 -109.5
c0 -34 7.33301 -65.833 22 -95.5s38.667 -58.334 72 -86.001s77.166 -54.5 131.499 -80.5s121.166 -52 200.499 -78c26 15.333 50.333 33.666 73 54.999s42.5 45.833 59.5 73.5s30.5 58.5 40.5 92.5s15 71 15 111zM920.003 345.999c0 38.667 -8.49902 73.833 -25.499 105.5
s-44.333 61.834 -82 90.501s-86 56.667 -145 84s-130.5 56.333 -214.5 87c-44.667 -20 -82.834 -41.833 -114.501 -65.5s-57.5 -49.334 -77.5 -77.001s-34.667 -57.5 -44 -89.5s-14 -66 -14 -102c0 -50 8.83301 -95.5 26.5 -136.5s42.5 -76.333 74.5 -106
s70.667 -52.667 116 -69s96 -24.5 152 -24.5c53.333 0 101.5 7.5 144.5 22.5s79.5 36 109.5 63s53.167 59 69.5 96s24.5 77.5 24.5 121.5z" />
    <glyph glyph-name="nine" unicode="9" 
d="M1024 852c0 -118 -18.3311 -227.671 -54.998 -329.004s-88.334 -191 -155.001 -269s-146.834 -142.167 -240.501 -192.5s-197.5 -83.166 -311.5 -98.499l-14 76l86 17c72.667 22.667 139.167 51.334 199.5 86.001s113.833 76 160.5 124s85.5 103 116.5 165
s53.5 131.333 67.5 208c-61.333 -49.333 -121 -84.833 -179 -106.5s-119 -32.5 -183 -32.5c-60.667 0 -116.834 11.333 -168.501 34s-96.5 53.834 -134.5 93.501s-67.667 86.5 -89 140.5s-32 112.667 -32 176c0 69.333 12 134 36 194s56.833 112 98.5 156
s90.667 78.667 147 104s116.833 38 181.5 38c68.667 0 131.834 -13.333 189.501 -40s107.167 -65 148.5 -115s73.5 -111.167 96.5 -183.5s34.5 -154.166 34.5 -245.499zM885.002 857.996c0 77.333 -8 147 -24 209s-38.5 114.667 -67.5 158s-64 76.666 -105 99.999
s-86.833 35 -137.5 35c-48 0 -91.5 -9 -130.5 -27s-72.333 -43.833 -100 -77.5s-49.167 -74.5 -64.5 -122.5s-23 -102 -23 -162c0 -54.667 7.5 -104.667 22.5 -150s36.667 -84.166 65 -116.499s62.666 -57.5 102.999 -75.5s85.5 -27 135.5 -27
c62.667 0 120.334 10.667 173.001 32s102 53 148 95c0 3.33301 0.333008 9.83301 1 19.5s1.16699 20.667 1.5 33s0.833008 25.333 1.5 39s1 26.167 1 37.5z" />
    <glyph glyph-name="colon" unicode=":" horiz-adv-x="588" 
d="M399 881c0 -32 -10.333 -58.167 -31 -78.5s-46.334 -30.5 -77.001 -30.5c-30 0 -55.333 10.167 -76 30.5s-31 46.5 -31 78.5c0 14 2.83301 27.5 8.5 40.5s13.167 24.333 22.5 34s20.5 17.334 33.5 23.001s27.167 8.5 42.5 8.5s29.5 -2.83301 42.5 -8.5
s24.333 -13.334 34 -23.001s17.334 -21 23.001 -34s8.5 -26.5 8.5 -40.5zM399 90c0 -30.667 -10.333 -55.999 -31 -75.999s-46.334 -30 -77.001 -30c-15.333 0 -29.5 2.66699 -42.5 8s-24.167 12.666 -33.5 21.999s-16.833 20.5 -22.5 33.5s-8.5 27.167 -8.5 42.5
c0 14.667 2.83301 28.667 8.5 42s13.167 25 22.5 35s20.5 17.833 33.5 23.5s27.167 8.5 42.5 8.5s29.5 -2.83301 42.5 -8.5s24.333 -13.5 34 -23.5s17.334 -21.667 23.001 -35s8.5 -27.333 8.5 -42z" />
    <glyph glyph-name="semicolon" unicode=";" horiz-adv-x="588" 
d="M399 881c0 -32 -10.333 -58.167 -31 -78.5s-46.334 -30.5 -77.001 -30.5c-30 0 -55.333 10.167 -76 30.5s-31 46.5 -31 78.5c0 14 2.83301 27.5 8.5 40.5s13.167 24.333 22.5 34s20.5 17.334 33.5 23.001s27.167 8.5 42.5 8.5s29.5 -2.83301 42.5 -8.5
s24.333 -13.334 34 -23.001s17.334 -21 23.001 -34s8.5 -26.5 8.5 -40.5zM424 37c0 -44 -8.5 -84.5 -25.5 -121.5s-38.167 -70.833 -63.5 -101.5s-53 -58.5 -83 -83.5s-58 -47.167 -84 -66.5l-43 57c25.333 16.667 49.666 35.167 72.999 55.5s44.333 42.166 63 65.499
s34.5 48.333 47.5 75s22.167 55 27.5 85h-49c-19.333 0 -36.166 3 -50.499 9s-26.166 14 -35.499 24s-16.166 21.5 -20.499 34.5s-6.5 26.167 -6.5 39.5c0 12 2.16699 24 6.5 36s11.166 22.833 20.499 32.5s21.166 17.667 35.499 24s31.833 9.5 52.5 9.5
c44 0 77.5 -15.167 100.5 -45.5s34.5 -73.166 34.5 -128.499z" />
    <glyph glyph-name="semicolon" unicode="&#x37e;" horiz-adv-x="588" 
d="M399 881c0 -32 -10.333 -58.167 -31 -78.5s-46.334 -30.5 -77.001 -30.5c-30 0 -55.333 10.167 -76 30.5s-31 46.5 -31 78.5c0 14 2.83301 27.5 8.5 40.5s13.167 24.333 22.5 34s20.5 17.334 33.5 23.001s27.167 8.5 42.5 8.5s29.5 -2.83301 42.5 -8.5
s24.333 -13.334 34 -23.001s17.334 -21 23.001 -34s8.5 -26.5 8.5 -40.5zM424 37c0 -44 -8.5 -84.5 -25.5 -121.5s-38.167 -70.833 -63.5 -101.5s-53 -58.5 -83 -83.5s-58 -47.167 -84 -66.5l-43 57c25.333 16.667 49.666 35.167 72.999 55.5s44.333 42.166 63 65.499
s34.5 48.333 47.5 75s22.167 55 27.5 85h-49c-19.333 0 -36.166 3 -50.499 9s-26.166 14 -35.499 24s-16.166 21.5 -20.499 34.5s-6.5 26.167 -6.5 39.5c0 12 2.16699 24 6.5 36s11.166 22.833 20.499 32.5s21.166 17.667 35.499 24s31.833 9.5 52.5 9.5
c44 0 77.5 -15.167 100.5 -45.5s34.5 -73.166 34.5 -128.499z" />
    <glyph glyph-name="less" unicode="&#x3c;" horiz-adv-x="1257" 
d="M184 504v98l891 473v-112l-764 -406l764 -414v-112z" />
    <glyph glyph-name="equal" unicode="=" horiz-adv-x="1257" 
d="M139 674v108h979v-108h-979zM139 324v106h979v-106h-979z" />
    <glyph glyph-name="greater" unicode="&#x3e;" horiz-adv-x="1257" 
d="M182 31v112l764 414l-764 406v112l891 -473v-98z" />
    <glyph glyph-name="question" unicode="?" horiz-adv-x="911" 
d="M811 1042c0 -63.333 -10.3291 -119.83 -30.9961 -169.497s-49.334 -92.5 -86.001 -128.5s-80.167 -65 -130.5 -87s-105.166 -37 -164.499 -45l-2 -262h-88v373c40.667 2.66699 82.334 8.16699 125.001 16.5s81.5 23.5 116.5 45.5s63.667 52.5 86 91.5
s33.5 90.167 33.5 153.5c0 66 -6.83301 121 -20.5 165s-32.5 79.333 -56.5 106s-52 45.5 -84 56.5s-66.333 16.5 -103 16.5c-28 0 -54.333 -4.16699 -79 -12.5s-41.667 -17.833 -51 -28.5c1.33301 -7.33301 2.83301 -16.5 4.5 -27.5l5 -34c1.66699 -11.667 3 -22.667 4 -33
s1.5 -18.5 1.5 -24.5c0 -6.66699 -1.5 -14.334 -4.5 -23.001s-8 -16.834 -15 -24.501s-15.833 -14.167 -26.5 -19.5s-24 -8 -40 -8c-15.333 0 -28.333 3 -39 9s-19.5 13.667 -26.5 23s-12.167 20.166 -15.5 32.499s-5 24.833 -5 37.5c0 21.333 5.83301 44.333 17.5 69
s29.667 47.5 54 68.5s55.666 38.5 93.999 52.5s84.166 21 137.499 21c69.333 0 128.666 -12 177.999 -36s89.666 -55.333 120.999 -94s54.166 -82.5 68.499 -131.5s21.5 -98.5 21.5 -148.5zM469.004 94.0029c0 -15.333 -2.83301 -29.666 -8.5 -42.999
s-13.334 -25 -23.001 -35s-21.334 -17.833 -35.001 -23.5s-28.5 -8.5 -44.5 -8.5c-15.333 0 -29.5 2.83301 -42.5 8.5s-24.333 13.5 -34 23.5s-17.334 21.667 -23.001 35s-8.5 27.666 -8.5 42.999c0 16 2.83301 31 8.5 45s13.334 26.167 23.001 36.5s21 18.5 34 24.5
s27.167 9 42.5 9c16 0 30.833 -3 44.5 -9s25.334 -14.167 35.001 -24.5s17.334 -22.5 23.001 -36.5s8.5 -29 8.5 -45z" />
    <glyph glyph-name="at" unicode="@" horiz-adv-x="1847" 
d="M1489 -119c-64 -57.333 -139.999 -103.337 -227.999 -138.004s-186.667 -52 -296 -52c-64.667 0 -129 7.16699 -193 21.5s-125.5 36 -184.5 65s-113.833 65.167 -164.5 108.5s-94.5 94.166 -131.5 152.499s-66.167 124 -87.5 197s-32 153.5 -32 241.5
c0 76.667 9.33301 151.834 28 225.501s45.834 143.5 81.501 209.5s79.167 126.833 130.5 182.5s109.333 103.834 174 144.501s135.667 72.334 213 95.001s160 34 248 34c74 0 141.5 -8.5 202.5 -25.5s115.5 -40.333 163.5 -70s89.667 -65 125 -106s64.5 -85.667 87.5 -134
s40.167 -99.333 51.5 -153s17 -107.834 17 -162.501c0 -79.333 -10.833 -153.666 -32.5 -222.999s-52.5 -129.833 -92.5 -181.5s-88.167 -92.5 -144.5 -122.5s-118.833 -45 -187.5 -45c-23.333 0 -45.833 4 -67.5 12s-40.667 19.5 -57 34.5s-29.333 33.667 -39 56
s-14.5 47.833 -14.5 76.5h-10c-13.333 -22.667 -28.833 -44.667 -46.5 -66s-37 -40.166 -58 -56.499s-43.333 -29.5 -67 -39.5s-47.834 -15 -72.501 -15c-34 0 -64.167 7.33301 -90.5 22s-48.166 34.5 -65.499 59.5s-30.5 53.833 -39.5 86.5s-13.5 67 -13.5 103
c0 38 5 77.667 15 119s24.333 81.666 43 120.999s41.167 76.666 67.5 111.999s55.666 66.333 87.999 93s67.166 47.834 104.499 63.501s76.666 23.5 117.999 23.5c23.333 0 44.5 -4 63.5 -12s35.5 -18.5 49.5 -31.5s25.5 -27.833 34.5 -44.5s15.167 -33.667 18.5 -51h8
l47 127h113l-184 -532c-12.667 -36 -19 -72.333 -19 -109c0 -32 7.5 -56.667 22.5 -74s40.5 -26 76.5 -26c42.667 0 85 11.333 127 34s79.667 56.167 113 100.5s60.333 99.5 81 165.5s31 142.667 31 230c0 78 -12.5 151.5 -37.5 220.5s-61.667 129.167 -110 180.5
s-108.333 91.833 -180 121.5s-154.5 44.5 -248.5 44.5c-63.333 0 -125.5 -8.66699 -186.5 -26s-118.667 -42.333 -173 -75s-104.333 -72.5 -150 -119.5s-85 -100.667 -118 -161s-58.833 -126.666 -77.5 -198.999s-28 -149.833 -28 -232.5c0 -122 17.667 -228.167 53 -318.5
s83.333 -165.166 144 -224.499s131.5 -103.5 212.5 -132.5s167.167 -43.5 258.5 -43.5c52.667 0 101.667 3.5 147 10.5s87.833 17.5 127.5 31.5s76.834 31 111.501 51s67.667 43 99 69zM1178 732.996c-10.667 60.667 -28.499 104.164 -53.499 130.497
s-57.167 39.5 -96.5 39.5c-31.333 0 -60.5 -8 -87.5 -24s-51.833 -37.167 -74.5 -63.5s-42.834 -56.666 -60.501 -90.999s-32.667 -69.666 -45 -105.999s-21.666 -72.666 -27.999 -108.999s-9.5 -69.5 -9.5 -99.5c0 -37.333 3 -68.5 9 -93.5s13.667 -44.833 23 -59.5
s20.166 -25 32.499 -31s24.833 -9 37.5 -9c26 0 50.667 5.5 74 16.5s45.333 26.5 66 46.5s40.667 43.833 60 71.5s38 58.5 56 92.5z" />
    <glyph glyph-name="A" unicode="A" horiz-adv-x="1356" 
d="M889 0v70.0039c15.333 0.666992 32.833 2 52.5 4s38.334 5.33301 56.001 10s32.667 10.5 45 17.5s18.5 15.5 18.5 25.5c0 6 -1.16699 14.667 -3.5 26s-6.83301 25.333 -13.5 42l-108 305h-543l-27 -66.5l-28.5 -71l-24 -61.5c-7 -18 -11.833 -31 -14.5 -39
c-5.33301 -16.667 -10.5 -33.834 -15.5 -51.501s-7.5 -35.167 -7.5 -52.5c0 -14.667 5.5 -27.334 16.5 -38.001s25.667 -19.5 44 -26.5s39.666 -12.5 63.999 -16.5s49.833 -6.33301 76.5 -7v-70h-512v70c16.667 1.33301 36.167 4.66602 58.5 9.99902s43.166 14 62.499 26
c10 6 18.833 12.833 26.5 20.5s15.334 16.834 23.001 27.501s15.334 23.167 23.001 37.5s16.167 31.166 25.5 50.499l120 264.5l133 300.5l137 317.5l133 315.5h20c7.33301 -22 19.333 -55.5 36 -100.5l58 -155.5l71.5 -190l77.5 -205.5l76 -200.5l67 -175.5l50.5 -131
c13.667 -35 22.5 -57.167 26.5 -66.5c10 -25.333 21.167 -47.166 33.5 -65.499s29.166 -34.833 50.499 -49.5c6.66699 -4.66699 15 -8.83398 25 -12.501s20.5 -6.83398 31.5 -9.50098s21.833 -4.66699 32.5 -6s20 -2 28 -2v-70h-502zM682 1174l-250 -592h473z" />
    <glyph glyph-name="B" unicode="B" horiz-adv-x="1298" 
d="M1202 385c0 -50.667 -10.499 -99.168 -31.499 -145.501s-52 -87.333 -93 -123s-91.833 -64 -152.5 -85s-130.667 -31.5 -210 -31.5h-609v70c8 0 18.333 0.5 31 1.5s25.667 2.5 39 4.5s25.833 4.33301 37.5 7s20.5 5.66699 26.5 9c19.333 9.33301 33.333 22 42 38
s13 34.667 13 56v1031c0 22.667 -4.33301 42.667 -13 60s-22.667 31.333 -42 42c-9.33301 4.66699 -19.333 8.83398 -30 12.501s-21.5 6.83398 -32.5 9.50098s-21.5 4.83398 -31.5 6.50098s-19 2.5 -27 2.5v69h600c48.667 0 97.167 -6.16699 145.5 -18.5
s91.833 -31 130.5 -56s69.834 -56.833 93.501 -95.5s35.5 -84.334 35.5 -137.001c0 -52 -9 -97.667 -27 -137s-41.833 -73.166 -71.5 -101.499s-63.5 -51.333 -101.5 -69s-77 -31.167 -117 -40.5v-4c24 -4 50.5 -9.66699 79.5 -17s58.167 -17.333 87.5 -30
s57.666 -28.334 84.999 -47.001s51.666 -41.334 72.999 -68.001s38.333 -57.5 51 -92.5s19 -75.167 19 -120.5zM956.001 1096c0 85.333 -24.6689 148.333 -74.002 189s-125 61 -227 61c-12 0 -26.667 -0.166992 -44 -0.5s-36 -0.833008 -56 -1.5
s-40.167 -1.16699 -60.5 -1.5s-39.166 -0.833008 -56.499 -1.5v-555h187c64.667 0 118.334 7.83301 161.001 23.5s76.667 37.5 102 65.5s43 60.833 53 98.5s15 78.5 15 122.5zM1030 417.999c0 40.667 -7.66602 79.166 -22.999 115.499s-38 67.833 -68 94.5
s-67.167 47.834 -111.5 63.501s-95.5 23.5 -153.5 23.5c-50 0 -95 -0.333008 -135 -1s-73.667 -1.66699 -101 -3v-492c-3.33301 -49.333 14.167 -85.833 52.5 -109.5s96.166 -35.5 173.499 -35.5c128 0 221 28.833 279 86.5s87 143.5 87 257.5z" />
    <glyph glyph-name="C" unicode="C" horiz-adv-x="1300" 
d="M1181.5 205c-30.333 -47.333 -66.501 -88.5049 -108.501 -123.505s-91 -62.5 -147 -82.5s-121 -30 -195 -30c-92 0 -177.5 18.667 -256.5 56s-147.5 88.5 -205.5 153.5s-103.333 141.833 -136 230.5s-49 184.334 -49 287.001c0 75.333 8.16699 146.333 24.5 213
s39.333 127.834 69 183.501s64.834 105.5 105.501 149.5s85.334 81.333 134.001 112s100.334 54 155.001 70s111 24 169 24c76 0 143.5 -9.16699 202.5 -27.5s112.5 -43.166 160.5 -74.499l33 73h65l10 -499h-71c-6 56 -18.833 110.833 -38.5 164.5
s-45.834 101.5 -78.501 143.5s-71.834 75.833 -117.501 101.5s-97.834 38.5 -156.501 38.5c-70 0 -135.667 -14.667 -197 -44s-114.5 -72.166 -159.5 -128.499s-80.5 -126 -106.5 -209s-39 -177.833 -39 -284.5c0 -55.333 5.5 -109.333 16.5 -162
s26.833 -102.334 47.5 -149.001s45.834 -89.667 75.501 -129s63.5 -73.166 101.5 -101.499s79.667 -50.5 125 -66.5s94 -24 146 -24c64 0 119.333 9.33301 166 28s87 43 121 73s62.5 63.833 85.5 101.5s42.833 75.834 59.5 114.501l68 -29
c-22 -54.667 -48.167 -105.667 -78.5 -153z" />
    <glyph glyph-name="D" unicode="D" horiz-adv-x="1522" 
d="M1430 700c0 -80.667 -10.5029 -153.83 -31.5029 -219.497s-49.667 -124.5 -86 -176.5s-79.166 -97 -128.499 -135s-102.333 -69.5 -159 -94.5s-115.667 -43.667 -177 -56s-122 -18.5 -182 -18.5h-560v70c8.66699 -0.666992 19.334 -0.5 32.001 0.5s25.5 2.16699 38.5 3.5
s25.333 3 37 5s20.5 3.66699 26.5 5c20.667 9.33301 35 22.666 43 39.999s12 37.333 12 60v1033c0 22.667 -4 43 -12 61s-22.333 31.667 -43 41c-21.333 10 -42.666 17.667 -63.999 23s-40.333 8 -57 8v69h592c42 0 89 -4.5 141 -13.5s104.5 -24.333 157.5 -46
s104.833 -50.334 155.5 -86.001s95.5 -80.167 134.5 -133.5s70.5 -116.333 94.5 -189s36 -156.334 36 -251.001zM1262 702.004c0 94 -15.167 180.169 -45.5 258.502s-72.833 145.666 -127.5 201.999s-119.5 100.166 -194.5 131.499s-157.5 47 -247.5 47
c-12 0 -27.5 -0.166992 -46.5 -0.5l-58.5 -1l-58 -1c-18.667 -0.333008 -34 -0.833008 -46 -1.5v-1095c0 -32 5 -58.5 15 -79.5s25.667 -37.667 47 -50s48.5 -21.166 81.5 -26.499s72.5 -8 118.5 -8c94.667 0 177.167 15 247.5 45s128.833 72.5 175.5 127.5
s81.5 120.667 104.5 197s34.5 161.166 34.5 254.499z" />
    <glyph glyph-name="E" unicode="E" horiz-adv-x="1339" 
d="M1257 0l-1163 0.000976562v70c8 0.666992 19 1.5 33 2.5s28.333 2.33301 43 4s28.5 3.5 41.5 5.5s22.5 4 28.5 6c20.667 8 35 21 43 39s12 38.333 12 61v1029c0 22.667 -3.83301 42 -11.5 58s-22.167 29.333 -43.5 40c-10 4.66699 -21.833 9 -35.5 13
s-27.334 7.66699 -41.001 11s-26.667 6 -39 8s-22.5 3 -30.5 3v69h1082v-332h-64c-7.33301 33.333 -16.333 64.833 -27 94.5s-23.834 55.667 -39.501 78s-34.167 40.333 -55.5 54s-46.333 21.5 -75 23.5c-24.667 2 -52.667 3.5 -84 4.5s-64.666 1.5 -99.999 1.5h-293v-569
h228c32 0 58.167 1.83301 78.5 5.5s37 8.5 50 14.5s23.333 12.833 31 20.5s14.5 15.5 20.5 23.5c6.66699 8.66699 12.834 19.5 18.501 32.5s10.5 26.833 14.5 41.5s7.5 29.5 10.5 44.5s5.5 29.167 7.5 42.5h64v-538h-64c-0.666992 14.667 -2.5 30.5 -5.5 47.5
s-6.83301 33.667 -11.5 50s-10 31.166 -16 44.499s-12 24 -18 32c-6 7.33301 -12.667 14.666 -20 21.999s-17.5 13.833 -30.5 19.5s-29.833 10.334 -50.5 14.001s-47 5.5 -79 5.5h-228v-434c0 -41.333 3.83301 -74.166 11.5 -98.499s22.5 -42.833 44.5 -55.5
s53 -20.834 93 -24.501s92.667 -5.5 158 -5.5c28 0 59.167 0.5 93.5 1.5s67.833 3.33301 100.5 7s62.5 9.16699 89.5 16.5s46.5 17.333 58.5 30c12.667 12.667 25 29.5 37 50.5s23.5 44 34.5 69s21 50.833 30 77.5s16.833 52 23.5 76h72z" />
    <glyph glyph-name="F" unicode="F" horiz-adv-x="1221" 
d="M1124 1077c-7.33301 32.667 -16.1631 63.834 -26.4961 93.501s-23.5 56.167 -39.5 79.5s-35 42.666 -57 57.999s-48.333 25 -79 29c-26 3.33301 -53.667 5.16602 -83 5.49902s-60.666 0.5 -93.999 0.5h-307v-573h244c32 0 58.667 2 80 6s39 9.16699 53 15.5
s25.167 13.333 33.5 21s15.5 14.834 21.5 21.501c12.667 14 22.667 33.167 30 57.5s13.333 58.166 18 101.499h65v-538h-65c-0.666992 14.667 -2.33398 30.334 -5.00098 47.001s-6 32.834 -10 48.501s-8.83301 30.334 -14.5 44.001s-11.834 25.167 -18.501 34.5
c-5.33301 6.66699 -11.833 13.834 -19.5 21.501s-18.334 14.5 -32.001 20.5s-31.334 11 -53.001 15s-49.5 6 -83.5 6h-244v-495c0 -22.667 3.66699 -42.834 11 -60.501s21.666 -31.834 42.999 -42.501c10 -5.33301 21.5 -9.5 34.5 -12.5s26 -5.33301 39 -7
s25.667 -2.83398 38 -3.50098s22.833 -1 31.5 -1v-70h-541v70c8 0 19 0.166992 33 0.5s28.333 1 43 2s28.5 2.33301 41.5 4s22.5 3.5 28.5 5.5c21.333 7.33301 35.833 20.166 43.5 38.499s11.5 38.833 11.5 61.5v1035c0 22.667 -3.83301 42.334 -11.5 59.001
s-22.167 29.667 -43.5 39c-8 4 -18.5 8 -31.5 12s-26.833 7.83301 -41.5 11.5s-28.5 6.5 -41.5 8.5s-23.5 3 -31.5 3v69h1094v-342h-64z" />
    <glyph glyph-name="G" unicode="G" horiz-adv-x="1468" 
d="M1408.5 558c-13 -2 -25.666 -4.16699 -37.999 -6.5s-24 -5.33301 -35 -9s-19.833 -7.83398 -26.5 -12.501c-18.667 -12 -31.5 -27 -38.5 -45s-10.5 -38.333 -10.5 -61v-84v-103c0 -28.667 0.166992 -53.167 0.5 -73.5s0.666016 -37.666 0.999023 -51.999
s1.16602 -27.5 2.49902 -39.5c-37.333 -14 -74.333 -27.167 -111 -39.5s-74.5 -23.333 -113.5 -33s-79.667 -17.167 -122 -22.5s-87.5 -8 -135.5 -8c-61.333 0 -121.333 7.83301 -180 23.5s-113.834 38.334 -165.501 68.001s-99.167 65.834 -142.5 108.501
s-80.5 91 -111.5 145s-55.167 113.167 -72.5 177.5s-26 133.166 -26 206.499c0 109.333 18.667 209.833 56 301.5s88.166 170.834 152.499 237.501s139.666 118.5 225.999 155.5s178.5 55.5 276.5 55.5c82 0 154.5 -10.167 217.5 -30.5s117.5 -46.5 163.5 -78.5l32 80h72
l8 -485h-69c-6 30 -14 61.5 -24 94.5s-23 65.667 -39 98s-35.167 63 -57.5 92s-49 54.667 -80 77s-66.667 40 -107 53s-86.166 19.5 -137.499 19.5c-76.667 0 -147.167 -15 -211.5 -45s-119.833 -73.5 -166.5 -130.5s-83 -127 -109 -210s-39 -177.833 -39 -284.5
c0 -85.333 12.833 -167 38.5 -245s63.167 -146.667 112.5 -206s110 -106.5 182 -141.5s154.667 -52.5 248 -52.5c36.667 0 70.334 2.66699 101.001 8s57.834 12.166 81.501 20.499s44.167 17.333 61.5 27s31 18.5 41 26.5c1.33301 10 2.83301 20.667 4.5 32
s3 24.166 4 38.499s1.83301 31.166 2.5 50.499s1 42 1 68v77c0 31.333 -3.16699 58.5 -9.5 81.5s-22.166 39.5 -47.499 49.5c-11.333 6 -26 10.833 -44 14.5s-36.333 6.83398 -55 9.50098s-36.167 4.5 -52.5 5.5s-28.5 1.5 -36.5 1.5v72h565v-72
c-12 -1.33301 -24.5 -3 -37.5 -5z" />
    <glyph glyph-name="H" unicode="H" horiz-adv-x="1632" 
d="M1014 0l0.00488281 70.0029c7.33301 0.666992 17.166 1.33398 29.499 2.00098s25.166 1.66699 38.499 3s26.166 3 38.499 5s22.5 4.66699 30.5 8c16.667 6 28 17.833 34 35.5s9 37.834 9 60.501v514h-756v-501c0 -22.667 3.16699 -42 9.5 -58s18.166 -29.667 35.499 -41
c6.66699 -4 15.5 -7.5 26.5 -10.5s22.5 -5.66699 34.5 -8s24 -4.33301 36 -6s22.667 -2.83398 32 -3.50098v-70h-499v70c8 0.666992 18 1.33398 30 2.00098s24.5 1.66699 37.5 3s25.5 3 37.5 5s22 4.66699 30 8c16.667 7.33301 28.667 19.5 36 36.5s11 36.167 11 57.5v1035
c0 22.667 -4.66699 42.667 -14 60s-23.666 30.666 -42.999 39.999c-7.33301 3.33301 -16.5 6.83301 -27.5 10.5s-22.333 7.16699 -34 10.5s-23.167 6 -34.5 8s-21 3.33301 -29 4v69h499v-69c-19.333 -1.33301 -40.5 -4.33301 -63.5 -9s-42.833 -10 -59.5 -16
c-21.333 -7.33301 -35.166 -19.833 -41.499 -37.5s-9.5 -37.834 -9.5 -60.501v-449h756v439c0 22.667 -3.66699 42.667 -11 60s-21.333 30.666 -42 39.999l-27 9.5c-10.667 3.66699 -22 7 -34 10s-23.833 5.66699 -35.5 8s-21.834 4.16602 -30.501 5.49902v69h499v-69
c-8 -0.666992 -17.333 -1.66699 -28 -3s-21.5 -3.16602 -32.5 -5.49902s-21.833 -5 -32.5 -8s-19.667 -5.83301 -27 -8.5c-21.333 -8 -36 -21 -44 -39s-12 -41 -12 -69v-1020c0 -26 3.66699 -46 11 -60s18.666 -26.333 33.999 -37c7.33301 -4 16.166 -7.66699 26.499 -11
s21.5 -6.33301 33.5 -9s24.167 -4.83398 36.5 -6.50098s23.833 -2.83398 34.5 -3.50098v-70h-499z" />
    <glyph glyph-name="I" unicode="I" horiz-adv-x="733" 
d="M84 0l-0.00292969 69.998l35 2.5c14 1 28.167 2.16699 42.5 3.5s27.833 2.83301 40.5 4.5s22.334 3.5 29.001 5.5c26 7.33301 43.167 19.5 51.5 36.5s12.5 36.167 12.5 57.5v1039c0 22.667 -4.16699 42.334 -12.5 59.001s-26.166 29.667 -53.499 39
c-9.33301 3.33301 -20.166 6.83301 -32.499 10.5s-25.333 7.16699 -39 10.5s-26.834 6 -39.501 8s-24 3.33301 -34 4v69h567v-69c-10 -0.666992 -21.5 -1.66699 -34.5 -3s-26.5 -3.16602 -40.5 -5.49902s-27.5 -5 -40.5 -8s-24.167 -5.83301 -33.5 -8.5
c-24.667 -7.33301 -41.5 -19.5 -50.5 -36.5s-13.5 -36.833 -13.5 -59.5v-1034c0 -22.667 4.5 -42.5 13.5 -59.5s25.833 -30.833 50.5 -41.5c9.33301 -3.33301 20.333 -6.5 33 -9.5s25.834 -5.5 39.501 -7.5s27.167 -3.5 40.5 -4.5s25.333 -1.83301 36 -2.5v-70h-567z" />
    <glyph glyph-name="J" unicode="J" horiz-adv-x="1024" 
d="M939 1348c-13.333 -1.33301 -27.168 -3.1709 -41.501 -5.50391s-28.166 -5 -41.499 -8s-23.666 -6.16699 -30.999 -9.5c-22.667 -8 -37.5 -21 -44.5 -39s-10.5 -37.667 -10.5 -59v-836c0 -53.333 -9.16699 -105.333 -27.5 -156s-44.833 -95.834 -79.5 -135.501
s-77 -71.667 -127 -96s-106.333 -36.5 -169 -36.5c-57.333 0 -108.333 8.16699 -153 24.5s-82.334 39.333 -113.001 69s-53.834 65.334 -69.501 107.001s-23.5 87.5 -23.5 137.5c0 20.667 2.33301 40.334 7 59.001s11.667 35 21 49s21 25.167 35 33.5s30.667 12.5 50 12.5
c34.667 0 60 -9.66699 76 -29s24 -42 24 -68c0 -20 -3.83301 -39.167 -11.5 -57.5s-16.167 -36.666 -25.5 -54.999l-27.5 -56c-9 -19 -14.833 -39.167 -17.5 -60.5c8.66699 -12.667 19.834 -25 33.501 -37s29.667 -22.667 48 -32s39.5 -16.833 63.5 -22.5s51 -8.5 81 -8.5
c54.667 0 99 12.5 133 37.5s60.333 57.667 79 98s31.334 85.833 38.001 136.5s10 101.334 10 152.001v760c0 22.667 -4.83301 41.834 -14.5 57.501s-24.167 29.167 -43.5 40.5c-10.667 6 -23.334 11.167 -38.001 15.5s-29.5 8 -44.5 11s-29.167 5.16699 -42.5 6.5
s-24 2 -32 2v69h559v-69c-6.66699 0 -16.667 -0.666992 -30 -2z" />
    <glyph glyph-name="K" unicode="K" horiz-adv-x="1380" 
d="M1114 0c-42 57.333 -88.6699 115.503 -140.003 174.503l-162.5 179l-178.5 182l-187 183.5h-8v-522c0 -22.667 4.16699 -42.667 12.5 -60s22.166 -31.666 41.499 -42.999c4.66699 -2 12.834 -4.33301 24.501 -7s24.334 -5.33398 38.001 -8.00098
s27.167 -4.83398 40.5 -6.50098s24 -2.5 32 -2.5v-70h-508v70l29 2.5l34.5 3c11.667 1 22.667 2.33301 33 4s18.5 3.16699 24.5 4.5c20.667 9.33301 35 22.666 43 39.999s12 37.333 12 60v1033c0 22.667 -4.33301 42.334 -13 59.001s-22.667 29.667 -42 39
c-6 2.66699 -14.333 6.16699 -25 10.5s-21.834 8.16602 -33.501 11.499s-23 6.33301 -34 9s-20.5 4 -28.5 4v69h495v-69c-7.33301 0 -16.5 -0.666992 -27.5 -2s-22.167 -3.33301 -33.5 -6s-22.5 -5.5 -33.5 -8.5s-20.167 -5.83301 -27.5 -8.5
c-23.333 -7.33301 -38.166 -19.833 -44.499 -37.5s-9.5 -37.834 -9.5 -60.501v-494h6l125 101.5l124.5 107.5l114.5 106.5c36 35 67.333 68 94 99s47.834 59.167 63.501 84.5s23.5 46.666 23.5 63.999c0 12.667 -7.33301 22.667 -22 30s-31.167 12.833 -49.5 16.5
s-35.333 5.83398 -51 6.50098s-24.5 1 -26.5 1v69h491v-69c-14 0 -29.833 -0.833008 -47.5 -2.5s-35.167 -5 -52.5 -10s-34 -11.667 -50 -20s-30 -19.5 -42 -33.5c-44 -50 -88.333 -97.333 -133 -142l-135 -130l-136.5 -124l-136.5 -124l150 -145.5l133.5 -135l123 -128.5
l117.5 -126c33.333 -36 63.333 -64.667 90 -86s49.334 -36.333 68.001 -45c21.333 -9.33301 44 -16 68 -20s44.333 -6.66699 61 -8v-70h-295z" />
    <glyph glyph-name="L" unicode="L" horiz-adv-x="1217" 
d="M1186 0l-1073 0.00488281v70c6.66699 0 16 0.5 28 1.5s24.167 2.16699 36.5 3.5s24.333 3 36 5s20.5 4 26.5 6c20.667 9.33301 35 23 43 41s12 38.333 12 61v1022c0 22.667 -3.83301 42.667 -11.5 60s-22.167 31.666 -43.5 42.999
c-7.33301 4 -16.666 8.16699 -27.999 12.5s-23.166 8.33301 -35.499 12s-24.333 6.66699 -36 9s-20.834 3.5 -27.501 3.5v69h510v-69c-8 0 -17.667 -0.833008 -29 -2.5s-23.166 -3.83398 -35.499 -6.50098l-36 -8c-11.667 -2.66699 -21.834 -5.33398 -30.501 -8.00098
c-20.667 -9.33301 -34.834 -23.333 -42.501 -42s-11.5 -39.334 -11.5 -62.001v-961c0 -43.333 1.83301 -77.333 5.5 -102s13 -43.5 28 -56.5s37.5 -21.167 67.5 -24.5s71.667 -5 125 -5c34 0 69.167 1.16699 105.5 3.5s70.833 5.83301 103.5 10.5s61.5 10.834 86.5 18.501
s42.5 16.5 52.5 26.5c16 15.333 30.667 34.333 44 57s25.5 46.667 36.5 72s21 50.666 30 75.999s16.5 48.666 22.5 69.999h72z" />
    <glyph glyph-name="M" unicode="M" horiz-adv-x="1880" 
d="M1219 0l-0.00195312 70c9.33301 0 22.166 0.5 38.499 1.5s33 2.5 50 4.5s33.167 4.66699 48.5 8s27 7.33301 35 12c15.333 9.33301 27.333 22.833 36 40.5s13 37.834 13 60.501v1017h-23l-512 -1191h-18l-25 71l-463 1149h-18v-852c0 -42 1 -78.333 3 -109
s5.33301 -56.834 10 -78.501s10.334 -39.5 17.001 -53.5s15 -25.667 25 -35c7.33301 -7.33301 18.5 -13.833 33.5 -19.5s31.333 -10.334 49 -14.001s35.667 -6.5 54 -8.5s34.5 -3 48.5 -3v-70h-555v70c7.33301 0.666992 18.833 1.16699 34.5 1.5s32.167 1.33301 49.5 3
s34.5 4.5 51.5 8.5s30.5 10.333 40.5 19c10.667 8.66699 19.5 20.334 26.5 35.001s12.5 33.167 16.5 55.5s6.66699 49 8 80s2 67.167 2 108.5v747c0 42 -5.5 76.167 -16.5 102.5s-24.5 47.5 -40.5 63.5c-10 10 -22 18.5 -36 25.5s-28.5 12.667 -43.5 17
s-29.667 7.66602 -44 9.99902s-27.166 3.5 -38.499 3.5v69h399l463 -1120l405 946c8 18.667 15.167 37.334 21.5 56.001s11.5 35.834 15.5 51.501s7 29.334 9 41.001s3.33301 20.167 4 25.5h381v-69c-7.33301 0 -17 -0.666992 -29 -2s-24.667 -3.33301 -38 -6
s-26.166 -5.5 -38.499 -8.5s-22.5 -5.83301 -30.5 -8.5c-22.667 -7.33301 -37.167 -19.833 -43.5 -37.5s-9.5 -37.834 -9.5 -60.501v-1030c0 -22.667 3.16699 -41.834 9.5 -57.501s16.833 -28.167 31.5 -37.5c8 -5.33301 18.667 -9.83301 32 -13.5s27.333 -7 42 -10
s29 -5.16699 43 -6.5s25 -2 33 -2v-70h-557z" />
    <glyph glyph-name="N" unicode="N" horiz-adv-x="1602" 
d="M1512.5 1347.5c-17 -1.66699 -33.665 -3.99902 -49.998 -6.99902s-31.333 -6.33301 -45 -10s-23.167 -7.5 -28.5 -11.5c-12.667 -8 -22.834 -20 -30.501 -36s-13.5 -35.5 -17.5 -58.5s-6.66699 -49.333 -8 -79s-2 -62.5 -2 -98.5v-1063h-41l-909 1192v-777
c0 -42 1.16699 -78.5 3.5 -109.5s6 -57.667 11 -80s11.167 -41.166 18.5 -56.499s16 -28 26 -38c6.66699 -6.66699 17 -12.834 31 -18.501s30 -10.5 48 -14.5s37.333 -7 58 -9s40.667 -3 60 -3v-70h-571v70c8 0 19.833 0.833008 35.5 2.5s32.167 4 49.5 7s33.833 7 49.5 12
s27.5 10.833 35.5 17.5c10 8.66699 18.667 20 26 34s13.5 32 18.5 54s8.66699 48.333 11 79s3.5 67.667 3.5 111v727c0 35.333 -5.66699 66.833 -17 94.5s-24.666 48.167 -39.999 61.5c-13.333 11.333 -29.333 21.833 -48 31.5s-37.834 18.167 -57.501 25.5
s-38.334 13.166 -56.001 17.499s-31.5 6.83301 -41.5 7.5v67h340l870 -1140v755c0 79.333 -4 142 -12 188s-22.333 76.333 -43 91c-8.66699 6 -22 11.333 -40 16s-37 8.5 -57 11.5s-39 5.33301 -57 7s-31.667 2.5 -41 2.5v69h561v-69c-12 0 -26.5 -0.833008 -43.5 -2.5z" />
    <glyph glyph-name="O" unicode="O" horiz-adv-x="1509" 
d="M1425 705c0 -79.333 -9.16797 -152.829 -27.501 -220.496s-43.333 -128.834 -75 -183.501s-68.834 -102.834 -111.501 -144.501s-88.667 -76.5 -138 -104.5s-100.833 -49.167 -154.5 -63.5s-107.167 -21.5 -160.5 -21.5c-101.333 0 -193.5 19.167 -276.5 57.5
s-154 91 -213 158s-104.5 146.167 -136.5 237.5s-48 189.666 -48 294.999c0 74 8.33301 143.667 25 209s40 125.166 70 179.499s65.667 103 107 146s86.833 79.333 136.5 109s102.5 52.334 158.5 68.001s113.667 23.5 173 23.5c62 0 121.833 -8 179.5 -24
s111.334 -39.167 161.001 -69.5s94.834 -67.333 135.501 -111s75.5 -93.167 104.5 -148.5s51.333 -115.833 67 -181.5s23.5 -135.834 23.5 -210.501zM1262 707.004c0 106.667 -11.9951 200.999 -35.9951 282.999s-58.167 150.833 -102.5 206.5
s-97.833 97.834 -160.5 126.501s-132.334 43 -209.001 43c-64 0 -120.833 -9.33301 -170.5 -28s-93.334 -44 -131.001 -76s-69.5 -69.5 -95.5 -112.5s-47 -88.833 -63 -137.5s-27.667 -98.667 -35 -150s-11 -101.666 -11 -150.999c0 -94 10.667 -181 32 -261
s53.166 -149.5 95.499 -208.5s95.166 -105.167 158.499 -138.5s136.666 -50 219.999 -50c85.333 0 159.833 17 223.5 51s116.5 80.5 158.5 139.5s73.5 128.167 94.5 207.5s31.5 164.666 31.5 255.999z" />
    <glyph glyph-name="P" unicode="P" horiz-adv-x="1225" 
d="M1141 1071c0 -72 -13.334 -135.666 -40.001 -190.999s-62 -101.5 -106 -138.5s-94.667 -65 -152 -84s-117 -28.5 -179 -28.5h-226v-447c0 -21.333 3.33301 -41.5 10 -60.5s19 -31.5 37 -37.5c8 -2.66699 18.333 -4.83398 31 -6.50098s26.167 -3 40.5 -4
s29.166 -1.83301 44.499 -2.5s29.333 -1 42 -1v-70h-530v70c10 0 21.333 0.5 34 1.5s25.167 2.33301 37.5 4s24 3.66699 35 6s20.5 5.16602 28.5 8.49902c16.667 6 28.667 18.5 36 37.5s11 39.167 11 60.5v1035c0 22.667 -4 44.334 -12 65.001s-22.333 35 -43 43
c-25.333 6 -50.166 10.667 -74.499 14s-46.166 5 -65.499 5v69h631c56 0 108.833 -8.83301 158.5 -26.5s93.167 -42 130.5 -73s66.833 -67.667 88.5 -110s32.5 -88.5 32.5 -138.5zM970.999 1022c0 33.333 -4.83105 68.665 -14.498 105.998s-26.167 71.833 -49.5 103.5
s-55 57.834 -95 78.501s-90 31 -150 31h-224v-628h176c53.333 0 99.166 6.33301 137.499 19s70.666 28.834 96.999 48.501s47.666 41.5 63.999 65.5s28.833 47.5 37.5 70.5s14.334 44 17.001 63s4 33.167 4 42.5z" />
    <glyph glyph-name="Q" unicode="Q" horiz-adv-x="1509" 
d="M1425 705c0 -96.667 -13.1738 -183.671 -39.5068 -261.004s-61.833 -145.166 -106.5 -203.499s-96.5 -107.666 -155.5 -147.999s-120.833 -71.833 -185.5 -94.5c0.666992 -39.333 8.83398 -76.166 24.501 -110.499s35.834 -64.166 60.501 -89.499
s52.334 -45.166 83.001 -59.499s62 -21.5 94 -21.5c43.333 0 84 2.5 122 7.5s68.333 9.5 91 13.5v-70c-12 -3.33301 -27.5 -7.33301 -46.5 -12s-40.167 -9 -63.5 -13s-48.666 -7.33301 -75.999 -10s-56 -4 -86 -4c-43.333 0 -85.666 5.83301 -126.999 17.5
s-79 30.667 -113 57s-63 61 -87 104s-40 96.167 -48 159.5c-101.333 0.666992 -193.833 20 -277.5 58s-155.5 90.5 -215.5 157.5s-106.5 146 -139.5 237s-49.5 189.5 -49.5 295.5c0 74 8.33301 143.667 25 209s40 125.166 70 179.499s65.667 103 107 146
s86.833 79.333 136.5 109s102.5 52.334 158.5 68.001s113.667 23.5 173 23.5c62 0 121.833 -8 179.5 -24s111.334 -39.167 161.001 -69.5s94.834 -67.333 135.501 -111s75.5 -93.167 104.5 -148.5s51.333 -115.833 67 -181.5s23.5 -135.834 23.5 -210.501zM1261.99 706.996
c0 106.667 -11.9951 200.999 -35.9951 282.999s-58.167 150.833 -102.5 206.5s-97.833 97.834 -160.5 126.501s-132.334 43 -209.001 43c-64 0 -120.833 -9.33301 -170.5 -28s-93.334 -44 -131.001 -76s-69.5 -69.5 -95.5 -112.5s-47 -88.833 -63 -137.5
s-27.667 -98.667 -35 -150s-11 -101.666 -11 -150.999c0 -94 10.667 -181 32 -261s53.166 -149.5 95.499 -208.5s95.166 -105.167 158.499 -138.5s136.666 -50 219.999 -50c85.333 0 159.833 17 223.5 51s116.5 80.5 158.5 139.5s73.5 128.167 94.5 207.5
s31.5 164.666 31.5 255.999z" />
    <glyph glyph-name="R" unicode="R" horiz-adv-x="1405" 
d="M1120 0l-113.5 176.998l-110.5 162.5l-110 153.5l-112 150h-236v-459c0 -22.667 3.33301 -43.5 10 -62.5s19 -31.5 37 -37.5c7.33301 -2.66699 17.833 -4.83398 31.5 -6.50098s28 -3 43 -4s29.667 -1.83301 44 -2.5s25.5 -1 33.5 -1v-70h-524v70l31 2.5
c12 1 24.167 2.16699 36.5 3.5s23.833 2.83301 34.5 4.5s19 3.5 25 5.5c19.333 8 33.333 21.333 42 40s13 39.334 13 62.001v1037c0 22.667 -3.83301 44.5 -11.5 65.5s-22.167 34.5 -43.5 40.5c-6.66699 2 -15.5 4 -26.5 6s-22.5 3.83301 -34.5 5.5
s-23.833 3.16699 -35.5 4.5s-21.834 2.33301 -30.501 3v69h620c50 0 100.333 -5.83301 151 -17.5s96.334 -30.667 137.001 -57s73.834 -61.166 99.501 -104.499s38.5 -96.333 38.5 -159c0 -58 -9.16699 -107.833 -27.5 -149.5s-43.333 -77.5 -75 -107.5
s-68.5 -55.167 -110.5 -75.5s-86.333 -37.833 -133 -52.5l80 -105.5l60 -80.5l47.5 -66.5l44.5 -63l50 -70.5l64 -89c13.333 -18.667 25.666 -34.5 36.999 -47.5s22.5 -24.333 33.5 -34s21.667 -17.667 32 -24s21.166 -12.166 32.499 -17.499
c10 -4.66699 21 -8.66699 33 -12s24.333 -6 37 -8s25.334 -3.66699 38.001 -5s24 -2.33301 34 -3v-70h-316zM985 1061c0 50 -7.83008 92.835 -23.4971 128.502s-36.834 64.667 -63.501 87s-57.834 38.666 -93.501 48.999s-73.167 15.5 -112.5 15.5h-254v-614h207
c48 0 92.833 8.16699 134.5 24.5s77.667 39.166 108 68.499s54.166 64.5 71.499 105.5s26 86.167 26 135.5z" />
    <glyph glyph-name="S" unicode="S" horiz-adv-x="1122" 
d="M1040 399c0 -62 -11.6689 -118.833 -35.002 -170.5s-55.666 -96.334 -96.999 -134.001s-90.5 -67 -147.5 -88s-119.5 -31.5 -187.5 -31.5c-66 0 -129.167 8.16699 -189.5 24.5s-114.5 40.5 -162.5 72.5l-31 -72h-67l-14 473h67c12.667 -61.333 29.167 -117.5 49.5 -168.5
s46.833 -95 79.5 -132s72.834 -65.833 120.501 -86.5s105.167 -31 172.5 -31c104.667 0 182.667 24.833 234 74.5s77 118.5 77 206.5c0 62.667 -15.5 115.834 -46.5 159.501s-73.5 77.834 -127.5 102.501c-34.667 14 -64.334 25.5 -89.001 34.5l-71.5 26.5l-72.5 28l-92 38
c-38.667 17.333 -73.834 36.666 -105.501 57.999s-59 46 -82 74s-40.833 60.333 -53.5 97s-19 79 -19 127c0 54 11 103.5 33 148.5s51.333 83.667 88 116s78.834 57.5 126.501 75.5s97.5 27 149.5 27c74.667 0 138.834 -8.66699 192.501 -26s102.167 -42 145.5 -74l33 71h65
l8 -465h-69c-12.667 57.333 -27.834 111.166 -45.501 161.499s-41.167 94 -70.5 131s-66 66.167 -110 87.5s-98.667 32 -164 32c-36.667 0 -70.834 -5.33301 -102.501 -16s-59.167 -25.834 -82.5 -45.501s-41.666 -43.667 -54.999 -72s-20 -60.166 -20 -95.499
c0 -60.667 12 -110 36 -148s58.667 -68.667 104 -92c27.333 -14.667 53.333 -27.167 78 -37.5s49 -20 73 -29l72.5 -26.5c24.333 -8.66699 49.5 -18.667 75.5 -30c44.667 -18.667 86.834 -38.167 126.501 -58.5s74.5 -44.666 104.5 -72.999s53.833 -62 71.5 -101
s26.5 -86.5 26.5 -142.5z" />
    <glyph glyph-name="T" unicode="T" horiz-adv-x="1282" 
d="M1196 1044c-2.66699 42 -7.99902 80.165 -15.999 114.498s-20 64.166 -36 89.499s-36.833 45.666 -62.5 60.999s-57.167 25.333 -94.5 30c-12 2 -25.333 3.5 -40 4.5s-29.334 1.83301 -44.001 2.5s-29 1.16699 -43 1.5s-27 0.5 -39 0.5h-108v-1145
c0 -22.667 4.66699 -42.667 14 -60s25.666 -32.333 48.999 -45c6 -2 16.5 -4.66699 31.5 -8s31.333 -6.5 49 -9.5s35 -5.5 52 -7.5s30.167 -3 39.5 -3v-70h-610v70c9.33301 0 21.833 0.666992 37.5 2s31.834 3 48.501 5s32.5 4.33301 47.5 7s26.5 5.33398 34.5 8.00098
c23.333 8.66699 39.666 21.834 48.999 39.501s14 38.167 14 61.5v1155h-104c-8 0 -19 -0.166992 -33 -0.5s-29 -0.833008 -45 -1.5s-32 -1.5 -48 -2.5s-30 -2.5 -42 -4.5c-36 -4.66699 -67.167 -16.167 -93.5 -34.5s-48.166 -41.166 -65.499 -68.499
s-30.5 -57.666 -39.5 -90.999s-13.833 -67 -14.5 -101h-70v375h1254v-375h-72z" />
    <glyph glyph-name="U" unicode="U" horiz-adv-x="1554" 
d="M1477.5 1347c-15 -2 -30.835 -4.83203 -47.502 -8.49902s-32.667 -8 -48 -13s-27.333 -10.5 -36 -16.5c-13.333 -8 -23.833 -21.5 -31.5 -40.5s-13.5 -40.667 -17.5 -65s-6.5 -50.5 -7.5 -78.5s-1.5 -55 -1.5 -81v-659c0 -58 -11 -112.5 -33 -163.5
s-54.5 -95.333 -97.5 -133s-96.333 -67.334 -160 -89.001s-137.5 -32.5 -221.5 -32.5c-86 0 -161 11.5 -225 34.5s-117 53.167 -159 90.5s-73.5 80.166 -94.5 128.499s-31.5 97.833 -31.5 148.5v845c0 23.333 -4 43.166 -12 59.499s-21.667 30.833 -41 43.5
c-8 4.66699 -18.167 8.83398 -30.5 12.501s-24.833 7 -37.5 10s-24.667 5.33301 -36 7s-20.333 2.83398 -27 3.50098v69h518v-69c-8 -0.666992 -18 -1.66699 -30 -3s-24.5 -3.16602 -37.5 -5.49902s-25.5 -5 -37.5 -8s-22 -5.83301 -30 -8.5c-21.333 -8 -35.5 -21 -42.5 -39
s-10.5 -38.333 -10.5 -61v-817c0 -12.667 0.833008 -30 2.5 -52s6.16699 -45.5 13.5 -70.5s18.833 -50.333 34.5 -76s37.334 -48.834 65.001 -69.501s62.5 -37.5 104.5 -50.5s93.333 -19.5 154 -19.5c72 0 134.167 7.83301 186.5 23.5s95.5 37.834 129.5 66.501
s59.167 63 75.5 103s24.5 84.667 24.5 134v635c0 34 -1.33301 66 -4 96s-6.66699 56.5 -12 79.5s-11.666 42.333 -18.999 58s-16 26.5 -26 32.5c-12 8 -26.667 15.333 -44 22s-35 12.167 -53 16.5s-35.333 7.66602 -52 9.99902s-30.667 3.5 -42 3.5v69h563v-69
c-8.66699 0 -20.5 -1 -35.5 -3z" />
    <glyph glyph-name="V" unicode="V" horiz-adv-x="1354" 
d="M1352 1348.5c-10.667 -1.66699 -21.498 -4 -32.498 -7s-21.667 -6.66699 -32 -11s-18.833 -8.83301 -25.5 -13.5c-20.667 -14.667 -38 -32.5 -52 -53.5s-27.667 -46.833 -41 -77.5l-56.5 -131l-79 -184l-92 -218l-97 -233.5l-93.5 -230l-81 -207.5h-29l-97 267.5
l-98.5 259.5l-93.5 239.5l-81.5 206.5l-64 160.5l-40.5 101.5c-8 21.333 -17.833 40.333 -29.5 57s-27.834 31.667 -48.501 45c-8 4.66699 -17 9 -27 13s-20.167 7.33301 -30.5 10s-20.5 4.66699 -30.5 6s-19 2 -27 2v69h500v-69c-26.667 0 -50.834 -0.5 -72.501 -1.5
s-40.167 -3.16699 -55.5 -6.5s-27.166 -8.33301 -35.499 -15s-12.5 -15.667 -12.5 -27c0 -7.33301 1.83301 -16.666 5.5 -27.999l10.5 -33c9.33301 -25.333 26.333 -68.333 51 -129l88.5 -220.5l113.5 -289.5l126 -334l63.5 148l67.5 159l66.5 158.5l61 147.5l50.5 124
l35 89c17.333 48 28.166 85.667 32.499 113s6.5 46.333 6.5 57c0 14.667 -5.83301 27.167 -17.5 37.5s-26.667 19 -45 26s-38.833 12.667 -61.5 17s-44.667 7.5 -66 9.5v67h495v-67c-8 -0.666992 -17.333 -1.83398 -28 -3.50098z" />
    <glyph glyph-name="W" unicode="W" horiz-adv-x="2046" 
d="M1975 1340c-23.333 -6.66699 -43.335 -15.6689 -60.002 -27.002c-19.333 -13.333 -36.666 -29.5 -51.999 -48.5s-28 -45.167 -38 -78.5l-46 -145.5l-59.5 -187l-68.5 -214l-72.5 -226.5l-71.5 -224l-65 -207h-31l-397 1146l-432 -1146h-35l-72 261.5l-72.5 256
l-68.5 238.5l-61.5 209.5l-51 168l-35.5 115.5c-5.33301 16.667 -12 32.334 -20 47.001s-20.333 28.334 -37 41.001c-7.33301 4.66699 -16.166 8.83398 -26.499 12.501s-21 6.83398 -32 9.50098s-21.5 4.83398 -31.5 6.50098s-18.333 2.5 -25 2.5v69h471v-69
c-52 0 -91.167 -2.16699 -117.5 -6.5s-39.5 -15.833 -39.5 -34.5c0 -8.66699 1.5 -20.834 4.5 -36.501s6.16699 -30.167 9.5 -43.5c4 -15.333 11.667 -42.833 23 -82.5l40.5 -140l51.5 -175l55.5 -189l53 -181.5l44.5 -152l418 1080h39l385 -1092l45.5 133l48.5 144.5
l47.5 146.5l44.5 139.5l37.5 123.5c11 38 19.833 71 26.5 99c8 30.667 14.167 55.667 18.5 75s7.5 35.333 9.5 48s3.33301 23.167 4 31.5s1 16.5 1 24.5c0 17.333 -6 31.5 -18 42.5s-27.167 19.667 -45.5 26s-38.333 11.166 -60 14.499s-42.167 5.66602 -61.5 6.99902v67
h482v-67c-14.667 -1.33301 -33.667 -5.33301 -57 -12z" />
    <glyph glyph-name="X" unicode="X" horiz-adv-x="1415" 
d="M834 0l-0.00390625 70c7.33301 0.666992 20.833 1.33398 40.5 2.00098s39.667 2.66699 60 6s38.333 8.5 54 15.5s23.5 17.5 23.5 31.5c0 14.667 -9.66699 39.834 -29 75.501s-46 78.834 -80 129.501l-108 157l-111 154l-52 -76l-66.5 -98l-71 -106l-63.5 -100.5
c-18.667 -31 -34 -58 -46 -81s-18 -39.167 -18 -48.5c0 -14.667 4.5 -26.167 13.5 -34.5s21.167 -14.5 36.5 -18.5s33.166 -6.33301 53.499 -7s41.833 -1 64.5 -1v-70h-521v70c8 0 18.167 0.5 30.5 1.5s25.5 2.5 39.5 4.5s28.167 5 42.5 9s27.5 9 39.5 15
c21.333 11.333 41.833 27.333 61.5 48s38.834 44.334 57.501 71.001l81 111.5l90.5 125l92.5 129.5l86 126l-73 105.5l-87 121l-95.5 131l-100.5 135.5c-14 18.667 -26.667 34.5 -38 47.5s-22.166 24 -32.499 33s-20.5 16.5 -30.5 22.5s-20.333 11.333 -31 16
c-9.33301 4.66699 -19.666 8.66699 -30.999 12s-22.5 6.16602 -33.5 8.49902s-21 4 -30 5s-15.5 1.5 -19.5 1.5v69h555v-69c-6.66699 -0.666992 -19.5 -1.33398 -38.5 -2.00098s-38.5 -2.5 -58.5 -5.5s-37.833 -7.83301 -53.5 -14.5s-23.5 -16 -23.5 -28
c0 -6.66699 2.16699 -15.667 6.5 -27s10 -24.166 17 -38.499s15.333 -29.5 25 -45.5l29.5 -48c36 -54.667 72.5 -107.334 109.5 -158.001l117.5 -164l56 78l63 91.5l63 94.5c20.667 31.333 38.834 60.5 54.501 87.5s28.334 50.667 38.001 71s14.5 35.166 14.5 44.499
c0 16.667 -6.66699 29.334 -20 38.001s-29.166 15 -47.499 19s-36.833 6.16699 -55.5 6.5s-33 0.5 -43 0.5v69h516v-69c-5.33301 -0.666992 -13.166 -1.5 -23.499 -2.5s-21.833 -2.5 -34.5 -4.5s-25.667 -4.66699 -39 -8s-25.333 -7.33301 -36 -12
c-11.333 -6 -21.833 -12.333 -31.5 -19s-19.334 -14.334 -29.001 -23.001s-19.834 -19 -30.501 -31s-22.667 -26.667 -36 -44l-75.5 -99l-86 -115l-88.5 -121l-82 -115l78 -107l94.5 -129l104.5 -145l108 -156c52 -73.333 91.667 -117 119 -131
c6.66699 -3.33301 15.667 -6 27 -8s23.333 -3.83301 36 -5.5s25 -2.83398 37 -3.50098s21.667 -1 29 -1v-70h-565z" />
    <glyph glyph-name="Y" unicode="Y" horiz-adv-x="1219" 
d="M1237.5 1347.5l-26.5029 -6.00293c-10 -2.33301 -20.167 -5.33301 -30.5 -9s-19.5 -7.5 -27.5 -11.5c-13.333 -7.33301 -25.5 -16.5 -36.5 -27.5s-22.833 -25.167 -35.5 -42.5c-60.667 -83.333 -120.167 -172.166 -178.5 -266.499l-177.5 -296.5
c-10 -16 -18.333 -30.833 -25 -44.5s-12 -26.5 -16 -38.5s-7 -24 -9 -36s-3 -24.333 -3 -37v-327c0 -49.333 19 -83.666 57 -102.999c8 -3.33301 19.167 -6.83301 33.5 -10.5s29.666 -7 45.999 -10s33 -5.5 50 -7.5s31.833 -3.33301 44.5 -4v-70h-600v70
c9.33301 0.666992 21.833 1.5 37.5 2.5s31.834 2.33301 48.501 4s32.834 3.83398 48.501 6.50098s28.167 5.66699 37.5 9c20.667 7.33301 34.667 20.333 42 39s11 40 11 64v327c0 26.667 -6.5 53.334 -19.5 80.001s-26.833 53.334 -41.5 80.001l-69.5 128l-76 137.5
l-75.5 130l-66 106.5l-32.5 47.5c-9.66699 13.667 -18.667 25.5 -27 35.5s-16.833 19 -25.5 27s-18.334 15.667 -29.001 23c-15.333 10 -32.166 17.667 -50.499 23s-35.166 8.66602 -50.499 9.99902v69h488v-69c-16 -1.33301 -33 -2.16602 -51 -2.49902
s-34.667 -1.83301 -50 -4.5s-28 -6.83398 -38 -12.501s-15 -14.167 -15 -25.5c0 -4.66699 4.83301 -17.5 14.5 -38.5s22.834 -47.5 39.501 -79.5l58 -108.5l70.5 -126.5l76.5 -134l77 -130l73.5 121.5l76 126.5l71.5 121.5l59.5 105.5c17 31.333 30.5 58 40.5 80
s15 37 15 45c0 13.333 -5.16699 23.666 -15.5 30.999s-23.666 13 -39.999 17s-34.5 6.83301 -54.5 8.5s-39.333 3.5 -58 5.5v69h450v-69c-2.66699 0 -7.83398 -0.833008 -15.501 -2.5z" />
    <glyph glyph-name="Z" unicode="Z" horiz-adv-x="1208" 
d="M1120 0h-1089v23l917 1323h-368c-25.333 0 -56.333 -0.833008 -93 -2.5s-72.667 -4.5 -108 -8.5c-28.667 -3.33301 -56.667 -16.833 -84 -40.5s-51.666 -51.167 -72.999 -82.5s-39.166 -63.333 -53.499 -96s-22.833 -60 -25.5 -82h-63l43 385h1020v-22l-912 -1323h359
c36 0 71 1 105 3s66.333 5.66699 97 11s58.667 12.666 84 21.999s47.333 21.666 66 36.999c19.333 16.667 37.166 35.834 53.499 57.501s31.333 44.667 45 69s26 49.333 37 75s21.167 50.834 30.5 75.501h59z" />
    <glyph glyph-name="bracketleft" unicode="[" horiz-adv-x="696" 
d="M160 -309v1829h469v-88h-359v-1651h359v-90h-469z" />
    <glyph glyph-name="backslash" unicode="\" horiz-adv-x="958" 
d="M791 -424l-691 1948h107l692 -1948h-108z" />
    <glyph glyph-name="bracketright" unicode="]" horiz-adv-x="696" 
d="M68 -309v90h356v1651h-356v88h469v-1829h-469z" />
    <glyph glyph-name="asciicircum" unicode="^" horiz-adv-x="1257" 
d="M954 815l-325 528l-326 -528h-121l396 641h102l395 -641h-121z" />
    <glyph glyph-name="underscore" unicode="_" horiz-adv-x="1257" 
d="M-4 -274v94h1268v-94h-1268z" />
    <glyph glyph-name="grave" unicode="`" horiz-adv-x="1024" 
d="M700 1114l-90.999 86l-69 65l-53 50l-43 41c-22.667 19.333 -38.834 38 -48.501 56s-14.5 36 -14.5 54c0 17.333 5.33301 33 16 47s25.667 21 45 21c10 0 19 -1.33301 27 -4s16 -7 24 -13s16.167 -14.333 24.5 -25s17.5 -24 27.5 -40l36.5 -57.5l41.5 -67l51 -81.5
l65 -101z" />
    <glyph glyph-name="a" unicode="a" horiz-adv-x="983" 
d="M952 18c-22.667 -10 -45.165 -18.168 -67.498 -24.501s-42.833 -9.5 -61.5 -9.5c-41.333 0 -74.833 12.333 -100.5 37s-41.167 60.667 -46.5 108h-6c-46 -49.333 -95 -87 -147 -113s-112.333 -39 -181 -39c-39.333 0 -75.166 6.16699 -107.499 18.5s-60 29.5 -83 51.5
s-40.667 48.167 -53 78.5s-18.5 63.5 -18.5 99.5c0 40 6.16699 74.667 18.5 104s28.666 54.5 48.999 75.5s43.833 38.667 70.5 53s54.334 26.5 83.001 36.5c31.333 11.333 64.166 22.5 98.499 33.5l101.5 32.5l95 30c30 9.33301 56 18 78 26v93
c0 27.333 -2.83301 54.833 -8.5 82.5s-16 52.5 -31 74.5s-35.667 39.833 -62 53.5s-60.166 20.5 -101.499 20.5c-50 0 -91.167 -5.16699 -123.5 -15.5s-58.166 -22.166 -77.499 -35.499c0 -16.667 2.16699 -34.5 6.5 -53.5s6.5 -40.167 6.5 -63.5
c0 -24.667 -8 -43.167 -24 -55.5s-34.667 -18.5 -56 -18.5c-20.667 0 -38.167 7.66699 -52.5 23s-21.5 36.333 -21.5 63c0 30.667 8.83301 59.667 26.5 87s42 51.333 73 72s67.333 37 109 49s86.167 18 133.5 18c45.333 0 87.666 -4.33301 126.999 -13
s73.5 -24.834 102.5 -48.501s51.667 -56.334 68 -98.001s24.5 -95.834 24.5 -162.501c0 -51.333 -0.333008 -95.333 -1 -132s-1.5 -72.5 -2.5 -107.5s-1.83301 -71.833 -2.5 -110.5s-1 -85.667 -1 -141c0 -27.333 3 -48.666 9 -63.999s16.667 -28.333 32 -39
c8 -4 17.167 -7.16699 27.5 -9.5s21.166 -4.16602 32.499 -5.49902s22.666 -2.16602 33.999 -2.49902s21.666 -0.5 30.999 -0.5v-58zM674.002 550.999c-88.667 -22 -162.832 -43 -222.499 -63s-107.667 -41.667 -144 -65s-62.166 -49.333 -77.499 -78s-23 -63 -23 -103
c0 -54 14.667 -96.5 44 -127.5s73.333 -46.5 132 -46.5c32 0 60.833 3.16699 86.5 9.5s49.667 15.333 72 27s43.666 25.667 63.999 42s41.166 34.5 62.499 54.5z" />
    <glyph glyph-name="b" unicode="b" horiz-adv-x="1100" 
d="M1028 496c0 -50 -5.16406 -97.8369 -15.4971 -143.504s-24.833 -88.167 -43.5 -127.5s-41.5 -75 -68.5 -107s-57.167 -59.167 -90.5 -81.5s-69.5 -39.333 -108.5 -51s-80.167 -17.167 -123.5 -16.5c-60.667 1.33301 -116.834 9.83301 -168.501 25.5
s-96.167 35.167 -133.5 58.5l-38 -106l-64 10l2.5 73c1 28.667 1.66699 59.5 2 92.5l1 103c0.333008 35.667 0.5 70.5 0.5 104.5v997c0 26.667 -5 49.834 -15 69.501s-22.667 34.834 -38 45.501c-6 4 -15.167 7.33301 -27.5 10s-25.5 4.83398 -39.5 6.50098
s-27.667 2.83398 -41 3.50098s-24.333 1.33398 -33 2.00098v64l299 20l12 -14v-651l6 -2c11.333 13.333 26.666 27.666 45.999 42.999s41.666 29.5 66.999 42.5s53.166 23.833 83.499 32.5s62.5 13 96.5 13c68.667 0 129.834 -12.833 183.501 -38.5s99 -61.5 136 -107.5
s65 -100.5 84 -163.5s28.5 -131.833 28.5 -206.5zM897.003 491.996c0 60 -7.33301 115.832 -22 167.499s-36 96.5 -64 134.5s-62.667 67.667 -104 89s-88.666 32 -141.999 32c-29.333 0 -57 -3 -83 -9s-50.167 -14 -72.5 -24s-43 -21.5 -62 -34.5s-35.833 -26.5 -50.5 -40.5
v-588c5.33301 -17.333 15.166 -36.166 29.499 -56.499s33.166 -39.333 56.499 -57s51.5 -32.5 84.5 -44.5s71.167 -18 114.5 -18c44.667 0 86.334 10.167 125.001 30.5s72 49.666 100 87.999s50 85.333 66 141s24 118.834 24 189.501z" />
    <glyph glyph-name="c" unicode="c" horiz-adv-x="887" 
d="M508 -25c-66.667 0 -126.834 13.3301 -180.501 39.9971s-99.5 63.334 -137.5 110.001s-67.167 102 -87.5 166s-30.5 133 -30.5 207c0 68.667 10.167 134 30.5 196s49.5 116.5 87.5 163.5s84.333 84.167 139 111.5s116.334 41 185.001 41
c48 0 91.167 -6.83301 129.5 -20.5s70.833 -32.167 97.5 -55.5s47 -50.666 61 -81.999s21 -64.666 21 -99.999c0 -14 -1.33301 -27.667 -4 -41s-7 -25.166 -13 -35.499s-14 -18.666 -24 -24.999s-22.333 -9.5 -37 -9.5c-18 0 -33 2.66699 -45 8s-21.5 12.333 -28.5 21
s-11.833 18.5 -14.5 29.5s-4 22.167 -4 33.5c0 30 3.5 57.5 10.5 82.5s11.167 46.167 12.5 63.5c-15.333 18 -37.833 32.333 -67.5 43s-64.5 16 -104.5 16c-34 0 -69.167 -7.33301 -105.5 -22s-69.166 -38.834 -98.499 -72.501s-53.5 -78.167 -72.5 -133.5
s-28.5 -124 -28.5 -206c0 -60.667 8.5 -117.334 25.5 -170.001s40.167 -98.5 69.5 -137.5s64.166 -69.833 104.499 -92.5s84.166 -34 131.499 -34c32.667 0 63.5 4.66699 92.5 14s56 22.5 81 39.5s47.833 36.833 68.5 59.5s39 47.667 55 75l56 -37
c-21.333 -36 -45.166 -69 -71.499 -99s-55.333 -55.833 -87 -77.5s-65.5 -38.667 -101.5 -51s-74.333 -18.5 -115 -18.5z" />
    <glyph glyph-name="d" unicode="d" horiz-adv-x="1124" 
d="M811 -2l-18 13.9961v92l-9 2c-11.333 -12 -25.666 -25.833 -42.999 -41.5s-37.833 -30.167 -61.5 -43.5s-50.667 -24.666 -81 -33.999s-63.833 -14 -100.5 -14c-61.333 0 -118 11.833 -170 35.5s-97 57.834 -135 102.501s-67.667 99 -89 163s-32 136.667 -32 218
c0 78 12.333 148.833 37 212.5s58.667 118.334 102 164.001s94 81 152 106s120.667 37.5 188 37.5c33.333 0 64.333 -2.83301 93 -8.5s54 -12.167 76 -19.5s40.167 -14.5 54.5 -21.5s23.833 -11.833 28.5 -14.5v350c0 29.333 -4.83301 56.333 -14.5 81
s-23.167 42.334 -40.5 53.001c-19.333 13.333 -41.333 22.166 -66 26.499s-52 7.5 -82 9.5v60l301 20l19 -14v-1339c0 -21.333 3.83301 -39.5 11.5 -54.5s18.167 -27.167 31.5 -36.5c7.33301 -5.33301 16.166 -9.66602 26.499 -12.999s21.166 -5.83301 32.499 -7.5
s22.833 -2.66699 34.5 -3s22.834 -0.5 33.501 -0.5v-62zM803 765.996c-6.66699 17.333 -17.165 36.3301 -31.498 56.9971s-32.5 39.834 -54.5 57.501s-48.167 32.334 -78.5 44.001s-64.833 17.5 -103.5 17.5c-46.667 0 -90.167 -10.5 -130.5 -31.5s-75.5 -51.333 -105.5 -91
s-53.5 -88 -70.5 -145s-25.5 -121.5 -25.5 -193.5c0 -52.667 7.16699 -104.167 21.5 -154.5s35.666 -95 63.999 -134s63.666 -70.333 105.999 -94s91.833 -35.5 148.5 -35.5c32 0 60.667 3.5 86 10.5s48.333 16.333 69 28s39.5 24.834 56.5 39.501s33.167 29.667 48.5 45
v580z" />
    <glyph glyph-name="e" unicode="e" horiz-adv-x="920" 
d="M72 502c0 72.667 10.165 140.002 30.498 202.002s48.833 115.667 85.5 161s80.5 80.833 131.5 106.5s107.5 38.5 169.5 38.5c66 0 122.333 -11.5 169 -34.5s84.667 -53.833 114 -92.5s50.666 -83.5 63.999 -134.5s20 -104.5 20 -160.5v-53h-661
c0 -61.333 5.5 -120 16.5 -176s28.833 -105.333 53.5 -148s56.834 -76.834 96.501 -102.501s87.834 -38.5 144.501 -38.5c40 0 75.333 4.5 106 13.5s58.334 21.833 83.001 38.5s47 36.667 67 60s39.667 49.333 59 78l58 -35c-21.333 -36.667 -44.833 -70.334 -70.5 -101.001
s-54 -57 -85 -79s-65.333 -39.167 -103 -51.5s-79.167 -18.5 -124.5 -18.5c-73.333 0 -136.666 14.167 -189.999 42.5s-97.333 66.5 -132 114.5s-60.334 103.833 -77.001 167.5s-25 131.167 -25 202.5zM730.998 604.002c0 39.333 -3.16602 78.833 -9.49902 118.5
s-18.333 75.5 -36 107.5s-42.334 58 -74.001 78s-73.167 30 -124.5 30c-40.667 0 -78.167 -7.83301 -112.5 -23.5s-64.333 -38 -90 -67s-46 -64 -61 -105s-23.833 -87.167 -26.5 -138.5h534z" />
    <glyph glyph-name="f" unicode="f" horiz-adv-x="598" 
d="M752 1448c0 -18.667 -5.33105 -35.999 -15.998 -51.999s-28.667 -24 -54 -24c-28.667 0 -53.667 8.5 -75 25.5s-41.333 39.833 -60 68.5c-28 0 -54.5 -6.5 -79.5 -19.5s-47 -34.333 -66 -64s-34 -68.334 -45 -116.001s-16.5 -105.834 -16.5 -174.501v-109h246v-80h-246
v-731c0 -20.667 3.83301 -39 11.5 -55s20.167 -27 37.5 -33c7.33301 -3.33301 16.666 -6 27.999 -8s23.333 -4 36 -6s25.167 -3.66699 37.5 -5s22.833 -2.66602 31.5 -3.99902v-61h-442v61c17.333 1.33301 32.666 2.83301 45.999 4.5s27.333 4.5 42 8.5
c19.333 5.33301 33.333 15.666 42 30.999s13 34.333 13 57v741h-190v80h190v86c0 78 11.5 146.667 34.5 206s52.833 109.333 89.5 150s78 71.334 124 92.001s92.333 31 139 31c46 0 81.167 -10 105.5 -30s36.5 -43.333 36.5 -70z" />
    <glyph glyph-name="g" unicode="g" horiz-adv-x="1036" 
d="M981 -106c0 -48 -10.1689 -92.667 -30.502 -134s-51.166 -77.166 -92.499 -107.499s-93.666 -54 -156.999 -71s-138 -25.5 -224 -25.5c-74.667 0 -139 6.33301 -193 19s-98.333 30.667 -133 54s-60.334 51.333 -77.001 84s-25 69 -25 109c0 28.667 5.33301 56.667 16 84
s27.167 52 49.5 74s50.833 40.667 85.5 56s76 25.333 124 30v8c-56.667 17.333 -98.5 39.166 -125.5 65.499s-40.5 60.5 -40.5 102.5c0 22 3.83301 41.5 11.5 58.5s17.667 31.833 30 44.5s26 23.667 41 33s29.833 17.666 44.5 24.999v9
c-26 13.333 -49.833 29.833 -71.5 49.5s-40.334 41.667 -56.001 66s-27.667 50.666 -36 78.999s-12.5 57.5 -12.5 87.5c0 48.667 8.83301 92.667 26.5 132s42 72.666 73 99.999s67.5 48.5 109.5 63.5s87 22.5 135 22.5c32.667 0 63.5 -3.5 92.5 -10.5
s54.167 -14.5 75.5 -22.5h327v-80h-221v-8c23.333 -28.667 41.833 -61.334 55.5 -98.001s20.5 -73.667 20.5 -111c0 -42.667 -8.33301 -82.667 -25 -120s-40 -70 -70 -98s-66.167 -50.167 -108.5 -66.5s-89.166 -24.5 -140.499 -24.5h-121
c-10 -3.33301 -20.167 -7.66602 -30.5 -12.999s-19.666 -12 -27.999 -20s-15 -17.833 -20 -29.5s-7.5 -25.167 -7.5 -40.5c0 -16.667 3.33301 -31.5 10 -44.5s18 -24.167 34 -33.5s37 -16.666 63 -21.999s58.667 -8.66602 98 -9.99902c22 -1.33301 46.333 -2.5 73 -3.5
s53 -2.33301 79 -4l72.5 -4.5c22.333 -1.33301 40.166 -3 53.499 -5c33.333 -3.33301 64.833 -10.166 94.5 -20.499s55.834 -25.5 78.501 -45.5s40.5 -45 53.5 -75s19.5 -66 19.5 -108zM677.998 686c0 34 -4.50098 66.3301 -13.501 96.9971s-22.667 57.834 -41 81.501
s-41.5 42.5 -69.5 56.5s-61 21 -99 21c-42 0 -77 -6.83301 -105 -20.5s-50.167 -32 -66.5 -55s-28 -49.667 -35 -80s-10.5 -62.5 -10.5 -96.5c0 -36 5.33301 -69.333 16 -100s25.667 -57.167 45 -79.5s42.5 -39.666 69.5 -51.999s56.5 -18.5 88.5 -18.5
c36 0 67.833 6.5 95.5 19.5s50.834 30.833 69.501 53.5s32.667 48.834 42 78.501s14 61.167 14 94.5zM882.997 -133.003c0 11.333 -1.00391 24.667 -3.00391 40s-6.66699 30.333 -14 45s-18 28 -32 40s-33.333 20.667 -58 26c-16 3.33301 -33.667 6.16602 -53 8.49902
s-42.166 4.33301 -68.499 6s-57.833 2.83398 -94.5 3.50098s-80.667 1 -132 1c-56 -7.33301 -101.833 -17.666 -137.5 -30.999s-63.667 -29 -84 -47s-34.166 -37.833 -41.499 -59.5s-11 -44.834 -11 -69.501c0 -28 6.33301 -54.167 19 -78.5s32.834 -45.5 60.501 -63.5
s63.334 -32.333 107.001 -43s96.834 -16 159.501 -16c59.333 0 112.666 4.83301 159.999 14.5s87.5 24.5 120.5 44.5s58.333 44.833 76 74.5s26.5 64.5 26.5 104.5z" />
    <glyph glyph-name="h" unicode="h" horiz-adv-x="1157" 
d="M674 0l0.00195312 61.001c18.667 1.33301 36.167 2.83301 52.5 4.5s32.166 4.5 47.499 8.5c21.333 5.33301 37.333 15.666 48 30.999s16 34.333 16 57v510c0 42.667 -6.33301 79.334 -19 110.001s-29.334 55.834 -50.001 75.501s-43.834 34.167 -69.501 43.5
s-51.834 14 -78.501 14c-40 0 -77.167 -6.16699 -111.5 -18.5s-64.5 -27 -90.5 -44s-47.5 -34.667 -64.5 -53s-27.833 -33.5 -32.5 -45.5v-582c0 -22.667 5.33301 -41 16 -55s25.667 -25 45 -33c17.333 -7.33301 33.166 -12.333 47.499 -15s31.833 -5.33398 52.5 -8.00098
v-61h-422v61c17.333 1.33301 32.833 2.83301 46.5 4.5s27.834 4.5 42.501 8.5c18 5.33301 31.667 15.666 41 30.999s14 34.333 14 57v1165c0 32 -5 56.333 -15 73s-20.667 29.334 -32 38.001c-8 5.33301 -18.667 9.66602 -32 12.999s-27.166 5.83301 -41.499 7.5
s-28.5 2.83398 -42.5 3.50098s-25.333 1.33398 -34 2.00098v64l299 20l15 -14v-688h4c18 18.667 38.667 37.834 62 57.501s49.5 37.5 78.5 53.5s60.833 29.167 95.5 39.5s72.667 15.5 114 15.5c44.667 0 84.334 -7.66699 119.001 -23s64 -37.333 88 -66
s42.167 -63.334 54.5 -104.001s18.5 -86.334 18.5 -137.001v-512c0 -44.667 18.667 -74 56 -88c14 -6 27.5 -10.333 40.5 -13s28.833 -5.33398 47.5 -8.00098v-61h-426z" />
    <glyph glyph-name="i" unicode="i" horiz-adv-x="539" 
d="M358 1391c0 -32 -7.50195 -57.499 -22.502 -76.499s-35.5 -28.5 -61.5 -28.5c-23.333 0 -43.166 8.33301 -59.499 25s-24.5 41 -24.5 73c0 31.333 7.33301 56.666 22 75.999s35.334 29 62.001 29c28 0 49 -9.33301 63 -28s21 -42 21 -70zM81.998 0.000976562
l0.00292969 61c17.333 1.33301 32.833 2.83301 46.5 4.5s28.167 4.5 43.5 8.5c17.333 5.33301 30.166 15.666 38.499 30.999s12.5 34.333 12.5 57v614c0 23.333 -4.5 44.333 -13.5 63s-20.833 33.334 -35.5 44.001c-7.33301 5.33301 -16.333 10 -27 14
s-21.834 7.16699 -33.501 9.5s-23.334 4 -35.001 5s-22.167 1.5 -31.5 1.5v64l281 18l12 -14v-807c0 -43.333 18.333 -73.333 55 -90c13.333 -6 26.5 -10.667 39.5 -14s29.167 -6.33301 48.5 -9v-61h-401z" />
    <glyph glyph-name="j" unicode="j" horiz-adv-x="524" 
d="M350 31c0 -78 -9.83105 -146.664 -29.498 -205.997s-45.334 -108.833 -77.001 -148.5s-67.167 -69.667 -106.5 -90s-78.333 -30.5 -117 -30.5c-18.667 0 -37 2 -55 6s-34 10 -48 18s-25.167 18.167 -33.5 30.5s-12.5 26.833 -12.5 43.5
c0 20.667 6.16699 38.167 18.5 52.5s28.833 21.5 49.5 21.5c25.333 0 48.5 -8.33301 69.5 -25s40.833 -38.334 59.5 -65.001c22 0 43 5.66699 63 17s37.5 31 52.5 59s27 65.667 36 113s13.5 107 13.5 179v766c0 25.333 -5.5 47.166 -16.5 65.499s-23.167 32.833 -36.5 43.5
c-6.66699 4.66699 -16.167 9.16699 -28.5 13.5s-25.5 8.16602 -39.5 11.499s-27.833 6 -41.5 8s-24.834 3.33301 -33.501 4v59l303 18l10 -14v-950zM358.002 1391c0 -32 -7.50195 -57.499 -22.502 -76.499s-35.5 -28.5 -61.5 -28.5c-23.333 0 -43.166 8.33301 -59.499 25
s-24.5 41 -24.5 73c0 31.333 7.33301 56.666 22 75.999s35.334 29 62.001 29c28 0 49 -9.33301 63 -28s21 -42 21 -70z" />
    <glyph glyph-name="k" unicode="k" horiz-adv-x="1047" 
d="M322 469l54.999 51.499l64 60l66.5 63.5l62 59.5l50.5 50l33 34.5c19.333 19.333 32.833 35.5 40.5 48.5s11.5 23.5 11.5 31.5c0 10 -4 18 -12 24s-18 11 -30 15s-25.333 7 -40 9l-43 6v61h399v-59c-20.667 -4.66699 -39.667 -10 -57 -16s-34.5 -13.5 -51.5 -22.5
s-34.167 -19.833 -51.5 -32.5s-36.333 -28 -57 -46c-7.33301 -6 -18.333 -15.667 -33 -29l-51 -48l-64.5 -61.5l-72.5 -70.5c16.667 -17.333 34.834 -38 54.501 -62s39.5 -49.5 59.5 -76.5l59.5 -83l57 -81.5l50.5 -71.5c15.333 -21.667 28.666 -39.5 39.999 -53.5
c16.667 -21.333 31.167 -38.666 43.5 -51.999s24.833 -24 37.5 -32s27 -13.667 43 -17s36.333 -6 61 -8v-61h-211c-13.333 16 -29.5 37.167 -48.5 63.5l-62 87.5l-70.5 100.5l-72.5 102l-69 92c-22.333 28.333 -42.5 51.833 -60.5 70.5l-131 -117v-227
c0 -22.667 5.33301 -41 16 -55s25.667 -25 45 -33c17.333 -7.33301 33.166 -12.333 47.499 -15s31.833 -5.33398 52.5 -8.00098v-61h-422v61c17.333 1.33301 32.833 2.83301 46.5 4.5s27.834 4.5 42.501 8.5c18 5.33301 31.667 15.666 41 30.999s14 34.333 14 57v1165
c0 32 -5 56.333 -15 73s-20.667 29.334 -32 38.001c-8 5.33301 -18.667 9.66602 -32 12.999s-27.166 5.83301 -41.499 7.5s-28.5 2.83398 -42.5 3.50098s-25.333 1.33398 -34 2.00098v64l299 20l15 -14v-1065z" />
    <glyph glyph-name="l" unicode="l" horiz-adv-x="528" 
d="M59 0v61.001c18.667 1.33301 35.167 2.83301 49.5 4.5s28.833 4.5 43.5 8.5c18 5.33301 31.667 15.666 41 30.999s14 34.333 14 57v1159c0 28.667 -5.16699 52 -15.5 70s-21.5 31.667 -33.5 41c-16.667 11.333 -39.167 19 -67.5 23s-57.833 7 -88.5 9v64l307 20l15 -14
v-1360c0 -44 18.333 -74 55 -90c14.667 -6 28.667 -10.667 42 -14s29.333 -6.33301 48 -9v-61h-410z" />
    <glyph glyph-name="m" unicode="m" horiz-adv-x="1774" 
d="M1300 0l0.00976562 61.001c17.333 1.33301 32.666 2.83301 45.999 4.5s27.666 4.5 42.999 8.5c43.333 12 65 41.333 65 88v506c0 40 -5.83301 75.5 -17.5 106.5s-27.5 56.833 -47.5 77.5s-43.167 36.334 -69.5 47.001s-53.833 16 -82.5 16
c-40 0 -75.333 -5.16699 -106 -15.5s-57.334 -23.333 -80.001 -39s-41.667 -32.334 -57 -50.001s-28 -33.834 -38 -48.501v-590c0 -44.667 20 -75.334 60 -92.001c15.333 -6 29.833 -10 43.5 -12s31.167 -4.33301 52.5 -7v-61h-424v61
c17.333 1.33301 31.833 2.83301 43.5 4.5s25.167 4.5 40.5 8.5c21.333 5.33301 37.666 15.666 48.999 30.999s17 34.333 17 57v504c0 40.667 -6 76.5 -18 107.5s-28.333 57 -49 78s-44.334 36.833 -71.001 47.5s-54.667 16 -84 16c-34.667 0 -66.834 -5.16699 -96.501 -15.5
s-56.334 -23.5 -80.001 -39.5s-44 -33.5 -61 -52.5s-30.5 -36.833 -40.5 -53.5v-582c0 -22.667 5.33301 -41 16 -55s25.667 -25 45 -33c17.333 -7.33301 33.333 -12.333 48 -15s32.334 -5.33398 53.001 -8.00098v-61h-422v61c17.333 1.33301 32.833 2.83301 46.5 4.5
s28.834 5.16699 45.501 10.5c17.333 5.33301 30.166 15.333 38.499 30s12.5 33.334 12.5 56.001v620c0 26 -4.5 48.167 -13.5 66.5s-20.167 31.833 -33.5 40.5c-14.667 9.33301 -31.167 15.666 -49.5 18.999s-36.5 5 -54.5 5v64l252 18l14 -14v-135h6
c18.667 19.333 38.5 38.833 59.5 58.5s44.5 37.5 70.5 53.5s54.833 29 86.5 39s68.167 15 109.5 15c64 0 118.667 -15.667 164 -47s79.333 -73.666 102 -126.999h6c19.333 20.667 40.166 41.334 62.499 62.001s47.166 39.334 74.499 56.001s57.666 30.167 90.999 40.5
s70.666 15.5 111.999 15.5c44.667 0 85 -8.33301 121 -25s66.667 -39.667 92 -69s45 -64.333 59 -105s21 -85 21 -133v-508c0 -44 18.333 -74 55 -90c14.667 -6 30 -10.333 46 -13l50 -8v-61h-424z" />
    <glyph glyph-name="n" unicode="n" horiz-adv-x="1174" 
d="M690 0l0.00390625 61.0039c19.333 1.33301 36.833 2.83301 52.5 4.5s31.834 4.5 48.501 8.5c21.333 5.33301 37.166 15.666 47.499 30.999s15.5 34.333 15.5 57v510c0 39.333 -5.83301 74.166 -17.5 104.499s-27.5 55.666 -47.5 75.999s-43 35.833 -69 46.5
s-53 16 -81 16c-40 0 -77.167 -6.16699 -111.5 -18.5s-64.833 -27 -91.5 -44s-48.5 -34.667 -65.5 -53s-27.833 -33.5 -32.5 -45.5v-582c0 -22.667 5.33301 -41 16 -55s25.667 -25 45 -33c17.333 -7.33301 34 -12.333 50 -15s33.667 -5.33398 53 -8.00098v-61h-424v61
c18.667 1.33301 34.5 2.83301 47.5 4.5s27.833 5.16699 44.5 10.5c17.333 5.33301 30.166 15.333 38.499 30s12.5 33.334 12.5 56.001v620c0 26 -4.5 48.167 -13.5 66.5s-20.167 31.833 -33.5 40.5c-14.667 9.33301 -31.167 15.666 -49.5 18.999s-36.5 5 -54.5 5v64l256 18
l12 -14v-135h4c18.667 18.667 39.5 37.834 62.5 57.501s49 37.5 78 53.5s60.833 29.167 95.5 39.5s72.667 15.5 114 15.5c39.333 0 76.166 -6.5 110.499 -19.5s64.166 -33 89.499 -60s45.166 -61.333 59.499 -103s21.5 -91.5 21.5 -149.5v-510c0 -44.667 17.667 -74 53 -88
c14.667 -6 29 -10.333 43 -13s29.667 -5.33398 47 -8.00098v-61h-426z" />
    <glyph glyph-name="o" unicode="o" horiz-adv-x="1051" 
d="M979 504c0 -72 -10.002 -140.332 -30.002 -204.999s-49.5 -121.5 -88.5 -170.5s-87.167 -87.833 -144.5 -116.5s-123.333 -43 -198 -43c-58.667 0 -115 12.167 -169 36.5s-101.5 59 -142.5 104s-73.667 99.5 -98 163.5s-36.5 135.333 -36.5 214
c0 77.333 11 148.166 33 212.499s53.333 119.5 94 165.5s89.334 81.667 146.001 107s120 38 190 38c68.667 0 130.334 -12.833 185.001 -38.5s101.167 -61.167 139.5 -106.5s67.833 -98.833 88.5 -160.5s31 -128.5 31 -200.5zM847.998 502.001c0 54 -5.5 107 -16.5 159
s-29 98.5 -54 139.5s-57.833 74.167 -98.5 99.5s-90.334 38 -149.001 38c-42 0 -79.5 -6.16699 -112.5 -18.5s-61.667 -29 -86 -50s-44.833 -45.667 -61.5 -74s-30.167 -58.5 -40.5 -90.5s-17.666 -65 -21.999 -99s-6.5 -67.333 -6.5 -100c0 -62 6.66699 -121 20 -177
s33.5 -105.167 60.5 -147.5s61.167 -76 102.5 -101s90 -37.5 146 -37.5c54 0 100.833 12.333 140.5 37s72.667 58 99 100s46 90.833 59 146.5s19.5 114.167 19.5 175.5z" />
    <glyph glyph-name="p" unicode="p" horiz-adv-x="1124" 
d="M1053 500c0 -75.333 -11.332 -145.165 -33.999 -209.498s-54.334 -120 -95.001 -167s-89.167 -83.833 -145.5 -110.5s-117.833 -40 -184.5 -40c-35.333 0 -66.666 2.16699 -93.999 6.5s-51.5 10.166 -72.5 17.499s-39.5 15.5 -55.5 24.5s-30 18.167 -42 27.5h-8v-313
c0 -22.667 4.83301 -41.834 14.5 -57.501s23.834 -26.5 42.501 -32.5c7.33301 -3.33301 16.666 -6.5 27.999 -9.5s23.166 -5.66699 35.499 -8s24.5 -4.16602 36.5 -5.49902s22.333 -2 31 -2v-65h-467v65c17.333 0 36.5 0.666992 57.5 2s38.167 4 51.5 8
c19.333 5.33301 33 16.833 41 34.5s12 37.834 12 60.501v1058c1.33301 19.333 -2.83398 39.166 -12.501 59.499s-23.167 36.166 -40.5 47.499c-6 3.33301 -13.333 6.33301 -22 9s-18 5 -28 7s-20.167 3.5 -30.5 4.5s-19.833 1.5 -28.5 1.5v64l262 18l14 -12v-111l9 -2
c10.667 12.667 25.667 27.334 45 44.001s41.833 32.167 67.5 46.5s53.834 26.5 84.501 36.5s62.667 15 96 15c68 0 128.667 -12.833 182 -38.5s98.5 -61.334 135.5 -107.001s65.333 -99.667 85 -162s29.5 -130.5 29.5 -204.5zM922.001 489.001
c0 60.667 -7.33496 117 -22.002 169s-36.167 97 -64.5 135s-63.166 67.833 -104.499 89.5s-89 32.5 -143 32.5c-28 0 -55 -3.33301 -81 -10s-50.333 -15.5 -73 -26.5s-43.5 -23.667 -62.5 -38s-35.5 -29.5 -49.5 -45.5v-590c6 -17.333 16.667 -35.833 32 -55.5
s34.833 -37.667 58.5 -54s50.834 -29.833 81.501 -40.5s64 -16 100 -16c44.667 0 87 10 127 30s74.833 49 104.5 87s53.167 85 70.5 141s26 120 26 192z" />
    <glyph glyph-name="q" unicode="q" horiz-adv-x="1085" 
d="M641 -444v65.001c17.333 1.33301 36.166 2.5 56.499 3.5s37.166 3.16699 50.499 6.5c20 6.66699 34.167 18.5 42.5 35.5s12.5 36.833 12.5 59.5v380l-6 3c-10.667 -12.667 -25 -26.834 -43 -42.501s-39.5 -30.5 -64.5 -44.5s-53.5 -25.667 -85.5 -35
s-67.333 -14 -106 -14c-61.333 0 -118 11.5 -170 34.5s-97 56.667 -135 101s-67.667 98.666 -89 162.999s-32 137.833 -32 220.5c0 78 12.333 148.833 37 212.5s58.667 118.334 102 164.001s94 81 152 106s120.667 37.5 188 37.5c38.667 0 72.834 -4.83301 102.501 -14.5
s55 -20.834 76 -33.501s38.167 -25 51.5 -37s23.333 -20 30 -24l63 133l62 -6c-2 -43.333 -5.16699 -97.666 -9.5 -162.999s-6.5 -143.333 -6.5 -234v-893c0 -21.333 3.83301 -40.5 11.5 -57.5s20.834 -29.167 39.501 -36.5c17.333 -7.33301 36.5 -12.833 57.5 -16.5
s40.5 -6.5 58.5 -8.5v-65h-446zM803 766.001c-6.66699 16.667 -16.998 35.333 -30.998 56s-31.833 39.834 -53.5 57.501s-47.667 32.5 -78 44.5s-65.5 18 -105.5 18c-44.667 0 -87.167 -10.5 -127.5 -31.5s-75.666 -51.167 -105.999 -90.5s-54.333 -87.666 -72 -144.999
s-26.5 -122 -26.5 -194c0 -52 7.16699 -103.167 21.5 -153.5s35.666 -95 63.999 -134s63.666 -70.5 105.999 -94.5s91.833 -36 148.5 -36c32 0 60.5 3.16699 85.5 9.5s47.667 14.666 68 24.999s39.166 22.166 56.499 35.499s34 27 50 41v592z" />
    <glyph glyph-name="r" unicode="r" horiz-adv-x="786" 
d="M758 883c0 -31.333 -6.66699 -56 -20 -74s-32.666 -27 -57.999 -27c-26.667 0 -46 7.16699 -58 21.5s-18 31.166 -18 50.499c0 11.333 0.833008 22 2.5 32l5.5 32c-34 -0.666992 -65 -5.83398 -93 -15.501s-53.333 -22 -76 -37s-42.834 -32 -60.501 -51
s-32.5 -37.833 -44.5 -56.5v-586c0 -44.667 21.667 -74.667 65 -90c16.667 -6 35.667 -10.667 57 -14s43.333 -5.66602 66 -6.99902v-61h-448v61c18.667 1.33301 34.5 2.83301 47.5 4.5s27.833 5.16699 44.5 10.5c17.333 5.33301 30.166 15.333 38.499 30
s12.5 33.334 12.5 56.001v620c0 30 -4.83301 53.333 -14.5 70s-21.834 29.667 -36.501 39c-13.333 8 -28.833 13.667 -46.5 17s-35.5 5 -53.5 5v64l256 18l12 -14v-135h4c20.667 23.333 41.834 45 63.501 65s44.334 37.167 68.001 51.5s48.167 25.5 73.5 33.5s52 12 80 12
c40 0 71.833 -10.333 95.5 -31s35.5 -52 35.5 -94z" />
    <glyph glyph-name="s" unicode="s" horiz-adv-x="864" 
d="M784 272c0 -48.667 -8.50098 -91.3301 -25.501 -127.997s-40.333 -67.334 -70 -92.001s-64.667 -43.334 -105 -56.001s-83.833 -19 -130.5 -19c-68.667 0 -125.334 9 -170.001 27s-81 40 -109 66l-16 -68h-72l-10 328h65c4.66699 -24 13.667 -52.167 27 -84.5
s32.5 -62.833 57.5 -91.5s56.333 -53 94 -73s83.5 -30 137.5 -30c42.667 0 78.834 5.16699 108.501 15.5s53.5 24 71.5 41s31 36.167 39 57.5s12 43.333 12 66c0 26.667 -5.16699 50.5 -15.5 71.5s-26.666 40.167 -48.999 57.5s-51 33.833 -86 49.5
s-76.833 31.5 -125.5 47.5c-53.333 17.333 -99.666 35.166 -138.999 53.499s-72 39 -98 62s-45.333 49.333 -58 79s-19 64.5 -19 104.5c0 39.333 8.5 74.833 25.5 106.5s40 58.5 69 80.5s63 39 102 51s80.167 18 123.5 18c22 0 43.333 -1.5 64 -4.5s40 -6.66699 58 -11
s34.167 -9.5 48.5 -15.5s26.5 -12 36.5 -18l22 51h70l16 -305h-67c-4.66699 27.333 -12.167 54.833 -22.5 82.5s-25.333 52.5 -45 74.5s-45 39.833 -76 53.5s-69.167 20.5 -114.5 20.5c-39.333 0 -72.666 -4.5 -99.999 -13.5s-49.5 -21 -66.5 -36s-29.333 -31.833 -37 -50.5
s-11.5 -37.334 -11.5 -56.001c0 -30 5.16699 -55.167 15.5 -75.5s26.166 -38 47.499 -53s48.166 -28.667 80.499 -41s70.5 -25.5 114.5 -39.5c54 -16.667 101.667 -34.667 143 -54s76 -41.166 104 -65.499s49.333 -51.5 64 -81.5s22 -64 22 -102z" />
    <glyph glyph-name="t" unicode="t" horiz-adv-x="655" 
d="M505 0c-40.667 -12 -82 -18 -124 -18c-62 0 -108.5 22.167 -139.5 66.5s-46.5 105.833 -46.5 184.5v668h-177v82h181v305h112v-305h285v-82h-283v-633c0 -34 2.5 -62.667 7.5 -86s13 -42.5 24 -57.5s25.667 -25.833 44 -32.5s40.5 -10 66.5 -10c34.667 0 66.167 2 94.5 6
s52.833 8 73.5 12v-57c-38 -16.667 -77.333 -31 -118 -43z" />
    <glyph glyph-name="u" unicode="u" horiz-adv-x="1124" 
d="M829 -2l-16.002 14.0059v129h-6c-12.667 -15.333 -29.667 -32.5 -51 -51.5s-46.166 -36.833 -74.499 -53.5s-60.333 -30.667 -96 -42s-73.834 -17 -114.501 -17c-44 0 -83.167 7.66699 -117.5 23s-63.166 37.166 -86.499 65.499s-41.166 62.833 -53.499 103.5
s-18.5 86 -18.5 136v481c0 45.333 -16 79 -48 101c-13.333 8 -29.333 13.667 -48 17s-36.667 5.66602 -54 6.99902v62l252 22l14 -14v-670c0 -37.333 5.33301 -70.833 16 -100.5s25 -54.667 43 -75s39.167 -36 63.5 -47s50.5 -16.5 78.5 -16.5
c40.667 0 77.834 5.83301 111.501 17.5s63.334 25.667 89.001 42s47 33.166 64 50.499s28.5 31.666 34.5 42.999v568c0 20.667 -3.66699 39.167 -11 55.5s-17.333 29.166 -30 38.499c-12.667 8 -30.667 13.667 -54 17s-49 5.66602 -77 6.99902v62l272 22l19 -14v-788
c0 -20.667 3.83301 -39.167 11.5 -55.5s18.167 -28.833 31.5 -37.5c13.333 -8 28.666 -13 45.999 -15s34.666 -3.66699 51.999 -5v-62z" />
    <glyph glyph-name="v" unicode="v" horiz-adv-x="1030" 
d="M982.5 913.5c-15 -5.66699 -28.501 -12.8359 -40.501 -21.5029s-23 -19.667 -33 -33s-20 -30 -30 -50l-60 -129l-69 -153l-73 -164l-71 -162l-23.5 -55c-7 -16.667 -13.5 -33.167 -19.5 -49.5l-18 -49.5l-19 -55h-30l-109 257l-100 229.5l-85.5 193.5l-64.5 149
c-7.33301 17.333 -16.666 32 -27.999 44s-23.833 22 -37.5 30s-27.834 14.333 -42.501 19s-29 8 -43 10v59h374v-65c-11.333 -0.666992 -23.333 -1.66699 -36 -3s-24.5 -3.16602 -35.5 -5.49902s-20.167 -5.5 -27.5 -9.5s-11 -9 -11 -15c0 -5.33301 1.33301 -12.833 4 -22.5
s6 -19.167 10 -28.5l36.5 -87.5l49 -115.5l55.5 -127.5l54.5 -124l46 -105c13.667 -31 24.167 -54.167 31.5 -69.5c12.667 24.667 28.334 57.834 47.001 99.501l59 135.5l62.5 149.5l58.5 141.5c2.66699 8 6.16699 17.333 10.5 28s8.5 21.834 12.5 33.501
s7.33301 23.334 10 35.001s4 22.5 4 32.5c0 11.333 -5 20.666 -15 27.999s-21.833 13.333 -35.5 18s-27.5 8.16699 -41.5 10.5l-33 5.5v61h358v-55c-19.333 -4 -36.5 -8.83301 -51.5 -14.5z" />
    <glyph glyph-name="w" unicode="w" horiz-adv-x="1542" 
d="M1449 891c-24.667 -17.333 -44.6709 -46.6689 -60.0039 -88.002l-32 -84l-40.5 -109l-44 -119l-42 -114.5l-34.5 -95.5l-22 -62l-21.5 -59l-18 -53.5c-5.66699 -17.667 -11.167 -35.667 -16.5 -54s-10.666 -37.833 -15.999 -58.5h-29l-309 774l-307 -774h-27l-87.5 260.5
l-74 218.5l-65 184.5l-58.5 159.5c-13.333 36 -32.833 61.667 -58.5 77s-54.5 25.333 -86.5 30v59h362v-65c-11.333 0 -22.5 -0.333008 -33.5 -1s-21 -2.33398 -30 -5.00098s-16.333 -6.16699 -22 -10.5s-8.5 -9.83301 -8.5 -16.5c0 -4 0.666992 -10.833 2 -20.5
s4.33301 -22.167 9 -37.5c8.66699 -32 20.334 -71.333 35.001 -118l49 -151l57 -167.5l59 -167.5l289 731h45l291 -729l33 85l36.5 97l36 99.5l32 92l25 74.5l15.5 48c7.33301 23.333 14 47.833 20 73.5s9 48.167 9 67.5c0 10.667 -4.16699 19.834 -12.5 27.501
s-18.666 13.834 -30.999 18.501s-25.666 8.16699 -39.999 10.5s-27.5 3.5 -39.5 3.5v61h354v-61c-37.333 -3.33301 -68.333 -13.666 -93 -30.999z" />
    <glyph glyph-name="x" unicode="x" horiz-adv-x="997" 
d="M608 0l-0.00195312 60.998c13.333 2 26.5 4.16699 39.5 6.5s24.5 5 34.5 8s18 6.5 24 10.5s9 9.33301 9 16s-4.33301 17.667 -13 33s-18.667 31 -30 47l-70.5 95.5l-126.5 168.5l-97 -127.5l-85 -115.5c-17.333 -23.333 -29.166 -41.833 -35.499 -55.5
s-9.5 -25.167 -9.5 -34.5c0 -10 5 -18.5 15 -25.5s21.5 -12.5 34.5 -16.5s25.5 -6.83301 37.5 -8.5l25 -3.5v-59h-344v55c25.333 9.33301 46.166 18 62.499 26s30.833 16.5 43.5 25.5s24.334 19.167 35.001 30.5s22.667 25 36 41c2 3.33301 8 11.166 18 23.499l36 46
l46.5 60.5l51 66.5l49 64l40.5 53.5l-60.5 83.5l-64.5 87.5l-66.5 88l-66.5 85c-16 20 -30.333 35.667 -43 47s-24.5 19.833 -35.5 25.5s-21.5 9.16699 -31.5 10.5s-20.333 1.66602 -31 0.999023v63h342v-63c-10 0 -20.167 -0.166992 -30.5 -0.5s-20 -1.33301 -29 -3
s-16.333 -4 -22 -7s-8.5 -7.16699 -8.5 -12.5s1.16699 -11 3.5 -17s7.16602 -14.667 14.499 -26l35.5 -50.5l49.5 -68.5l56.5 -77l57.5 -76l77 101l87 118c14 20.667 23.667 36.334 29 47.001s8 20.334 8 29.001c0 6.66699 -3.5 12.5 -10.5 17.5s-15.5 9.33301 -25.5 13
s-20.667 6.5 -32 8.5s-21.666 4 -30.999 6v61h346v-57c-25.333 -7.33301 -47.166 -14.666 -65.499 -21.999s-34.833 -15.166 -49.5 -23.499s-27.667 -17.5 -39 -27.5s-22 -21.333 -32 -34l-38.5 -48l-55 -69.5l-63.5 -82l-64 -84.5l86 -116.5l71 -97l62.5 -83l58.5 -74.5
c14.667 -18 28.167 -33.333 40.5 -46s24.5 -23.167 36.5 -31.5s24.333 -14.5 37 -18.5s26 -6.33301 40 -7v-61h-369z" />
    <glyph glyph-name="y" unicode="y" horiz-adv-x="1022" 
d="M941.5 891c-27.667 -19.333 -48.5 -46.6699 -62.5 -82.0029l-61.5 -145l-66.5 -158l-68 -160l-65 -151.5l-58 -132l-46 -101.5c-40 -85.333 -76.167 -154.333 -108.5 -207s-62 -93.667 -89 -123s-52.167 -49.166 -75.5 -59.499s-46.333 -15.5 -69 -15.5
c-23.333 0 -44 3.16699 -62 9.5s-33 14.5 -45 24.5s-21 21.5 -27 34.5s-9 26.167 -9 39.5c0 23.333 6 42.166 18 56.499s27.667 21.5 47 21.5c31.333 0 57.166 -9.5 77.499 -28.5s36.166 -42.833 47.499 -71.5c13.333 4.66699 27.5 14.5 42.5 29.5s30.667 33.333 47 55
s32.5 45.5 48.5 71.5s31.167 52.333 45.5 79s27.333 52.834 39 78.501s21.5 48.834 29.5 69.501l-65.5 165.5l-81.5 197.5l-91.5 214l-95.5 215c-6.66699 14 -15.5 26.833 -26.5 38.5s-23.333 22 -37 31s-28.167 16.333 -43.5 22s-30 9.5 -44 11.5v63h376v-70
c-10.667 -0.666992 -22.167 -1.5 -34.5 -2.5s-23.833 -3 -34.5 -6s-19.5 -6.83301 -26.5 -11.5s-10.5 -11 -10.5 -19c0 -4 1.33301 -11 4 -21s9.66699 -28.667 21 -56l27.5 -66l45.5 -105.5l54.5 -127l55 -129l47 -111l30.5 -74.5l54.5 121.5l58 134.5l57.5 138.5l53 134.5
c2.66699 8 6.33398 18 11.001 30s9.33398 24.833 14.001 38.5s8.5 27.167 11.5 40.5s4.5 25.333 4.5 36s-4.83301 19.834 -14.5 27.501s-21.167 14 -34.5 19s-26.666 8.83301 -39.999 11.5s-24 4.66699 -32 6v61h342v-57c-28.667 -4 -56.834 -15.667 -84.501 -35z" />
    <glyph glyph-name="z" unicode="z" horiz-adv-x="893" 
d="M61 0l-0.000976562 45.001l605 862h-222c-45.333 0 -84 -1.33301 -116 -4s-58.667 -8 -80 -16c-24.667 -11.333 -44 -33.833 -58 -67.5s-26 -76.834 -36 -129.501h-58v293h731v-33l-612 -872c41.333 -1.33301 79 -2 113 -2h96c22.667 0 51.5 0.333008 86.5 1
s78.5 1.66699 130.5 3c12.667 -0.666992 23.5 1.33301 32.5 6s16.833 11 23.5 19s12.334 17.333 17.001 28s9 21.667 13 33l9 31.5l13 46l13.5 49.5l11.5 43h57v-336h-770z" />
    <glyph glyph-name="braceleft" unicode="{" horiz-adv-x="811" 
d="M579.5 -318c-47 10.667 -86.334 29.3311 -118.001 55.998s-55.334 62.5 -71.001 107.5s-23.5 101.833 -23.5 170.5c0 20.667 1 42.334 3 65.001l6 67.5l6 66c2 21.667 3 42.167 3 61.5c0 48.667 -7.33301 89.167 -22 121.5s-35.5 58.5 -62.5 78.5
s-59.833 34.833 -98.5 44.5s-82 16.5 -130 20.5v118c48.667 4.66699 92.334 12 131.001 22s71.5 25 98.5 45s47.667 46.167 62 78.5s21.5 72.833 21.5 121.5c0 19.333 -1 40 -3 62l-6 67l-6 67.5c-2 22.333 -3 44.166 -3 65.499c0 65.333 7.83301 120.333 23.5 165
s39.334 80.5 71.001 107.5s71 46.333 118 58s101.5 17.5 163.5 17.5v-80c-32 -1.33301 -63.333 -3.66602 -94 -6.99902s-58.167 -11.666 -82.5 -24.999s-44 -33.833 -59 -61.5s-22.5 -66.834 -22.5 -117.501v-254c0 -71.333 -8.16699 -130.666 -24.5 -177.999
s-39.333 -85.666 -69 -114.999s-64.667 -51.166 -105 -65.499s-84.5 -23.833 -132.5 -28.5v-8c48 -4.66699 92.167 -13.834 132.5 -27.501s75.333 -35 105 -64s52.667 -67.167 69 -114.5s24.5 -107 24.5 -179v-254c0 -50 7.5 -88.833 22.5 -116.5s34.667 -48.334 59 -62.001
s51.833 -22.5 82.5 -26.5s62 -7.33301 94 -10v-76c-62 0 -116.5 5.33301 -163.5 16z" />
    <glyph glyph-name="bar" unicode="|" horiz-adv-x="756" 
d="M326 -424v1948h106v-1948h-106z" />
    <glyph glyph-name="braceright" unicode="}" horiz-adv-x="811" 
d="M609.5 520.5c-38.333 -9.66699 -70.999 -24.4971 -97.999 -44.4971s-47.667 -46.167 -62 -78.5s-21.5 -72.833 -21.5 -121.5c0 -19.333 0.666992 -39.833 2 -61.5s3 -43.667 5 -66s3.66699 -44.833 5 -67.5s2 -44.334 2 -65.001c0 -68.667 -7.83301 -125.5 -23.5 -170.5
s-39.167 -80.833 -70.5 -107.5s-70.333 -45.334 -117 -56.001s-101 -16 -163 -16v76c32 2.66699 63.333 6 94 10s58.167 12.833 82.5 26.5s44 34.334 59 62.001s22.5 66.5 22.5 116.5v254c0 72 8.16699 131.667 24.5 179s39.333 85.5 69 114.5s64.834 50.333 105.501 64
s85.334 22.834 134.001 27.501v8c-48.667 4.66699 -93.334 14.167 -134.001 28.5s-75.834 36.166 -105.501 65.499s-52.667 67.666 -69 114.999s-24.5 106.666 -24.5 177.999v254c0 50.667 -7.5 89.834 -22.5 117.501s-34.667 48.167 -59 61.5s-51.833 21.666 -82.5 24.999
s-62 5.66602 -94 6.99902v80c62 0 116.333 -5.83301 163 -17.5s85.667 -31 117 -58s54.833 -62.833 70.5 -107.5s23.5 -99.667 23.5 -165c0 -21.333 -0.666992 -43.166 -2 -65.499s-3 -44.833 -5 -67.5s-3.66699 -45 -5 -67s-2 -42.667 -2 -62
c0 -48.667 7 -89.167 21 -121.5s34.333 -58.5 61 -78.5s59.167 -35 97.5 -45s82.166 -17.333 131.499 -22v-118c-48 -4 -91.167 -10.833 -129.5 -20.5z" />
    <glyph glyph-name="asciitilde" unicode="~" horiz-adv-x="1257" 
d="M1092 618c-20 -32 -44.168 -61.665 -72.501 -88.998s-60.5 -50.333 -96.5 -69s-75.333 -28 -118 -28c-39.333 0 -76.666 6 -111.999 18s-70 25.167 -104 39.5s-68.333 27.5 -103 39.5s-71 18 -109 18c-23.333 0 -43.666 -4 -60.999 -12s-33.333 -19 -48 -33
s-28.334 -31 -41.001 -51s-25.667 -42 -39 -66l-67 27c10 24.667 25 52.667 45 84s44.167 60.5 72.5 87.5s60.5 49.833 96.5 68.5s75.333 28 118 28c41.333 0 79.166 -6 113.499 -18s68 -25.167 101 -39.5s66.5 -27.5 100.5 -39.5s71.667 -18 113 -18
c22.667 0 42.834 4 60.501 12s33.667 19.167 48 33.5s27.833 31.666 40.5 51.999s25.667 43.166 39 68.499l68 -26c-10 -26 -25 -55 -45 -87z" />
    <glyph glyph-name="exclamdown" unicode="&#xa1;" horiz-adv-x="633" 
d="M229 80c0 11.333 1.16895 34.333 3.50195 69s5.5 76.667 9.5 126l13 166l14.5 189.5c5 65 9.66699 130.167 14 195.5s8.16602 127.333 11.499 186h57c1.33301 -58 4.16602 -119.5 8.49902 -184.5s9 -130 14 -195s10.167 -128.167 15.5 -189.5l14.5 -166.5l11 -126.5
c3 -34.667 4.5 -58 4.5 -70c0 -31.333 -8.5 -57.666 -25.5 -78.999s-40.5 -32 -70.5 -32c-31.333 0 -55 10.667 -71 32s-24 47.666 -24 78.999zM213.002 1335c0 15.333 2.83301 29.833 8.5 43.5s13.5 25.5 23.5 35.5s21.833 17.833 35.5 23.5s28.167 8.5 43.5 8.5
s29.666 -2.83301 42.999 -8.5s25 -13.5 35 -23.5s17.833 -21.833 23.5 -35.5s8.5 -28.167 8.5 -43.5c0 -16 -2.83301 -30.833 -8.5 -44.5s-13.5 -25.667 -23.5 -36s-21.667 -18.5 -35 -24.5s-27.666 -9 -42.999 -9s-29.833 3 -43.5 9s-25.5 14.167 -35.5 24.5
s-17.833 22.333 -23.5 36s-8.5 28.5 -8.5 44.5z" />
    <glyph glyph-name="cent" unicode="&#xa2;" horiz-adv-x="1024" 
d="M500 -299l-0.00390625 279c-58 7.33301 -110.167 25.666 -156.5 54.999s-85.666 66.833 -117.999 112.5s-57.166 98.334 -74.499 158.001s-26 123.834 -26 192.501c0 62.667 8.5 122.667 25.5 180s41.5 108.666 73.5 153.999s71.167 83.166 117.5 113.499
s99.166 49.833 158.499 58.5v272h75v-266c46.667 -1.33301 88.667 -8.83301 126 -22.5s69 -32.167 95 -55.5s46 -50.5 60 -81.5s21 -63.833 21 -98.5c0 -14 -1.33301 -27.667 -4 -41s-7 -25.166 -13 -35.499s-14 -18.666 -24 -24.999s-22.333 -9.5 -37 -9.5
c-18.667 0 -33.834 2.66699 -45.501 8s-21 12.333 -28 21s-11.833 18.5 -14.5 29.5s-4 22.167 -4 33.5c0 30 3.33301 57.5 10 82.5s10.667 46.167 12 63.5c-14.667 16 -35.167 29.333 -61.5 40s-57.166 17 -92.499 19v-868h9c32.667 0 63.5 4.66699 92.5 14
s55.833 22.5 80.5 39.5s47.334 36.833 68.001 59.5s39.334 47.667 56.001 75l55 -37c-20.667 -34.667 -43.667 -66.667 -69 -96s-53.166 -54.833 -83.499 -76.5s-63 -38.834 -98 -51.501s-71.833 -20 -110.5 -22v-274h-75zM251.996 504c0 -51.333 6 -99.999 18 -145.999
s29 -87.5 51 -124.5s48.167 -68.5 78.5 -94.5s63.833 -45 100.5 -57v850c-30.667 -6.66699 -60.834 -19.5 -90.501 -38.5s-56.167 -45.667 -79.5 -80s-42.166 -76.833 -56.499 -127.5s-21.5 -111.334 -21.5 -182.001z" />
    <glyph glyph-name="sterling" unicode="&#xa3;" horiz-adv-x="1206" 
d="M1102 131l0.00195312 -130.994h-989v127c38.667 13.333 71.667 38.666 99 75.999s49.5 80 66.5 128s29.5 97.667 37.5 149s12 97.333 12 138h-154v87h154l-3 51l-4.5 73c-1.66699 26 -3 51.167 -4 75.5s-1.5 43.833 -1.5 58.5c0 67.333 9.33301 130.833 28 190.5
s46 111.667 82 156s79.833 79.5 131.5 105.5s110.5 39 176.5 39c57.333 0 106.5 -9.5 147.5 -28.5s74.5 -43.333 100.5 -73s45.167 -62.334 57.5 -98.001s18.5 -70.167 18.5 -103.5c0 -12.667 -1.66699 -25.167 -5 -37.5s-8.5 -23.5 -15.5 -33.5s-16 -18 -27 -24
s-24.5 -9 -40.5 -9c-18 0 -32.667 2.16699 -44 6.5s-20 10 -26 17s-10.167 14.667 -12.5 23s-3.5 16.5 -3.5 24.5c0 12 0.833008 24.667 2.5 38s3.5 26.666 5.5 39.999s4.16699 25.666 6.5 36.999s4.16602 21 5.49902 29c-2 12.667 -7.5 26 -16.5 40
s-21.167 26.667 -36.5 38s-33.5 20.833 -54.5 28.5s-44.5 11.5 -70.5 11.5c-28 0 -58 -3.83301 -90 -11.5s-61.833 -22.334 -89.5 -44.001s-50.667 -52 -69 -91s-27.5 -89.833 -27.5 -152.5c0 -19.333 0.5 -45.333 1.5 -78s2.16699 -67 3.5 -103s2.5 -71.5 3.5 -106.5
s1.5 -64.5 1.5 -88.5h397v-87h-397c0 -100.667 -19.333 -191.334 -58 -272.001s-99.334 -149 -182.001 -205v-10h883z" />
    <glyph glyph-name="currency" unicode="&#xa4;" horiz-adv-x="1038" 
d="M813 188l-165.997 161.997c-18.667 -12 -38.834 -21.5 -60.501 -28.5s-43.834 -10.5 -66.501 -10.5s-45.167 3.5 -67.5 10.5s-42.166 16.5 -59.499 28.5l-164 -164l-73 78l157 164c-10 17.333 -18.167 37.166 -24.5 59.499s-9.5 44.166 -9.5 65.499
c0 22.667 3.16699 44.834 9.5 66.501s14.5 41.167 24.5 58.5l-157 168l77 74l160 -164c17.333 12 37.166 21.5 59.499 28.5s44.833 10.5 67.5 10.5c21.333 0 43.166 -3.33301 65.499 -10s42.833 -15.667 61.5 -27l162 162l80 -74l-164 -168
c12.667 -17.333 22 -37.166 28 -59.499s9 -44.166 9 -65.499s-3 -43.166 -9 -65.499s-15.333 -42.166 -28 -59.499l164 -166zM664.003 552.997c0 19.333 -3.83301 37.832 -11.5 55.499s-18 33.167 -31 46.5s-28.167 23.833 -45.5 31.5s-36 11.5 -56 11.5
c-19.333 0 -37.5 -3.66699 -54.5 -11s-31.833 -17.333 -44.5 -30s-22.5 -28 -29.5 -46s-10.5 -37.333 -10.5 -58c0 -20 3.5 -38.833 10.5 -56.5s16.833 -33 29.5 -46s27.5 -23.333 44.5 -31s35.167 -11.5 54.5 -11.5s37.833 3.66699 55.5 11s33 17.333 46 30
s23.333 27.834 31 45.501s11.5 37.167 11.5 58.5z" />
    <glyph glyph-name="yen" unicode="&#xa5;" horiz-adv-x="1143" 
d="M1142.5 1347c-9 -2 -18.334 -4.33203 -28.001 -6.99902s-19 -5.5 -28 -8.5s-16.167 -5.83301 -21.5 -8.5l-17 -8.5c-6 -3 -12.833 -7.83301 -20.5 -14.5s-16.334 -15.834 -26.001 -27.501s-20.5 -26.834 -32.5 -45.501l-65.5 -103l-73.5 -120.5l-88.5 -151l-110.5 -195.5
v-110h373v-82h-375v-262c0 -23.333 4.33301 -43.5 13 -60.5s23.334 -31.833 44.001 -44.5c4.66699 -2.66699 13.334 -5.5 26.001 -8.5s26.167 -6 40.5 -9s28.5 -5.5 42.5 -7.5s24.667 -3 32 -3v-70h-528v70c8 0.666992 18.667 1.5 32 2.5s27 2.16699 41 3.5s27.167 3 39.5 5
s21.833 4.33301 28.5 7c20.667 9.33301 34.5 22.833 41.5 40.5s10.5 39.167 10.5 64.5v272h-371v82h371v96l-73 143.5l-68.5 128.5l-72 128.5l-83.5 144.5l-29 49c-8 13.333 -15.5 24.666 -22.5 33.999s-14 17.5 -21 24.5s-15.167 14.167 -24.5 21.5
c-17.333 11.333 -35.333 19.333 -54 24s-36.667 7.66699 -54 9v69h479v-69c-12 -1.33301 -27.333 -2.16602 -46 -2.49902s-36.5 -1.83301 -53.5 -4.5s-31.667 -6.83398 -44 -12.501s-18.5 -14.167 -18.5 -25.5c0 -7.33301 8.33301 -27.333 25 -60l65.5 -125l92.5 -172
l106 -200l103 178l91.5 163c27 49.333 48.833 91 65.5 125s25 55.333 25 64c0 16 -5.83301 28.333 -17.5 37s-26 15.334 -43 20.001s-35.5 7.83398 -55.5 9.50098s-38 3.5 -54 5.5v69h454v-69c-6 0 -13.5 -1 -22.5 -3z" />
    <glyph glyph-name="brokenbar" unicode="&#xa6;" horiz-adv-x="756" 
d="M326 723v801h106v-801h-106zM326 -424v809h106v-809h-106z" />
    <glyph glyph-name="section" unicode="&#xa7;" horiz-adv-x="961" 
d="M840 631c0 -35.333 -6.33301 -69.1611 -19 -101.494s-30 -62.333 -52 -90s-47.5 -52.667 -76.5 -75s-59.833 -41.5 -92.5 -57.5c69.333 -30.667 120.166 -67.334 152.499 -110.001s48.5 -96.667 48.5 -162c0 -43.333 -8.66699 -83 -26 -119s-41.5 -66.833 -72.5 -92.5
s-67.667 -45.667 -110 -60s-88.833 -21.5 -139.5 -21.5c-60.667 0 -109.834 5.66699 -147.501 17s-67.167 25.166 -88.5 41.499s-35.833 33.666 -43.5 51.999s-11.5 34.166 -11.5 47.499c0 10 1.33301 20.333 4 31s7.33398 20.167 14.001 28.5s15.334 15.166 26.001 20.499
s24 8 40 8c18 0 33.5 -4.66699 46.5 -14s24.667 -21.5 35 -36.5s19.5 -31.667 27.5 -50l24 -53.5c12 -4 27.5 -7.33301 46.5 -10s40.167 -4 63.5 -4c29.333 0 57.333 4.16699 84 12.5s50 20.5 70 36.5s36 35.333 48 58s18 48.334 18 77.001c0 26 -5.66699 49.833 -17 71.5
s-28.666 42 -51.999 61s-52.5 37.167 -87.5 54.5s-75.833 35 -122.5 53c-56 21.333 -103.5 45 -142.5 71s-70.833 53.667 -95.5 83s-42.667 60.666 -54 93.999s-17 68 -17 104c0 70 21.833 130.5 65.5 181.5s103.167 93.5 178.5 127.5c-34 18 -64.167 36.167 -90.5 54.5
s-48.333 38 -66 59s-31.167 43.667 -40.5 68s-14 51.166 -14 80.499c0 40.667 8.83301 78.5 26.5 113.5s42.667 65.333 75 91s71.166 45.834 116.499 60.501s95.333 22 150 22c57.333 0 103.666 -5.83301 138.999 -17.5s62.833 -26 82.5 -43s32.834 -34.833 39.501 -53.5
s10 -34.667 10 -48c0 -10 -1.33301 -20 -4 -30s-7 -19 -13 -27s-14.167 -14.5 -24.5 -19.5s-23.166 -7.5 -38.499 -7.5c-18.667 0 -35.167 4.5 -49.5 13.5s-27.333 21 -39 36s-21.834 32 -30.501 51s-16.334 38.833 -23.001 59.5c-11.333 5.33301 -24 9.33301 -38 12
s-32.667 4 -56 4c-32 0 -61.667 -5.16699 -89 -15.5s-51 -24.333 -71 -42s-35.5 -38.5 -46.5 -62.5s-16.5 -49.333 -16.5 -76c0 -22.667 6.5 -43.667 19.5 -63s32.167 -38 57.5 -56s56.333 -35.833 93 -53.5s79 -35.834 127 -54.501c54 -22 99.333 -46 136 -72
s66.334 -53.167 89.001 -81.5s39 -57.333 49 -87s15 -59.5 15 -89.5zM733 592.005c0 60 -26.332 113.5 -78.999 160.5s-128 88.5 -226 124.5c-72.667 -28 -124.667 -63.5 -156 -106.5s-47 -92.167 -47 -147.5c0 -29.333 5.66699 -56.666 17 -81.999s29.5 -49.833 54.5 -73.5
s57.167 -46.5 96.5 -68.5s87.333 -44.333 144 -67c40 20.667 72.667 41.167 98 61.5s45.166 41 59.499 62s24.333 42.667 30 65s8.5 46.166 8.5 71.499z" />
    <glyph glyph-name="dieresis" unicode="&#xa8;" horiz-adv-x="1024" 
d="M391 1370c0 -28 -7.66699 -51.667 -23 -71s-37 -29 -65 -29s-49.667 9.66699 -65 29s-23 43 -23 71c0 28.667 7.66699 53 23 73s37 30 65 30s49.667 -10 65 -30s23 -44.333 23 -73zM799 1370c0 -28 -7.66699 -51.667 -23 -71s-37 -29 -65 -29s-49.667 9.66699 -65 29
s-23 43 -23 71c0 28.667 7.66699 53 23 73s37 30 65 30s49.667 -10 65 -30s23 -44.333 23 -73z" />
    <glyph glyph-name="copyright" unicode="&#xa9;" horiz-adv-x="1929" 
d="M1849 604c0 -81.333 -10.667 -159.666 -32 -234.999s-51.166 -145.666 -89.499 -210.999s-84.5 -125 -138.5 -179s-113.667 -100.333 -179 -139s-135.333 -68.5 -210 -89.5s-152.334 -31.5 -233.001 -31.5c-81.333 0 -159.666 10.5 -234.999 31.5
s-145.833 50.833 -211.5 89.5s-125.667 85 -180 139s-100.666 113.667 -138.999 179s-68.166 135.666 -89.499 210.999s-32 153.666 -32 234.999c0 80.667 10.667 158.334 32 233.001s51.166 144.667 89.499 210s84.666 124.833 138.999 178.5s114.333 99.834 180 138.501
s136.167 68.5 211.5 89.5s153.666 31.5 234.999 31.5c80.667 0 158.334 -10.5 233.001 -31.5s144.667 -50.833 210 -89.5s125 -84.834 179 -138.501s100.167 -113.167 138.5 -178.5s68.166 -135.333 89.499 -210s32 -152.334 32 -233.001zM1751 604
c0 72.667 -9.16699 142.834 -27.5 210.501s-44.333 130.834 -78 189.501s-74.167 112.167 -121.5 160.5s-100 89.666 -158 123.999s-120.667 61 -188 80s-137.666 28.5 -210.999 28.5c-74 0 -144.833 -9.5 -212.5 -28.5s-130.667 -45.667 -189 -80
s-111.333 -75.666 -159 -123.999s-88.5 -101.833 -122.5 -160.5s-60.167 -121.834 -78.5 -189.501s-27.5 -137.834 -27.5 -210.501c0 -74 9.16699 -145.167 27.5 -213.5s44.5 -132 78.5 -191s74.833 -112.833 122.5 -161.5s100.667 -90.167 159 -124.5s121.333 -61 189 -80
s138.5 -28.5 212.5 -28.5c73.333 0 143.666 9.5 210.999 28.5s130 45.667 188 80s110.667 75.833 158 124.5s87.833 102.5 121.5 161.5s59.667 122.667 78 191s27.5 139.5 27.5 213.5zM1339 369c-15.333 -36.667 -33.3223 -70.832 -53.9893 -102.499
s-45.334 -59.167 -74.001 -82.5s-62.167 -41.666 -100.5 -54.999s-82.833 -20 -133.5 -20c-63.333 0 -121.833 12.333 -175.5 37s-100.334 58.834 -140.001 102.501s-70.667 95.167 -93 154.5s-33.5 123.666 -33.5 192.999c0 76 12.333 145 37 207s57.667 115 99 159
s89.166 78 143.499 102s111.166 36 170.499 36c51.333 0 97.166 -6.33301 137.499 -19s77.166 -29.667 110.499 -51l22 49h48l6 -334h-58c-4 37.333 -12.333 73.666 -25 108.999s-29.5 66.666 -50.5 93.999s-46.333 49.166 -76 65.499s-63.834 24.5 -102.501 24.5
c-45.333 0 -88 -9.33301 -128 -28s-74.667 -46.5 -104 -83.5s-52.5 -82.667 -69.5 -137s-25.5 -117.5 -25.5 -189.5c0 -56 7.83301 -108.833 23.5 -158.5s38.167 -93.167 67.5 -130.5s64.666 -66.833 105.999 -88.5s87.666 -32.5 138.999 -32.5
c41.333 0 77.166 5.83301 107.499 17.5s56.5 26.834 78.5 45.501s40.667 40 56 64s28.666 48.667 39.999 74z" />
    <glyph glyph-name="ordfeminine" unicode="&#xaa;" horiz-adv-x="1014" 
d="M895 647c-21.333 -7.33301 -42.168 -13.498 -62.501 -18.498s-39.833 -7.5 -58.5 -7.5c-29.333 0 -55.666 10.5 -78.999 31.5s-36.666 51.833 -39.999 92.5h-6c-14 -15.333 -30.667 -30.5 -50 -45.5s-40.666 -28.5 -63.999 -40.5s-48.833 -21.833 -76.5 -29.5
s-57.5 -11.5 -89.5 -11.5c-28.667 0 -55.334 5.16699 -80.001 15.5s-46 24.666 -64 42.999s-32 40.333 -42 66s-15 53.834 -15 84.501c0 28 4.16699 53.167 12.5 75.5s20 42 35 59s33.167 32.167 54.5 45.5s44.666 25 69.999 35c23.333 9.33301 49.166 18.666 77.499 27.999
l85.5 28l83 27.5c26.667 9 50.334 17.5 71.001 25.5v29c0 27.333 -3.5 53.666 -10.5 78.999s-18 47.833 -33 67.5s-34.333 35.334 -58 47.001s-51.834 17.5 -84.501 17.5c-32 0 -60.5 -4.66699 -85.5 -14s-43.5 -19 -55.5 -29c2 -11.333 4.16699 -26 6.5 -44
s3.5 -33.667 3.5 -47c0 -21.333 -6.5 -38.833 -19.5 -52.5s-29.167 -20.5 -48.5 -20.5c-12 0 -22 2.66699 -30 8s-14.667 12 -20 20s-9.16602 17 -11.499 27s-3.5 19.667 -3.5 29c0 24.667 7.66699 48 23 70s35.833 41.333 61.5 58s55 29.834 88 39.501
s67.5 14.5 103.5 14.5c33.333 0 66.333 -3.5 99 -10.5s62 -20 88 -39s47.167 -45.333 63.5 -79s24.5 -77.5 24.5 -131.5c0 -19.333 -0.166992 -43.833 -0.5 -73.5s-0.833008 -62.334 -1.5 -98.001s-1.16699 -72.834 -1.5 -111.501s-0.5 -76 -0.5 -112
c0 -19.333 3.33301 -36.333 10 -51s15.667 -25 27 -31c12 -7.33301 28.167 -12 48.5 -14s38.833 -3 55.5 -3v-49zM654.998 1094c-63.333 -18 -118 -35.667 -164 -53s-84.167 -35.833 -114.5 -55.5s-52.833 -41 -67.5 -64s-22 -49.5 -22 -79.5
c0 -42 11.667 -75.833 35 -101.5s56 -38.5 98 -38.5c22.667 0 45 2.83301 67 8.5s43 13 63 22s38.5 19.5 55.5 31.5s31.5 24.333 43.5 37z" />
    <glyph glyph-name="guillemotleft" unicode="&#xab;" horiz-adv-x="1214" 
d="M567 137l-354 340.002c-5.33301 4 -11.166 10.333 -17.499 19s-9.5 16.667 -9.5 24s3.66699 15.166 11 23.499s14.666 16.166 21.999 23.499l348 338l45 -35l-254 -348l254 -352zM934 137.002l-354 340.002c-5.33301 4 -11.166 10.333 -17.499 19s-9.5 16.667 -9.5 24
s3.66699 15.166 11 23.499s14.666 16.166 21.999 23.499l348 338l45 -35l-254 -348l254 -352z" />
    <glyph glyph-name="logicalnot" unicode="&#xac;" horiz-adv-x="1257" 
d="M997 88v440h-864v107h981v-547h-117z" />
    <glyph glyph-name="registered" unicode="&#xae;" horiz-adv-x="1929" 
d="M1849 604c0 -81.333 -10.667 -159.666 -32 -234.999s-51.166 -145.666 -89.499 -210.999s-84.5 -125 -138.5 -179s-113.667 -100.333 -179 -139s-135.333 -68.5 -210 -89.5s-152.334 -31.5 -233.001 -31.5c-81.333 0 -159.666 10.5 -234.999 31.5
s-145.833 50.833 -211.5 89.5s-125.667 85 -180 139s-100.666 113.667 -138.999 179s-68.166 135.666 -89.499 210.999s-32 153.666 -32 234.999c0 80.667 10.667 158.334 32 233.001s51.166 144.667 89.499 210s84.666 124.833 138.999 178.5s114.333 99.834 180 138.501
s136.167 68.5 211.5 89.5s153.666 31.5 234.999 31.5c80.667 0 158.334 -10.5 233.001 -31.5s144.667 -50.833 210 -89.5s125 -84.834 179 -138.501s100.167 -113.167 138.5 -178.5s68.166 -135.333 89.499 -210s32 -152.334 32 -233.001zM1751 604
c0 72.667 -9.16699 142.834 -27.5 210.501s-44.333 130.834 -78 189.501s-74.167 112.167 -121.5 160.5s-100 89.666 -158 123.999s-120.667 61 -188 80s-137.666 28.5 -210.999 28.5c-74 0 -144.833 -9.5 -212.5 -28.5s-130.667 -45.667 -189 -80
s-111.333 -75.666 -159 -123.999s-88.5 -101.833 -122.5 -160.5s-60.167 -121.834 -78.5 -189.501s-27.5 -137.834 -27.5 -210.501c0 -74 9.16699 -145.167 27.5 -213.5s44.5 -132 78.5 -191s74.833 -112.833 122.5 -161.5s100.667 -90.167 159 -124.5s121.333 -61 189 -80
s138.5 -28.5 212.5 -28.5c73.333 0 143.666 9.5 210.999 28.5s130 45.667 188 80s110.667 75.833 158 124.5s87.833 102.5 121.5 161.5s59.667 122.667 78 191s27.5 139.5 27.5 213.5zM1237 135l-76.5 117l-74 106l-73.5 99.5l-75 99.5h-137v-287
c0 -15.333 2.16699 -29.333 6.5 -42s13.166 -21 26.499 -25c4.66699 -2 11.334 -3.66699 20.001 -5s18 -2.33301 28 -3s19.667 -1.16699 29 -1.5s17 -0.5 23 -0.5v-58h-371v58c6 0.666992 13 1.33398 21 2.00098s16.167 1.5 24.5 2.5s16 1.83301 23 2.5
s12.167 1.66699 15.5 3c13.333 6 22.833 15.167 28.5 27.5s8.5 26.166 8.5 41.499v674c0 15.333 -2.5 30.166 -7.5 44.499s-14.833 23.5 -29.5 27.5c-4.66699 1.33301 -10.5 2.66602 -17.5 3.99902s-14.5 2.5 -22.5 3.5s-15.833 1.83301 -23.5 2.5
s-14.5 1.33398 -20.5 2.00098v57h416c33.333 0 68 -3.83301 104 -11.5s68.833 -20.334 98.5 -38.001s54.167 -41 73.5 -70s29 -64.833 29 -107.5c0 -38.667 -6.16699 -72.5 -18.5 -101.5s-29 -54.333 -50 -76s-45.5 -39.667 -73.5 -54s-57.667 -26.5 -89 -36.5l53.5 -69.5
l40 -50.5l32 -39.5l30 -37l33 -43l42.5 -57.5c17.333 -24.667 32.833 -43 46.5 -55s28.167 -21 43.5 -27c13.333 -7.33301 29 -12.166 47 -14.499s33.667 -4.16602 47 -5.49902v-58h-231zM1147 846c0 34 -5.16699 62.332 -15.5 84.999s-24.5 40.834 -42.5 54.501
s-39 23.5 -63 29.5s-49.333 9 -76 9h-149v-401h119c32 0 61.833 5.5 89.5 16.5s51.667 26.333 72 46s36.333 43.167 48 70.5s17.5 57.333 17.5 90z" />
    <glyph glyph-name="macron" unicode="&#xaf;" horiz-adv-x="1260" 
d="M-4 1606v94h1268v-94h-1268z" />
    <glyph glyph-name="degree" unicode="&#xb0;" horiz-adv-x="858" 
d="M748 1128c0 -46 -7.83008 -88.667 -23.4971 -128s-37.667 -73.5 -66 -102.5s-62.166 -51.667 -101.499 -68s-82.333 -24.5 -129 -24.5s-89.334 8.33301 -128.001 25s-71.834 39.667 -99.501 69s-49.167 63.5 -64.5 102.5s-23 81.167 -23 126.5c0 46.667 8 89.667 24 129
s38 73.166 66 101.499s61.167 50.333 99.5 66s80.166 23.5 125.499 23.5c46.667 0 89.667 -8.16699 129 -24.5s73.166 -38.666 101.499 -66.999s50.333 -62 66 -101s23.5 -81.5 23.5 -127.5zM612.003 1120c0 85.333 -16.667 150.334 -50 195.001s-78 67 -134 67
c-28 0 -53.167 -6 -75.5 -18s-41.333 -29 -57 -51s-27.834 -48.5 -36.501 -79.5s-13 -65.5 -13 -103.5c0 -39.333 4.16699 -74.833 12.5 -106.5s20.5 -58.5 36.5 -80.5s35.5 -39 58.5 -51s49.167 -18 78.5 -18c22.667 0 44.834 5.16699 66.501 15.5s41 25.666 58 45.999
s30.5 45.833 40.5 76.5s15 66.667 15 108z" />
    <glyph glyph-name="plusminus" unicode="&#xb1;" horiz-adv-x="1257" 
d="M143 0v106h432v406h-432v104h432v445h109v-445h430v-104h-430v-406h430v-106h-971z" />
    <glyph glyph-name="uni00B2" unicode="&#xb2;" horiz-adv-x="973" 
d="M133 489l0.00292969 98.9961c14 27.333 31 52.166 51 74.499s43 43.833 69 64.5s54.667 41.334 86 62.001l103 67c40 24.667 74.5 47.834 103.5 69.501s52.833 44 71.5 67s32.5 47.833 41.5 74.5s13.5 58 13.5 94c0 73.333 -17.667 127.833 -53 163.5s-84 53.5 -146 53.5
c-29.333 0 -55.333 -3.16699 -78 -9.5s-42.167 -14.166 -58.5 -23.499s-29.333 -19.166 -39 -29.499s-15.834 -19.5 -18.501 -27.5c4 -16.667 7.33301 -32.334 10 -47.001s4 -30.334 4 -47.001c0 -6 -1 -13.167 -3 -21.5s-6 -16 -12 -23s-14.167 -13 -24.5 -18
s-23.833 -7.5 -40.5 -7.5c-14 0 -25.833 2.5 -35.5 7.5s-17.5 11.667 -23.5 20s-10.333 17.833 -13 28.5s-4 21.334 -4 32.001c0 22.667 6.83301 47.834 20.5 75.501s34.5 53.5 62.5 77.5s63 44.167 105 60.5s91.333 24.5 148 24.5c52.667 0 99.667 -7.33301 141 -22
s76.166 -34.834 104.499 -60.501s49.833 -56.167 64.5 -91.5s22 -73.666 22 -114.999c0 -44.667 -5.5 -83.5 -16.5 -116.5s-26.667 -62.167 -47 -87.5s-45.333 -48 -75 -68s-62.834 -39.333 -99.501 -58l-90 -43.5c-30.667 -15 -60.667 -31.5 -90 -49.5
s-57.5 -37.667 -84.5 -59s-50.833 -45.666 -71.5 -72.999h619v-117h-717z" />
    <glyph glyph-name="uni00B3" unicode="&#xb3;" horiz-adv-x="973" 
d="M834 754c0 -46 -10.166 -87.335 -30.499 -124.002s-48 -68 -83 -94s-75.667 -46 -122 -60s-95.5 -21 -147.5 -21s-98.667 5.66699 -140 17s-76.166 26 -104.499 44s-50 38.5 -65 61.5s-22.5 46.167 -22.5 69.5c0 24.667 5.16699 45.834 15.5 63.501s30.5 26.5 60.5 26.5
c25.333 0 44.833 -6.5 58.5 -19.5s20.5 -26.167 20.5 -39.5c0 -11.333 -1.33301 -24.333 -4 -39s-6 -28.334 -10 -41.001c3.33301 -5.33301 10 -11.833 20 -19.5s23.333 -15.334 40 -23.001s36.834 -14.167 60.501 -19.5s50.5 -8 80.5 -8s59.167 4.5 87.5 13.5
s53.5 22.833 75.5 41.5s39.5 42.334 52.5 71.001s19.5 62.667 19.5 102c0 62.667 -20.167 108 -60.5 136s-96.5 42 -168.5 42h-117v92h84c74.667 0 129.5 16.167 164.5 48.5s52.5 82.5 52.5 150.5c0 20.667 -3.5 40.334 -10.5 59.001s-18 35.167 -33 49.5
s-34.167 25.666 -57.5 33.999s-51 12.5 -83 12.5c-28 0 -51.667 -2.83301 -71 -8.5s-35.333 -12.5 -48 -20.5s-22.667 -16.333 -30 -25s-12.333 -16.334 -15 -23.001c3.33301 -11.333 6.16602 -23.5 8.49902 -36.5s3.5 -26.167 3.5 -39.5c0 -8 -1.83301 -16 -5.5 -24
s-9.33398 -15.167 -17.001 -21.5s-17.167 -11.666 -28.5 -15.999s-24.333 -6.5 -39 -6.5c-25.333 0 -44.166 7.83301 -56.499 23.5s-18.5 33.834 -18.5 54.501c0 24.667 7 49.5 21 74.5s35 47.833 63 68.5s63.167 37.5 105.5 50.5s92.166 19.5 149.499 19.5
c42 0 78.667 -4 110 -12s58.333 -18.5 81 -31.5s41.167 -27.5 55.5 -43.5s25.833 -32.167 34.5 -48.5s14.667 -32 18 -47s5 -27.833 5 -38.5c0 -21.333 -3.33301 -43 -10 -65s-17.834 -43.167 -33.501 -63.5s-36.5 -39.166 -62.5 -56.499s-58.333 -32.333 -97 -45v-10
c27.333 -3.33301 55.5 -10 84.5 -20s55.333 -24.333 79 -43s43 -42 58 -70s22.5 -62 22.5 -102z" />
    <glyph glyph-name="acute" unicode="&#xb4;" horiz-adv-x="1024" 
d="M643 1468c0 -20.667 -4.33496 -39.334 -13.002 -56.001s-24.667 -36.667 -48 -60l-44.5 -42.5l-55 -50.5l-69.5 -63.5l-89 -81.5l-37 31l64.5 103.5l52 84l42 66.5l33.5 53c18.667 30 35.834 51.167 51.501 63.5s32.834 18.5 51.501 18.5
c19.333 0 34.333 -6.66699 45 -20s16 -28.666 16 -45.999z" />
    <glyph glyph-name="uni00B5" unicode="&#xb5;" horiz-adv-x="1100" 
d="M1020 -4c-23.333 -5.33301 -45.333 -8.00586 -66 -8.00586c-18 0 -35.167 2.33301 -51.5 7s-31.166 12.5 -44.499 23.5s-24.666 26 -33.999 45s-15.666 42.833 -18.999 71.5h-6c-20 -19.333 -41.167 -38.166 -63.5 -56.499s-47 -34.5 -74 -48.5
s-57.5 -25.167 -91.5 -33.5s-72.333 -12.5 -115 -12.5c-24 0 -47.833 2.5 -71.5 7.5s-45.334 11.833 -65.001 20.5s-36.667 18.334 -51 29.001s-24.833 21.667 -31.5 33h-5v-72c0 -41.333 2.66699 -77.833 8 -109.5s11.333 -61.334 18 -89.001s12.667 -54.167 18 -79.5
s8 -52 8 -80c0 -25.333 -6.83301 -46.333 -20.5 -63s-32.834 -25 -57.501 -25c-25.333 0 -44.333 7.33301 -57 22s-19 32.334 -19 53.001c0 18 1.5 39.5 4.5 64.5s6.33301 50.833 10 77.5s7.5 52.667 11.5 78s7 47.666 9 66.999c1.33301 16 2.66602 33.833 3.99902 53.5
s2.5 39.334 3.5 59.001s1.66699 38.334 2 56.001s0.5 32.5 0.5 44.5v852h117v-684c0 -43.333 5.33301 -79.5 16 -108.5s25.5 -52.167 44.5 -69.5s41.5 -29.5 67.5 -36.5s54.333 -10.5 85 -10.5c41.333 0 79 5.83301 113 17.5s63.833 25.5 89.5 41.5s47 32.667 64 50
s29.167 32 36.5 44v756h111v-786c0 -29.333 3.66699 -51.666 11 -66.999s19.333 -26.666 36 -33.999c6.66699 -3.33301 15.667 -6 27 -8s23.166 -3.5 35.499 -4.5s24.5 -1.83301 36.5 -2.5s22.667 -1 32 -1v-62c-27.333 -9.33301 -52.666 -16.666 -75.999 -21.999z" />
    <glyph glyph-name="paragraph" unicode="&#xb6;" horiz-adv-x="975" 
d="M963 1350l-111 0.00195312v-1565h-92v1565h-158v-1565h-94v960c-63.333 0 -120 7.66699 -170 23s-92.333 37.333 -127 66s-61.167 63.5 -79.5 104.5s-27.5 87.167 -27.5 138.5c0 54 9.5 102.167 28.5 144.5s45 78.166 78 107.499s71.833 51.666 116.5 66.999
s92.667 23 144 23h492v-69z" />
    <glyph glyph-name="periodcentered" unicode="&#xb7;" horiz-adv-x="512" 
d="M368 565c0 -30.667 -10.333 -55.999 -31 -75.999s-46.334 -30 -77.001 -30c-15.333 0 -29.5 2.66699 -42.5 8s-24.5 12.666 -34.5 21.999s-17.833 20.5 -23.5 33.5s-8.5 27.167 -8.5 42.5c0 14.667 2.83301 28.667 8.5 42s13.5 25 23.5 35s21.5 17.833 34.5 23.5
s27.167 8.5 42.5 8.5s29.5 -2.83301 42.5 -8.5s24.333 -13.5 34 -23.5s17.334 -21.667 23.001 -35s8.5 -27.333 8.5 -42z" />
    <glyph glyph-name="cedilla" unicode="&#xb8;" horiz-adv-x="1024" 
d="M688 -246c0 -36.667 -8.32812 -67.667 -24.9951 -93s-40.834 -45.666 -72.501 -60.999s-70.334 -26.5 -116.001 -33.5s-97.5 -10.5 -155.5 -10.5v69c36.667 0 71.167 2 103.5 6s60.166 10.167 83.499 18.5s41.833 18.666 55.5 30.999s20.5 26.833 20.5 43.5
c0 16 -5.83301 29 -17.5 39s-26.334 17.667 -44.001 23s-37.334 8.83301 -59.001 10.5s-42.5 2.5 -62.5 2.5v217h74v-122c21.333 0 44.5 -1.5 69.5 -4.5s48.333 -9.5 70 -19.5s39.667 -24.167 54 -42.5s21.5 -42.833 21.5 -73.5z" />
    <glyph glyph-name="uni00B9" unicode="&#xb9;" horiz-adv-x="973" 
d="M197 489l0.00390625 67.999c10 0 23.333 0.166992 40 0.5s33.667 1 51 2s33.666 2.16699 48.999 3.5s26 3.33301 32 6c11.333 4.66699 21 12.334 29 23.001s12 23.667 12 39v661h-217v72h73c24 0 47.667 2.33301 71 7s45.166 10.834 65.499 18.501
s38.833 16.167 55.5 25.5s30 19 40 29h37c-1.33301 -39.333 -2.83301 -80.666 -4.5 -123.999s-2.5 -82.666 -2.5 -117.999v-563c0 -14.667 3.83301 -27.334 11.5 -38.001s18.167 -19.334 31.5 -26.001c6 -3.33301 16.167 -6 30.5 -8s29.666 -3.83301 45.999 -5.5
s32.166 -2.83398 47.499 -3.50098s27.333 -1 36 -1v-68h-534z" />
    <glyph glyph-name="ordmasculine" unicode="&#xba;" horiz-adv-x="1014" 
d="M883 1042c0 -57.333 -8.49805 -111.834 -25.498 -163.501s-42 -97.167 -75 -136.5s-73.333 -70.5 -121 -93.5s-102.167 -34.5 -163.5 -34.5c-46 0 -91 9.5 -135 28.5s-83.167 46.5 -117.5 82.5s-62 79.5 -83 130.5s-31.5 108.5 -31.5 172.5c0 62.667 9.5 120 28.5 172
s45.5 96.5 79.5 133.5s74.333 65.667 121 86s98 30.5 154 30.5c55.333 0 105.666 -10.167 150.999 -30.5s84.166 -48.666 116.499 -84.999s57.333 -79.5 75 -129.5s26.5 -104.333 26.5 -163zM758.002 1040c0 42 -4.5 83.834 -13.5 125.501s-23.5 79 -43.5 112
s-45.667 59.833 -77 80.5s-69.333 31 -114 31c-48 0 -88.333 -10.833 -121 -32.5s-59 -49.334 -79 -83.001s-34.333 -70.834 -43 -111.501s-13 -80 -13 -118c0 -47.333 5.33301 -93 16 -137s26.667 -83 48 -117s48 -61.167 80 -81.5s69.333 -30.5 112 -30.5
c40.667 0 76.5 9.83301 107.5 29.5s57 46 78 79s36.667 71.333 47 115s15.5 89.834 15.5 138.501z" />
    <glyph glyph-name="guillemotright" unicode="&#xbb;" horiz-adv-x="1214" 
d="M602 170l254 351.998l-254 348l45 35l348 -338c7.33301 -7.33301 14.666 -15.166 21.999 -23.499s11 -16.166 11 -23.499s-3.16699 -15.333 -9.5 -24s-12.166 -15 -17.499 -19l-354 -340zM236 169.998l253 351.998l-253 348l45 35l348 -338
c7.33301 -7.33301 14.666 -15.166 21.999 -23.499s11 -16.166 11 -23.499s-3.16699 -15.333 -9.5 -24s-12.166 -15 -17.499 -19l-354 -340z" />
    <glyph glyph-name="onequarter" unicode="&#xbc;" horiz-adv-x="2130" 
d="M1945 208h-157v-227h-134v227h-505v105l561 647h78v-651h157v-101zM1654 309v473l-413 -473h413zM130 489l0.00390625 67.999c10 0 23.333 0.166992 40 0.5s33.667 1 51 2s33.666 2.16699 48.999 3.5s26 3.33301 32 6c11.333 4.66699 21 12.334 29 23.001
s12 23.667 12 39v661h-217v72h73c24 0 47.667 2.33301 71 7s45.166 10.834 65.499 18.501s38.833 16.167 55.5 25.5s30 19 40 29h37c-1.33301 -39.333 -2.83301 -80.666 -4.5 -123.999s-2.5 -82.666 -2.5 -117.999v-563c0 -14.667 3.83301 -27.334 11.5 -38.001
s18.167 -19.334 31.5 -26.001c6 -3.33301 16.167 -6 30.5 -8s29.666 -3.83301 45.999 -5.5s32.166 -2.83398 47.499 -3.50098s27.333 -1 36 -1v-68h-534zM1370 1419l-698 -1419h-105l701 1419h102z" />
    <glyph glyph-name="onehalf" unicode="&#xbd;" horiz-adv-x="2130" 
d="M1292 1l0.00292969 98.9961c14 27.333 31 52.166 51 74.499s43 43.833 69 64.5s54.667 41.334 86 62.001l103 67c40 24.667 74.5 47.834 103.5 69.501s52.833 44 71.5 67s32.5 47.833 41.5 74.5s13.5 58 13.5 94c0 73.333 -17.667 127.833 -53 163.5s-84 53.5 -146 53.5
c-29.333 0 -55.333 -3.16699 -78 -9.5s-42.167 -14.166 -58.5 -23.499s-29.333 -19.166 -39 -29.499s-15.834 -19.5 -18.501 -27.5c4 -16.667 7.33301 -32.334 10 -47.001s4 -30.334 4 -47.001c0 -6 -1 -13.167 -3 -21.5s-6 -16 -12 -23s-14.167 -13 -24.5 -18
s-23.833 -7.5 -40.5 -7.5c-14 0 -25.833 2.5 -35.5 7.5s-17.5 11.667 -23.5 20s-10.333 17.833 -13 28.5s-4 21.334 -4 32.001c0 22.667 6.83301 47.834 20.5 75.501s34.5 53.5 62.5 77.5s63 44.167 105 60.5s91.333 24.5 148 24.5c52.667 0 99.667 -7.33301 141 -22
s76.166 -34.834 104.499 -60.501s49.833 -56.167 64.5 -91.5s22 -73.666 22 -114.999c0 -44.667 -5.5 -83.5 -16.5 -116.5s-26.667 -62.167 -47 -87.5s-45.333 -48 -75 -68s-62.834 -39.333 -99.501 -58l-90 -43.5c-30.667 -15 -60.667 -31.5 -90 -49.5
s-57.5 -37.667 -84.5 -59s-50.833 -45.666 -71.5 -72.999h619v-117h-717zM130.003 488.996l0.00390625 67.999c10 0 23.333 0.166992 40 0.5s33.667 1 51 2s33.666 2.16699 48.999 3.5s26 3.33301 32 6c11.333 4.66699 21 12.334 29 23.001s12 23.667 12 39v661h-217v72h73
c24 0 47.667 2.33301 71 7s45.166 10.834 65.499 18.501s38.833 16.167 55.5 25.5s30 19 40 29h37c-1.33301 -39.333 -2.83301 -80.666 -4.5 -123.999s-2.5 -82.666 -2.5 -117.999v-563c0 -14.667 3.83301 -27.334 11.5 -38.001s18.167 -19.334 31.5 -26.001
c6 -3.33301 16.167 -6 30.5 -8s29.666 -3.83301 45.999 -5.5s32.166 -2.83398 47.499 -3.50098s27.333 -1 36 -1v-68h-534zM1374.01 1419l-698 -1419h-105l701 1419h102z" />
    <glyph glyph-name="threequarters" unicode="&#xbe;" horiz-adv-x="2130" 
d="M2058 208h-157v-227h-134v227h-505v105l561 647h78v-651h157v-101zM1767 309v473l-413 -473h413zM834 754c0 -46 -10.166 -87.335 -30.499 -124.002s-48 -68 -83 -94s-75.667 -46 -122 -60s-95.5 -21 -147.5 -21s-98.667 5.66699 -140 17s-76.166 26 -104.499 44
s-50 38.5 -65 61.5s-22.5 46.167 -22.5 69.5c0 24.667 5.16699 45.834 15.5 63.501s30.5 26.5 60.5 26.5c25.333 0 44.833 -6.5 58.5 -19.5s20.5 -26.167 20.5 -39.5c0 -11.333 -1.33301 -24.333 -4 -39s-6 -28.334 -10 -41.001c3.33301 -5.33301 10 -11.833 20 -19.5
s23.333 -15.334 40 -23.001s36.834 -14.167 60.501 -19.5s50.5 -8 80.5 -8s59.167 4.5 87.5 13.5s53.5 22.833 75.5 41.5s39.5 42.334 52.5 71.001s19.5 62.667 19.5 102c0 62.667 -20.167 108 -60.5 136s-96.5 42 -168.5 42h-117v92h84c74.667 0 129.5 16.167 164.5 48.5
s52.5 82.5 52.5 150.5c0 20.667 -3.5 40.334 -10.5 59.001s-18 35.167 -33 49.5s-34.167 25.666 -57.5 33.999s-51 12.5 -83 12.5c-28 0 -51.667 -2.83301 -71 -8.5s-35.333 -12.5 -48 -20.5s-22.667 -16.333 -30 -25s-12.333 -16.334 -15 -23.001
c3.33301 -11.333 6.16602 -23.5 8.49902 -36.5s3.5 -26.167 3.5 -39.5c0 -8 -1.83301 -16 -5.5 -24s-9.33398 -15.167 -17.001 -21.5s-17.167 -11.666 -28.5 -15.999s-24.333 -6.5 -39 -6.5c-25.333 0 -44.166 7.83301 -56.499 23.5s-18.5 33.834 -18.5 54.501
c0 24.667 7 49.5 21 74.5s35 47.833 63 68.5s63.167 37.5 105.5 50.5s92.166 19.5 149.499 19.5c42 0 78.667 -4 110 -12s58.333 -18.5 81 -31.5s41.167 -27.5 55.5 -43.5s25.833 -32.167 34.5 -48.5s14.667 -32 18 -47s5 -27.833 5 -38.5c0 -21.333 -3.33301 -43 -10 -65
s-17.834 -43.167 -33.501 -63.5s-36.5 -39.166 -62.5 -56.499s-58.333 -32.333 -97 -45v-10c27.333 -3.33301 55.5 -10 84.5 -20s55.333 -24.333 79 -43s43 -42 58 -70s22.5 -62 22.5 -102zM1548 1419l-698 -1419h-105l701 1419h102z" />
    <glyph glyph-name="questiondown" unicode="&#xbf;" horiz-adv-x="911" 
d="M96 385c0 63.333 10.3281 119.834 30.9951 169.501s49.334 92.5 86.001 128.5s80.167 65 130.5 87s105.166 37 164.499 45l2 262h88v-372c-40.667 -2.66699 -82.167 -8.33398 -124.5 -17.001s-81 -24 -116 -46s-63.667 -52.5 -86 -91.5s-33.5 -90.167 -33.5 -153.5
c0 -66 6.83301 -121 20.5 -165s32.334 -79.333 56.001 -106s51.5 -45.5 83.5 -56.5s66.667 -16.5 104 -16.5c14 0 27.667 1.16699 41 3.5s25.666 5.5 36.999 9.5s21.5 8.33301 30.5 13s15.833 9.66699 20.5 15c-1.33301 8 -2.83301 17.5 -4.5 28.5
s-3.16699 22.167 -4.5 33.5l-4 32.5c-1.33301 10.333 -2 18.5 -2 24.5c0 6.66699 1.5 14.334 4.5 23.001s8 17 15 25s15.833 14.667 26.5 20s24 8 40 8c14.667 0 27.5 -3 38.5 -9s20 -13.667 27 -23s12.167 -20.333 15.5 -33s5 -25.334 5 -38.001
c0 -21.333 -5.83301 -44.333 -17.5 -69s-29.667 -47.5 -54 -68.5s-55.666 -38.5 -93.999 -52.5s-84.166 -21 -137.499 -21c-69.333 0 -128.666 12 -177.999 36s-89.666 55.333 -120.999 94s-54.166 82.5 -68.499 131.5s-21.5 98.5 -21.5 148.5zM437.995 1333
c0 15.333 2.83301 29.833 8.5 43.5s13.334 25.5 23.001 35.5s21.334 17.833 35.001 23.5s28.5 8.5 44.5 8.5c15.333 0 29.5 -2.83301 42.5 -8.5s24.333 -13.5 34 -23.5s17.334 -21.833 23.001 -35.5s8.5 -28.167 8.5 -43.5c0 -16 -2.83301 -30.833 -8.5 -44.5
s-13.334 -25.667 -23.001 -36s-21 -18.5 -34 -24.5s-27.167 -9 -42.5 -9c-16 0 -30.833 3 -44.5 9s-25.334 14.167 -35.001 24.5s-17.334 22.333 -23.001 36s-8.5 28.5 -8.5 44.5z" />
    <glyph glyph-name="Agrave" unicode="&#xc0;" horiz-adv-x="1356" 
d="M889 0v70.0039c15.333 0.666992 32.833 2 52.5 4s38.334 5.33301 56.001 10s32.667 10.5 45 17.5s18.5 15.5 18.5 25.5c0 6 -1.16699 14.667 -3.5 26s-6.83301 25.333 -13.5 42l-108 305h-543l-27 -66.5l-28.5 -71l-24 -61.5c-7 -18 -11.833 -31 -14.5 -39
c-5.33301 -16.667 -10.5 -33.834 -15.5 -51.501s-7.5 -35.167 -7.5 -52.5c0 -14.667 5.5 -27.334 16.5 -38.001s25.667 -19.5 44 -26.5s39.666 -12.5 63.999 -16.5s49.833 -6.33301 76.5 -7v-70h-512v70c16.667 1.33301 36.167 4.66602 58.5 9.99902s43.166 14 62.499 26
c10 6 18.833 12.833 26.5 20.5s15.334 16.834 23.001 27.501s15.334 23.167 23.001 37.5s16.167 31.166 25.5 50.499l120 264.5l133 300.5l137 317.5l133 315.5h20c7.33301 -22 19.333 -55.5 36 -100.5l58 -155.5l71.5 -190l77.5 -205.5l76 -200.5l67 -175.5l50.5 -131
c13.667 -35 22.5 -57.167 26.5 -66.5c10 -25.333 21.167 -47.166 33.5 -65.499s29.166 -34.833 50.499 -49.5c6.66699 -4.66699 15 -8.83398 25 -12.501s20.5 -6.83398 31.5 -9.50098s21.833 -4.66699 32.5 -6s20 -2 28 -2v-70h-502zM682 1174l-250 -592h473zM463 1686
c-12.667 7.33301 -24.332 14.498 -34.999 21.498s-20 14.833 -28 23.5s-14.167 18.334 -18.5 29.001s-6.5 23.334 -6.5 38.001c0 19.333 6.16699 35.833 18.5 49.5s27.166 20.5 44.499 20.5s33 -4.5 47 -13.5s31 -23.833 51 -44.5l56 -55.5l59.5 -59l67.5 -65l78 -74.5
l-29 -38z" />
    <glyph glyph-name="Aacute" unicode="&#xc1;" horiz-adv-x="1356" 
d="M889 0v70.0039c15.333 0.666992 32.833 2 52.5 4s38.334 5.33301 56.001 10s32.667 10.5 45 17.5s18.5 15.5 18.5 25.5c0 6 -1.16699 14.667 -3.5 26s-6.83301 25.333 -13.5 42l-108 305h-543l-27 -66.5l-28.5 -71l-24 -61.5c-7 -18 -11.833 -31 -14.5 -39
c-5.33301 -16.667 -10.5 -33.834 -15.5 -51.501s-7.5 -35.167 -7.5 -52.5c0 -14.667 5.5 -27.334 16.5 -38.001s25.667 -19.5 44 -26.5s39.666 -12.5 63.999 -16.5s49.833 -6.33301 76.5 -7v-70h-512v70c16.667 1.33301 36.167 4.66602 58.5 9.99902s43.166 14 62.499 26
c10 6 18.833 12.833 26.5 20.5s15.334 16.834 23.001 27.501s15.334 23.167 23.001 37.5s16.167 31.166 25.5 50.499l120 264.5l133 300.5l137 317.5l133 315.5h20c7.33301 -22 19.333 -55.5 36 -100.5l58 -155.5l71.5 -190l77.5 -205.5l76 -200.5l67 -175.5l50.5 -131
c13.667 -35 22.5 -57.167 26.5 -66.5c10 -25.333 21.167 -47.166 33.5 -65.499s29.166 -34.833 50.499 -49.5c6.66699 -4.66699 15 -8.83398 25 -12.501s20.5 -6.83398 31.5 -9.50098s21.833 -4.66699 32.5 -6s20 -2 28 -2v-70h-502zM682 1174l-250 -592h473zM592 1518
l-28.998 38.002l78 74.5l67.5 65l59.5 59l56 55.5c20 20.667 37 35.5 51 44.5s29.667 13.5 47 13.5s32.166 -6.83301 44.499 -20.5s18.5 -30.167 18.5 -49.5c0 -14.667 -2.16699 -27.334 -6.5 -38.001s-10.5 -20.334 -18.5 -29.001s-17.333 -16.5 -28 -23.5
s-22.334 -14.167 -35.001 -21.5z" />
    <glyph glyph-name="Acircumflex" unicode="&#xc2;" horiz-adv-x="1356" 
d="M889 0v70.0039c15.333 0.666992 32.833 2 52.5 4s38.334 5.33301 56.001 10s32.667 10.5 45 17.5s18.5 15.5 18.5 25.5c0 6 -1.16699 14.667 -3.5 26s-6.83301 25.333 -13.5 42l-108 305h-543l-27 -66.5l-28.5 -71l-24 -61.5c-7 -18 -11.833 -31 -14.5 -39
c-5.33301 -16.667 -10.5 -33.834 -15.5 -51.501s-7.5 -35.167 -7.5 -52.5c0 -14.667 5.5 -27.334 16.5 -38.001s25.667 -19.5 44 -26.5s39.666 -12.5 63.999 -16.5s49.833 -6.33301 76.5 -7v-70h-512v70c16.667 1.33301 36.167 4.66602 58.5 9.99902s43.166 14 62.499 26
c10 6 18.833 12.833 26.5 20.5s15.334 16.834 23.001 27.501s15.334 23.167 23.001 37.5s16.167 31.166 25.5 50.499l120 264.5l133 300.5l137 317.5l133 315.5h20c7.33301 -22 19.333 -55.5 36 -100.5l58 -155.5l71.5 -190l77.5 -205.5l76 -200.5l67 -175.5l50.5 -131
c13.667 -35 22.5 -57.167 26.5 -66.5c10 -25.333 21.167 -47.166 33.5 -65.499s29.166 -34.833 50.499 -49.5c6.66699 -4.66699 15 -8.83398 25 -12.501s20.5 -6.83398 31.5 -9.50098s21.833 -4.66699 32.5 -6s20 -2 28 -2v-70h-502zM682 1174l-250 -592h473zM993 1552
l-44.9971 -32l-258 200l-254 -200l-45 32l217 263l17 19.5c5.33301 6.33301 11.166 12 17.499 17s13.666 9 21.999 12s18.166 4.5 29.499 4.5s21 -1.5 29 -4.5s15 -6.66699 21 -11s11.5 -9.5 16.5 -15.5l15.5 -18z" />
    <glyph glyph-name="Atilde" unicode="&#xc3;" horiz-adv-x="1356" 
d="M889 0v70.0039c15.333 0.666992 32.833 2 52.5 4s38.334 5.33301 56.001 10s32.667 10.5 45 17.5s18.5 15.5 18.5 25.5c0 6 -1.16699 14.667 -3.5 26s-6.83301 25.333 -13.5 42l-108 305h-543l-27 -66.5l-28.5 -71l-24 -61.5c-7 -18 -11.833 -31 -14.5 -39
c-5.33301 -16.667 -10.5 -33.834 -15.5 -51.501s-7.5 -35.167 -7.5 -52.5c0 -14.667 5.5 -27.334 16.5 -38.001s25.667 -19.5 44 -26.5s39.666 -12.5 63.999 -16.5s49.833 -6.33301 76.5 -7v-70h-512v70c16.667 1.33301 36.167 4.66602 58.5 9.99902s43.166 14 62.499 26
c10 6 18.833 12.833 26.5 20.5s15.334 16.834 23.001 27.501s15.334 23.167 23.001 37.5s16.167 31.166 25.5 50.499l120 264.5l133 300.5l137 317.5l133 315.5h20c7.33301 -22 19.333 -55.5 36 -100.5l58 -155.5l71.5 -190l77.5 -205.5l76 -200.5l67 -175.5l50.5 -131
c13.667 -35 22.5 -57.167 26.5 -66.5c10 -25.333 21.167 -47.166 33.5 -65.499s29.166 -34.833 50.499 -49.5c6.66699 -4.66699 15 -8.83398 25 -12.501s20.5 -6.83398 31.5 -9.50098s21.833 -4.66699 32.5 -6s20 -2 28 -2v-70h-502zM682 1174l-250 -592h473zM1007 1738
c-14 -25.333 -30.501 -48.002 -49.501 -68.002s-40.833 -36.167 -65.5 -48.5s-52.334 -18.5 -83.001 -18.5c-33.333 0 -62.166 5.16699 -86.499 15.5s-46.833 21.666 -67.5 33.999s-40.834 23.666 -60.501 33.999s-41.167 15.5 -64.5 15.5
c-15.333 0 -28.833 -2.5 -40.5 -7.5s-22.667 -12.833 -33 -23.5s-20.666 -24 -30.999 -40s-21.833 -35.333 -34.5 -58l-53 22c11.333 24.667 23.833 49.834 37.5 75.501s29.5 48.834 47.5 69.501s38.667 37.5 62 50.5s50 19.5 80 19.5c31.333 0 59 -5.16699 83 -15.5
s46.333 -21.833 67 -34.5s40.334 -24.167 59.001 -34.5s38.334 -15.5 59.001 -15.5c18.667 0 35 2.33301 49 7s27 12.334 39 23.001s23.167 24.334 33.5 41.001s21.166 36.667 32.499 60l55 -25c-9.33301 -26.667 -21 -52.667 -35 -78z" />
    <glyph glyph-name="Adieresis" unicode="&#xc4;" horiz-adv-x="1356" 
d="M889 0v70.0039c15.333 0.666992 32.833 2 52.5 4s38.334 5.33301 56.001 10s32.667 10.5 45 17.5s18.5 15.5 18.5 25.5c0 6 -1.16699 14.667 -3.5 26s-6.83301 25.333 -13.5 42l-108 305h-543l-27 -66.5l-28.5 -71l-24 -61.5c-7 -18 -11.833 -31 -14.5 -39
c-5.33301 -16.667 -10.5 -33.834 -15.5 -51.501s-7.5 -35.167 -7.5 -52.5c0 -14.667 5.5 -27.334 16.5 -38.001s25.667 -19.5 44 -26.5s39.666 -12.5 63.999 -16.5s49.833 -6.33301 76.5 -7v-70h-512v70c16.667 1.33301 36.167 4.66602 58.5 9.99902s43.166 14 62.499 26
c10 6 18.833 12.833 26.5 20.5s15.334 16.834 23.001 27.501s15.334 23.167 23.001 37.5s16.167 31.166 25.5 50.499l120 264.5l133 300.5l137 317.5l133 315.5h20c7.33301 -22 19.333 -55.5 36 -100.5l58 -155.5l71.5 -190l77.5 -205.5l76 -200.5l67 -175.5l50.5 -131
c13.667 -35 22.5 -57.167 26.5 -66.5c10 -25.333 21.167 -47.166 33.5 -65.499s29.166 -34.833 50.499 -49.5c6.66699 -4.66699 15 -8.83398 25 -12.501s20.5 -6.83398 31.5 -9.50098s21.833 -4.66699 32.5 -6s20 -2 28 -2v-70h-502zM682 1174l-250 -592h473zM581 1734
c0 -28 -7.66699 -51.667 -23 -71s-37 -29 -65 -29s-49.667 9.66699 -65 29s-23 43 -23 71c0 28.667 7.66699 52.834 23 72.501s37 29.5 65 29.5s49.667 -9.83301 65 -29.5s23 -43.834 23 -72.501zM989 1734c0 -28 -7.66699 -51.667 -23 -71s-37 -29 -65 -29
s-49.667 9.66699 -65 29s-23 43 -23 71c0 28.667 7.66699 52.834 23 72.501s37 29.5 65 29.5s49.667 -9.83301 65 -29.5s23 -43.834 23 -72.501z" />
    <glyph glyph-name="Aring" unicode="&#xc5;" horiz-adv-x="1356" 
d="M889 0v70.0039c15.333 0.666992 32.833 2 52.5 4s38.334 5.33301 56.001 10s32.667 10.5 45 17.5s18.5 15.5 18.5 25.5c0 6 -1.16699 14.667 -3.5 26s-6.83301 25.333 -13.5 42l-108 305h-543l-27 -66.5l-28.5 -71l-24 -61.5c-7 -18 -11.833 -31 -14.5 -39
c-5.33301 -16.667 -10.5 -33.834 -15.5 -51.501s-7.5 -35.167 -7.5 -52.5c0 -14.667 5.5 -27.334 16.5 -38.001s25.667 -19.5 44 -26.5s39.666 -12.5 63.999 -16.5s49.833 -6.33301 76.5 -7v-70h-512v70c16.667 1.33301 36.167 4.66602 58.5 9.99902s43.166 14 62.499 26
c10 6 18.833 12.833 26.5 20.5s15.334 16.834 23.001 27.501s15.334 23.167 23.001 37.5s16.167 31.166 25.5 50.499l120 264.5l133 300.5l137 317.5l133 315.5h20c7.33301 -22 19.333 -55.5 36 -100.5l58 -155.5l71.5 -190l77.5 -205.5l76 -200.5l67 -175.5l50.5 -131
c13.667 -35 22.5 -57.167 26.5 -66.5c10 -25.333 21.167 -47.166 33.5 -65.499s29.166 -34.833 50.499 -49.5c6.66699 -4.66699 15 -8.83398 25 -12.501s20.5 -6.83398 31.5 -9.50098s21.833 -4.66699 32.5 -6s20 -2 28 -2v-70h-502zM682 1174l-250 -592h473zM953 1650
c0 -32 -5.83008 -61.3311 -17.4971 -87.998s-28.334 -49.667 -50.001 -69s-47.834 -34.5 -78.501 -45.5s-64.667 -16.5 -102 -16.5c-38 0 -72.333 5.33301 -103 16s-56.667 25.5 -78 44.5s-37.833 42 -49.5 69s-17.5 56.833 -17.5 89.5c0 32 6.33301 61.167 19 87.5
s30.167 49.166 52.5 68.499s48.666 34.333 78.999 45s62.833 16 97.5 16c36 0 69.167 -5.16699 99.5 -15.5s56.5 -25 78.5 -44s39.167 -41.833 51.5 -68.5s18.5 -56.334 18.5 -89.001zM836.003 1650.01c0 22.667 -2.83301 43.667 -8.5 63s-14 36 -25 50s-24.667 25 -41 33
s-35.166 12 -56.499 12c-42 0 -74.333 -14.167 -97 -42.5s-34 -66.833 -34 -115.5c0 -22.667 2.83301 -43.5 8.5 -62.5s14 -35.5 25 -49.5s24.667 -25 41 -33s35.166 -12 56.499 -12c43.333 0 76 14.667 98 44s33 67 33 113z" />
    <glyph glyph-name="AE" unicode="&#xc6;" horiz-adv-x="1890" 
d="M918 1331h-80l-349 -641h429v641zM1737 1419v-332.002h-64c-7.33301 33.333 -16.166 64.833 -26.499 94.5s-23.333 55.667 -39 78s-34.167 40.333 -55.5 54s-46.333 21.5 -75 23.5c-25.333 2 -53.666 3.5 -84.999 4.5s-64.666 1.5 -99.999 1.5h-231v-569h166
c32 0 58.167 1.83301 78.5 5.5s37 8.5 50 14.5s23.333 12.833 31 20.5s14.5 15.5 20.5 23.5c7.33301 8.66699 13.666 19.5 18.999 32.5s10 26.833 14 41.5s7.5 29.5 10.5 44.5s5.5 29.167 7.5 42.5h64v-538h-64c-0.666992 14.667 -2.5 30.5 -5.5 47.5
s-6.83301 33.667 -11.5 50s-10 31.166 -16 44.499s-12 24 -18 32c-6 7.33301 -12.667 14.666 -20 21.999s-17.5 13.833 -30.5 19.5s-29.833 10.334 -50.5 14.001s-47 5.5 -79 5.5h-166v-434c0 -42.667 2.16699 -76.167 6.5 -100.5s14.666 -42.666 30.999 -54.999
s40.833 -20.166 73.5 -23.499s77.667 -5 135 -5c27.333 0 58.166 0.5 92.499 1.5s68 3.33301 101 7s62.833 9.16699 89.5 16.5s46.334 17.333 59.001 30c12 12.667 24 29.5 36 50.5s23.5 44 34.5 69s21.167 50.833 30.5 77.5s17.333 52 24 76h71l-26 -406h-1102v70
c8 0.666992 18.833 1.5 32.5 2.5s27.667 2.16699 42 3.5s28 3 41 5s22.833 4.33301 29.5 7c21.333 10.667 36 24.334 44 41.001s12 36.334 12 59.001v418h-472l-29 -46.5c-9.33301 -15 -20.5 -34.167 -33.5 -57.5l-48 -90l-73.5 -146c-5.33301 -13.333 -10.333 -27 -15 -41
s-7 -30.333 -7 -49c0 -20.667 3.83301 -37.5 11.5 -50.5s18.167 -23.5 31.5 -31.5s29.5 -13.833 48.5 -17.5s40.167 -5.83398 63.5 -6.50098v-70h-491v70c16.667 0 37 3.5 61 10.5s45.333 15.5 64 25.5c20.667 12.667 40.5 30.667 59.5 54s36.5 50 52.5 80l150 262
l155 275.5l154 279l148 272.5c-8.66699 4 -20.167 7.5 -34.5 10.5s-29.333 5.16699 -45 6.5s-30.834 2.33301 -45.501 3s-27 1 -37 1v69h1151z" />
    <glyph glyph-name="Ccedilla" unicode="&#xc7;" horiz-adv-x="1300" 
d="M1181.5 205c-30.333 -47.333 -66.501 -88.5049 -108.501 -123.505s-91 -62.5 -147 -82.5s-121 -30 -195 -30c-92 0 -177.5 18.667 -256.5 56s-147.5 88.5 -205.5 153.5s-103.333 141.833 -136 230.5s-49 184.334 -49 287.001c0 75.333 8.16699 146.333 24.5 213
s39.333 127.834 69 183.501s64.834 105.5 105.501 149.5s85.334 81.333 134.001 112s100.334 54 155.001 70s111 24 169 24c76 0 143.5 -9.16699 202.5 -27.5s112.5 -43.166 160.5 -74.499l33 73h65l10 -499h-71c-6 56 -18.833 110.833 -38.5 164.5
s-45.834 101.5 -78.501 143.5s-71.834 75.833 -117.501 101.5s-97.834 38.5 -156.501 38.5c-70 0 -135.667 -14.667 -197 -44s-114.5 -72.166 -159.5 -128.499s-80.5 -126 -106.5 -209s-39 -177.833 -39 -284.5c0 -55.333 5.5 -109.333 16.5 -162
s26.833 -102.334 47.5 -149.001s45.834 -89.667 75.501 -129s63.5 -73.166 101.5 -101.499s79.667 -50.5 125 -66.5s94 -24 146 -24c64 0 119.333 9.33301 166 28s87 43 121 73s62.5 63.833 85.5 101.5s42.833 75.834 59.5 114.501l68 -29
c-22 -54.667 -48.167 -105.667 -78.5 -153zM961.999 -246.005c0 -36.667 -8.32812 -67.667 -24.9951 -93s-40.834 -45.666 -72.501 -60.999s-70.334 -26.5 -116.001 -33.5s-97.5 -10.5 -155.5 -10.5v69c36.667 0 71.167 2 103.5 6s60.166 10.167 83.499 18.5
s41.833 18.666 55.5 30.999s20.5 26.833 20.5 43.5c0 16 -5.83301 29 -17.5 39s-26.334 17.667 -44.001 23s-37.334 8.83301 -59.001 10.5s-42.5 2.5 -62.5 2.5v217h74v-122c21.333 0 44.5 -1.5 69.5 -4.5s48.333 -9.5 70 -19.5s39.667 -24.167 54 -42.5
s21.5 -42.833 21.5 -73.5z" />
    <glyph glyph-name="Egrave" unicode="&#xc8;" horiz-adv-x="1339" 
d="M1257 0l-1163 0.000976562v70c8 0.666992 19 1.5 33 2.5s28.333 2.33301 43 4s28.5 3.5 41.5 5.5s22.5 4 28.5 6c20.667 8 35 21 43 39s12 38.333 12 61v1029c0 22.667 -3.83301 42 -11.5 58s-22.167 29.333 -43.5 40c-10 4.66699 -21.833 9 -35.5 13
s-27.334 7.66699 -41.001 11s-26.667 6 -39 8s-22.5 3 -30.5 3v69h1082v-332h-64c-7.33301 33.333 -16.333 64.833 -27 94.5s-23.834 55.667 -39.501 78s-34.167 40.333 -55.5 54s-46.333 21.5 -75 23.5c-24.667 2 -52.667 3.5 -84 4.5s-64.666 1.5 -99.999 1.5h-293v-569
h228c32 0 58.167 1.83301 78.5 5.5s37 8.5 50 14.5s23.333 12.833 31 20.5s14.5 15.5 20.5 23.5c6.66699 8.66699 12.834 19.5 18.501 32.5s10.5 26.833 14.5 41.5s7.5 29.5 10.5 44.5s5.5 29.167 7.5 42.5h64v-538h-64c-0.666992 14.667 -2.5 30.5 -5.5 47.5
s-6.83301 33.667 -11.5 50s-10 31.166 -16 44.499s-12 24 -18 32c-6 7.33301 -12.667 14.666 -20 21.999s-17.5 13.833 -30.5 19.5s-29.833 10.334 -50.5 14.001s-47 5.5 -79 5.5h-228v-434c0 -41.333 3.83301 -74.166 11.5 -98.499s22.5 -42.833 44.5 -55.5
s53 -20.834 93 -24.501s92.667 -5.5 158 -5.5c28 0 59.167 0.5 93.5 1.5s67.833 3.33301 100.5 7s62.5 9.16699 89.5 16.5s46.5 17.333 58.5 30c12.667 12.667 25 29.5 37 50.5s23.5 44 34.5 69s21 50.833 30 77.5s16.833 52 23.5 76h72zM484 1686
c-12.667 7.33301 -24.332 14.498 -34.999 21.498s-20 14.833 -28 23.5s-14.167 18.334 -18.5 29.001s-6.5 23.334 -6.5 38.001c0 19.333 6.16699 35.833 18.5 49.5s27.166 20.5 44.499 20.5s33 -4.5 47 -13.5s31 -23.833 51 -44.5l56 -55.5l59.5 -59l67.5 -65l78 -74.5
l-29 -38z" />
    <glyph glyph-name="Eacute" unicode="&#xc9;" horiz-adv-x="1339" 
d="M1257 0l-1163 0.000976562v70c8 0.666992 19 1.5 33 2.5s28.333 2.33301 43 4s28.5 3.5 41.5 5.5s22.5 4 28.5 6c20.667 8 35 21 43 39s12 38.333 12 61v1029c0 22.667 -3.83301 42 -11.5 58s-22.167 29.333 -43.5 40c-10 4.66699 -21.833 9 -35.5 13
s-27.334 7.66699 -41.001 11s-26.667 6 -39 8s-22.5 3 -30.5 3v69h1082v-332h-64c-7.33301 33.333 -16.333 64.833 -27 94.5s-23.834 55.667 -39.501 78s-34.167 40.333 -55.5 54s-46.333 21.5 -75 23.5c-24.667 2 -52.667 3.5 -84 4.5s-64.666 1.5 -99.999 1.5h-293v-569
h228c32 0 58.167 1.83301 78.5 5.5s37 8.5 50 14.5s23.333 12.833 31 20.5s14.5 15.5 20.5 23.5c6.66699 8.66699 12.834 19.5 18.501 32.5s10.5 26.833 14.5 41.5s7.5 29.5 10.5 44.5s5.5 29.167 7.5 42.5h64v-538h-64c-0.666992 14.667 -2.5 30.5 -5.5 47.5
s-6.83301 33.667 -11.5 50s-10 31.166 -16 44.499s-12 24 -18 32c-6 7.33301 -12.667 14.666 -20 21.999s-17.5 13.833 -30.5 19.5s-29.833 10.334 -50.5 14.001s-47 5.5 -79 5.5h-228v-434c0 -41.333 3.83301 -74.166 11.5 -98.499s22.5 -42.833 44.5 -55.5
s53 -20.834 93 -24.501s92.667 -5.5 158 -5.5c28 0 59.167 0.5 93.5 1.5s67.833 3.33301 100.5 7s62.5 9.16699 89.5 16.5s46.5 17.333 58.5 30c12.667 12.667 25 29.5 37 50.5s23.5 44 34.5 69s21 50.833 30 77.5s16.833 52 23.5 76h72zM559 1518l-28.998 38.002l78 74.5
l67.5 65l59.5 59l56 55.5c20 20.667 37 35.5 51 44.5s29.667 13.5 47 13.5s32.166 -6.83301 44.499 -20.5s18.5 -30.167 18.5 -49.5c0 -14.667 -2.16699 -27.334 -6.5 -38.001s-10.5 -20.334 -18.5 -29.001s-17.333 -16.5 -28 -23.5s-22.334 -14.167 -35.001 -21.5z" />
    <glyph glyph-name="Ecircumflex" unicode="&#xca;" horiz-adv-x="1339" 
d="M1257 0l-1163 0.000976562v70c8 0.666992 19 1.5 33 2.5s28.333 2.33301 43 4s28.5 3.5 41.5 5.5s22.5 4 28.5 6c20.667 8 35 21 43 39s12 38.333 12 61v1029c0 22.667 -3.83301 42 -11.5 58s-22.167 29.333 -43.5 40c-10 4.66699 -21.833 9 -35.5 13
s-27.334 7.66699 -41.001 11s-26.667 6 -39 8s-22.5 3 -30.5 3v69h1082v-332h-64c-7.33301 33.333 -16.333 64.833 -27 94.5s-23.834 55.667 -39.501 78s-34.167 40.333 -55.5 54s-46.333 21.5 -75 23.5c-24.667 2 -52.667 3.5 -84 4.5s-64.666 1.5 -99.999 1.5h-293v-569
h228c32 0 58.167 1.83301 78.5 5.5s37 8.5 50 14.5s23.333 12.833 31 20.5s14.5 15.5 20.5 23.5c6.66699 8.66699 12.834 19.5 18.501 32.5s10.5 26.833 14.5 41.5s7.5 29.5 10.5 44.5s5.5 29.167 7.5 42.5h64v-538h-64c-0.666992 14.667 -2.5 30.5 -5.5 47.5
s-6.83301 33.667 -11.5 50s-10 31.166 -16 44.499s-12 24 -18 32c-6 7.33301 -12.667 14.666 -20 21.999s-17.5 13.833 -30.5 19.5s-29.833 10.334 -50.5 14.001s-47 5.5 -79 5.5h-228v-434c0 -41.333 3.83301 -74.166 11.5 -98.499s22.5 -42.833 44.5 -55.5
s53 -20.834 93 -24.501s92.667 -5.5 158 -5.5c28 0 59.167 0.5 93.5 1.5s67.833 3.33301 100.5 7s62.5 9.16699 89.5 16.5s46.5 17.333 58.5 30c12.667 12.667 25 29.5 37 50.5s23.5 44 34.5 69s21 50.833 30 77.5s16.833 52 23.5 76h72zM995 1552l-44.9971 -32l-258 200
l-254 -200l-45 32l217 263l17 19.5c5.33301 6.33301 11.166 12 17.499 17s13.666 9 21.999 12s18.166 4.5 29.499 4.5s21 -1.5 29 -4.5s15 -6.66699 21 -11s11.5 -9.5 16.5 -15.5l15.5 -18z" />
    <glyph glyph-name="Edieresis" unicode="&#xcb;" horiz-adv-x="1339" 
d="M1257 0l-1163 0.000976562v70c8 0.666992 19 1.5 33 2.5s28.333 2.33301 43 4s28.5 3.5 41.5 5.5s22.5 4 28.5 6c20.667 8 35 21 43 39s12 38.333 12 61v1029c0 22.667 -3.83301 42 -11.5 58s-22.167 29.333 -43.5 40c-10 4.66699 -21.833 9 -35.5 13
s-27.334 7.66699 -41.001 11s-26.667 6 -39 8s-22.5 3 -30.5 3v69h1082v-332h-64c-7.33301 33.333 -16.333 64.833 -27 94.5s-23.834 55.667 -39.501 78s-34.167 40.333 -55.5 54s-46.333 21.5 -75 23.5c-24.667 2 -52.667 3.5 -84 4.5s-64.666 1.5 -99.999 1.5h-293v-569
h228c32 0 58.167 1.83301 78.5 5.5s37 8.5 50 14.5s23.333 12.833 31 20.5s14.5 15.5 20.5 23.5c6.66699 8.66699 12.834 19.5 18.501 32.5s10.5 26.833 14.5 41.5s7.5 29.5 10.5 44.5s5.5 29.167 7.5 42.5h64v-538h-64c-0.666992 14.667 -2.5 30.5 -5.5 47.5
s-6.83301 33.667 -11.5 50s-10 31.166 -16 44.499s-12 24 -18 32c-6 7.33301 -12.667 14.666 -20 21.999s-17.5 13.833 -30.5 19.5s-29.833 10.334 -50.5 14.001s-47 5.5 -79 5.5h-228v-434c0 -41.333 3.83301 -74.166 11.5 -98.499s22.5 -42.833 44.5 -55.5
s53 -20.834 93 -24.501s92.667 -5.5 158 -5.5c28 0 59.167 0.5 93.5 1.5s67.833 3.33301 100.5 7s62.5 9.16699 89.5 16.5s46.5 17.333 58.5 30c12.667 12.667 25 29.5 37 50.5s23.5 44 34.5 69s21 50.833 30 77.5s16.833 52 23.5 76h72zM577 1745
c0 -28 -7.66699 -51.667 -23 -71s-37 -29 -65 -29s-49.667 9.66699 -65 29s-23 43 -23 71c0 28.667 7.66699 52.834 23 72.501s37 29.5 65 29.5s49.667 -9.83301 65 -29.5s23 -43.834 23 -72.501zM985 1745c0 -28 -7.66699 -51.667 -23 -71s-37 -29 -65 -29
s-49.667 9.66699 -65 29s-23 43 -23 71c0 28.667 7.66699 52.834 23 72.501s37 29.5 65 29.5s49.667 -9.83301 65 -29.5s23 -43.834 23 -72.501z" />
    <glyph glyph-name="Igrave" unicode="&#xcc;" horiz-adv-x="733" 
d="M84 0l-0.00292969 69.998l35 2.5c14 1 28.167 2.16699 42.5 3.5s27.833 2.83301 40.5 4.5s22.334 3.5 29.001 5.5c26 7.33301 43.167 19.5 51.5 36.5s12.5 36.167 12.5 57.5v1039c0 22.667 -4.16699 42.334 -12.5 59.001s-26.166 29.667 -53.499 39
c-9.33301 3.33301 -20.166 6.83301 -32.499 10.5s-25.333 7.16699 -39 10.5s-26.834 6 -39.501 8s-24 3.33301 -34 4v69h567v-69c-10 -0.666992 -21.5 -1.66699 -34.5 -3s-26.5 -3.16602 -40.5 -5.49902s-27.5 -5 -40.5 -8s-24.167 -5.83301 -33.5 -8.5
c-24.667 -7.33301 -41.5 -19.5 -50.5 -36.5s-13.5 -36.833 -13.5 -59.5v-1034c0 -22.667 4.5 -42.5 13.5 -59.5s25.833 -30.833 50.5 -41.5c9.33301 -3.33301 20.333 -6.5 33 -9.5s25.834 -5.5 39.501 -7.5s27.167 -3.5 40.5 -4.5s25.333 -1.83301 36 -2.5v-70h-567z
M164.997 1686c-12.667 7.33301 -24.332 14.498 -34.999 21.498s-20 14.833 -28 23.5s-14.167 18.334 -18.5 29.001s-6.5 23.334 -6.5 38.001c0 19.333 6.16699 35.833 18.5 49.5s27.166 20.5 44.499 20.5s33 -4.5 47 -13.5s31 -23.833 51 -44.5l56 -55.5l59.5 -59l67.5 -65
l78 -74.5l-29 -38z" />
    <glyph glyph-name="Iacute" unicode="&#xcd;" horiz-adv-x="733" 
d="M84 0l-0.00292969 69.998l35 2.5c14 1 28.167 2.16699 42.5 3.5s27.833 2.83301 40.5 4.5s22.334 3.5 29.001 5.5c26 7.33301 43.167 19.5 51.5 36.5s12.5 36.167 12.5 57.5v1039c0 22.667 -4.16699 42.334 -12.5 59.001s-26.166 29.667 -53.499 39
c-9.33301 3.33301 -20.166 6.83301 -32.499 10.5s-25.333 7.16699 -39 10.5s-26.834 6 -39.501 8s-24 3.33301 -34 4v69h567v-69c-10 -0.666992 -21.5 -1.66699 -34.5 -3s-26.5 -3.16602 -40.5 -5.49902s-27.5 -5 -40.5 -8s-24.167 -5.83301 -33.5 -8.5
c-24.667 -7.33301 -41.5 -19.5 -50.5 -36.5s-13.5 -36.833 -13.5 -59.5v-1034c0 -22.667 4.5 -42.5 13.5 -59.5s25.833 -30.833 50.5 -41.5c9.33301 -3.33301 20.333 -6.5 33 -9.5s25.834 -5.5 39.501 -7.5s27.167 -3.5 40.5 -4.5s25.333 -1.83301 36 -2.5v-70h-567z
M248.997 1518l-28.998 38.002l78 74.5l67.5 65l59.5 59l56 55.5c20 20.667 37 35.5 51 44.5s29.667 13.5 47 13.5s32.166 -6.83301 44.499 -20.5s18.5 -30.167 18.5 -49.5c0 -14.667 -2.16699 -27.334 -6.5 -38.001s-10.5 -20.334 -18.5 -29.001s-17.333 -16.5 -28 -23.5
s-22.334 -14.167 -35.001 -21.5z" />
    <glyph glyph-name="Icircumflex" unicode="&#xce;" horiz-adv-x="733" 
d="M84 0l-0.00292969 69.998l35 2.5c14 1 28.167 2.16699 42.5 3.5s27.833 2.83301 40.5 4.5s22.334 3.5 29.001 5.5c26 7.33301 43.167 19.5 51.5 36.5s12.5 36.167 12.5 57.5v1039c0 22.667 -4.16699 42.334 -12.5 59.001s-26.166 29.667 -53.499 39
c-9.33301 3.33301 -20.166 6.83301 -32.499 10.5s-25.333 7.16699 -39 10.5s-26.834 6 -39.501 8s-24 3.33301 -34 4v69h567v-69c-10 -0.666992 -21.5 -1.66699 -34.5 -3s-26.5 -3.16602 -40.5 -5.49902s-27.5 -5 -40.5 -8s-24.167 -5.83301 -33.5 -8.5
c-24.667 -7.33301 -41.5 -19.5 -50.5 -36.5s-13.5 -36.833 -13.5 -59.5v-1034c0 -22.667 4.5 -42.5 13.5 -59.5s25.833 -30.833 50.5 -41.5c9.33301 -3.33301 20.333 -6.5 33 -9.5s25.834 -5.5 39.501 -7.5s27.167 -3.5 40.5 -4.5s25.333 -1.83301 36 -2.5v-70h-567z
M672.997 1552l-44.9971 -32l-258 200l-254 -200l-45 32l217 263l17 19.5c5.33301 6.33301 11.166 12 17.499 17s13.666 9 21.999 12s18.166 4.5 29.499 4.5s21 -1.5 29 -4.5s15 -6.66699 21 -11s11.5 -9.5 16.5 -15.5l15.5 -18z" />
    <glyph glyph-name="Idieresis" unicode="&#xcf;" horiz-adv-x="733" 
d="M84 0l-0.00292969 69.998l35 2.5c14 1 28.167 2.16699 42.5 3.5s27.833 2.83301 40.5 4.5s22.334 3.5 29.001 5.5c26 7.33301 43.167 19.5 51.5 36.5s12.5 36.167 12.5 57.5v1039c0 22.667 -4.16699 42.334 -12.5 59.001s-26.166 29.667 -53.499 39
c-9.33301 3.33301 -20.166 6.83301 -32.499 10.5s-25.333 7.16699 -39 10.5s-26.834 6 -39.501 8s-24 3.33301 -34 4v69h567v-69c-10 -0.666992 -21.5 -1.66699 -34.5 -3s-26.5 -3.16602 -40.5 -5.49902s-27.5 -5 -40.5 -8s-24.167 -5.83301 -33.5 -8.5
c-24.667 -7.33301 -41.5 -19.5 -50.5 -36.5s-13.5 -36.833 -13.5 -59.5v-1034c0 -22.667 4.5 -42.5 13.5 -59.5s25.833 -30.833 50.5 -41.5c9.33301 -3.33301 20.333 -6.5 33 -9.5s25.834 -5.5 39.501 -7.5s27.167 -3.5 40.5 -4.5s25.333 -1.83301 36 -2.5v-70h-567z
M250.997 1745c0 -28 -7.66699 -51.667 -23 -71s-37 -29 -65 -29s-49.667 9.66699 -65 29s-23 43 -23 71c0 28.667 7.66699 52.834 23 72.501s37 29.5 65 29.5s49.667 -9.83301 65 -29.5s23 -43.834 23 -72.501zM658.997 1745c0 -28 -7.66699 -51.667 -23 -71
s-37 -29 -65 -29s-49.667 9.66699 -65 29s-23 43 -23 71c0 28.667 7.66699 52.834 23 72.501s37 29.5 65 29.5s49.667 -9.83301 65 -29.5s23 -43.834 23 -72.501z" />
    <glyph glyph-name="Eth" unicode="&#xd0;" horiz-adv-x="1522" 
d="M1430 700c0 -80.667 -10.5029 -153.83 -31.5029 -219.497s-49.667 -124.5 -86 -176.5s-79.166 -97 -128.499 -135s-102.333 -69.5 -159 -94.5s-115.667 -43.667 -177 -56s-122 -18.5 -182 -18.5h-560v70c8.66699 -0.666992 19.334 -0.5 32.001 0.5s25.5 2.16699 38.5 3.5
s25.333 3 37 5s20.5 3.66699 26.5 5c20.667 9.33301 35 22.666 43 39.999s12 37.333 12 60v523h-182v96h182v414c0 22.667 -4 43 -12 61s-22.333 31.667 -43 41c-21.333 10 -42.666 17.667 -63.999 23s-40.333 8 -57 8v69h592c42 0 89 -4.5 141 -13.5
s104.5 -24.333 157.5 -46s104.833 -50.334 155.5 -86.001s95.5 -80.167 134.5 -133.5s70.5 -116.333 94.5 -189s36 -156.334 36 -251.001zM1262 702.004c0 94 -15.167 180.169 -45.5 258.502s-72.833 145.666 -127.5 201.999s-119.5 100.166 -194.5 131.499
s-157.5 47 -247.5 47c-12 0 -27.5 -0.166992 -46.5 -0.5l-58.5 -1l-58 -1c-18.667 -0.333008 -34 -0.833008 -46 -1.5v-534h299v-96h-299v-465c0 -32 5 -58.5 15 -79.5s25.667 -37.667 47 -50s48.5 -21.166 81.5 -26.499s72.5 -8 118.5 -8c94.667 0 177.167 15 247.5 45
s128.833 72.5 175.5 127.5s81.5 120.667 104.5 197s34.5 161.166 34.5 254.499z" />
    <glyph glyph-name="Ntilde" unicode="&#xd1;" horiz-adv-x="1602" 
d="M1512.5 1347.5c-17 -1.66699 -33.665 -3.99902 -49.998 -6.99902s-31.333 -6.33301 -45 -10s-23.167 -7.5 -28.5 -11.5c-12.667 -8 -22.834 -20 -30.501 -36s-13.5 -35.5 -17.5 -58.5s-6.66699 -49.333 -8 -79s-2 -62.5 -2 -98.5v-1063h-41l-909 1192v-777
c0 -42 1.16699 -78.5 3.5 -109.5s6 -57.667 11 -80s11.167 -41.166 18.5 -56.499s16 -28 26 -38c6.66699 -6.66699 17 -12.834 31 -18.501s30 -10.5 48 -14.5s37.333 -7 58 -9s40.667 -3 60 -3v-70h-571v70c8 0 19.833 0.833008 35.5 2.5s32.167 4 49.5 7s33.833 7 49.5 12
s27.5 10.833 35.5 17.5c10 8.66699 18.667 20 26 34s13.5 32 18.5 54s8.66699 48.333 11 79s3.5 67.667 3.5 111v727c0 35.333 -5.66699 66.833 -17 94.5s-24.666 48.167 -39.999 61.5c-13.333 11.333 -29.333 21.833 -48 31.5s-37.834 18.167 -57.501 25.5
s-38.334 13.166 -56.001 17.499s-31.5 6.83301 -41.5 7.5v67h340l870 -1140v755c0 79.333 -4 142 -12 188s-22.333 76.333 -43 91c-8.66699 6 -22 11.333 -40 16s-37 8.5 -57 11.5s-39 5.33301 -57 7s-31.667 2.5 -41 2.5v69h561v-69c-12 0 -26.5 -0.833008 -43.5 -2.5z
M1118 1753c-14 -25.333 -30.501 -48.002 -49.501 -68.002s-40.833 -36.167 -65.5 -48.5s-52.334 -18.5 -83.001 -18.5c-33.333 0 -62.166 5.16699 -86.499 15.5s-46.833 21.666 -67.5 33.999s-40.834 23.666 -60.501 33.999s-41.167 15.5 -64.5 15.5
c-15.333 0 -28.833 -2.5 -40.5 -7.5s-22.667 -12.833 -33 -23.5s-20.666 -24 -30.999 -40s-21.833 -35.333 -34.5 -58l-53 22c11.333 24.667 23.833 49.834 37.5 75.501s29.5 48.834 47.5 69.501s38.667 37.5 62 50.5s50 19.5 80 19.5c31.333 0 59 -5.16699 83 -15.5
s46.333 -21.833 67 -34.5s40.334 -24.167 59.001 -34.5s38.334 -15.5 59.001 -15.5c18.667 0 35 2.33301 49 7s27 12.334 39 23.001s23.167 24.334 33.5 41.001s21.166 36.667 32.499 60l55 -25c-9.33301 -26.667 -21 -52.667 -35 -78z" />
    <glyph glyph-name="Ograve" unicode="&#xd2;" horiz-adv-x="1509" 
d="M1425 705c0 -79.333 -9.16797 -152.829 -27.501 -220.496s-43.333 -128.834 -75 -183.501s-68.834 -102.834 -111.501 -144.501s-88.667 -76.5 -138 -104.5s-100.833 -49.167 -154.5 -63.5s-107.167 -21.5 -160.5 -21.5c-101.333 0 -193.5 19.167 -276.5 57.5
s-154 91 -213 158s-104.5 146.167 -136.5 237.5s-48 189.666 -48 294.999c0 74 8.33301 143.667 25 209s40 125.166 70 179.499s65.667 103 107 146s86.833 79.333 136.5 109s102.5 52.334 158.5 68.001s113.667 23.5 173 23.5c62 0 121.833 -8 179.5 -24
s111.334 -39.167 161.001 -69.5s94.834 -67.333 135.501 -111s75.5 -93.167 104.5 -148.5s51.333 -115.833 67 -181.5s23.5 -135.834 23.5 -210.501zM1262 707.004c0 106.667 -11.9951 200.999 -35.9951 282.999s-58.167 150.833 -102.5 206.5
s-97.833 97.834 -160.5 126.501s-132.334 43 -209.001 43c-64 0 -120.833 -9.33301 -170.5 -28s-93.334 -44 -131.001 -76s-69.5 -69.5 -95.5 -112.5s-47 -88.833 -63 -137.5s-27.667 -98.667 -35 -150s-11 -101.666 -11 -150.999c0 -94 10.667 -181 32 -261
s53.166 -149.5 95.499 -208.5s95.166 -105.167 158.499 -138.5s136.666 -50 219.999 -50c85.333 0 159.833 17 223.5 51s116.5 80.5 158.5 139.5s73.5 128.167 94.5 207.5s31.5 164.666 31.5 255.999zM537.004 1686c-12.667 7.33301 -24.332 14.498 -34.999 21.498
s-20 14.833 -28 23.5s-14.167 18.334 -18.5 29.001s-6.5 23.334 -6.5 38.001c0 19.333 6.16699 35.833 18.5 49.5s27.166 20.5 44.499 20.5s33 -4.5 47 -13.5s31 -23.833 51 -44.5l56 -55.5l59.5 -59l67.5 -65l78 -74.5l-29 -38z" />
    <glyph glyph-name="Oacute" unicode="&#xd3;" horiz-adv-x="1509" 
d="M1425 705c0 -79.333 -9.16797 -152.829 -27.501 -220.496s-43.333 -128.834 -75 -183.501s-68.834 -102.834 -111.501 -144.501s-88.667 -76.5 -138 -104.5s-100.833 -49.167 -154.5 -63.5s-107.167 -21.5 -160.5 -21.5c-101.333 0 -193.5 19.167 -276.5 57.5
s-154 91 -213 158s-104.5 146.167 -136.5 237.5s-48 189.666 -48 294.999c0 74 8.33301 143.667 25 209s40 125.166 70 179.499s65.667 103 107 146s86.833 79.333 136.5 109s102.5 52.334 158.5 68.001s113.667 23.5 173 23.5c62 0 121.833 -8 179.5 -24
s111.334 -39.167 161.001 -69.5s94.834 -67.333 135.501 -111s75.5 -93.167 104.5 -148.5s51.333 -115.833 67 -181.5s23.5 -135.834 23.5 -210.501zM1262 707.004c0 106.667 -11.9951 200.999 -35.9951 282.999s-58.167 150.833 -102.5 206.5
s-97.833 97.834 -160.5 126.501s-132.334 43 -209.001 43c-64 0 -120.833 -9.33301 -170.5 -28s-93.334 -44 -131.001 -76s-69.5 -69.5 -95.5 -112.5s-47 -88.833 -63 -137.5s-27.667 -98.667 -35 -150s-11 -101.666 -11 -150.999c0 -94 10.667 -181 32 -261
s53.166 -149.5 95.499 -208.5s95.166 -105.167 158.499 -138.5s136.666 -50 219.999 -50c85.333 0 159.833 17 223.5 51s116.5 80.5 158.5 139.5s73.5 128.167 94.5 207.5s31.5 164.666 31.5 255.999zM639.004 1518l-28.998 38.002l78 74.5l67.5 65l59.5 59l56 55.5
c20 20.667 37 35.5 51 44.5s29.667 13.5 47 13.5s32.166 -6.83301 44.499 -20.5s18.5 -30.167 18.5 -49.5c0 -14.667 -2.16699 -27.334 -6.5 -38.001s-10.5 -20.334 -18.5 -29.001s-17.333 -16.5 -28 -23.5s-22.334 -14.167 -35.001 -21.5z" />
    <glyph glyph-name="Ocircumflex" unicode="&#xd4;" horiz-adv-x="1509" 
d="M1425 705c0 -79.333 -9.16797 -152.829 -27.501 -220.496s-43.333 -128.834 -75 -183.501s-68.834 -102.834 -111.501 -144.501s-88.667 -76.5 -138 -104.5s-100.833 -49.167 -154.5 -63.5s-107.167 -21.5 -160.5 -21.5c-101.333 0 -193.5 19.167 -276.5 57.5
s-154 91 -213 158s-104.5 146.167 -136.5 237.5s-48 189.666 -48 294.999c0 74 8.33301 143.667 25 209s40 125.166 70 179.499s65.667 103 107 146s86.833 79.333 136.5 109s102.5 52.334 158.5 68.001s113.667 23.5 173 23.5c62 0 121.833 -8 179.5 -24
s111.334 -39.167 161.001 -69.5s94.834 -67.333 135.501 -111s75.5 -93.167 104.5 -148.5s51.333 -115.833 67 -181.5s23.5 -135.834 23.5 -210.501zM1262 707.004c0 106.667 -11.9951 200.999 -35.9951 282.999s-58.167 150.833 -102.5 206.5
s-97.833 97.834 -160.5 126.501s-132.334 43 -209.001 43c-64 0 -120.833 -9.33301 -170.5 -28s-93.334 -44 -131.001 -76s-69.5 -69.5 -95.5 -112.5s-47 -88.833 -63 -137.5s-27.667 -98.667 -35 -150s-11 -101.666 -11 -150.999c0 -94 10.667 -181 32 -261
s53.166 -149.5 95.499 -208.5s95.166 -105.167 158.499 -138.5s136.666 -50 219.999 -50c85.333 0 159.833 17 223.5 51s116.5 80.5 158.5 139.5s73.5 128.167 94.5 207.5s31.5 164.666 31.5 255.999zM1055 1552l-44.9971 -32l-258 200l-254 -200l-45 32l217 263l17 19.5
c5.33301 6.33301 11.166 12 17.499 17s13.666 9 21.999 12s18.166 4.5 29.499 4.5s21 -1.5 29 -4.5s15 -6.66699 21 -11s11.5 -9.5 16.5 -15.5l15.5 -18z" />
    <glyph glyph-name="Otilde" unicode="&#xd5;" horiz-adv-x="1509" 
d="M1425 705c0 -79.333 -9.16797 -152.829 -27.501 -220.496s-43.333 -128.834 -75 -183.501s-68.834 -102.834 -111.501 -144.501s-88.667 -76.5 -138 -104.5s-100.833 -49.167 -154.5 -63.5s-107.167 -21.5 -160.5 -21.5c-101.333 0 -193.5 19.167 -276.5 57.5
s-154 91 -213 158s-104.5 146.167 -136.5 237.5s-48 189.666 -48 294.999c0 74 8.33301 143.667 25 209s40 125.166 70 179.499s65.667 103 107 146s86.833 79.333 136.5 109s102.5 52.334 158.5 68.001s113.667 23.5 173 23.5c62 0 121.833 -8 179.5 -24
s111.334 -39.167 161.001 -69.5s94.834 -67.333 135.501 -111s75.5 -93.167 104.5 -148.5s51.333 -115.833 67 -181.5s23.5 -135.834 23.5 -210.501zM1262 707.004c0 106.667 -11.9951 200.999 -35.9951 282.999s-58.167 150.833 -102.5 206.5
s-97.833 97.834 -160.5 126.501s-132.334 43 -209.001 43c-64 0 -120.833 -9.33301 -170.5 -28s-93.334 -44 -131.001 -76s-69.5 -69.5 -95.5 -112.5s-47 -88.833 -63 -137.5s-27.667 -98.667 -35 -150s-11 -101.666 -11 -150.999c0 -94 10.667 -181 32 -261
s53.166 -149.5 95.499 -208.5s95.166 -105.167 158.499 -138.5s136.666 -50 219.999 -50c85.333 0 159.833 17 223.5 51s116.5 80.5 158.5 139.5s73.5 128.167 94.5 207.5s31.5 164.666 31.5 255.999zM1071 1753c-14 -25.333 -30.501 -48.002 -49.501 -68.002
s-40.833 -36.167 -65.5 -48.5s-52.334 -18.5 -83.001 -18.5c-33.333 0 -62.166 5.16699 -86.499 15.5s-46.833 21.666 -67.5 33.999s-40.834 23.666 -60.501 33.999s-41.167 15.5 -64.5 15.5c-15.333 0 -28.833 -2.5 -40.5 -7.5s-22.667 -12.833 -33 -23.5
s-20.666 -24 -30.999 -40s-21.833 -35.333 -34.5 -58l-53 22c11.333 24.667 23.833 49.834 37.5 75.501s29.5 48.834 47.5 69.501s38.667 37.5 62 50.5s50 19.5 80 19.5c31.333 0 59 -5.16699 83 -15.5s46.333 -21.833 67 -34.5s40.334 -24.167 59.001 -34.5
s38.334 -15.5 59.001 -15.5c18.667 0 35 2.33301 49 7s27 12.334 39 23.001s23.167 24.334 33.5 41.001s21.166 36.667 32.499 60l55 -25c-9.33301 -26.667 -21 -52.667 -35 -78z" />
    <glyph glyph-name="Odieresis" unicode="&#xd6;" horiz-adv-x="1509" 
d="M1425 705c0 -79.333 -9.16797 -152.829 -27.501 -220.496s-43.333 -128.834 -75 -183.501s-68.834 -102.834 -111.501 -144.501s-88.667 -76.5 -138 -104.5s-100.833 -49.167 -154.5 -63.5s-107.167 -21.5 -160.5 -21.5c-101.333 0 -193.5 19.167 -276.5 57.5
s-154 91 -213 158s-104.5 146.167 -136.5 237.5s-48 189.666 -48 294.999c0 74 8.33301 143.667 25 209s40 125.166 70 179.499s65.667 103 107 146s86.833 79.333 136.5 109s102.5 52.334 158.5 68.001s113.667 23.5 173 23.5c62 0 121.833 -8 179.5 -24
s111.334 -39.167 161.001 -69.5s94.834 -67.333 135.501 -111s75.5 -93.167 104.5 -148.5s51.333 -115.833 67 -181.5s23.5 -135.834 23.5 -210.501zM1262 707.004c0 106.667 -11.9951 200.999 -35.9951 282.999s-58.167 150.833 -102.5 206.5
s-97.833 97.834 -160.5 126.501s-132.334 43 -209.001 43c-64 0 -120.833 -9.33301 -170.5 -28s-93.334 -44 -131.001 -76s-69.5 -69.5 -95.5 -112.5s-47 -88.833 -63 -137.5s-27.667 -98.667 -35 -150s-11 -101.666 -11 -150.999c0 -94 10.667 -181 32 -261
s53.166 -149.5 95.499 -208.5s95.166 -105.167 158.499 -138.5s136.666 -50 219.999 -50c85.333 0 159.833 17 223.5 51s116.5 80.5 158.5 139.5s73.5 128.167 94.5 207.5s31.5 164.666 31.5 255.999zM633.004 1745c0 -28 -7.66699 -51.667 -23 -71s-37 -29 -65 -29
s-49.667 9.66699 -65 29s-23 43 -23 71c0 28.667 7.66699 52.834 23 72.501s37 29.5 65 29.5s49.667 -9.83301 65 -29.5s23 -43.834 23 -72.501zM1041 1745c0 -28 -7.66699 -51.667 -23 -71s-37 -29 -65 -29s-49.667 9.66699 -65 29s-23 43 -23 71
c0 28.667 7.66699 52.834 23 72.501s37 29.5 65 29.5s49.667 -9.83301 65 -29.5s23 -43.834 23 -72.501z" />
    <glyph glyph-name="multiply" unicode="&#xd7;" horiz-adv-x="1257" 
d="M979 127l-352 352l-348 -356l-76 78l352 350l-352 354l76 74l348 -352l352 352l76 -74l-355 -354l355 -350z" />
    <glyph glyph-name="Oslash" unicode="&#xd8;" horiz-adv-x="1509" 
d="M1425 705c0 -79.333 -9.16602 -152.83 -27.499 -220.497s-43.333 -128.834 -75 -183.501s-68.834 -102.834 -111.501 -144.501s-88.667 -76.5 -138 -104.5s-100.833 -49.167 -154.5 -63.5s-107.167 -21.5 -160.5 -21.5c-87.333 0 -167.333 14.167 -240 42.5
s-137.334 67.5 -194.001 117.5l-168 -207l-62 41l178 217c-60.667 68 -107.167 147.667 -139.5 239s-48.5 190.666 -48.5 297.999c0 74 8.33301 143.667 25 209s40 125.166 70 179.499s65.667 103 107 146s86.833 79.333 136.5 109s102.5 52.334 158.5 68.001
s113.667 23.5 173 23.5c80.667 0 157.334 -13.667 230.001 -41s138 -66.333 196 -117l137 168l61 -45l-143 -176c58.667 -64.667 105 -142 139 -232s51 -190.667 51 -302zM1262 707.003c0 91.333 -9 173.5 -27 246.5s-44 136.833 -78 191.5l-762 -930
c42 -51.333 93 -91.166 153 -119.499s128.667 -42.5 206 -42.5c85.333 0 159.833 17 223.5 51s116.5 80.5 158.5 139.5s73.5 128.167 94.5 207.5s31.5 164.666 31.5 255.999zM248.001 711.003c0 -85.333 8.66797 -164.668 26.001 -238.001s43.333 -139 78 -197l760 932
c-44 52.667 -96.167 92.167 -156.5 118.5s-127.5 39.5 -201.5 39.5c-64 0 -120.833 -9.33301 -170.5 -28s-93.334 -44 -131.001 -76s-69.5 -69.5 -95.5 -112.5s-47 -88.833 -63 -137.5s-27.667 -98.667 -35 -150s-11 -101.666 -11 -150.999z" />
    <glyph glyph-name="Ugrave" unicode="&#xd9;" horiz-adv-x="1554" 
d="M1477.5 1347c-15 -2 -30.835 -4.83203 -47.502 -8.49902s-32.667 -8 -48 -13s-27.333 -10.5 -36 -16.5c-13.333 -8 -23.833 -21.5 -31.5 -40.5s-13.5 -40.667 -17.5 -65s-6.5 -50.5 -7.5 -78.5s-1.5 -55 -1.5 -81v-659c0 -58 -11 -112.5 -33 -163.5
s-54.5 -95.333 -97.5 -133s-96.333 -67.334 -160 -89.001s-137.5 -32.5 -221.5 -32.5c-86 0 -161 11.5 -225 34.5s-117 53.167 -159 90.5s-73.5 80.166 -94.5 128.499s-31.5 97.833 -31.5 148.5v845c0 23.333 -4 43.166 -12 59.499s-21.667 30.833 -41 43.5
c-8 4.66699 -18.167 8.83398 -30.5 12.501s-24.833 7 -37.5 10s-24.667 5.33301 -36 7s-20.333 2.83398 -27 3.50098v69h518v-69c-8 -0.666992 -18 -1.66699 -30 -3s-24.5 -3.16602 -37.5 -5.49902s-25.5 -5 -37.5 -8s-22 -5.83301 -30 -8.5c-21.333 -8 -35.5 -21 -42.5 -39
s-10.5 -38.333 -10.5 -61v-817c0 -12.667 0.833008 -30 2.5 -52s6.16699 -45.5 13.5 -70.5s18.833 -50.333 34.5 -76s37.334 -48.834 65.001 -69.501s62.5 -37.5 104.5 -50.5s93.333 -19.5 154 -19.5c72 0 134.167 7.83301 186.5 23.5s95.5 37.834 129.5 66.501
s59.167 63 75.5 103s24.5 84.667 24.5 134v635c0 34 -1.33301 66 -4 96s-6.66699 56.5 -12 79.5s-11.666 42.333 -18.999 58s-16 26.5 -26 32.5c-12 8 -26.667 15.333 -44 22s-35 12.167 -53 16.5s-35.333 7.66602 -52 9.99902s-30.667 3.5 -42 3.5v69h563v-69
c-8.66699 0 -20.5 -1 -35.5 -3zM558.998 1686c-12.667 7.33301 -24.332 14.498 -34.999 21.498s-20 14.833 -28 23.5s-14.167 18.334 -18.5 29.001s-6.5 23.334 -6.5 38.001c0 19.333 6.16699 35.833 18.5 49.5s27.166 20.5 44.499 20.5s33 -4.5 47 -13.5
s31 -23.833 51 -44.5l56 -55.5l59.5 -59l67.5 -65l78 -74.5l-29 -38z" />
    <glyph glyph-name="Uacute" unicode="&#xda;" horiz-adv-x="1554" 
d="M1477.5 1347c-15 -2 -30.835 -4.83203 -47.502 -8.49902s-32.667 -8 -48 -13s-27.333 -10.5 -36 -16.5c-13.333 -8 -23.833 -21.5 -31.5 -40.5s-13.5 -40.667 -17.5 -65s-6.5 -50.5 -7.5 -78.5s-1.5 -55 -1.5 -81v-659c0 -58 -11 -112.5 -33 -163.5
s-54.5 -95.333 -97.5 -133s-96.333 -67.334 -160 -89.001s-137.5 -32.5 -221.5 -32.5c-86 0 -161 11.5 -225 34.5s-117 53.167 -159 90.5s-73.5 80.166 -94.5 128.499s-31.5 97.833 -31.5 148.5v845c0 23.333 -4 43.166 -12 59.499s-21.667 30.833 -41 43.5
c-8 4.66699 -18.167 8.83398 -30.5 12.501s-24.833 7 -37.5 10s-24.667 5.33301 -36 7s-20.333 2.83398 -27 3.50098v69h518v-69c-8 -0.666992 -18 -1.66699 -30 -3s-24.5 -3.16602 -37.5 -5.49902s-25.5 -5 -37.5 -8s-22 -5.83301 -30 -8.5c-21.333 -8 -35.5 -21 -42.5 -39
s-10.5 -38.333 -10.5 -61v-817c0 -12.667 0.833008 -30 2.5 -52s6.16699 -45.5 13.5 -70.5s18.833 -50.333 34.5 -76s37.334 -48.834 65.001 -69.501s62.5 -37.5 104.5 -50.5s93.333 -19.5 154 -19.5c72 0 134.167 7.83301 186.5 23.5s95.5 37.834 129.5 66.501
s59.167 63 75.5 103s24.5 84.667 24.5 134v635c0 34 -1.33301 66 -4 96s-6.66699 56.5 -12 79.5s-11.666 42.333 -18.999 58s-16 26.5 -26 32.5c-12 8 -26.667 15.333 -44 22s-35 12.167 -53 16.5s-35.333 7.66602 -52 9.99902s-30.667 3.5 -42 3.5v69h563v-69
c-8.66699 0 -20.5 -1 -35.5 -3zM730.998 1518l-28.998 38.002l78 74.5l67.5 65l59.5 59l56 55.5c20 20.667 37 35.5 51 44.5s29.667 13.5 47 13.5s32.166 -6.83301 44.499 -20.5s18.5 -30.167 18.5 -49.5c0 -14.667 -2.16699 -27.334 -6.5 -38.001
s-10.5 -20.334 -18.5 -29.001s-17.333 -16.5 -28 -23.5s-22.334 -14.167 -35.001 -21.5z" />
    <glyph glyph-name="Ucircumflex" unicode="&#xdb;" horiz-adv-x="1554" 
d="M1477.5 1347c-15 -2 -30.835 -4.83203 -47.502 -8.49902s-32.667 -8 -48 -13s-27.333 -10.5 -36 -16.5c-13.333 -8 -23.833 -21.5 -31.5 -40.5s-13.5 -40.667 -17.5 -65s-6.5 -50.5 -7.5 -78.5s-1.5 -55 -1.5 -81v-659c0 -58 -11 -112.5 -33 -163.5
s-54.5 -95.333 -97.5 -133s-96.333 -67.334 -160 -89.001s-137.5 -32.5 -221.5 -32.5c-86 0 -161 11.5 -225 34.5s-117 53.167 -159 90.5s-73.5 80.166 -94.5 128.499s-31.5 97.833 -31.5 148.5v845c0 23.333 -4 43.166 -12 59.499s-21.667 30.833 -41 43.5
c-8 4.66699 -18.167 8.83398 -30.5 12.501s-24.833 7 -37.5 10s-24.667 5.33301 -36 7s-20.333 2.83398 -27 3.50098v69h518v-69c-8 -0.666992 -18 -1.66699 -30 -3s-24.5 -3.16602 -37.5 -5.49902s-25.5 -5 -37.5 -8s-22 -5.83301 -30 -8.5c-21.333 -8 -35.5 -21 -42.5 -39
s-10.5 -38.333 -10.5 -61v-817c0 -12.667 0.833008 -30 2.5 -52s6.16699 -45.5 13.5 -70.5s18.833 -50.333 34.5 -76s37.334 -48.834 65.001 -69.501s62.5 -37.5 104.5 -50.5s93.333 -19.5 154 -19.5c72 0 134.167 7.83301 186.5 23.5s95.5 37.834 129.5 66.501
s59.167 63 75.5 103s24.5 84.667 24.5 134v635c0 34 -1.33301 66 -4 96s-6.66699 56.5 -12 79.5s-11.666 42.333 -18.999 58s-16 26.5 -26 32.5c-12 8 -26.667 15.333 -44 22s-35 12.167 -53 16.5s-35.333 7.66602 -52 9.99902s-30.667 3.5 -42 3.5v69h563v-69
c-8.66699 0 -20.5 -1 -35.5 -3zM1079 1552l-44.9971 -32l-258 200l-254 -200l-45 32l217 263l17 19.5c5.33301 6.33301 11.166 12 17.499 17s13.666 9 21.999 12s18.166 4.5 29.499 4.5s21 -1.5 29 -4.5s15 -6.66699 21 -11s11.5 -9.5 16.5 -15.5l15.5 -18z" />
    <glyph glyph-name="Udieresis" unicode="&#xdc;" horiz-adv-x="1554" 
d="M1477.5 1347c-15 -2 -30.835 -4.83203 -47.502 -8.49902s-32.667 -8 -48 -13s-27.333 -10.5 -36 -16.5c-13.333 -8 -23.833 -21.5 -31.5 -40.5s-13.5 -40.667 -17.5 -65s-6.5 -50.5 -7.5 -78.5s-1.5 -55 -1.5 -81v-659c0 -58 -11 -112.5 -33 -163.5
s-54.5 -95.333 -97.5 -133s-96.333 -67.334 -160 -89.001s-137.5 -32.5 -221.5 -32.5c-86 0 -161 11.5 -225 34.5s-117 53.167 -159 90.5s-73.5 80.166 -94.5 128.499s-31.5 97.833 -31.5 148.5v845c0 23.333 -4 43.166 -12 59.499s-21.667 30.833 -41 43.5
c-8 4.66699 -18.167 8.83398 -30.5 12.501s-24.833 7 -37.5 10s-24.667 5.33301 -36 7s-20.333 2.83398 -27 3.50098v69h518v-69c-8 -0.666992 -18 -1.66699 -30 -3s-24.5 -3.16602 -37.5 -5.49902s-25.5 -5 -37.5 -8s-22 -5.83301 -30 -8.5c-21.333 -8 -35.5 -21 -42.5 -39
s-10.5 -38.333 -10.5 -61v-817c0 -12.667 0.833008 -30 2.5 -52s6.16699 -45.5 13.5 -70.5s18.833 -50.333 34.5 -76s37.334 -48.834 65.001 -69.501s62.5 -37.5 104.5 -50.5s93.333 -19.5 154 -19.5c72 0 134.167 7.83301 186.5 23.5s95.5 37.834 129.5 66.501
s59.167 63 75.5 103s24.5 84.667 24.5 134v635c0 34 -1.33301 66 -4 96s-6.66699 56.5 -12 79.5s-11.666 42.333 -18.999 58s-16 26.5 -26 32.5c-12 8 -26.667 15.333 -44 22s-35 12.167 -53 16.5s-35.333 7.66602 -52 9.99902s-30.667 3.5 -42 3.5v69h563v-69
c-8.66699 0 -20.5 -1 -35.5 -3zM654.998 1745c0 -28 -7.66699 -51.667 -23 -71s-37 -29 -65 -29s-49.667 9.66699 -65 29s-23 43 -23 71c0 28.667 7.66699 52.834 23 72.501s37 29.5 65 29.5s49.667 -9.83301 65 -29.5s23 -43.834 23 -72.501zM1063 1745
c0 -28 -7.66699 -51.667 -23 -71s-37 -29 -65 -29s-49.667 9.66699 -65 29s-23 43 -23 71c0 28.667 7.66699 52.834 23 72.501s37 29.5 65 29.5s49.667 -9.83301 65 -29.5s23 -43.834 23 -72.501z" />
    <glyph glyph-name="Yacute" unicode="&#xdd;" horiz-adv-x="1219" 
d="M1237.5 1347.5l-26.5029 -6.00293c-10 -2.33301 -20.167 -5.33301 -30.5 -9s-19.5 -7.5 -27.5 -11.5c-13.333 -7.33301 -25.5 -16.5 -36.5 -27.5s-22.833 -25.167 -35.5 -42.5c-60.667 -83.333 -120.167 -172.166 -178.5 -266.499l-177.5 -296.5
c-10 -16 -18.333 -30.833 -25 -44.5s-12 -26.5 -16 -38.5s-7 -24 -9 -36s-3 -24.333 -3 -37v-327c0 -49.333 19 -83.666 57 -102.999c8 -3.33301 19.167 -6.83301 33.5 -10.5s29.666 -7 45.999 -10s33 -5.5 50 -7.5s31.833 -3.33301 44.5 -4v-70h-600v70
c9.33301 0.666992 21.833 1.5 37.5 2.5s31.834 2.33301 48.501 4s32.834 3.83398 48.501 6.50098s28.167 5.66699 37.5 9c20.667 7.33301 34.667 20.333 42 39s11 40 11 64v327c0 26.667 -6.5 53.334 -19.5 80.001s-26.833 53.334 -41.5 80.001l-69.5 128l-76 137.5
l-75.5 130l-66 106.5l-32.5 47.5c-9.66699 13.667 -18.667 25.5 -27 35.5s-16.833 19 -25.5 27s-18.334 15.667 -29.001 23c-15.333 10 -32.166 17.667 -50.499 23s-35.166 8.66602 -50.499 9.99902v69h488v-69c-16 -1.33301 -33 -2.16602 -51 -2.49902
s-34.667 -1.83301 -50 -4.5s-28 -6.83398 -38 -12.501s-15 -14.167 -15 -25.5c0 -4.66699 4.83301 -17.5 14.5 -38.5s22.834 -47.5 39.501 -79.5l58 -108.5l70.5 -126.5l76.5 -134l77 -130l73.5 121.5l76 126.5l71.5 121.5l59.5 105.5c17 31.333 30.5 58 40.5 80
s15 37 15 45c0 13.333 -5.16699 23.666 -15.5 30.999s-23.666 13 -39.999 17s-34.5 6.83301 -54.5 8.5s-39.333 3.5 -58 5.5v69h450v-69c-2.66699 0 -7.83398 -0.833008 -15.501 -2.5zM507.997 1518l-28.998 38.002l78 74.5l67.5 65l59.5 59l56 55.5
c20 20.667 37 35.5 51 44.5s29.667 13.5 47 13.5s32.166 -6.83301 44.499 -20.5s18.5 -30.167 18.5 -49.5c0 -14.667 -2.16699 -27.334 -6.5 -38.001s-10.5 -20.334 -18.5 -29.001s-17.333 -16.5 -28 -23.5s-22.334 -14.167 -35.001 -21.5z" />
    <glyph glyph-name="Thorn" unicode="&#xde;" horiz-adv-x="1225" 
d="M1141 745c0 -69.333 -12.9961 -130.17 -38.9961 -182.503s-61.333 -96.166 -106 -131.499s-97 -62 -157 -80s-124 -27 -192 -27h-209v-140c0 -10.667 0.833008 -21.334 2.5 -32.001s4.5 -20.667 8.5 -30s9.5 -17.5 16.5 -24.5s15.833 -12.167 26.5 -15.5
c5.33301 -2 14 -3.66699 26 -5s25.167 -2.5 39.5 -3.5s29.166 -1.66699 44.499 -2s29 -0.833008 41 -1.5v-70h-530v70c7.33301 0.666992 17.166 1.5 29.499 2.5s25 2.33301 38 4s25.5 3.5 37.5 5.5s22 4.66699 30 8c16.667 6 28.667 18.167 36 36.5s11 38.833 11 61.5v1037
c0 22.667 -3.83301 42 -11.5 58s-22.167 28.667 -43.5 38c-7.33301 3.33301 -16.833 6.66602 -28.5 9.99902s-23.834 6.33301 -36.501 9s-25 4.83398 -37 6.50098s-21.667 2.83398 -29 3.50098v69h516v-69c-9.33301 0 -19.833 -0.333008 -31.5 -1s-23.5 -1.66699 -35.5 -3
s-23.833 -3 -35.5 -5s-21.834 -4.66699 -30.501 -8c-24 -7.33301 -39 -19.5 -45 -36.5s-9 -36.833 -9 -59.5v-111h293c48 0 96.5 -8.16699 145.5 -24.5s93 -40.666 132 -72.999s70.833 -72.166 95.5 -119.499s37 -102 37 -164zM971.004 720.996c0 34 -5 70.334 -15 109.001
s-27 74.167 -51 106.5s-56.167 59.166 -96.5 80.499s-90.833 32 -151.5 32h-219v-641h199c59.333 0 110 8.5 152 25.5s76.5 39.667 103.5 68s46.833 61.5 59.5 99.5s19 78 19 120z" />
    <glyph glyph-name="germandbls" unicode="&#xdf;" horiz-adv-x="1063" 
d="M993 498c0 -73.333 -10.667 -141.004 -32 -203.004s-51.333 -115.667 -90 -161s-84.834 -80.666 -138.501 -105.999s-112.834 -38 -177.501 -38c-29.333 0 -52.166 0.5 -68.499 1.5s-33.166 3.16699 -50.499 6.5v80c21.333 -5.33301 42.5 -8.66602 63.5 -9.99902
s38.833 -2 53.5 -2c58 0 106.5 11.333 145.5 34s70.167 53.834 93.5 93.501s39.833 86 49.5 139s14.5 110.167 14.5 171.5c0 58 -8.16699 111 -24.5 159s-40 89.167 -71 123.5s-69 61 -114 80s-96.5 28.5 -154.5 28.5h-17v82h37c34 0 69 4.83301 105 14.5s68.833 25 98.5 46
s54 48 73 81s28.5 73.167 28.5 120.5c0 76.667 -19.833 135.834 -59.5 177.501s-93.5 62.5 -161.5 62.5c-42.667 0 -80.834 -8.66699 -114.501 -26s-62.334 -43.833 -86.001 -79.5s-41.834 -81 -54.501 -136s-19 -120.167 -19 -195.5v-1042h-252v61l47 7.5
c15.333 2.33301 30.333 6.16602 45 11.499c11.333 4 21.333 13.167 30 27.5s13 36.5 13 66.5v832c0 40.667 1.5 79.834 4.5 117.501s8.66699 73.667 17 108s20 67 35 98s34.167 60.167 57.5 87.5c40 48 84.5 82.167 133.5 102.5s99.5 30.5 151.5 30.5
c41.333 0 81.333 -5.66699 120 -17s72.834 -29.166 102.501 -53.499s53.334 -55.5 71.001 -93.5s26.5 -83.667 26.5 -137c0 -35.333 -5.5 -67.5 -16.5 -96.5s-25.5 -54.667 -43.5 -77s-38.333 -41.833 -61 -58.5s-46 -30.5 -70 -41.5s-47.333 -19.5 -70 -25.5
s-43 -9.33301 -61 -10v-6c54.667 -9.33301 105.834 -24.833 153.501 -46.5s89 -50.334 124 -86.001s62.667 -78.667 83 -129s30.5 -108.5 30.5 -174.5z" />
    <glyph glyph-name="agrave" unicode="&#xe0;" horiz-adv-x="983" 
d="M952 18c-22.667 -10 -45.165 -18.168 -67.498 -24.501s-42.833 -9.5 -61.5 -9.5c-41.333 0 -74.833 12.333 -100.5 37s-41.167 60.667 -46.5 108h-6c-46 -49.333 -95 -87 -147 -113s-112.333 -39 -181 -39c-39.333 0 -75.166 6.16699 -107.499 18.5s-60 29.5 -83 51.5
s-40.667 48.167 -53 78.5s-18.5 63.5 -18.5 99.5c0 40 6.16699 74.667 18.5 104s28.666 54.5 48.999 75.5s43.833 38.667 70.5 53s54.334 26.5 83.001 36.5c31.333 11.333 64.166 22.5 98.499 33.5l101.5 32.5l95 30c30 9.33301 56 18 78 26v93
c0 27.333 -2.83301 54.833 -8.5 82.5s-16 52.5 -31 74.5s-35.667 39.833 -62 53.5s-60.166 20.5 -101.499 20.5c-50 0 -91.167 -5.16699 -123.5 -15.5s-58.166 -22.166 -77.499 -35.499c0 -16.667 2.16699 -34.5 6.5 -53.5s6.5 -40.167 6.5 -63.5
c0 -24.667 -8 -43.167 -24 -55.5s-34.667 -18.5 -56 -18.5c-20.667 0 -38.167 7.66699 -52.5 23s-21.5 36.333 -21.5 63c0 30.667 8.83301 59.667 26.5 87s42 51.333 73 72s67.333 37 109 49s86.167 18 133.5 18c45.333 0 87.666 -4.33301 126.999 -13
s73.5 -24.834 102.5 -48.501s51.667 -56.334 68 -98.001s24.5 -95.834 24.5 -162.501c0 -51.333 -0.333008 -95.333 -1 -132s-1.5 -72.5 -2.5 -107.5s-1.83301 -71.833 -2.5 -110.5s-1 -85.667 -1 -141c0 -27.333 3 -48.666 9 -63.999s16.667 -28.333 32 -39
c8 -4 17.167 -7.16699 27.5 -9.5s21.166 -4.16602 32.499 -5.49902s22.666 -2.16602 33.999 -2.49902s21.666 -0.5 30.999 -0.5v-58zM674.002 550.999c-88.667 -22 -162.832 -43 -222.499 -63s-107.667 -41.667 -144 -65s-62.166 -49.333 -77.499 -78s-23 -63 -23 -103
c0 -54 14.667 -96.5 44 -127.5s73.333 -46.5 132 -46.5c32 0 60.833 3.16699 86.5 9.5s49.667 15.333 72 27s43.666 25.667 63.999 42s41.166 34.5 62.499 54.5zM539.004 1114l-90.999 86l-69 65l-53 50l-43 41c-22.667 19.333 -38.834 38 -48.501 56s-14.5 36 -14.5 54
c0 17.333 5.33301 33 16 47s25.667 21 45 21c10 0 19 -1.33301 27 -4s16 -7 24 -13s16.167 -14.333 24.5 -25s17.5 -24 27.5 -40l36.5 -57.5l41.5 -67l51 -81.5l65 -101z" />
    <glyph glyph-name="aacute" unicode="&#xe1;" horiz-adv-x="983" 
d="M952 18c-22.667 -10 -45.165 -18.168 -67.498 -24.501s-42.833 -9.5 -61.5 -9.5c-41.333 0 -74.833 12.333 -100.5 37s-41.167 60.667 -46.5 108h-6c-46 -49.333 -95 -87 -147 -113s-112.333 -39 -181 -39c-39.333 0 -75.166 6.16699 -107.499 18.5s-60 29.5 -83 51.5
s-40.667 48.167 -53 78.5s-18.5 63.5 -18.5 99.5c0 40 6.16699 74.667 18.5 104s28.666 54.5 48.999 75.5s43.833 38.667 70.5 53s54.334 26.5 83.001 36.5c31.333 11.333 64.166 22.5 98.499 33.5l101.5 32.5l95 30c30 9.33301 56 18 78 26v93
c0 27.333 -2.83301 54.833 -8.5 82.5s-16 52.5 -31 74.5s-35.667 39.833 -62 53.5s-60.166 20.5 -101.499 20.5c-50 0 -91.167 -5.16699 -123.5 -15.5s-58.166 -22.166 -77.499 -35.499c0 -16.667 2.16699 -34.5 6.5 -53.5s6.5 -40.167 6.5 -63.5
c0 -24.667 -8 -43.167 -24 -55.5s-34.667 -18.5 -56 -18.5c-20.667 0 -38.167 7.66699 -52.5 23s-21.5 36.333 -21.5 63c0 30.667 8.83301 59.667 26.5 87s42 51.333 73 72s67.333 37 109 49s86.167 18 133.5 18c45.333 0 87.666 -4.33301 126.999 -13
s73.5 -24.834 102.5 -48.501s51.667 -56.334 68 -98.001s24.5 -95.834 24.5 -162.501c0 -51.333 -0.333008 -95.333 -1 -132s-1.5 -72.5 -2.5 -107.5s-1.83301 -71.833 -2.5 -110.5s-1 -85.667 -1 -141c0 -27.333 3 -48.666 9 -63.999s16.667 -28.333 32 -39
c8 -4 17.167 -7.16699 27.5 -9.5s21.166 -4.16602 32.499 -5.49902s22.666 -2.16602 33.999 -2.49902s21.666 -0.5 30.999 -0.5v-58zM674.002 550.999c-88.667 -22 -162.832 -43 -222.499 -63s-107.667 -41.667 -144 -65s-62.166 -49.333 -77.499 -78s-23 -63 -23 -103
c0 -54 14.667 -96.5 44 -127.5s73.333 -46.5 132 -46.5c32 0 60.833 3.16699 86.5 9.5s49.667 15.333 72 27s43.666 25.667 63.999 42s41.166 34.5 62.499 54.5zM684.004 1468c0 -20.667 -4.33496 -39.334 -13.002 -56.001s-24.667 -36.667 -48 -60l-44.5 -42.5l-55 -50.5
l-69.5 -63.5l-89 -81.5l-37 31l64.5 103.5l52 84l42 66.5l33.5 53c18.667 30 35.834 51.167 51.501 63.5s32.834 18.5 51.501 18.5c19.333 0 34.333 -6.66699 45 -20s16 -28.666 16 -45.999z" />
    <glyph glyph-name="acircumflex" unicode="&#xe2;" horiz-adv-x="983" 
d="M952 18c-22.667 -10 -45.165 -18.168 -67.498 -24.501s-42.833 -9.5 -61.5 -9.5c-41.333 0 -74.833 12.333 -100.5 37s-41.167 60.667 -46.5 108h-6c-46 -49.333 -95 -87 -147 -113s-112.333 -39 -181 -39c-39.333 0 -75.166 6.16699 -107.499 18.5s-60 29.5 -83 51.5
s-40.667 48.167 -53 78.5s-18.5 63.5 -18.5 99.5c0 40 6.16699 74.667 18.5 104s28.666 54.5 48.999 75.5s43.833 38.667 70.5 53s54.334 26.5 83.001 36.5c31.333 11.333 64.166 22.5 98.499 33.5l101.5 32.5l95 30c30 9.33301 56 18 78 26v93
c0 27.333 -2.83301 54.833 -8.5 82.5s-16 52.5 -31 74.5s-35.667 39.833 -62 53.5s-60.166 20.5 -101.499 20.5c-50 0 -91.167 -5.16699 -123.5 -15.5s-58.166 -22.166 -77.499 -35.499c0 -16.667 2.16699 -34.5 6.5 -53.5s6.5 -40.167 6.5 -63.5
c0 -24.667 -8 -43.167 -24 -55.5s-34.667 -18.5 -56 -18.5c-20.667 0 -38.167 7.66699 -52.5 23s-21.5 36.333 -21.5 63c0 30.667 8.83301 59.667 26.5 87s42 51.333 73 72s67.333 37 109 49s86.167 18 133.5 18c45.333 0 87.666 -4.33301 126.999 -13
s73.5 -24.834 102.5 -48.501s51.667 -56.334 68 -98.001s24.5 -95.834 24.5 -162.501c0 -51.333 -0.333008 -95.333 -1 -132s-1.5 -72.5 -2.5 -107.5s-1.83301 -71.833 -2.5 -110.5s-1 -85.667 -1 -141c0 -27.333 3 -48.666 9 -63.999s16.667 -28.333 32 -39
c8 -4 17.167 -7.16699 27.5 -9.5s21.166 -4.16602 32.499 -5.49902s22.666 -2.16602 33.999 -2.49902s21.666 -0.5 30.999 -0.5v-58zM674.002 550.999c-88.667 -22 -162.832 -43 -222.499 -63s-107.667 -41.667 -144 -65s-62.166 -49.333 -77.499 -78s-23 -63 -23 -103
c0 -54 14.667 -96.5 44 -127.5s73.333 -46.5 132 -46.5c32 0 60.833 3.16699 86.5 9.5s49.667 15.333 72 27s43.666 25.667 63.999 42s41.166 34.5 62.499 54.5zM769.004 1165l-45 -33l-258 262l-254 -262l-45 33l217 324c9.33301 14 20.333 26.333 33 37
s30.334 16 53.001 16s39.667 -4.83301 51 -14.5s21.666 -21.167 30.999 -34.5z" />
    <glyph glyph-name="atilde" unicode="&#xe3;" horiz-adv-x="983" 
d="M952 18c-22.667 -10 -45.165 -18.168 -67.498 -24.501s-42.833 -9.5 -61.5 -9.5c-41.333 0 -74.833 12.333 -100.5 37s-41.167 60.667 -46.5 108h-6c-46 -49.333 -95 -87 -147 -113s-112.333 -39 -181 -39c-39.333 0 -75.166 6.16699 -107.499 18.5s-60 29.5 -83 51.5
s-40.667 48.167 -53 78.5s-18.5 63.5 -18.5 99.5c0 40 6.16699 74.667 18.5 104s28.666 54.5 48.999 75.5s43.833 38.667 70.5 53s54.334 26.5 83.001 36.5c31.333 11.333 64.166 22.5 98.499 33.5l101.5 32.5l95 30c30 9.33301 56 18 78 26v93
c0 27.333 -2.83301 54.833 -8.5 82.5s-16 52.5 -31 74.5s-35.667 39.833 -62 53.5s-60.166 20.5 -101.499 20.5c-50 0 -91.167 -5.16699 -123.5 -15.5s-58.166 -22.166 -77.499 -35.499c0 -16.667 2.16699 -34.5 6.5 -53.5s6.5 -40.167 6.5 -63.5
c0 -24.667 -8 -43.167 -24 -55.5s-34.667 -18.5 -56 -18.5c-20.667 0 -38.167 7.66699 -52.5 23s-21.5 36.333 -21.5 63c0 30.667 8.83301 59.667 26.5 87s42 51.333 73 72s67.333 37 109 49s86.167 18 133.5 18c45.333 0 87.666 -4.33301 126.999 -13
s73.5 -24.834 102.5 -48.501s51.667 -56.334 68 -98.001s24.5 -95.834 24.5 -162.501c0 -51.333 -0.333008 -95.333 -1 -132s-1.5 -72.5 -2.5 -107.5s-1.83301 -71.833 -2.5 -110.5s-1 -85.667 -1 -141c0 -27.333 3 -48.666 9 -63.999s16.667 -28.333 32 -39
c8 -4 17.167 -7.16699 27.5 -9.5s21.166 -4.16602 32.499 -5.49902s22.666 -2.16602 33.999 -2.49902s21.666 -0.5 30.999 -0.5v-58zM674.002 550.999c-88.667 -22 -162.832 -43 -222.499 -63s-107.667 -41.667 -144 -65s-62.166 -49.333 -77.499 -78s-23 -63 -23 -103
c0 -54 14.667 -96.5 44 -127.5s73.333 -46.5 132 -46.5c32 0 60.833 3.16699 86.5 9.5s49.667 15.333 72 27s43.666 25.667 63.999 42s41.166 34.5 62.499 54.5zM783.004 1382c-14 -25.333 -30.501 -48.002 -49.501 -68.002s-40.833 -36.167 -65.5 -48.5
s-52.334 -18.5 -83.001 -18.5c-33.333 0 -62.166 5.16699 -86.499 15.5s-46.833 21.666 -67.5 33.999s-40.834 23.666 -60.501 33.999s-41.167 15.5 -64.5 15.5c-15.333 0 -28.833 -2.5 -40.5 -7.5s-22.667 -12.833 -33 -23.5s-20.666 -24 -30.999 -40
s-21.833 -35.333 -34.5 -58l-53 22c11.333 24.667 23.833 49.834 37.5 75.501s29.5 48.834 47.5 69.501s38.667 37.5 62 50.5s50 19.5 80 19.5c31.333 0 59 -5.16699 83 -15.5s46.333 -21.833 67 -34.5s40.334 -24.167 59.001 -34.5s38.334 -15.5 59.001 -15.5
c18.667 0 35 2.33301 49 7s27 12.334 39 23.001s23.167 24.334 33.5 41.001s21.166 36.667 32.499 60l55 -25c-9.33301 -26.667 -21 -52.667 -35 -78z" />
    <glyph glyph-name="adieresis" unicode="&#xe4;" horiz-adv-x="983" 
d="M952 18c-22.667 -10 -45.165 -18.168 -67.498 -24.501s-42.833 -9.5 -61.5 -9.5c-41.333 0 -74.833 12.333 -100.5 37s-41.167 60.667 -46.5 108h-6c-46 -49.333 -95 -87 -147 -113s-112.333 -39 -181 -39c-39.333 0 -75.166 6.16699 -107.499 18.5s-60 29.5 -83 51.5
s-40.667 48.167 -53 78.5s-18.5 63.5 -18.5 99.5c0 40 6.16699 74.667 18.5 104s28.666 54.5 48.999 75.5s43.833 38.667 70.5 53s54.334 26.5 83.001 36.5c31.333 11.333 64.166 22.5 98.499 33.5l101.5 32.5l95 30c30 9.33301 56 18 78 26v93
c0 27.333 -2.83301 54.833 -8.5 82.5s-16 52.5 -31 74.5s-35.667 39.833 -62 53.5s-60.166 20.5 -101.499 20.5c-50 0 -91.167 -5.16699 -123.5 -15.5s-58.166 -22.166 -77.499 -35.499c0 -16.667 2.16699 -34.5 6.5 -53.5s6.5 -40.167 6.5 -63.5
c0 -24.667 -8 -43.167 -24 -55.5s-34.667 -18.5 -56 -18.5c-20.667 0 -38.167 7.66699 -52.5 23s-21.5 36.333 -21.5 63c0 30.667 8.83301 59.667 26.5 87s42 51.333 73 72s67.333 37 109 49s86.167 18 133.5 18c45.333 0 87.666 -4.33301 126.999 -13
s73.5 -24.834 102.5 -48.501s51.667 -56.334 68 -98.001s24.5 -95.834 24.5 -162.501c0 -51.333 -0.333008 -95.333 -1 -132s-1.5 -72.5 -2.5 -107.5s-1.83301 -71.833 -2.5 -110.5s-1 -85.667 -1 -141c0 -27.333 3 -48.666 9 -63.999s16.667 -28.333 32 -39
c8 -4 17.167 -7.16699 27.5 -9.5s21.166 -4.16602 32.499 -5.49902s22.666 -2.16602 33.999 -2.49902s21.666 -0.5 30.999 -0.5v-58zM674.002 550.999c-88.667 -22 -162.832 -43 -222.499 -63s-107.667 -41.667 -144 -65s-62.166 -49.333 -77.499 -78s-23 -63 -23 -103
c0 -54 14.667 -96.5 44 -127.5s73.333 -46.5 132 -46.5c32 0 60.833 3.16699 86.5 9.5s49.667 15.333 72 27s43.666 25.667 63.999 42s41.166 34.5 62.499 54.5zM347.004 1370c0 -28 -7.66699 -51.667 -23 -71s-37 -29 -65 -29s-49.667 9.66699 -65 29s-23 43 -23 71
c0 28.667 7.66699 53 23 73s37 30 65 30s49.667 -10 65 -30s23 -44.333 23 -73zM755.004 1370c0 -28 -7.66699 -51.667 -23 -71s-37 -29 -65 -29s-49.667 9.66699 -65 29s-23 43 -23 71c0 28.667 7.66699 53 23 73s37 30 65 30s49.667 -10 65 -30s23 -44.333 23 -73z" />
    <glyph glyph-name="aring" unicode="&#xe5;" horiz-adv-x="983" 
d="M952 18c-22.667 -10 -45.165 -18.168 -67.498 -24.501s-42.833 -9.5 -61.5 -9.5c-41.333 0 -74.833 12.333 -100.5 37s-41.167 60.667 -46.5 108h-6c-46 -49.333 -95 -87 -147 -113s-112.333 -39 -181 -39c-39.333 0 -75.166 6.16699 -107.499 18.5s-60 29.5 -83 51.5
s-40.667 48.167 -53 78.5s-18.5 63.5 -18.5 99.5c0 40 6.16699 74.667 18.5 104s28.666 54.5 48.999 75.5s43.833 38.667 70.5 53s54.334 26.5 83.001 36.5c31.333 11.333 64.166 22.5 98.499 33.5l101.5 32.5l95 30c30 9.33301 56 18 78 26v93
c0 27.333 -2.83301 54.833 -8.5 82.5s-16 52.5 -31 74.5s-35.667 39.833 -62 53.5s-60.166 20.5 -101.499 20.5c-50 0 -91.167 -5.16699 -123.5 -15.5s-58.166 -22.166 -77.499 -35.499c0 -16.667 2.16699 -34.5 6.5 -53.5s6.5 -40.167 6.5 -63.5
c0 -24.667 -8 -43.167 -24 -55.5s-34.667 -18.5 -56 -18.5c-20.667 0 -38.167 7.66699 -52.5 23s-21.5 36.333 -21.5 63c0 30.667 8.83301 59.667 26.5 87s42 51.333 73 72s67.333 37 109 49s86.167 18 133.5 18c45.333 0 87.666 -4.33301 126.999 -13
s73.5 -24.834 102.5 -48.501s51.667 -56.334 68 -98.001s24.5 -95.834 24.5 -162.501c0 -51.333 -0.333008 -95.333 -1 -132s-1.5 -72.5 -2.5 -107.5s-1.83301 -71.833 -2.5 -110.5s-1 -85.667 -1 -141c0 -27.333 3 -48.666 9 -63.999s16.667 -28.333 32 -39
c8 -4 17.167 -7.16699 27.5 -9.5s21.166 -4.16602 32.499 -5.49902s22.666 -2.16602 33.999 -2.49902s21.666 -0.5 30.999 -0.5v-58zM674.002 550.999c-88.667 -22 -162.832 -43 -222.499 -63s-107.667 -41.667 -144 -65s-62.166 -49.333 -77.499 -78s-23 -63 -23 -103
c0 -54 14.667 -96.5 44 -127.5s73.333 -46.5 132 -46.5c32 0 60.833 3.16699 86.5 9.5s49.667 15.333 72 27s43.666 25.667 63.999 42s41.166 34.5 62.499 54.5zM722.004 1341c0 -32 -5.83008 -61.3311 -17.4971 -87.998s-28.334 -49.667 -50.001 -69
s-47.834 -34.5 -78.501 -45.5s-64.667 -16.5 -102 -16.5c-38 0 -72.333 5.33301 -103 16s-56.667 25.5 -78 44.5s-37.833 42 -49.5 69s-17.5 56.833 -17.5 89.5c0 32 6.33301 61.167 19 87.5s30.167 49.166 52.5 68.499s48.666 34.333 78.999 45s62.833 16 97.5 16
c36 0 69.167 -5.16699 99.5 -15.5s56.5 -25 78.5 -44s39.167 -41.833 51.5 -68.5s18.5 -56.334 18.5 -89.001zM605.007 1341c0 22.667 -2.83301 43.667 -8.5 63s-14 36 -25 50s-24.667 25 -41 33s-35.166 12 -56.499 12c-42 0 -74.333 -14.167 -97 -42.5
s-34 -66.833 -34 -115.5c0 -22.667 2.83301 -43.5 8.5 -62.5s14 -35.5 25 -49.5s24.667 -25 41 -33s35.166 -12 56.499 -12c43.333 0 76 14.667 98 44s33 67 33 113z" />
    <glyph glyph-name="ae" unicode="&#xe6;" horiz-adv-x="1444" 
d="M729 848c36 52 78.6709 92.001 128.004 120.001s106.333 42 171 42c63.333 0 117.333 -11.5 162 -34.5s81 -53.833 109 -92.5s48.5 -83.5 61.5 -134.5s19.5 -104.5 19.5 -160.5v-53h-628v-19c0.666992 -59.333 6.66699 -115.833 18 -169.5s28.666 -101 51.999 -142
s53.5 -73.667 90.5 -98s81.833 -36.5 134.5 -36.5c38 0 71.5 4.5 100.5 13.5s55.167 21.833 78.5 38.5s44.666 36.667 63.999 60s38 49.333 56 78l57 -35c-20.667 -36.667 -43.167 -70.334 -67.5 -101.001s-51.5 -57 -81.5 -79s-63 -39.167 -99 -51.5
s-75.667 -18.5 -119 -18.5c-82.667 0 -152.667 18.333 -210 55s-102.666 85.334 -135.999 146.001h-6c-23.333 -26.667 -47.833 -52 -73.5 -76s-53.334 -45.167 -83.001 -63.5s-61.334 -32.833 -95.001 -43.5s-69.834 -16 -108.501 -16c-37.333 0 -71 6.16699 -101 18.5
s-55.5 29.5 -76.5 51.5s-37.333 48.167 -49 78.5s-17.5 63.5 -17.5 99.5c0 40 5.66699 74.667 17 104s26.5 54.5 45.5 75.5s41 38.667 66 53s51.167 26.5 78.5 36.5c28.667 11.333 58.834 22.5 90.501 33.5l94 32.5l88.5 30c28 9.33301 52.333 18 73 26v93
c0 27.333 -2.5 54.833 -7.5 82.5s-14.167 52.5 -27.5 74.5s-31.833 39.833 -55.5 53.5s-54.167 20.5 -91.5 20.5c-45.333 0 -82.5 -5.33301 -111.5 -16s-52.167 -22.334 -69.5 -35.001c0 -16.667 2.16699 -34.5 6.5 -53.5s6.5 -40.167 6.5 -63.5
c0 -24.667 -8 -43.167 -24 -55.5s-34.667 -18.5 -56 -18.5c-20.667 0 -38.167 7.66699 -52.5 23s-21.5 36.333 -21.5 63c0 30.667 8.33301 59.667 25 87s39.5 51.333 68.5 72s63 37 102 49s81.167 18 126.5 18c32 0 62.5 -2.33301 91.5 -7s55.333 -13 79 -25
s44.667 -28.5 63 -49.5s33.166 -47.833 44.499 -80.5zM633.004 551.001c-81.333 -22 -149.167 -43 -203.5 -63s-98 -41.667 -131 -65s-56.5 -49.333 -70.5 -78s-21 -63 -21 -103c0 -54 13.167 -96.5 39.5 -127.5s66.5 -46.5 120.5 -46.5c29.333 0 55.833 3.16699 79.5 9.5
s45.5 15.333 65.5 27s39.333 25.667 58 42s37.667 34.5 57 54.5zM1255 604.001c0 39.333 -2.83203 78.833 -8.49902 118.5s-16.834 75.5 -33.501 107.5s-40 58 -70 78s-69 30 -117 30c-38.667 0 -74 -7.83301 -106 -23.5s-60 -38 -84 -67s-43 -64 -57 -105
s-22.333 -87.167 -25 -138.5h501z" />
    <glyph glyph-name="ccedilla" unicode="&#xe7;" horiz-adv-x="887" 
d="M508 -25c-66.667 0 -126.834 13.3301 -180.501 39.9971s-99.5 63.334 -137.5 110.001s-67.167 102 -87.5 166s-30.5 133 -30.5 207c0 68.667 10.167 134 30.5 196s49.5 116.5 87.5 163.5s84.333 84.167 139 111.5s116.334 41 185.001 41
c48 0 91.167 -6.83301 129.5 -20.5s70.833 -32.167 97.5 -55.5s47 -50.666 61 -81.999s21 -64.666 21 -99.999c0 -14 -1.33301 -27.667 -4 -41s-7 -25.166 -13 -35.499s-14 -18.666 -24 -24.999s-22.333 -9.5 -37 -9.5c-18 0 -33 2.66699 -45 8s-21.5 12.333 -28.5 21
s-11.833 18.5 -14.5 29.5s-4 22.167 -4 33.5c0 30 3.5 57.5 10.5 82.5s11.167 46.167 12.5 63.5c-15.333 18 -37.833 32.333 -67.5 43s-64.5 16 -104.5 16c-34 0 -69.167 -7.33301 -105.5 -22s-69.166 -38.834 -98.499 -72.501s-53.5 -78.167 -72.5 -133.5
s-28.5 -124 -28.5 -206c0 -60.667 8.5 -117.334 25.5 -170.001s40.167 -98.5 69.5 -137.5s64.166 -69.833 104.499 -92.5s84.166 -34 131.499 -34c32.667 0 63.5 4.66699 92.5 14s56 22.5 81 39.5s47.833 36.833 68.5 59.5s39 47.667 55 75l56 -37
c-21.333 -36 -45.166 -69 -71.499 -99s-55.333 -55.833 -87 -77.5s-65.5 -38.667 -101.5 -51s-74.333 -18.5 -115 -18.5zM747 -246.003c0 -36.667 -8.32812 -67.667 -24.9951 -93s-40.834 -45.666 -72.501 -60.999s-70.334 -26.5 -116.001 -33.5s-97.5 -10.5 -155.5 -10.5
v69c36.667 0 71.167 2 103.5 6s60.166 10.167 83.499 18.5s41.833 18.666 55.5 30.999s20.5 26.833 20.5 43.5c0 16 -5.83301 29 -17.5 39s-26.334 17.667 -44.001 23s-37.334 8.83301 -59.001 10.5s-42.5 2.5 -62.5 2.5v217h74v-122c21.333 0 44.5 -1.5 69.5 -4.5
s48.333 -9.5 70 -19.5s39.667 -24.167 54 -42.5s21.5 -42.833 21.5 -73.5z" />
    <glyph glyph-name="egrave" unicode="&#xe8;" horiz-adv-x="920" 
d="M72 502c0 72.667 10.165 140.002 30.498 202.002s48.833 115.667 85.5 161s80.5 80.833 131.5 106.5s107.5 38.5 169.5 38.5c66 0 122.333 -11.5 169 -34.5s84.667 -53.833 114 -92.5s50.666 -83.5 63.999 -134.5s20 -104.5 20 -160.5v-53h-661
c0 -61.333 5.5 -120 16.5 -176s28.833 -105.333 53.5 -148s56.834 -76.834 96.501 -102.501s87.834 -38.5 144.501 -38.5c40 0 75.333 4.5 106 13.5s58.334 21.833 83.001 38.5s47 36.667 67 60s39.667 49.333 59 78l58 -35c-21.333 -36.667 -44.833 -70.334 -70.5 -101.001
s-54 -57 -85 -79s-65.333 -39.167 -103 -51.5s-79.167 -18.5 -124.5 -18.5c-73.333 0 -136.666 14.167 -189.999 42.5s-97.333 66.5 -132 114.5s-60.334 103.833 -77.001 167.5s-25 131.167 -25 202.5zM730.998 604.002c0 39.333 -3.16602 78.833 -9.49902 118.5
s-18.333 75.5 -36 107.5s-42.334 58 -74.001 78s-73.167 30 -124.5 30c-40.667 0 -78.167 -7.83301 -112.5 -23.5s-64.333 -38 -90 -67s-46 -64 -61 -105s-23.833 -87.167 -26.5 -138.5h534zM567.999 1114l-90.999 86l-69 65l-53 50l-43 41
c-22.667 19.333 -38.834 38 -48.501 56s-14.5 36 -14.5 54c0 17.333 5.33301 33 16 47s25.667 21 45 21c10 0 19 -1.33301 27 -4s16 -7 24 -13s16.167 -14.333 24.5 -25s17.5 -24 27.5 -40l36.5 -57.5l41.5 -67l51 -81.5l65 -101z" />
    <glyph glyph-name="eacute" unicode="&#xe9;" horiz-adv-x="920" 
d="M72 502c0 72.667 10.165 140.002 30.498 202.002s48.833 115.667 85.5 161s80.5 80.833 131.5 106.5s107.5 38.5 169.5 38.5c66 0 122.333 -11.5 169 -34.5s84.667 -53.833 114 -92.5s50.666 -83.5 63.999 -134.5s20 -104.5 20 -160.5v-53h-661
c0 -61.333 5.5 -120 16.5 -176s28.833 -105.333 53.5 -148s56.834 -76.834 96.501 -102.501s87.834 -38.5 144.501 -38.5c40 0 75.333 4.5 106 13.5s58.334 21.833 83.001 38.5s47 36.667 67 60s39.667 49.333 59 78l58 -35c-21.333 -36.667 -44.833 -70.334 -70.5 -101.001
s-54 -57 -85 -79s-65.333 -39.167 -103 -51.5s-79.167 -18.5 -124.5 -18.5c-73.333 0 -136.666 14.167 -189.999 42.5s-97.333 66.5 -132 114.5s-60.334 103.833 -77.001 167.5s-25 131.167 -25 202.5zM730.998 604.002c0 39.333 -3.16602 78.833 -9.49902 118.5
s-18.333 75.5 -36 107.5s-42.334 58 -74.001 78s-73.167 30 -124.5 30c-40.667 0 -78.167 -7.83301 -112.5 -23.5s-64.333 -38 -90 -67s-46 -64 -61 -105s-23.833 -87.167 -26.5 -138.5h534zM732.999 1468c0 -20.667 -4.33496 -39.334 -13.002 -56.001
s-24.667 -36.667 -48 -60l-44.5 -42.5l-55 -50.5l-69.5 -63.5l-89 -81.5l-37 31l64.5 103.5l52 84l42 66.5l33.5 53c18.667 30 35.834 51.167 51.501 63.5s32.834 18.5 51.501 18.5c19.333 0 34.333 -6.66699 45 -20s16 -28.666 16 -45.999z" />
    <glyph glyph-name="ecircumflex" unicode="&#xea;" horiz-adv-x="920" 
d="M72 502c0 72.667 10.165 140.002 30.498 202.002s48.833 115.667 85.5 161s80.5 80.833 131.5 106.5s107.5 38.5 169.5 38.5c66 0 122.333 -11.5 169 -34.5s84.667 -53.833 114 -92.5s50.666 -83.5 63.999 -134.5s20 -104.5 20 -160.5v-53h-661
c0 -61.333 5.5 -120 16.5 -176s28.833 -105.333 53.5 -148s56.834 -76.834 96.501 -102.501s87.834 -38.5 144.501 -38.5c40 0 75.333 4.5 106 13.5s58.334 21.833 83.001 38.5s47 36.667 67 60s39.667 49.333 59 78l58 -35c-21.333 -36.667 -44.833 -70.334 -70.5 -101.001
s-54 -57 -85 -79s-65.333 -39.167 -103 -51.5s-79.167 -18.5 -124.5 -18.5c-73.333 0 -136.666 14.167 -189.999 42.5s-97.333 66.5 -132 114.5s-60.334 103.833 -77.001 167.5s-25 131.167 -25 202.5zM730.998 604.002c0 39.333 -3.16602 78.833 -9.49902 118.5
s-18.333 75.5 -36 107.5s-42.334 58 -74.001 78s-73.167 30 -124.5 30c-40.667 0 -78.167 -7.83301 -112.5 -23.5s-64.333 -38 -90 -67s-46 -64 -61 -105s-23.833 -87.167 -26.5 -138.5h534zM786.999 1157l-45 -33l-258 262l-254 -262l-45 33l217 324
c9.33301 14 20.333 26.333 33 37s30.334 16 53.001 16s39.667 -4.83301 51 -14.5s21.666 -21.167 30.999 -34.5z" />
    <glyph glyph-name="edieresis" unicode="&#xeb;" horiz-adv-x="920" 
d="M72 502c0 72.667 10.165 140.002 30.498 202.002s48.833 115.667 85.5 161s80.5 80.833 131.5 106.5s107.5 38.5 169.5 38.5c66 0 122.333 -11.5 169 -34.5s84.667 -53.833 114 -92.5s50.666 -83.5 63.999 -134.5s20 -104.5 20 -160.5v-53h-661
c0 -61.333 5.5 -120 16.5 -176s28.833 -105.333 53.5 -148s56.834 -76.834 96.501 -102.501s87.834 -38.5 144.501 -38.5c40 0 75.333 4.5 106 13.5s58.334 21.833 83.001 38.5s47 36.667 67 60s39.667 49.333 59 78l58 -35c-21.333 -36.667 -44.833 -70.334 -70.5 -101.001
s-54 -57 -85 -79s-65.333 -39.167 -103 -51.5s-79.167 -18.5 -124.5 -18.5c-73.333 0 -136.666 14.167 -189.999 42.5s-97.333 66.5 -132 114.5s-60.334 103.833 -77.001 167.5s-25 131.167 -25 202.5zM730.998 604.002c0 39.333 -3.16602 78.833 -9.49902 118.5
s-18.333 75.5 -36 107.5s-42.334 58 -74.001 78s-73.167 30 -124.5 30c-40.667 0 -78.167 -7.83301 -112.5 -23.5s-64.333 -38 -90 -67s-46 -64 -61 -105s-23.833 -87.167 -26.5 -138.5h534zM371.999 1370c0 -28 -7.66699 -51.667 -23 -71s-37 -29 -65 -29
s-49.667 9.66699 -65 29s-23 43 -23 71c0 28.667 7.66699 53 23 73s37 30 65 30s49.667 -10 65 -30s23 -44.333 23 -73zM779.999 1370c0 -28 -7.66699 -51.667 -23 -71s-37 -29 -65 -29s-49.667 9.66699 -65 29s-23 43 -23 71c0 28.667 7.66699 53 23 73s37 30 65 30
s49.667 -10 65 -30s23 -44.333 23 -73z" />
    <glyph glyph-name="igrave" unicode="&#xec;" horiz-adv-x="539" 
d="M82 0l0.00292969 61c17.333 1.33301 32.833 2.83301 46.5 4.5s28.167 4.5 43.5 8.5c17.333 5.33301 30.166 15.666 38.499 30.999s12.5 34.333 12.5 57v614c0 23.333 -4.5 44.333 -13.5 63s-20.833 33.334 -35.5 44.001c-7.33301 5.33301 -16.333 10 -27 14
s-21.834 7.16699 -33.501 9.5s-23.334 4 -35.001 5s-22.167 1.5 -31.5 1.5v64l281 18l12 -14v-807c0 -43.333 18.333 -73.333 55 -90c13.333 -6 26.5 -10.667 39.5 -14s29.167 -6.33301 48.5 -9v-61h-401zM328.003 1114l-90.999 86l-69 65l-53 50l-43 41
c-22.667 19.333 -38.834 38 -48.501 56s-14.5 36 -14.5 54c0 17.333 5.33301 33 16 47s25.667 21 45 21c10 0 19 -1.33301 27 -4s16 -7 24 -13s16.167 -14.333 24.5 -25s17.5 -24 27.5 -40l36.5 -57.5l41.5 -67l51 -81.5l65 -101z" />
    </font>
</defs>
</svg>
