<svg width="22" height="22" viewBox="0 0 22 22" fill="none" xmlns="http://www.w3.org/2000/svg">
<path d="M18.8662 10.4L4.35007 2.271C4.22795 2.20261 4.08787 2.17313 3.94854 2.18649C3.80922 2.19985 3.67729 2.25541 3.57039 2.34576C3.46348 2.43611 3.38671 2.55693 3.35031 2.69208C3.31391 2.82723 3.31964 2.97027 3.36671 3.10208L6.10477 10.7687C6.15818 10.9182 6.15818 11.0816 6.10477 11.2311L3.36671 18.8977C3.31964 19.0295 3.31391 19.1725 3.35031 19.3077C3.3867 19.4428 3.46348 19.5637 3.57039 19.654C3.67729 19.7443 3.80922 19.7999 3.94854 19.8133C4.08787 19.8266 4.22796 19.7971 4.35008 19.7288L18.8662 11.5997C18.9728 11.54 19.0616 11.453 19.1234 11.3475C19.1852 11.2421 19.2178 11.1221 19.2178 10.9999C19.2178 10.8777 19.1852 10.7577 19.1234 10.6522C19.0616 10.5468 18.9728 10.4597 18.8662 10.4V10.4Z" stroke="white" stroke-width="1.7" stroke-linecap="round" stroke-linejoin="round"/>
<path d="M6.1875 11H11.6875" stroke="white" stroke-width="1.7" stroke-linecap="round" stroke-linejoin="round"/>
</svg>
