<svg width="32" height="32" viewBox="0 0 32 32" fill="none" xmlns="http://www.w3.org/2000/svg">
<path fill-rule="evenodd" clip-rule="evenodd" d="M7.5 14C7.22401 14 7 14.224 7 14.5V17.5C7 17.776 7.22401 18 7.5 18C7.77599 18 8 17.776 8 17.5V14.5C8.00006 14.224 7.77605 14 7.5 14Z" fill="black"/>
<mask id="path-2-outside-1_116_1029" maskUnits="userSpaceOnUse" x="0" y="0" width="11" height="32" fill="black">
<rect fill="white" width="11" height="32"/>
<path fill-rule="evenodd" clip-rule="evenodd" d="M2.82648 3.0254L7.554 1.13367C8.86598 0.639674 10 1.57177 10 2.99394V29.0023C10 30.1599 9.27051 31 8.26551 31C8.03447 31 7.79852 30.955 7.5635 30.866L2.814 28.9658C1.495 28.4767 1 27.8076 1 26.501V5.49417C1 4.18756 1.495 3.51847 2.82648 3.0254ZM8.26551 29.9999C8.70496 29.9999 8.99998 29.5988 8.99998 29.0023V2.99394C8.99998 2.39733 8.70449 1.9968 8.26498 1.9968C8.15547 1.9968 8.03799 2.02029 7.916 2.06629L3.18602 3.95849C2.23053 4.31256 2.00002 4.61306 2.00002 5.49417V26.501C2.00002 27.3821 2.23053 27.6831 3.174 28.0327L7.92549 29.9344C8.03799 29.9764 8.156 29.9999 8.26551 29.9999Z"/>
</mask>
<path fill-rule="evenodd" clip-rule="evenodd" d="M2.82648 3.0254L7.554 1.13367C8.86598 0.639674 10 1.57177 10 2.99394V29.0023C10 30.1599 9.27051 31 8.26551 31C8.03447 31 7.79852 30.955 7.5635 30.866L2.814 28.9658C1.495 28.4767 1 27.8076 1 26.501V5.49417C1 4.18756 1.495 3.51847 2.82648 3.0254ZM8.26551 29.9999C8.70496 29.9999 8.99998 29.5988 8.99998 29.0023V2.99394C8.99998 2.39733 8.70449 1.9968 8.26498 1.9968C8.15547 1.9968 8.03799 2.02029 7.916 2.06629L3.18602 3.95849C2.23053 4.31256 2.00002 4.61306 2.00002 5.49417V26.501C2.00002 27.3821 2.23053 27.6831 3.174 28.0327L7.92549 29.9344C8.03799 29.9764 8.156 29.9999 8.26551 29.9999Z" fill="black"/>
<path d="M7.554 1.13367L7.48351 0.946463L7.4797 0.947988L7.554 1.13367ZM2.82648 3.0254L2.89596 3.21302L2.90079 3.21109L2.82648 3.0254ZM7.5635 30.866L7.48919 31.0517L7.49266 31.053L7.5635 30.866ZM2.814 28.9658L2.88832 28.78L2.88354 28.7782L2.814 28.9658ZM7.916 2.06629L7.84542 1.87912L7.84171 1.8806L7.916 2.06629ZM3.18602 3.95849L3.25553 4.14609L3.2603 4.14419L3.18602 3.95849ZM3.174 28.0327L3.24834 27.8469L3.24349 27.8451L3.174 28.0327ZM7.92549 29.9344L7.85115 30.1201L7.85552 30.1217L7.92549 29.9344ZM7.4797 0.947988L2.75218 2.83972L2.90079 3.21109L7.62831 1.31936L7.4797 0.947988ZM10.2 2.99394C10.2 2.22992 9.89455 1.57953 9.392 1.18754C8.88621 0.793033 8.20068 0.676471 7.48353 0.946502L7.62448 1.32084C8.2193 1.09688 8.75677 1.19936 9.14599 1.50294C9.53844 1.80905 9.8 2.33578 9.8 2.99394H10.2ZM10.2 29.0023V2.99394H9.8V29.0023H10.2ZM8.26551 31.2C9.40656 31.2 10.2 30.2429 10.2 29.0023H9.8C9.8 30.0769 9.13446 30.8 8.26551 30.8V31.2ZM7.49266 31.053C7.74835 31.1499 8.00826 31.2 8.26551 31.2V30.8C8.06068 30.8 7.84868 30.7601 7.63434 30.6789L7.49266 31.053ZM2.73971 29.1514L7.4892 31.0517L7.63779 30.6803L2.8883 28.7801L2.73971 29.1514ZM0.8 26.501C0.8 27.1787 0.928387 27.7202 1.25136 28.1586C1.57273 28.5948 2.06736 28.9022 2.74447 29.1533L2.88354 28.7782C2.24165 28.5402 1.82927 28.2686 1.57339 27.9213C1.31911 27.5762 1.2 27.1299 1.2 26.501H0.8ZM0.8 5.49417V26.501H1.2V5.49417H0.8ZM2.75703 2.83785C2.07395 3.0908 1.57618 3.39914 1.25315 3.83576C0.928399 4.27471 0.8 4.8164 0.8 5.49417H1.2C1.2 4.86533 1.3191 4.41916 1.57472 4.07366C1.83207 3.72581 2.24753 3.45307 2.89594 3.21296L2.75703 2.83785ZM8.79998 29.0023C8.79998 29.2699 8.73356 29.4743 8.63647 29.6062C8.54279 29.7335 8.41726 29.7999 8.26551 29.7999V30.1999C8.55321 30.1999 8.79491 30.0657 8.95861 29.8433C9.11889 29.6256 9.19998 29.3312 9.19998 29.0023H8.79998ZM8.79998 2.99394V29.0023H9.19998V2.99394H8.79998ZM8.26498 2.1968C8.41689 2.1968 8.54257 2.26317 8.63632 2.39032C8.73348 2.5221 8.79998 2.72633 8.79998 2.99394H9.19998C9.19998 2.66493 9.11874 2.37059 8.95827 2.15295C8.7944 1.93068 8.55258 1.7968 8.26498 1.7968V2.1968ZM7.98656 2.25343C8.09037 2.21429 8.18384 2.1968 8.26498 2.1968V1.7968C8.1271 1.7968 7.98561 1.8263 7.84543 1.87916L7.98656 2.25343ZM3.2603 4.14419L7.99028 2.25199L7.84171 1.8806L3.11173 3.7728L3.2603 4.14419ZM2.20002 5.49417C2.20002 5.0653 2.25775 4.82626 2.39306 4.65085C2.53297 4.4695 2.78149 4.32168 3.25551 4.14603L3.11652 3.77096C2.63505 3.94937 2.29058 4.12883 2.07635 4.40653C1.85754 4.69016 1.80002 5.04193 1.80002 5.49417H2.20002ZM2.20002 26.501V5.49417H1.80002V26.501H2.20002ZM3.24349 27.8451C2.77584 27.6719 2.53039 27.5251 2.39195 27.3445C2.25775 27.1694 2.20002 26.9299 2.20002 26.501H1.80002C1.80002 26.9532 1.85754 27.3048 2.07446 27.5878C2.28715 27.8653 2.62869 28.0439 3.10452 28.2202L3.24349 27.8451ZM7.9998 29.7487L3.24832 27.847L3.09969 28.2183L7.85117 30.12L7.9998 29.7487ZM8.26551 29.7999C8.18334 29.7999 8.08906 29.782 7.99546 29.747L7.85552 30.1217C7.98691 30.1708 8.12865 30.1999 8.26551 30.1999V29.7999Z" fill="black" mask="url(#path-2-outside-1_116_1029)"/>
<path d="M11.4969 4.14764H18.5155C19.2773 4.14764 19.9062 4.80289 19.9062 5.61907V13.4762C19.9062 13.8155 20.1681 14.1 20.5031 14.1C20.8381 14.1 21.1 13.8155 21.1 13.4762V5.61907C21.1 4.12476 19.9456 2.9 18.5155 2.9H11.4969C11.1625 2.9 10.9 3.18448 10.9 3.52379C10.9 3.86308 11.1625 4.14764 11.4969 4.14764Z" fill="black" stroke="black" stroke-width="0.2"/>
<path d="M21.1 19.4761V19.4761C21.0999 19.1536 20.8271 18.9 20.5 18.9C20.1728 18.9 19.9 19.1536 19.9 19.4762V26.6191C19.9 27.3469 19.2764 27.9477 18.5 27.9477H11.5C11.1734 27.9477 10.9 28.2012 10.9 28.5238C10.9 28.8464 11.1734 29.1 11.5 29.1H18.5C19.929 29.1 21.1 27.9917 21.1 26.619V19.4761Z" fill="black" stroke="black" stroke-width="0.2"/>
<path d="M31.0545 15.271L31.0545 15.2711C31.1152 15.4176 31.1152 15.5831 31.0545 15.7295C31.0241 15.8029 30.9803 15.869 30.9243 15.925L25.9246 20.9242C25.8077 21.0412 25.6539 21.1 25.5004 21.1C25.3469 21.1 25.1932 21.0412 25.0762 20.9242L31.0545 15.271ZM31.0545 15.271C31.0241 15.1976 30.9803 15.1316 30.9243 15.0756L25.9246 10.0759L25.9246 10.0759M31.0545 15.271L25.9246 10.0759M25.9246 10.0759C25.69 9.84138 25.3107 9.84137 25.0762 10.0759M25.9246 10.0759L25.0762 10.0759M25.0762 10.0759C24.8416 10.3104 24.8416 10.6897 25.0762 10.9243M25.0762 10.0759L25.0762 10.9243M25.0762 10.9243C25.0762 10.9243 25.0762 10.9243 25.0762 10.9243M25.0762 10.9243L25.0762 10.9243M25.0762 10.9243L29.0521 14.9003H12.5C12.1688 14.9003 11.9 15.1691 11.9 15.5003C11.9 15.8315 12.1688 16.1002 12.5 16.1002H29.0522L25.0762 20.0759C24.8416 20.3104 24.8416 20.6897 25.0762 20.9242L25.0762 10.9243Z" fill="black" stroke="black" stroke-width="0.2"/>
</svg>
