<svg width="36" height="36" viewBox="0 0 36 36" fill="none" xmlns="http://www.w3.org/2000/svg">
<path fill-rule="evenodd" clip-rule="evenodd" d="M11.3321 3H24.6679C25.9534 3 27 3.9885 27 5.2025V30.7975C27 32.0115 25.9534 33 24.6674 33H11.3321C10.0466 33 9 32.0115 9 30.797V5.2025C9 3.9885 10.0466 3 11.3321 3ZM25.9412 7H10.0588V26H25.9412V7ZM11.3321 4H24.6674C25.3699 4 25.9412 4.5395 25.9412 5.2025V6H10.0588V5.2025C10.0588 4.5395 10.6301 4 11.3321 4ZM11.3321 32H24.6679C25.3699 32 25.9412 31.4605 25.9412 30.7975V27H10.0588V30.7975C10.0588 31.4605 10.6301 32 11.3321 32Z" fill="black"/>
<path fill-rule="evenodd" clip-rule="evenodd" d="M15.6316 29.3637C15.6316 28.3609 16.4814 27.5455 17.5263 27.5455C18.5713 27.5455 19.4211 28.3609 19.4211 29.3637C19.4211 30.3664 18.5713 31.1818 17.5263 31.1818C16.4814 31.1818 15.6316 30.3664 15.6316 29.3637ZM16.579 29.3637C16.579 29.865 17.0039 30.2727 17.5263 30.2727C18.0488 30.2727 18.4737 29.865 18.4737 29.3637C18.4737 28.8623 18.0488 28.4546 17.5263 28.4546C17.0039 28.4546 16.579 28.8623 16.579 29.3637Z" fill="black"/>
<path fill-rule="evenodd" clip-rule="evenodd" d="M16.1028 5.48282H17.9975C18.2595 5.48282 18.4712 5.27964 18.4712 5.02828C18.4712 4.77691 18.2595 4.57373 17.9975 4.57373H16.1028C15.8408 4.57373 15.6291 4.77691 15.6291 5.02828C15.6291 5.27964 15.8408 5.48282 16.1028 5.48282Z" fill="black"/>
<path fill-rule="evenodd" clip-rule="evenodd" d="M19.7267 5.50595H20.0425C20.2172 5.50595 20.3583 5.30277 20.3583 5.05141C20.3583 4.80004 20.2172 4.59686 20.0425 4.59686H19.7267C19.5521 4.59686 19.4109 4.80004 19.4109 5.05141C19.4109 5.30277 19.5521 5.50595 19.7267 5.50595Z" fill="black"/>
</svg>
