<svg width="15" height="15" viewBox="0 0 15 15" fill="none" xmlns="http://www.w3.org/2000/svg">
<g opacity="0.3">
<path d="M7.03125 5.15625L5.15625 13.125" stroke="white" stroke-width="1.5" stroke-linecap="round" stroke-linejoin="round"/>
<path d="M3.60604 9.17304C3.19827 8.56479 2.93867 7.86947 2.84805 7.14281C2.75742 6.41616 2.8383 5.67837 3.0842 4.9886C3.3301 4.29884 3.73417 3.67627 4.26404 3.17081C4.7939 2.66535 5.43481 2.29105 6.1354 2.07793C6.83599 1.8648 7.57676 1.81877 8.29835 1.94353C9.01993 2.06829 9.70225 2.36036 10.2906 2.79634C10.879 3.23232 11.357 3.80007 11.6864 4.4541C12.0158 5.10812 12.1874 5.83021 12.1874 6.5625C12.1874 9.15133 10.3124 10.7812 8.43742 10.7812C6.56242 10.7812 5.99807 9.54688 5.99807 9.54688" stroke="white" stroke-width="1.5" stroke-linecap="round" stroke-linejoin="round"/>
</g>
</svg>
