<svg width="18" height="30" viewBox="0 0 18 30" fill="none" xmlns="http://www.w3.org/2000/svg">
<path fill-rule="evenodd" clip-rule="evenodd" d="M2.33206 0H15.6679C16.9534 0 18 0.9885 18 2.2025V27.7975C18 29.0115 16.9534 30 15.6674 30H2.33206C1.04665 30 0 29.0115 0 27.797V2.2025C0 0.9885 1.04665 0 2.33206 0ZM16.9412 4H1.05882V23H16.9412V4ZM2.33206 1H15.6674C16.3699 1 16.9412 1.5395 16.9412 2.2025V3H1.05882V2.2025C1.05882 1.5395 1.63006 1 2.33206 1ZM2.33206 29H15.6679C16.3699 29 16.9412 28.4605 16.9412 27.7975V24H1.05882V27.7975C1.05882 28.4605 1.63006 29 2.33206 29Z" fill="black"/>
<path fill-rule="evenodd" clip-rule="evenodd" d="M6.63135 26.3636C6.63135 25.3609 7.48114 24.5455 8.52608 24.5455C9.57103 24.5455 10.4208 25.3609 10.4208 26.3636C10.4208 27.3664 9.57103 28.1818 8.52608 28.1818C7.48114 28.1818 6.63135 27.3664 6.63135 26.3636ZM7.57872 26.3636C7.57872 26.865 8.00361 27.2727 8.52608 27.2727C9.04856 27.2727 9.47345 26.865 9.47345 26.3636C9.47345 25.8623 9.04856 25.4545 8.52608 25.4545C8.00361 25.4545 7.57872 25.8623 7.57872 26.3636Z" fill="black"/>
<path fill-rule="evenodd" clip-rule="evenodd" d="M7.10259 2.48285H8.99733C9.25927 2.48285 9.47101 2.27966 9.47101 2.0283C9.47101 1.77694 9.25927 1.57376 8.99733 1.57376H7.10259C6.84064 1.57376 6.62891 1.77694 6.62891 2.0283C6.62891 2.27966 6.84064 2.48285 7.10259 2.48285Z" fill="black"/>
<path fill-rule="evenodd" clip-rule="evenodd" d="M10.7269 2.50597H11.0427C11.2173 2.50597 11.3585 2.30279 11.3585 2.05143C11.3585 1.80006 11.2173 1.59688 11.0427 1.59688H10.7269C10.5523 1.59688 10.4111 1.80006 10.4111 2.05143C10.4111 2.30279 10.5523 2.50597 10.7269 2.50597Z" fill="black"/>
</svg>
