<svg width="28" height="25" viewBox="0 0 28 25" fill="none" xmlns="http://www.w3.org/2000/svg">
<path fill-rule="evenodd" clip-rule="evenodd" d="M12.9176 24.5918C13.2171 24.8551 13.6014 25 14 25C14.3984 25 14.7829 24.8551 15.0822 24.5922C16.2159 23.5973 17.3082 22.663 18.272 21.8389L18.2724 21.8385C21.0927 19.4264 23.5283 17.3433 25.2231 15.2909C27.1177 12.9967 28 10.8214 28 8.44489C28 6.13595 27.2113 4.00581 25.779 2.44657C24.3295 0.868907 22.3405 0 20.1782 0C18.5619 0 17.0817 0.512812 15.7788 1.52407C15.1211 2.03452 14.5253 2.65925 14 3.38794C13.4749 2.65925 12.8789 2.03452 12.2214 1.52407C10.9185 0.512812 9.43829 0 7.82202 0C5.65952 0 3.67068 0.868907 2.22125 2.44657C0.78891 4.00581 0 6.13595 0 8.44489C0 10.8214 0.882477 12.9967 2.7771 15.2911C4.47198 17.3434 6.90793 19.4268 9.72882 21.8393L9.73373 21.8436C10.6959 22.6664 11.7864 23.5992 12.9176 24.5918ZM3.42694 3.56224C4.56235 2.32652 6.12308 1.64606 7.82202 1.64606C9.06638 1.64606 10.209 2.0431 11.218 2.82604C12.1173 3.52408 12.7437 4.40649 13.1107 5.02393C13.2995 5.34143 13.6319 5.53095 14 5.53095C14.3681 5.53095 14.7005 5.34143 14.8893 5.02393C15.2565 4.40649 15.8829 3.52408 16.782 2.82604C17.791 2.0431 18.9336 1.64606 20.1782 1.64606C21.8769 1.64606 23.4379 2.32652 24.5731 3.56224C25.7253 4.81661 26.36 6.55057 26.36 8.44489C26.36 10.4436 25.6198 12.2312 23.9604 14.2408C22.3577 16.1816 19.9749 18.2198 17.2157 20.5798L17.2082 20.5862C16.2405 21.4135 15.144 22.3515 13.9977 23.3533C12.8582 22.3534 11.7634 21.417 10.7976 20.5909L10.7924 20.5866L10.7908 20.5852C8.02893 18.2231 5.6436 16.183 4.03983 14.2408C2.38019 12.2312 1.63998 10.4436 1.63998 8.44489C1.63998 6.55057 2.27466 4.81661 3.42694 3.56224Z" fill="#ED462E"/>
</svg>
