<svg width="44" height="44" viewBox="0 0 44 44" fill="none" xmlns="http://www.w3.org/2000/svg">
<g opacity="0.3">
<path d="M27.5 22L19.25 16.5V27.5L27.5 22Z" stroke="white" stroke-width="1.5" stroke-linecap="round" stroke-linejoin="round"/>
<path d="M4.125 22.0002C4.125 27.1144 4.65337 30.1151 5.05503 31.6573C5.1624 32.0785 5.36858 32.468 5.6565 32.7937C5.94442 33.1193 6.30579 33.3716 6.71067 33.5298C12.4645 35.7409 22 35.6802 22 35.6802C22 35.6802 31.5354 35.7409 37.2893 33.5298C37.6942 33.3716 38.0555 33.1193 38.3434 32.7937C38.6314 32.468 38.8376 32.0785 38.9449 31.6573C39.3466 30.1151 39.875 27.1144 39.875 22.0002C39.875 16.886 39.3466 13.8853 38.945 12.3431C38.8376 11.9219 38.6314 11.5324 38.3435 11.2067C38.0556 10.8811 37.6942 10.6288 37.2893 10.4706C31.5355 8.25952 22 8.32023 22 8.32023C22 8.32023 12.4646 8.25952 6.71072 10.4706C6.30584 10.6288 5.94447 10.8811 5.65655 11.2067C5.36863 11.5323 5.16244 11.9219 5.05507 12.3431C4.65339 13.8853 4.125 16.886 4.125 22.0002Z" stroke="white" stroke-width="1.5" stroke-linecap="round" stroke-linejoin="round"/>
</g>
</svg>
