<svg width="32" height="32" viewBox="0 0 32 32" fill="none" xmlns="http://www.w3.org/2000/svg">
<path d="M5.25977 6H26.7387C26.9324 6 27.122 6.05627 27.2843 6.16198C27.4467 6.26769 27.5748 6.41828 27.6532 6.59545C27.7316 6.77262 27.7568 6.96874 27.7258 7.15997C27.6948 7.35121 27.6089 7.52932 27.4786 7.67267L19.2593 16.7139C19.0919 16.898 18.9992 17.1378 18.9992 17.3866V24.4648C18.9992 24.6294 18.9586 24.7915 18.8809 24.9367C18.8032 25.0818 18.6909 25.2055 18.5539 25.2969L14.5539 27.9635C14.4033 28.0639 14.2283 28.1216 14.0475 28.1303C13.8667 28.1391 13.6869 28.0986 13.5274 28.0132C13.3678 27.9278 13.2344 27.8006 13.1414 27.6454C13.0483 27.4901 12.9992 27.3125 12.9992 27.1315V17.3866C12.9992 17.1378 12.9065 16.898 12.7392 16.7139L4.51983 7.67267C4.38951 7.52932 4.30364 7.35121 4.27264 7.15997C4.24165 6.96874 4.26688 6.77262 4.34525 6.59545C4.42363 6.41828 4.55178 6.26769 4.71413 6.16198C4.87648 6.05627 5.06604 6 5.25977 6V6Z" stroke="black" stroke-width="1.5" stroke-linecap="round" stroke-linejoin="round"/>
</svg>
