<svg width="36" height="36" viewBox="0 0 36 36" fill="none" xmlns="http://www.w3.org/2000/svg">
<circle cx="20" cy="18" r="14" fill="#F0F0F0"/>
<path fill-rule="evenodd" clip-rule="evenodd" d="M19.1594 17.8836H34C34 16.6095 33.8289 15.3752 33.51 14.201H19.1594V17.8836Z" fill="#ED462E"/>
<path fill-rule="evenodd" clip-rule="evenodd" d="M19.1594 10.5185H31.9125C31.0419 9.1084 29.9288 7.86202 28.6309 6.83594H19.1594V10.5185Z" fill="#ED462E"/>
<path fill-rule="evenodd" clip-rule="evenodd" d="M19.7777 32C23.1248 32 26.2013 30.8517 28.6308 28.9312H10.9246C13.354 30.8517 16.4305 32 19.7777 32Z" fill="#ED462E"/>
<path fill-rule="evenodd" clip-rule="evenodd" d="M7.64291 25.2487H31.9125C32.6114 24.1167 33.1535 22.8793 33.51 21.5661H6.04541C6.40191 22.8793 6.94397 24.1167 7.64291 25.2487Z" fill="#ED462E"/>
<path fill-rule="evenodd" clip-rule="evenodd" d="M13.7609 6.1863H12.4851C14.6562 4.80227 17.2343 4 20 4V18H6C6 17.4088 6.03708 16.8262 6.10823 16.2543L6.81905 15.7379L8.00572 16.6L7.55241 15.205L8.73913 14.3428H7.2723L6.87489 13.1196C7.01243 12.7496 7.16545 12.3872 7.33273 12.0328L8.00572 12.5217L7.645 11.4115C7.75317 11.2091 7.86605 11.0097 7.98373 10.8134L8.73913 10.2646H8.33034C9.08503 9.12838 10.0008 8.10867 11.0457 7.23832L10.6541 8.44347L11.8408 7.58132L13.0275 8.44347L12.5741 7.04845L13.7609 6.1863ZM11.8408 15.7379L13.0274 16.6L12.5741 15.205L13.7609 14.3428H12.294L11.8408 12.9478L11.3875 14.3428H9.9207L11.1074 15.205L10.6541 16.6L11.8408 15.7379ZM12.5741 11.1267L13.0274 12.5217L11.8408 11.6596L10.6541 12.5217L11.1074 11.1267L9.9207 10.2646H11.3875L11.8408 8.86954L12.294 10.2646H13.7609L12.5741 11.1267ZM16.8625 15.7379L18.0492 16.6L17.5959 15.205L18.7826 14.3428H17.3158L16.8625 12.9478L16.4093 14.3428H14.9425L16.1292 15.205L15.6759 16.6L16.8625 15.7379ZM17.5959 11.1267L18.0492 12.5217L16.8625 11.6596L15.6759 12.5217L16.1292 11.1267L14.9425 10.2646H16.4093L16.8625 8.86954L17.3158 10.2646H18.7826L17.5959 11.1267ZM18.0492 8.44346L17.5959 7.04843L18.7826 6.18628H17.3158L16.8625 4.79126L16.4093 6.18628H14.9425L16.1292 7.04843L15.6759 8.44346L16.8625 7.58131L18.0492 8.44346Z" fill="#0052B4"/>
</svg>
