<svg width="44" height="44" viewBox="0 0 44 44" fill="none" xmlns="http://www.w3.org/2000/svg">
<g opacity="0.3">
<path d="M22 28.875C25.797 28.875 28.875 25.797 28.875 22C28.875 18.203 25.797 15.125 22 15.125C18.203 15.125 15.125 18.203 15.125 22C15.125 25.797 18.203 28.875 22 28.875Z" stroke="white" stroke-width="1.5" stroke-miterlimit="10"/>
<path d="M29.5625 6.1875H14.4375C9.88115 6.1875 6.1875 9.88115 6.1875 14.4375V29.5625C6.1875 34.1188 9.88115 37.8125 14.4375 37.8125H29.5625C34.1188 37.8125 37.8125 34.1188 37.8125 29.5625V14.4375C37.8125 9.88115 34.1188 6.1875 29.5625 6.1875Z" stroke="white" stroke-width="1.5" stroke-linecap="round" stroke-linejoin="round"/>
<path d="M30.9375 15.125C32.0766 15.125 33 14.2016 33 13.0625C33 11.9234 32.0766 11 30.9375 11C29.7984 11 28.875 11.9234 28.875 13.0625C28.875 14.2016 29.7984 15.125 30.9375 15.125Z" fill="white"/>
</g>
</svg>
