<svg width="30" height="30" viewBox="0 0 30 30" fill="none" xmlns="http://www.w3.org/2000/svg">
<circle cx="15" cy="15" r="15" fill="#F0F0F0"/>
<path fill-rule="evenodd" clip-rule="evenodd" d="M14.0996 14.8753H30.0002C30.0002 13.5101 29.8169 12.1877 29.4753 10.9297H14.0996V14.8753Z" fill="#ED462E"/>
<path fill-rule="evenodd" clip-rule="evenodd" d="M14.0996 6.98412H27.7637C26.8309 5.47331 25.6382 4.1379 24.2476 3.03852H14.0996V6.98412Z" fill="#ED462E"/>
<path fill-rule="evenodd" clip-rule="evenodd" d="M14.7618 30C18.3481 30 21.6443 28.7697 24.2473 26.712H5.27637C7.87934 28.7697 11.1756 30 14.7618 30Z" fill="#ED462E"/>
<path fill-rule="evenodd" clip-rule="evenodd" d="M1.76044 22.7664H27.7635C28.5124 21.5535 29.0932 20.2278 29.4751 18.8208H0.0488281C0.430792 20.2278 1.01157 21.5535 1.76044 22.7664Z" fill="#ED462E"/>
<path fill-rule="evenodd" clip-rule="evenodd" d="M8.31522 2.34246H6.94828C9.27451 0.85957 12.0368 0 15 0V15H0C0 14.3665 0.0397266 13.7424 0.115957 13.1296L0.877559 12.5763L2.14898 13.5L1.6633 12.0053L2.93479 11.0816H1.36318L0.937383 9.77098C1.08475 9.37459 1.24869 8.98629 1.42793 8.60654L2.14898 9.13043L1.7625 7.94092C1.8784 7.72406 1.99934 7.51037 2.12543 7.30002L2.93479 6.71203H2.4968C3.30539 5.49469 4.2866 4.40215 5.40609 3.46963L4.98656 4.76086L6.25799 3.83713L7.52941 4.76086L7.04373 3.26619L8.31522 2.34246ZM6.25799 12.5763L7.52941 13.5L7.04373 12.0053L8.31522 11.0816H6.74361L6.25799 9.58693L5.77236 11.0816H4.20076L5.47225 12.0053L4.98656 13.5L6.25799 12.5763ZM7.04373 7.63576L7.52941 9.13043L6.25799 8.2067L4.98656 9.13043L5.47225 7.63576L4.20076 6.71203H5.77236L6.25799 5.21736L6.74361 6.71203H8.31522L7.04373 7.63576ZM11.6384 12.5763L12.9098 13.5L12.4242 12.0053L13.6956 11.0816H12.124L11.6384 9.58693L11.1528 11.0816H9.58119L10.8527 12.0053L10.367 13.5L11.6384 12.5763ZM12.4242 7.63576L12.9098 9.13043L11.6384 8.2067L10.367 9.13043L10.8527 7.63576L9.58119 6.71203H11.1528L11.6384 5.21736L12.124 6.71203H13.6956L12.4242 7.63576ZM12.9098 4.76086L12.4242 3.26619L13.6956 2.34246H12.124L11.6384 0.847793L11.1528 2.34246H9.58119L10.8527 3.26619L10.367 4.76086L11.6384 3.83713L12.9098 4.76086Z" fill="#0052B4"/>
</svg>
