<svg width="78" height="57" viewBox="0 0 78 57" fill="none" xmlns="http://www.w3.org/2000/svg">
<path d="M19.32 15.04C24.1733 15.04 27.9867 16.5333 30.76 19.52C33.5867 22.4533 35 26.4267 35 31.44V56H29.72V31.44C29.72 27.8667 28.76 25.0933 26.84 23.12C24.9733 21.1467 22.3067 20.16 18.84 20.16C15 20.16 11.88 21.3867 9.48 23.84C7.08 26.24 5.88 29.9733 5.88 35.04V56H0.6V-3.8147e-06H5.88V22.24C8.86667 17.44 13.3467 15.04 19.32 15.04Z" fill="#ED462E"/>
<path d="M71.8594 -3.8147e-06H77.1394V56H71.8594V48.16C68.1794 54.0267 62.7927 56.96 55.6994 56.96C49.9927 56.96 45.1127 54.9333 41.0594 50.88C37.0594 46.8267 35.0594 41.8667 35.0594 36C35.0594 30.1333 37.0594 25.1733 41.0594 21.12C45.1127 17.0667 49.9927 15.04 55.6994 15.04C62.7927 15.04 68.1794 17.9733 71.8594 23.84V-3.8147e-06ZM44.8994 47.28C47.9394 50.32 51.6727 51.84 56.0994 51.84C60.526 51.84 64.2594 50.32 67.2994 47.28C70.3394 44.1867 71.8594 40.4267 71.8594 36C71.8594 31.5733 70.3394 27.84 67.2994 24.8C64.2594 21.7067 60.526 20.16 56.0994 20.16C51.6727 20.16 47.9394 21.7067 44.8994 24.8C41.8594 27.84 40.3394 31.5733 40.3394 36C40.3394 40.4267 41.8594 44.1867 44.8994 47.28Z" fill="#F38F31"/>
</svg>
