<svg width="80" height="50" viewBox="0 0 80 50" fill="none" xmlns="http://www.w3.org/2000/svg">
<g clip-path="url(#clip0_912_5427)">
<path d="M21.104 13.0698C24.8874 13.0698 27.8601 14.2339 30.022 16.5622C32.2255 18.8488 33.3273 21.9462 33.3273 25.8544V45H29.2113V25.8544C29.2113 23.0688 28.4629 20.9068 26.9662 19.3685C25.511 17.8302 23.4322 17.0611 20.7298 17.0611C17.7364 17.0611 15.3042 18.0173 13.4333 19.9298C11.5624 21.8007 10.6269 24.711 10.6269 28.6607V45H6.5109V1.34545H10.6269V18.6825C12.9551 14.9407 16.4475 13.0698 21.104 13.0698Z" fill="#ED462E"/>
<path d="M61.1978 1.34545H65.3138V45H61.1978V38.8884C58.329 43.4617 54.1299 45.7484 48.6003 45.7484C44.1517 45.7484 40.3475 44.1685 37.1878 41.0087C34.0696 37.849 32.5105 33.9824 32.5105 29.4091C32.5105 24.8358 34.0696 20.9692 37.1878 17.8095C40.3475 14.6497 44.1517 13.0698 48.6003 13.0698C54.1299 13.0698 58.329 15.3565 61.1978 19.9298V1.34545ZM40.1812 38.2024C42.551 40.5722 45.4613 41.7571 48.9121 41.7571C52.3629 41.7571 55.2732 40.5722 57.643 38.2024C60.0128 35.791 61.1978 32.8599 61.1978 29.4091C61.1978 25.9583 60.0128 23.048 57.643 20.6782C55.2732 18.2668 52.3629 17.0611 48.9121 17.0611C45.4613 17.0611 42.551 18.2668 40.1812 20.6782C37.8114 23.048 36.6265 25.9583 36.6265 29.4091C36.6265 32.8599 37.8114 35.791 40.1812 38.2024Z" fill="#F38F31"/>
</g>
<defs>
<clipPath id="clip0_912_5427">
<rect width="80" height="50" fill="white"/>
</clipPath>
</defs>
</svg>
