<svg width="32" height="32" viewBox="0 0 32 32" fill="none" xmlns="http://www.w3.org/2000/svg">
<g opacity="0.5">
<path d="M14.5 20C15.8807 20 17 18.8807 17 17.5C17 16.1193 15.8807 15 14.5 15C13.1193 15 12 16.1193 12 17.5C12 18.8807 13.1193 20 14.5 20Z" stroke="black" stroke-width="2" stroke-linecap="round" stroke-linejoin="round"/>
<path d="M4.00098 28.0005L12.7325 19.2678" stroke="black" stroke-width="2" stroke-linecap="round" stroke-linejoin="round"/>
<path d="M4.00098 28.0004L21.4317 25.0952C21.6048 25.0664 21.7672 24.9925 21.9027 24.881C22.0382 24.7695 22.142 24.6243 22.2036 24.46L25.001 17.0004L15.001 7.00037L7.54137 9.79772C7.37706 9.85934 7.23186 9.96311 7.12035 10.0986C7.00884 10.2341 6.93495 10.3966 6.9061 10.5697L4.00098 28.0004Z" stroke="black" stroke-width="2" stroke-linecap="round" stroke-linejoin="round"/>
<path d="M25.001 17.0005L28.2939 13.7076C28.3867 13.6147 28.4604 13.5045 28.5106 13.3831C28.5609 13.2618 28.5868 13.1318 28.5868 13.0005C28.5868 12.8691 28.5609 12.7391 28.5106 12.6178C28.4604 12.4964 28.3867 12.3862 28.2939 12.2934L19.7081 3.70757C19.5205 3.52003 19.2662 3.41467 19.001 3.41467C18.7358 3.41467 18.4814 3.52003 18.2939 3.70757L15.001 7.00046" stroke="black" stroke-width="2" stroke-linecap="round" stroke-linejoin="round"/>
</g>
</svg>
