<svg width="44" height="44" viewBox="0 0 44 44" fill="none" xmlns="http://www.w3.org/2000/svg">
<g opacity="0.3">
<path d="M20.625 15.125L15.125 38.5" stroke="white" stroke-width="1.5" stroke-linecap="round" stroke-linejoin="round"/>
<path d="M10.5781 26.9076C9.38195 25.1234 8.62046 23.0838 8.35463 20.9523C8.08881 18.8207 8.32605 16.6566 9.04735 14.6332C9.76865 12.6099 10.9539 10.7837 12.5082 9.30104C14.0625 7.81836 15.9425 6.72043 17.9975 6.09526C20.0526 5.47009 22.2255 5.33507 24.3422 5.70103C26.4588 6.06698 28.4603 6.92373 30.1861 8.2026C31.912 9.48147 33.3142 11.1469 34.2805 13.0653C35.2467 14.9838 35.75 17.102 35.7501 19.25C35.7501 26.8439 30.2501 31.625 24.7501 31.625C19.2501 31.625 17.5947 28.0042 17.5947 28.0042" stroke="white" stroke-width="1.5" stroke-linecap="round" stroke-linejoin="round"/>
</g>
</svg>
