<svg width="44" height="44" viewBox="0 0 44 44" fill="none" xmlns="http://www.w3.org/2000/svg">
<g opacity="0.3">
<path d="M21.9997 15.1255C21.9998 13.5459 22.5438 12.0145 23.5402 10.7888C24.5366 9.5631 25.9246 8.71782 27.4709 8.39507C29.0172 8.07232 30.6274 8.29179 32.0309 9.01659C33.4344 9.74138 34.5456 10.9273 35.1776 12.3749L41.2497 12.375L35.7046 17.9201C35.3435 23.4974 32.8734 28.7283 28.7958 32.5505C24.7181 36.3728 19.3387 38.4999 13.7497 38.5C8.24969 38.5 6.87469 36.4375 6.87469 36.4375C6.87469 36.4375 12.3747 34.375 15.1247 30.25C15.1247 30.25 4.12469 24.75 6.87469 9.62501C6.87469 9.62501 13.7497 16.5 21.9973 17.875L21.9997 15.1255Z" stroke="white" stroke-width="1.5" stroke-linecap="round" stroke-linejoin="round"/>
</g>
</svg>
