<svg width="15" height="15" viewBox="0 0 15 15" fill="none" xmlns="http://www.w3.org/2000/svg">
<g opacity="0.3">
<path d="M7.50007 5.15642C7.50012 4.61792 7.68558 4.09586 8.02525 3.678C8.36493 3.26015 8.83811 2.97198 9.36525 2.86196C9.89239 2.75193 10.4413 2.82675 10.9198 3.07384C11.3983 3.32092 11.7771 3.72521 11.9925 4.21873L14.0626 4.21875L12.1722 6.10913C12.0491 8.01049 11.207 9.79373 9.81691 11.0968C8.42681 12.3998 6.59291 13.125 4.68757 13.125C2.81257 13.125 2.34382 12.4219 2.34382 12.4219C2.34382 12.4219 4.21882 11.7188 5.15632 10.3125C5.15632 10.3125 1.40632 8.4375 2.34382 3.28125C2.34382 3.28125 4.68757 5.625 7.49926 6.09375L7.50007 5.15642Z" stroke="white" stroke-width="1.5" stroke-linecap="round" stroke-linejoin="round"/>
</g>
</svg>
