<svg width="15" height="15" viewBox="0 0 15 15" fill="none" xmlns="http://www.w3.org/2000/svg">
<g opacity="0.3">
<path d="M9.375 7.5L6.5625 5.625V9.375L9.375 7.5Z" stroke="white" stroke-width="1.5" stroke-linecap="round" stroke-linejoin="round"/>
<path d="M1.40625 7.5001C1.40625 9.24359 1.58638 10.2665 1.72331 10.7923C1.75991 10.9359 1.8302 11.0687 1.92835 11.1797C2.02651 11.2907 2.1497 11.3767 2.28773 11.4306C4.24927 12.1844 7.5 12.1637 7.5 12.1637C7.5 12.1637 10.7507 12.1844 12.7123 11.4306C12.8503 11.3767 12.9735 11.2907 13.0716 11.1797C13.1698 11.0687 13.2401 10.9359 13.2767 10.7923C13.4136 10.2666 13.5938 9.24359 13.5938 7.5001C13.5938 5.75662 13.4136 4.73367 13.2767 4.20792C13.2401 4.06433 13.1698 3.93153 13.0716 3.82052C12.9735 3.70951 12.8503 3.62349 12.7123 3.56958C10.7507 2.81578 7.5 2.83648 7.5 2.83648C7.5 2.83648 4.2493 2.81578 2.28775 3.56957C2.14972 3.62348 2.02653 3.7095 1.92837 3.82051C1.83021 3.93152 1.75992 4.06432 1.72332 4.20791C1.58638 4.73366 1.40625 5.75662 1.40625 7.5001Z" stroke="white" stroke-width="1.5" stroke-linecap="round" stroke-linejoin="round"/>
</g>
</svg>
