<svg width="52" height="52" viewBox="0 0 52 52" fill="none" xmlns="http://www.w3.org/2000/svg">
<circle cx="26" cy="26" r="26" fill="black"/>
<path d="M18.2589 30.5936C17.1408 28.7086 16.7492 26.4802 17.1577 24.3269C17.5662 22.1737 18.7468 20.2436 20.4776 18.8991C22.2085 17.5546 24.3707 16.8883 26.5581 17.0251C28.7455 17.162 30.8078 18.0927 32.3575 19.6425C33.9073 21.1923 34.838 23.2545 34.9749 25.4419C35.1118 27.6293 34.4455 29.7915 33.101 31.5224C31.7565 33.2533 29.8264 34.4338 27.6732 34.8424C25.5199 35.2509 23.2915 34.8593 21.4065 33.7411L21.4065 33.741L18.2981 34.6292C18.1695 34.6659 18.0334 34.6676 17.9039 34.634C17.7744 34.6005 17.6563 34.5329 17.5617 34.4384C17.4671 34.3438 17.3996 34.2256 17.366 34.0961C17.3325 33.9667 17.3341 33.8306 17.3709 33.702L18.259 30.5935L18.2589 30.5936Z" stroke="white" stroke-width="1.5" stroke-linecap="round" stroke-linejoin="round"/>
<path d="M26 27.125C26.6213 27.125 27.125 26.6213 27.125 26C27.125 25.3787 26.6213 24.875 26 24.875C25.3787 24.875 24.875 25.3787 24.875 26C24.875 26.6213 25.3787 27.125 26 27.125Z" fill="white"/>
<path d="M21.5 27.125C22.1213 27.125 22.625 26.6213 22.625 26C22.625 25.3787 22.1213 24.875 21.5 24.875C20.8787 24.875 20.375 25.3787 20.375 26C20.375 26.6213 20.8787 27.125 21.5 27.125Z" fill="white"/>
<path d="M30.5 27.125C31.1213 27.125 31.625 26.6213 31.625 26C31.625 25.3787 31.1213 24.875 30.5 24.875C29.8787 24.875 29.375 25.3787 29.375 26C29.375 26.6213 29.8787 27.125 30.5 27.125Z" fill="white"/>
</svg>
