<svg width="16" height="16" viewBox="0 0 16 16" fill="none" xmlns="http://www.w3.org/2000/svg">
<path d="M11.498 2H4.49805C4.23292 2.0003 3.97875 2.10576 3.79128 2.29323C3.6038 2.4807 3.49835 2.73488 3.49805 3V14C3.49805 14.0893 3.52195 14.1769 3.56725 14.2538C3.61255 14.3307 3.67761 14.394 3.75568 14.4373C3.83374 14.4806 3.92196 14.5022 4.01118 14.4998C4.1004 14.4975 4.18737 14.4713 4.26306 14.424L7.99762 12.0896L11.7331 14.424C11.8087 14.4713 11.8957 14.4975 11.9849 14.4998C12.0742 14.5022 12.1624 14.4806 12.2404 14.4373C12.3185 14.3941 12.3836 14.3307 12.4289 14.2538C12.4742 14.1769 12.498 14.0893 12.498 14V3C12.4977 2.73488 12.3923 2.4807 12.2048 2.29323C12.0173 2.10576 11.7632 2.0003 11.498 2Z" fill="#ED462E"/>
</svg>
