<svg width="22" height="20" viewBox="0 0 22 20" fill="none" xmlns="http://www.w3.org/2000/svg">
<path fill-rule="evenodd" clip-rule="evenodd" d="M10.2268 18.7061C10.4408 18.8957 10.7153 19 11 19C11.2846 19 11.5592 18.8957 11.773 18.7064C12.5828 17.99 13.363 17.3173 14.0515 16.724L14.0517 16.7237C16.0662 14.987 17.8059 13.4872 19.0165 12.0094C20.3698 10.3576 21 8.79138 21 7.08032C21 5.41788 20.4366 3.88418 19.4135 2.76153C18.3782 1.62561 16.9575 1 15.413 1C14.2585 1 13.2012 1.36922 12.2706 2.09733C11.8008 2.46486 11.3752 2.91466 11 3.43932C10.6249 2.91466 10.1992 2.46486 9.72955 2.09733C8.79892 1.36922 7.74164 1 6.58716 1C5.04251 1 3.62192 1.62561 2.58661 2.76153C1.56351 3.88418 1 5.41788 1 7.08032C1 8.79138 1.63034 10.3576 2.98364 12.0096C4.19427 13.4873 5.93423 14.9873 7.94916 16.7243L7.95267 16.7274C8.63992 17.3198 9.41888 17.9914 10.2268 18.7061ZM3.30118 3.41238C4.12793 2.50156 5.26438 2 6.50148 2C7.40756 2 8.2396 2.29265 8.97427 2.86974C9.62913 3.38426 10.0852 4.03467 10.3524 4.48976C10.4899 4.72379 10.732 4.86348 11 4.86348C11.268 4.86348 11.5101 4.72379 11.6476 4.48976C11.9149 4.03467 12.371 3.38426 13.0257 2.86974C13.7604 2.29265 14.5924 2 15.4987 2C16.7356 2 17.8722 2.50156 18.6988 3.41238C19.5379 4.33696 20 5.61502 20 7.01129C20 8.48451 19.461 9.80208 18.2527 11.2834C17.0857 12.7139 15.3506 14.2162 13.3415 15.9557L13.3361 15.9604C12.6314 16.5702 11.833 17.2616 10.9983 18C10.1686 17.263 9.37139 16.5728 8.66814 15.9639L8.66441 15.9608L8.66324 15.9597C6.65215 14.2186 4.91526 12.7149 3.74746 11.2834C2.53898 9.80208 2 8.48451 2 7.01129C2 5.61502 2.46214 4.33696 3.30118 3.41238Z" fill="#F38F31"/>
<path d="M10.2268 18.7061L10.3263 18.5938L10.3262 18.5938L10.2268 18.7061ZM11.773 18.7064L11.6736 18.5941L11.6736 18.5941L11.773 18.7064ZM14.0515 16.724L13.9537 16.6102L13.9535 16.6104L14.0515 16.724ZM14.0517 16.7237L14.1494 16.8376L14.1497 16.8374L14.0517 16.7237ZM19.0165 12.0094L18.9005 11.9144L18.9005 11.9144L19.0165 12.0094ZM19.4135 2.76153L19.5244 2.6605L19.5244 2.66049L19.4135 2.76153ZM12.2706 2.09733L12.363 2.21548L12.363 2.21547L12.2706 2.09733ZM11 3.43932L10.878 3.52655L11 3.69722L11.122 3.52658L11 3.43932ZM9.72955 2.09733L9.82199 1.9792L9.82198 1.97919L9.72955 2.09733ZM2.58661 2.76153L2.47575 2.66049L2.47574 2.6605L2.58661 2.76153ZM2.98364 12.0096L2.86761 12.1046L2.86761 12.1046L2.98364 12.0096ZM7.94916 16.7243L8.04823 16.6117L8.0471 16.6107L7.94916 16.7243ZM7.95267 16.7274L7.85359 16.84L7.85473 16.841L7.95267 16.7274ZM3.30118 3.41238L3.19011 3.31157L3.1901 3.31158L3.30118 3.41238ZM8.97427 2.86974L9.06694 2.75179L9.06692 2.75178L8.97427 2.86974ZM10.3524 4.48976L10.2231 4.56572L10.2231 4.56575L10.3524 4.48976ZM11.6476 4.48976L11.7769 4.56575L11.7769 4.56575L11.6476 4.48976ZM13.0257 2.86974L12.9331 2.75178L12.9331 2.7518L13.0257 2.86974ZM18.6988 3.41238L18.8099 3.31158L18.8099 3.31158L18.6988 3.41238ZM18.2527 11.2834L18.3689 11.3782L18.3689 11.3782L18.2527 11.2834ZM13.3415 15.9557L13.2433 15.8423L13.2433 15.8423L13.3415 15.9557ZM13.3361 15.9604L13.4342 16.0739L13.4342 16.0738L13.3361 15.9604ZM10.9983 18L10.8987 18.1121L10.9981 18.2005L11.0977 18.1123L10.9983 18ZM8.66814 15.9639L8.76633 15.8505L8.76506 15.8494L8.66814 15.9639ZM8.66441 15.9608L8.56621 16.0742L8.56749 16.0752L8.66441 15.9608ZM8.66324 15.9597L8.76143 15.8463L8.76142 15.8463L8.66324 15.9597ZM3.74746 11.2834L3.86369 11.1885L3.86368 11.1885L3.74746 11.2834ZM11 18.85C10.7521 18.85 10.5129 18.7592 10.3263 18.5938L10.1274 18.8184C10.3686 19.0321 10.6785 19.15 11 19.15V18.85ZM11.6736 18.5941C11.4871 18.7592 11.2478 18.85 11 18.85V19.15C11.3214 19.15 11.6313 19.0322 11.8724 18.8187L11.6736 18.5941ZM13.9535 16.6104C13.2651 17.2037 12.4842 17.877 11.6736 18.5941L11.8724 18.8188C12.6814 18.1031 13.4609 17.431 14.1494 16.8376L13.9535 16.6104ZM13.954 16.6099L13.9537 16.6102L14.1492 16.8378L14.1494 16.8376L13.954 16.6099ZM18.9005 11.9144C17.6999 13.3799 15.9716 14.8705 13.9538 16.6101L14.1497 16.8374C16.1608 15.1035 17.9119 13.5945 19.1325 12.1045L18.9005 11.9144ZM20.85 7.08032C20.85 8.74882 20.2374 10.2826 18.9005 11.9144L19.1325 12.1045C20.5022 10.4327 21.15 8.83394 21.15 7.08032H20.85ZM19.3027 2.86257C20.2981 3.95488 20.85 5.45142 20.85 7.08032H21.15C21.15 5.38434 20.5752 3.81348 19.5244 2.6605L19.3027 2.86257ZM15.413 1.15C16.9155 1.15 18.296 1.75801 19.3027 2.86258L19.5244 2.66049C18.4605 1.49321 16.9994 0.85 15.413 0.85V1.15ZM12.363 2.21547C13.2679 1.50748 14.2929 1.15 15.413 1.15V0.85C14.2242 0.85 13.1345 1.23097 12.1782 1.97919L12.363 2.21547ZM11.122 3.52658C11.4896 3.01258 11.9054 2.57345 12.363 2.21548L12.1782 1.97919C11.6962 2.35626 11.2608 2.81673 10.878 3.35206L11.122 3.52658ZM9.63711 2.21546C10.0946 2.57346 10.5106 3.01259 10.878 3.52655L11.122 3.35209C10.7393 2.81672 10.3038 2.35626 9.82199 1.9792L9.63711 2.21546ZM6.58716 1.15C7.70729 1.15 8.7322 1.50748 9.63712 2.21547L9.82198 1.97919C8.86563 1.23097 7.77599 0.85 6.58716 0.85V1.15ZM2.69747 2.86258C3.7042 1.75801 5.08447 1.15 6.58716 1.15V0.85C5.00055 0.85 3.53963 1.49321 2.47575 2.66049L2.69747 2.86258ZM1.15 7.08032C1.15 5.45143 1.70201 3.95489 2.69748 2.86257L2.47574 2.6605C1.425 3.81347 0.85 5.38433 0.85 7.08032H1.15ZM3.09968 11.9145C1.76274 10.2826 1.15 8.74881 1.15 7.08032H0.85C0.85 8.83394 1.49794 10.4327 2.86761 12.1046L3.09968 11.9145ZM8.0471 16.6107C6.02882 14.8708 4.30027 13.3799 3.09967 11.9145L2.86761 12.1046C4.08828 13.5946 5.83965 15.1038 7.85122 16.8379L8.0471 16.6107ZM8.05174 16.6148L8.04823 16.6117L7.85009 16.8369L7.8536 16.84L8.05174 16.6148ZM10.3262 18.5938C9.51745 17.8783 8.7378 17.2061 8.0506 16.6138L7.85473 16.841C8.54205 17.4335 9.32032 18.1045 10.1275 18.8185L10.3262 18.5938ZM6.50148 1.85C5.22236 1.85 4.04548 2.36921 3.19011 3.31157L3.41225 3.5132C4.21038 2.6339 5.30641 2.15 6.50148 2.15V1.85ZM9.06692 2.75178C8.30672 2.15463 7.44227 1.85 6.50148 1.85V2.15C7.37285 2.15 8.17248 2.43067 8.88161 2.9877L9.06692 2.75178ZM10.4818 4.41381C10.2094 3.94996 9.74206 3.28222 9.06694 2.75179L8.88159 2.98769C9.5162 3.48629 9.961 4.11937 10.2231 4.56572L10.4818 4.41381ZM11 4.71348C10.786 4.71348 10.5928 4.60268 10.4818 4.41377L10.2231 4.56575C10.3871 4.84491 10.678 5.01348 11 5.01348V4.71348ZM11.5182 4.41377C11.4072 4.60268 11.214 4.71348 11 4.71348V5.01348C11.322 5.01348 11.6129 4.84491 11.7769 4.56575L11.5182 4.41377ZM12.9331 2.7518C12.2581 3.28223 11.7907 3.94996 11.5182 4.41378L11.7769 4.56575C12.0392 4.11937 12.484 3.48628 13.1184 2.98768L12.9331 2.7518ZM15.4987 1.85C14.5577 1.85 13.6933 2.15463 12.9331 2.75178L13.1184 2.9877C13.8275 2.43068 14.6272 2.15 15.4987 2.15V1.85ZM18.8099 3.31158C17.9547 2.36921 16.7776 1.85 15.4987 1.85V2.15C16.6936 2.15 17.7898 2.6339 18.5877 3.51319L18.8099 3.31158ZM20.15 7.01129C20.15 5.5825 19.677 4.26708 18.8099 3.31158L18.5877 3.51319C19.3987 4.40684 19.85 5.64755 19.85 7.01129H20.15ZM18.3689 11.3782C19.5925 9.8782 20.15 8.52822 20.15 7.01129H19.85C19.85 8.4408 19.3295 9.72596 18.1365 11.1885L18.3689 11.3782ZM13.4397 16.0691C15.4452 14.3327 17.1919 12.821 18.3689 11.3782L18.1365 11.1885C16.9796 12.6067 15.256 14.0997 13.2433 15.8423L13.4397 16.0691ZM13.4342 16.0738L13.4397 16.0691L13.2433 15.8423L13.2379 15.847L13.4342 16.0738ZM11.0977 18.1123C11.9317 17.3745 12.7295 16.6837 13.4342 16.0739L13.2379 15.847C12.5333 16.4568 11.7343 17.1486 10.8989 17.8877L11.0977 18.1123ZM8.56996 16.0773C9.27327 16.6862 10.0698 17.3759 10.8987 18.1121L11.0979 17.8879C10.2674 17.1501 9.4695 16.4593 8.76632 15.8505L8.56996 16.0773ZM8.56749 16.0752L8.57122 16.0784L8.76506 15.8494L8.76133 15.8463L8.56749 16.0752ZM8.56505 16.0731L8.56622 16.0741L8.7626 15.8474L8.76143 15.8463L8.56505 16.0731ZM3.63122 11.3782C4.80909 12.822 6.55756 14.3351 8.56506 16.0731L8.76142 15.8463C6.74675 14.1021 5.02143 12.6078 3.86369 11.1885L3.63122 11.3782ZM1.85 7.01129C1.85 8.52822 2.4075 9.8782 3.63123 11.3782L3.86368 11.1885C2.67046 9.72596 2.15 8.4408 2.15 7.01129H1.85ZM3.1901 3.31158C2.323 4.26708 1.85 5.5825 1.85 7.01129H2.15C2.15 5.64755 2.60128 4.40684 3.41226 3.51319L3.1901 3.31158Z" fill="#F38F31"/>
</svg>
