<svg width="36" height="36" viewBox="0 0 36 36" fill="none" xmlns="http://www.w3.org/2000/svg">
<path fill-rule="evenodd" clip-rule="evenodd" d="M16.9949 29.6245C17.273 29.8667 17.6299 30 18 30C18.3699 30 18.727 29.8667 19.0049 29.6249C20.0576 28.7095 21.0719 27.8499 21.9669 27.0918L21.9672 27.0915C24.5861 24.8723 26.8477 22.9559 28.4215 21.0676C30.1808 18.957 31 16.9556 31 14.7693C31 12.6451 30.2676 10.6853 28.9376 9.25085C27.5917 7.79939 25.7447 7 23.7369 7C22.2361 7 20.8616 7.47179 19.6518 8.40215C19.041 8.87176 18.4878 9.44651 18 10.1169C17.5124 9.44651 16.959 8.87176 16.3484 8.40215C15.1386 7.47179 13.7641 7 12.2633 7C10.2553 7 8.40849 7.79939 7.06259 9.25085C5.73256 10.6853 5 12.6451 5 14.7693C5 16.9556 5.81944 18.957 7.57874 21.0678C9.15256 22.9559 11.4145 24.8727 14.0339 27.0922L14.0385 27.0961C14.9319 27.8531 15.9445 28.7113 16.9949 29.6245ZM7.99134 10.0825C9.06612 8.91865 10.5435 8.27778 12.1517 8.27778C13.3296 8.27778 14.4113 8.65172 15.3664 9.38911C16.2177 10.0465 16.8106 10.8776 17.158 11.4591C17.3367 11.7582 17.6514 11.9367 17.9998 11.9367C18.3482 11.9367 18.6629 11.7582 18.8416 11.4591C19.1892 10.8776 19.7821 10.0465 20.6333 9.38911C21.5883 8.65172 22.67 8.27778 23.8481 8.27778C25.4561 8.27778 26.9337 8.91865 28.0083 10.0825C29.099 11.2639 29.6998 12.897 29.6998 14.6811C29.6998 16.5635 28.9991 18.2471 27.4283 20.1398C25.9113 21.9677 23.6556 23.8873 21.0438 26.11L21.0367 26.1161C20.1206 26.8953 19.0827 27.7787 17.9976 28.7222C16.919 27.7805 15.8826 26.8985 14.9684 26.1206L14.9635 26.1165L14.962 26.1152C12.3476 23.8904 10.0896 21.969 8.5715 20.1398C7.00048 18.2471 6.2998 16.5635 6.2998 14.6811C6.2998 12.897 6.90059 11.2639 7.99134 10.0825Z" fill="#F38F31"/>
<path d="M16.9949 29.6245L17.0934 29.5113L17.0933 29.5113L16.9949 29.6245ZM19.0049 29.6249L18.9065 29.5117L18.9065 29.5117L19.0049 29.6249ZM21.9669 27.0918L22.0638 27.2062L22.0642 27.2059L21.9669 27.0918ZM21.9672 27.0915L21.8703 26.977L21.8699 26.9773L21.9672 27.0915ZM28.4215 21.0676L28.3062 20.9716L28.3062 20.9716L28.4215 21.0676ZM28.9376 9.25085L29.0476 9.14886L29.0476 9.14886L28.9376 9.25085ZM19.6518 8.40215L19.7432 8.52106L19.7432 8.52105L19.6518 8.40215ZM18 10.1169L17.8787 10.2051L18 10.3719L18.1213 10.2052L18 10.1169ZM16.3484 8.40215L16.4399 8.28325L16.4399 8.28324L16.3484 8.40215ZM7.06259 9.25085L6.9526 9.14886L6.9526 9.14886L7.06259 9.25085ZM7.57874 21.0678L7.46351 21.1638L7.46351 21.1638L7.57874 21.0678ZM14.0339 27.0922L14.132 26.9787L14.1309 26.9777L14.0339 27.0922ZM14.0385 27.0961L13.9404 27.2096L13.9415 27.2105L14.0385 27.0961ZM7.99134 10.0825L7.88114 9.98072L7.88113 9.98073L7.99134 10.0825ZM15.3664 9.38911L15.458 9.27039L15.458 9.27038L15.3664 9.38911ZM17.158 11.4591L17.0292 11.5361L17.0292 11.5361L17.158 11.4591ZM18.8416 11.4591L18.9704 11.5361L18.9704 11.5361L18.8416 11.4591ZM20.6333 9.38911L20.5416 9.27038L20.5416 9.2704L20.6333 9.38911ZM28.0083 10.0825L28.1185 9.98073L28.1185 9.98073L28.0083 10.0825ZM27.4283 20.1398L27.5437 20.2356L27.5437 20.2356L27.4283 20.1398ZM21.0438 26.11L20.9466 25.9958L20.9466 25.9958L21.0438 26.11ZM21.0367 26.1161L21.1339 26.2304L21.1339 26.2303L21.0367 26.1161ZM17.9976 28.7222L17.8989 28.8352L17.9974 28.9212L18.096 28.8354L17.9976 28.7222ZM14.9684 26.1206L15.0656 26.0063L15.0643 26.0053L14.9684 26.1206ZM14.9635 26.1165L14.8663 26.2307L14.8676 26.2318L14.9635 26.1165ZM14.962 26.1152L15.0592 26.001L15.0592 26.0009L14.962 26.1152ZM8.5715 20.1398L8.68692 20.044L8.68692 20.044L8.5715 20.1398ZM18 29.85C17.6659 29.85 17.3441 29.7297 17.0934 29.5113L16.8964 29.7376C17.2019 30.0037 17.5938 30.15 18 30.15V29.85ZM18.9065 29.5117C18.656 29.7297 18.3339 29.85 18 29.85V30.15C18.406 30.15 18.798 30.0037 19.1034 29.738L18.9065 29.5117ZM21.8699 26.9773C20.975 27.7354 19.96 28.5956 18.9065 29.5117L19.1033 29.7381C20.1552 28.8234 21.1688 27.9644 22.0638 27.2062L21.8699 26.9773ZM21.8699 26.9773L21.8696 26.9776L22.0642 27.2059L22.0645 27.2056L21.8699 26.9773ZM28.3062 20.9716C26.7426 22.8476 24.4925 24.755 21.8703 26.977L22.0642 27.2059C24.6797 24.9896 26.9528 23.0641 28.5367 21.1636L28.3062 20.9716ZM30.85 14.7693C30.85 16.9123 30.049 18.8808 28.3062 20.9716L28.5367 21.1637C30.3125 19.0332 31.15 16.999 31.15 14.7693H30.85ZM28.8276 9.35283C30.1296 10.7571 30.85 12.6793 30.85 14.7693H31.15C31.15 12.6108 30.4057 10.6136 29.0476 9.14886L28.8276 9.35283ZM23.7369 7.15C25.7037 7.15 27.5106 7.93249 28.8276 9.35284L29.0476 9.14886C27.6729 7.6663 25.7858 6.85 23.7369 6.85V7.15ZM19.7432 8.52105C20.9273 7.61049 22.2697 7.15 23.7369 7.15V6.85C22.2024 6.85 20.7959 7.33309 19.5603 8.28324L19.7432 8.52105ZM18.1213 10.2052C18.6013 9.54543 19.1447 8.98126 19.7432 8.52106L19.5603 8.28323C18.9373 8.76226 18.3742 9.34758 17.8787 10.0287L18.1213 10.2052ZM16.257 8.52104C16.8553 8.98127 17.3989 9.54544 17.8787 10.2051L18.1213 10.0287C17.6259 9.34758 17.0626 8.76226 16.4399 8.28325L16.257 8.52104ZM12.2633 7.15C13.7305 7.15 15.0729 7.61049 16.257 8.52105L16.4399 8.28324C15.2043 7.33309 13.7978 6.85 12.2633 6.85V7.15ZM7.17258 9.35284C8.48964 7.93249 10.2963 7.15 12.2633 7.15V6.85C10.2142 6.85 8.32734 7.6663 6.9526 9.14886L7.17258 9.35284ZM5.15 14.7693C5.15 12.6794 5.87058 10.7571 7.17259 9.35283L6.9526 9.14886C5.59454 10.6136 4.85 12.6108 4.85 14.7693H5.15ZM7.69396 20.9718C5.95121 18.8808 5.15 16.9123 5.15 14.7693H4.85C4.85 16.999 5.68768 19.0332 7.46351 21.1638L7.69396 20.9718ZM14.1309 26.9777C11.5081 24.7553 9.25763 22.8477 7.69396 20.9718L7.46351 21.1638C9.04748 23.0642 11.3209 24.99 13.9369 27.2066L14.1309 26.9777ZM14.1366 26.9826L14.132 26.9787L13.9358 27.2056L13.9404 27.2096L14.1366 26.9826ZM17.0933 29.5113C16.0421 28.5974 15.0288 27.7386 14.1354 26.9817L13.9415 27.2105C14.835 27.9676 15.847 28.8252 16.8965 29.7377L17.0933 29.5113ZM12.1517 8.12778C10.5024 8.12778 8.9848 8.78561 7.88114 9.98072L8.10154 10.1843C9.14743 9.05169 10.5846 8.42778 12.1517 8.42778V8.12778ZM15.458 9.27038C14.4774 8.51325 13.3637 8.12778 12.1517 8.12778V8.42778C13.2956 8.42778 14.3452 8.79019 15.2747 9.50784L15.458 9.27038ZM17.2868 11.3822C16.9341 10.7918 16.3297 9.94355 15.458 9.27039L15.2747 9.50783C16.1056 10.1495 16.6871 10.9634 17.0292 11.5361L17.2868 11.3822ZM17.9998 11.7867C17.7042 11.7867 17.4384 11.6359 17.2867 11.3822L17.0292 11.5361C17.2351 11.8804 17.5986 12.0867 17.9998 12.0867V11.7867ZM18.7129 11.3822C18.5612 11.6359 18.2954 11.7867 17.9998 11.7867V12.0867C18.401 12.0867 18.7645 11.8804 18.9704 11.5361L18.7129 11.3822ZM20.5416 9.2704C19.6701 9.94356 19.0658 10.7918 18.7129 11.3822L18.9704 11.5361C19.3127 10.9634 19.8942 10.1495 20.725 9.50782L20.5416 9.2704ZM23.8481 8.12778C22.6359 8.12778 21.5222 8.51325 20.5416 9.27038L20.7249 9.50784C21.6544 8.79019 22.704 8.42778 23.8481 8.42778V8.12778ZM28.1185 9.98073C27.015 8.78561 25.4972 8.12778 23.8481 8.12778V8.42778C25.415 8.42778 26.8524 9.0517 27.8981 10.1842L28.1185 9.98073ZM29.8498 14.6811C29.8498 12.8637 29.2377 11.193 28.1185 9.98073L27.8981 10.1842C28.9604 11.3348 29.5498 12.9302 29.5498 14.6811H29.8498ZM27.5437 20.2356C29.13 18.3243 29.8498 16.608 29.8498 14.6811H29.5498C29.5498 16.519 28.8683 18.1699 27.3129 20.0441L27.5437 20.2356ZM21.141 26.2243C23.7492 24.0046 26.0165 22.0758 27.5437 20.2356L27.3129 20.044C25.806 21.8597 23.562 23.77 20.9466 25.9958L21.141 26.2243ZM21.1339 26.2303L21.141 26.2243L20.9466 25.9958L20.9394 26.0019L21.1339 26.2303ZM18.096 28.8354C19.1804 27.8925 20.2178 27.0096 21.1339 26.2304L20.9395 26.0019C20.0235 26.781 18.9849 27.6649 17.8992 28.609L18.096 28.8354ZM14.8712 26.2348C15.7855 27.0128 16.8211 27.8942 17.8989 28.8352L18.0962 28.6092C17.0168 27.6668 15.9798 26.7842 15.0656 26.0063L14.8712 26.2348ZM14.8676 26.2318L14.8724 26.2359L15.0643 26.0053L15.0595 26.0012L14.8676 26.2318ZM14.8647 26.2294L14.8663 26.2307L15.0608 26.0023L15.0592 26.001L14.8647 26.2294ZM8.45607 20.2356C9.98438 22.0771 12.254 24.0078 14.8648 26.2294L15.0592 26.0009C12.4412 23.7731 10.1949 21.861 8.68692 20.044L8.45607 20.2356ZM6.1498 14.6811C6.1498 16.608 6.86966 18.3243 8.45608 20.2356L8.68692 20.044C7.13131 18.1699 6.4498 16.519 6.4498 14.6811H6.1498ZM7.88113 9.98073C6.76192 11.193 6.1498 12.8637 6.1498 14.6811H6.4498C6.4498 12.9302 7.03926 11.3348 8.10155 10.1842L7.88113 9.98073Z" fill="#F38F31"/>
</svg>
