<svg width="55" height="50" viewBox="0 0 55 50" fill="none" xmlns="http://www.w3.org/2000/svg">
<path fill-rule="evenodd" clip-rule="evenodd" d="M25.4511 48.2163C26.018 48.7217 26.7455 49 27.5 49C28.2541 49 28.982 48.7217 29.5485 48.2171C31.6944 46.3068 33.7619 44.5129 35.5863 42.9306L35.5871 42.93C40.9255 38.2987 45.5357 34.2992 48.7438 30.3585C52.33 25.9537 54 21.777 54 17.2142C54 12.781 52.5071 8.69115 49.7959 5.69742C47.0523 2.6683 43.2873 1 39.1944 1C36.1351 1 33.3333 1.9846 30.8671 3.92622C29.6221 4.90629 28.4943 6.10575 27.5 7.50485C26.5061 6.10575 25.3779 4.90629 24.1333 3.92622C21.6671 1.9846 18.8653 1 15.806 1C11.7127 1 7.94808 2.6683 5.20451 5.69742C2.49329 8.69115 1 12.781 1 17.2142C1 21.777 2.6704 25.9537 6.25665 30.3589C9.46483 34.2994 14.0757 38.2995 19.4153 42.9315L19.4246 42.9397C21.2458 44.5195 23.31 46.3105 25.4511 48.2163ZM7.09813 7.43302C9.28902 5.00415 12.3006 3.66667 15.5789 3.66667C17.98 3.66667 20.1849 4.44707 22.1318 5.98598C23.8672 7.35801 25.0758 9.09244 25.784 10.306C26.1484 10.9301 26.7898 11.3026 27.5 11.3026C28.2102 11.3026 28.8516 10.9301 29.216 10.306C29.9246 9.09244 31.1332 7.35801 32.8682 5.98598C34.8151 4.44707 37.02 3.66667 39.4215 3.66667C42.6994 3.66667 45.7114 5.00415 47.9019 7.43302C50.1253 9.89855 51.35 13.3067 51.35 17.0301C51.35 20.9587 49.9217 24.4722 46.7197 28.4223C43.6272 32.237 39.0292 36.2431 33.705 40.8819L33.6906 40.8945C31.8232 42.5206 29.7074 44.3642 27.4955 46.3333C25.2967 44.368 23.1842 42.5274 21.3206 40.9038L21.3107 40.8953L21.3075 40.8926C15.9782 36.2497 11.3754 32.2397 8.28076 28.4223C5.0783 24.4722 3.65 20.9587 3.65 17.0301C3.65 13.3067 4.87467 9.89855 7.09813 7.43302Z" fill="#F38F31"/>
<path d="M25.4511 48.2163L25.5509 48.1043L25.5508 48.1042L25.4511 48.2163ZM29.5485 48.2171L29.4487 48.1051L29.4487 48.1051L29.5485 48.2171ZM35.5863 42.9306L35.4882 42.8172L35.4881 42.8173L35.5863 42.9306ZM35.5871 42.93L35.6853 43.0434L35.6854 43.0433L35.5871 42.93ZM48.7438 30.3585L48.6274 30.2638L48.6274 30.2638L48.7438 30.3585ZM49.7959 5.69742L49.9071 5.59673L49.9071 5.59673L49.7959 5.69742ZM30.8671 3.92622L30.9599 4.04408L30.9599 4.04407L30.8671 3.92622ZM27.5 7.50485L27.3777 7.59172L27.5 7.76383L27.6223 7.59175L27.5 7.50485ZM24.1333 3.92622L24.2261 3.80837L24.2261 3.80836L24.1333 3.92622ZM5.20451 5.69742L5.09334 5.59673L5.09333 5.59673L5.20451 5.69742ZM6.25665 30.3589L6.14033 30.4536L6.14033 30.4536L6.25665 30.3589ZM19.4153 42.9315L19.5147 42.8191L19.5136 42.8182L19.4153 42.9315ZM19.4246 42.9397L19.3251 43.052L19.3263 43.053L19.4246 42.9397ZM7.09813 7.43302L6.98675 7.33255L6.98673 7.33256L7.09813 7.43302ZM22.1318 5.98598L22.2248 5.86831L22.2248 5.8683L22.1318 5.98598ZM25.784 10.306L25.6544 10.3816L25.6544 10.3817L25.784 10.306ZM29.216 10.306L29.3456 10.3817V10.3817L29.216 10.306ZM32.8682 5.98598L32.7752 5.8683L32.7752 5.86832L32.8682 5.98598ZM47.9019 7.43302L48.0133 7.33256V7.33256L47.9019 7.43302ZM46.7197 28.4223L46.8362 28.5168L46.8362 28.5167L46.7197 28.4223ZM33.705 40.8819L33.6065 40.7688L33.705 40.8819ZM33.6906 40.8945L33.7891 41.0076L33.7891 41.0076L33.6906 40.8945ZM27.4955 46.3333L27.3955 46.4452L27.4953 46.5343L27.5952 46.4454L27.4955 46.3333ZM21.3206 40.9038L21.4191 40.7907L21.4178 40.7896L21.3206 40.9038ZM21.3107 40.8953L21.212 41.0084L21.2134 41.0095L21.3107 40.8953ZM21.3075 40.8926L21.4062 40.7796L21.4061 40.7795L21.3075 40.8926ZM8.28076 28.4223L8.39728 28.3278L8.39727 28.3278L8.28076 28.4223ZM27.5 48.85C26.7826 48.85 26.0906 48.5855 25.5509 48.1043L25.3513 48.3282C25.9455 48.858 26.7084 49.15 27.5 49.15V48.85ZM29.4487 48.1051C28.9095 48.5854 28.2171 48.85 27.5 48.85V49.15C28.2912 49.15 29.0545 48.858 29.6483 48.3291L29.4487 48.1051ZM35.4881 42.8173C33.6637 44.3996 31.5955 46.194 29.4487 48.1051L29.6482 48.3291C31.7933 46.4195 33.8601 44.6263 35.6846 43.044L35.4881 42.8173ZM35.4889 42.8166L35.4882 42.8172L35.6845 43.0441L35.6853 43.0434L35.4889 42.8166ZM48.6274 30.2638C45.4294 34.1922 40.8306 38.1825 35.4888 42.8167L35.6854 43.0433C41.0205 38.4149 45.6421 34.4061 48.8601 30.4532L48.6274 30.2638ZM53.85 17.2142C53.85 21.7347 52.1974 25.8791 48.6274 30.2638L48.8601 30.4532C52.4626 26.0284 54.15 21.8193 54.15 17.2142H53.85ZM49.6847 5.79811C52.3684 8.76147 53.85 12.8143 53.85 17.2142H54.15C54.15 12.7477 52.6458 8.62083 49.9071 5.59673L49.6847 5.79811ZM39.1944 1.15C43.2451 1.15 46.9696 2.80044 49.6847 5.79812L49.9071 5.59673C47.135 2.53616 43.3296 0.85 39.1944 0.85V1.15ZM30.9599 4.04407C33.4004 2.12269 36.1697 1.15 39.1944 1.15V0.85C36.1005 0.85 33.2662 1.84651 30.7743 3.80836L30.9599 4.04407ZM27.6223 7.59175C28.609 6.20331 29.727 5.01455 30.9599 4.04408L30.7743 3.80835C29.5171 4.79802 28.3796 6.00819 27.3777 7.41796L27.6223 7.59175ZM24.0405 4.04407C25.273 5.01455 26.3914 6.20332 27.3777 7.59172L27.6223 7.41798C26.6208 6.00818 25.4829 4.79802 24.2261 3.80837L24.0405 4.04407ZM15.806 1.15C18.8307 1.15 21.6 2.12269 24.0405 4.04407L24.2261 3.80836C21.7342 1.84651 18.8999 0.85 15.806 0.85V1.15ZM5.31569 5.79812C8.03078 2.80044 11.7549 1.15 15.806 1.15V0.85C11.6704 0.85 7.86539 2.53616 5.09334 5.59673L5.31569 5.79812ZM1.15 17.2142C1.15 12.8143 2.63197 8.76147 5.3157 5.79811L5.09333 5.59673C2.35461 8.62082 0.85 12.7477 0.85 17.2142H1.15ZM6.37298 30.2642C2.80303 25.879 1.15 21.7347 1.15 17.2142H0.85C0.85 21.8193 2.53778 26.0284 6.14033 30.4536L6.37298 30.2642ZM19.5136 42.8182C14.1707 38.1833 9.57116 34.1924 6.37297 30.2642L6.14033 30.4536C9.3585 34.4063 13.9808 38.4157 19.317 43.0448L19.5136 42.8182ZM19.524 42.8274L19.5147 42.8191L19.3158 43.0438L19.3251 43.052L19.524 42.8274ZM25.5508 48.1042C23.409 46.1977 21.344 44.4061 19.5229 42.8264L19.3263 43.053C21.1476 44.6329 23.2111 46.4232 25.3514 48.3283L25.5508 48.1042ZM15.5789 3.51667C12.2583 3.51667 9.20615 4.87207 6.98675 7.33255L7.20951 7.53349C9.37189 5.13623 12.343 3.81667 15.5789 3.81667V3.51667ZM22.2248 5.8683C20.2524 4.30922 18.015 3.51667 15.5789 3.51667V3.81667C17.9451 3.81667 20.1174 4.58493 22.0388 6.10366L22.2248 5.8683ZM25.9135 10.2304C25.2003 9.00813 23.9805 7.25633 22.2248 5.86831L22.0388 6.10365C23.754 7.45969 24.9513 9.17676 25.6544 10.3816L25.9135 10.2304ZM27.5 11.1526C26.8442 11.1526 26.2516 10.8094 25.9135 10.2304L25.6544 10.3817C26.0451 11.0508 26.7353 11.4526 27.5 11.4526V11.1526ZM29.0865 10.2304C28.7484 10.8094 28.1558 11.1526 27.5 11.1526V11.4526C28.2647 11.4526 28.9549 11.0508 29.3456 10.3817L29.0865 10.2304ZM32.7752 5.86832C31.02 7.25634 29.8001 9.00813 29.0865 10.2304L29.3456 10.3817C30.0491 9.17676 31.2465 7.45969 32.9612 6.10364L32.7752 5.86832ZM39.4215 3.51667C36.985 3.51667 34.7476 4.30922 32.7752 5.8683L32.9612 6.10366C34.8825 4.58493 37.0549 3.81667 39.4215 3.81667V3.51667ZM48.0133 7.33256C45.7943 4.87206 42.7417 3.51667 39.4215 3.51667V3.81667C42.657 3.81667 45.6285 5.13623 47.7905 7.53348L48.0133 7.33256ZM51.5 17.0301C51.5 13.2745 50.2646 9.82905 48.0133 7.33256L47.7905 7.53348C49.986 9.96806 51.2 13.339 51.2 17.0301H51.5ZM46.8362 28.5167C50.0534 24.5479 51.5 21.0021 51.5 17.0301H51.2C51.2 20.9153 49.79 24.3965 46.6031 28.3278L46.8362 28.5167ZM33.8036 40.995C39.1241 36.3593 43.7337 32.3438 46.8362 28.5168L46.6031 28.3278C43.5207 32.1302 38.9342 36.1269 33.6065 40.7688L33.8036 40.995ZM33.7891 41.0076L33.8036 40.995L33.6065 40.7688L33.592 40.7814L33.7891 41.0076ZM27.5952 46.4454C29.8064 44.4768 31.9217 42.6338 33.7891 41.0076L33.592 40.7814C31.7248 42.4075 29.6083 44.2515 27.3957 46.2213L27.5952 46.4454ZM21.222 41.0169C23.0857 42.6405 25.1976 44.4805 27.3955 46.4452L27.5954 46.2215C25.3959 44.2554 23.2826 42.4142 21.4191 40.7907L21.222 41.0169ZM21.2134 41.0095L21.2233 41.0179L21.4178 40.7896L21.408 40.7812L21.2134 41.0095ZM21.2089 41.0056L21.2121 41.0084L21.4093 40.7823L21.4062 40.7796L21.2089 41.0056ZM8.16423 28.5168C11.2689 32.3465 15.8832 36.3659 21.209 41.0057L21.4061 40.7795C16.0732 36.1335 11.4819 32.1329 8.39728 28.3278L8.16423 28.5168ZM3.5 17.0301C3.5 21.0021 4.94659 24.5479 8.16424 28.5168L8.39727 28.3278C5.21002 24.3965 3.8 20.9153 3.8 17.0301H3.5ZM6.98673 7.33256C4.73537 9.82905 3.5 13.2745 3.5 17.0301H3.8C3.8 13.339 5.01398 9.96806 7.20952 7.53348L6.98673 7.33256Z" fill="#F38F31"/>
</svg>
